<svg width="735" height="370" viewBox="0 0 735 370" fill="none" xmlns="http://www.w3.org/2000/svg">
<rect x="0.610352" width="734" height="370" rx="20" fill="#F7F7F7"/>
<path d="M47.2624 88V64.03H68.2404V88H63.8884V67.6H51.5804V88H47.2624ZM81.176 88.34C79.408 88.34 77.878 87.9773 76.586 87.252C75.294 86.5267 74.2854 85.4953 73.56 84.158C72.8574 82.8207 72.506 81.234 72.506 79.398C72.506 77.562 72.8574 75.9867 73.56 74.672C74.2854 73.3347 75.294 72.3033 76.586 71.578C77.878 70.8527 79.408 70.49 81.176 70.49C82.944 70.49 84.474 70.8527 85.766 71.578C87.0807 72.3033 88.0894 73.3347 88.792 74.672C89.5174 75.9867 89.88 77.562 89.88 79.398C89.88 81.234 89.5174 82.8207 88.792 84.158C88.0894 85.4953 87.0807 86.5267 85.766 87.252C84.474 87.9773 82.944 88.34 81.176 88.34ZM81.176 85.076C82.5134 85.076 83.5787 84.6113 84.372 83.682C85.1654 82.73 85.562 81.302 85.562 79.398C85.562 77.494 85.1654 76.0773 84.372 75.148C83.5787 74.2187 82.5134 73.754 81.176 73.754C79.8387 73.754 78.7734 74.2187 77.98 75.148C77.1867 76.0773 76.79 77.494 76.79 79.398C76.79 81.302 77.1867 82.73 77.98 83.682C78.7734 84.6113 79.8387 85.076 81.176 85.076ZM93.1331 88.476L91.8071 85.144C92.5551 84.872 93.1785 84.5207 93.6771 84.09C94.1985 83.6367 94.6065 83.07 94.9011 82.39C95.2185 81.6873 95.4451 80.826 95.5811 79.806C95.7171 78.7633 95.7851 77.528 95.7851 76.1V70.83H109.453V88H105.237V74.094H99.6611V76.236C99.6611 78.7067 99.4345 80.7807 98.9811 82.458C98.5278 84.1127 97.8251 85.4273 96.8731 86.402C95.9211 87.3767 94.6745 88.068 93.1331 88.476ZM114.09 95.718L113.104 92.352C114.169 92.1253 115.065 91.8647 115.79 91.57C116.515 91.2753 117.116 90.89 117.592 90.414C118.068 89.938 118.465 89.326 118.782 88.578L119.632 86.572L119.53 88.238L112.05 70.83H116.572L121.944 84.226H120.958L126.364 70.83H130.648L122.828 88.952C122.307 90.176 121.74 91.1847 121.128 91.978C120.516 92.794 119.859 93.44 119.156 93.916C118.453 94.4147 117.683 94.8 116.844 95.072C116.005 95.344 115.087 95.5593 114.09 95.718ZM144.134 88V81.744C143.499 82.0387 142.842 82.2653 142.162 82.424C141.482 82.5827 140.768 82.662 140.02 82.662C137.504 82.662 135.622 82.0613 134.376 80.86C133.152 79.6587 132.54 77.868 132.54 75.488V70.83H136.756V75.114C136.756 76.5647 137.073 77.6187 137.708 78.276C138.342 78.9107 139.362 79.228 140.768 79.228C141.425 79.228 142.014 79.16 142.536 79.024C143.057 78.888 143.556 78.6727 144.032 78.378V70.83H148.248V88H144.134ZM159.841 88.34C158.345 88.34 157.03 87.9887 155.897 87.286C154.764 86.5607 153.88 85.5293 153.245 84.192C152.61 82.8547 152.293 81.2567 152.293 79.398C152.293 77.5393 152.61 75.9527 153.245 74.638C153.88 73.3007 154.764 72.2807 155.897 71.578C157.03 70.8527 158.345 70.49 159.841 70.49C161.292 70.49 162.561 70.8527 163.649 71.578C164.76 72.2807 165.496 73.2327 165.859 74.434H165.485L165.859 70.83H169.939C169.871 71.5327 169.803 72.2467 169.735 72.972C169.69 73.6973 169.667 74.4113 169.667 75.114V88H165.451L165.417 84.464H165.825C165.462 85.6427 164.726 86.5833 163.615 87.286C162.504 87.9887 161.246 88.34 159.841 88.34ZM161.031 85.076C162.368 85.076 163.445 84.6113 164.261 83.682C165.077 82.73 165.485 81.302 165.485 79.398C165.485 77.494 165.077 76.0773 164.261 75.148C163.445 74.2187 162.368 73.754 161.031 73.754C159.694 73.754 158.617 74.2187 157.801 75.148C156.985 76.0773 156.577 77.494 156.577 79.398C156.577 81.302 156.974 82.73 157.767 83.682C158.583 84.6113 159.671 85.076 161.031 85.076ZM174.624 88V70.83H178.466V83.818H177.446L187.204 70.83H190.706V88H186.864V74.978H187.918L178.126 88H174.624ZM182.648 69.266C181.515 69.266 180.517 69.0847 179.656 68.722C178.795 68.3367 178.081 67.804 177.514 67.124C176.947 66.4213 176.539 65.594 176.29 64.642L178.466 63.894C178.851 64.9367 179.384 65.7073 180.064 66.206C180.744 66.682 181.617 66.92 182.682 66.92C183.747 66.92 184.62 66.682 185.3 66.206C185.98 65.73 186.535 64.9707 186.966 63.928L189.04 64.642C188.564 66.1607 187.771 67.3167 186.66 68.11C185.572 68.8807 184.235 69.266 182.648 69.266ZM199.248 88V74.162H193.366V70.83H209.38V74.162H203.464V88H199.248ZM220.277 88.34C217.398 88.34 215.143 87.5467 213.511 85.96C211.879 84.3733 211.063 82.1973 211.063 79.432C211.063 77.6413 211.414 76.0773 212.117 74.74C212.819 73.4027 213.794 72.36 215.041 71.612C216.31 70.864 217.783 70.49 219.461 70.49C221.115 70.49 222.498 70.8413 223.609 71.544C224.719 72.2467 225.558 73.2327 226.125 74.502C226.714 75.7713 227.009 77.256 227.009 78.956V80.078H214.497V77.834H223.983L223.405 78.31C223.405 76.7233 223.065 75.5107 222.385 74.672C221.727 73.8333 220.764 73.414 219.495 73.414C218.089 73.414 217.001 73.9127 216.231 74.91C215.483 75.9073 215.109 77.3013 215.109 79.092V79.534C215.109 81.3927 215.562 82.7867 216.469 83.716C217.398 84.6227 218.701 85.076 220.379 85.076C221.353 85.076 222.26 84.9513 223.099 84.702C223.96 84.43 224.776 83.9993 225.547 83.41L226.805 86.266C225.989 86.9233 225.014 87.4333 223.881 87.796C222.747 88.1587 221.546 88.34 220.277 88.34ZM247.033 88.34C245.537 88.34 244.222 87.9887 243.089 87.286C241.955 86.5607 241.071 85.5293 240.437 84.192C239.802 82.8547 239.485 81.2567 239.485 79.398C239.485 77.5393 239.802 75.9527 240.437 74.638C241.071 73.3007 241.955 72.2807 243.089 71.578C244.222 70.8527 245.537 70.49 247.033 70.49C248.483 70.49 249.753 70.8527 250.841 71.578C251.951 72.2807 252.688 73.2327 253.051 74.434H252.677L253.051 70.83H257.131C257.063 71.5327 256.995 72.2467 256.927 72.972C256.881 73.6973 256.859 74.4113 256.859 75.114V88H252.643L252.609 84.464H253.017C252.654 85.6427 251.917 86.5833 250.807 87.286C249.696 87.9887 248.438 88.34 247.033 88.34ZM248.223 85.076C249.56 85.076 250.637 84.6113 251.453 83.682C252.269 82.73 252.677 81.302 252.677 79.398C252.677 77.494 252.269 76.0773 251.453 75.148C250.637 74.2187 249.56 73.754 248.223 73.754C246.885 73.754 245.809 74.2187 244.993 75.148C244.177 76.0773 243.769 77.494 243.769 79.398C243.769 81.302 244.165 82.73 244.959 83.682C245.775 84.6113 246.863 85.076 248.223 85.076ZM261.815 88V70.83H266.031V77.562H268.615L273.647 70.83H278.203L271.879 79.398L270.961 78.072C271.596 78.14 272.151 78.31 272.627 78.582C273.126 78.854 273.591 79.2393 274.021 79.738C274.475 80.214 274.917 80.826 275.347 81.574L278.951 88H274.429L271.505 82.832C271.211 82.3107 270.916 81.9027 270.621 81.608C270.327 81.3133 269.998 81.1093 269.635 80.996C269.273 80.8827 268.831 80.826 268.309 80.826H266.031V88H261.815ZM284.912 88V74.162H279.03V70.83H295.044V74.162H289.128V88H284.912ZM297.637 95.718L296.651 92.352C297.716 92.1253 298.611 91.8647 299.337 91.57C300.062 91.2753 300.663 90.89 301.139 90.414C301.615 89.938 302.011 89.326 302.329 88.578L303.179 86.572L303.077 88.238L295.597 70.83H300.119L305.491 84.226H304.505L309.911 70.83H314.195L306.375 88.952C305.853 90.176 305.287 91.1847 304.675 91.978C304.063 92.794 303.405 93.44 302.703 93.916C302 94.4147 301.229 94.8 300.391 95.072C299.552 95.344 298.634 95.5593 297.637 95.718ZM323.267 88.34C321.771 88.34 320.456 87.9887 319.323 87.286C318.19 86.5607 317.306 85.5293 316.671 84.192C316.036 82.8547 315.719 81.2567 315.719 79.398C315.719 77.5393 316.036 75.9527 316.671 74.638C317.306 73.3007 318.19 72.2807 319.323 71.578C320.456 70.8527 321.771 70.49 323.267 70.49C324.718 70.49 325.987 70.8527 327.075 71.578C328.186 72.2807 328.922 73.2327 329.285 74.434H328.911L329.285 70.83H333.365C333.297 71.5327 333.229 72.2467 333.161 72.972C333.116 73.6973 333.093 74.4113 333.093 75.114V88H328.877L328.843 84.464H329.251C328.888 85.6427 328.152 86.5833 327.041 87.286C325.93 87.9887 324.672 88.34 323.267 88.34ZM324.457 85.076C325.794 85.076 326.871 84.6113 327.687 83.682C328.503 82.73 328.911 81.302 328.911 79.398C328.911 77.494 328.503 76.0773 327.687 75.148C326.871 74.2187 325.794 73.754 324.457 73.754C323.12 73.754 322.043 74.2187 321.227 75.148C320.411 76.0773 320.003 77.494 320.003 79.398C320.003 81.302 320.4 82.73 321.193 83.682C322.009 84.6113 323.097 85.076 324.457 85.076ZM337.608 88.476L336.282 85.144C337.03 84.872 337.653 84.5207 338.152 84.09C338.673 83.6367 339.081 83.07 339.376 82.39C339.693 81.6873 339.92 80.826 340.056 79.806C340.192 78.7633 340.26 77.528 340.26 76.1V70.83H353.928V88H349.712V74.094H344.136V76.236C344.136 78.7067 343.909 80.7807 343.456 82.458C343.002 84.1127 342.3 85.4273 341.348 86.402C340.396 87.3767 339.149 88.068 337.608 88.476ZM358.768 88V70.83H362.984V76.576H367.506C369.796 76.576 371.518 77.0633 372.674 78.038C373.83 78.99 374.408 80.3727 374.408 82.186C374.408 83.3647 374.136 84.396 373.592 85.28C373.048 86.1413 372.255 86.81 371.212 87.286C370.192 87.762 368.957 88 367.506 88H358.768ZM362.984 85.212H366.928C368.084 85.212 368.968 84.974 369.58 84.498C370.192 83.9993 370.498 83.2513 370.498 82.254C370.498 81.2567 370.192 80.5313 369.58 80.078C368.991 79.602 368.107 79.364 366.928 79.364H362.984V85.212ZM377.96 88V70.83H382.176V77.562H389.928V70.83H394.144V88H389.928V80.826H382.176V88H377.96ZM398.977 88V70.83H403.193V76.576H407.715C410.005 76.576 411.727 77.0633 412.883 78.038C414.039 78.99 414.617 80.3727 414.617 82.186C414.617 83.3647 414.345 84.396 413.801 85.28C413.257 86.1413 412.464 86.81 411.421 87.286C410.401 87.762 409.166 88 407.715 88H398.977ZM403.193 85.212H407.137C408.293 85.212 409.177 84.974 409.789 84.498C410.401 83.9993 410.707 83.2513 410.707 82.254C410.707 81.2567 410.401 80.5313 409.789 80.078C409.2 79.602 408.316 79.364 407.137 79.364H403.193V85.212ZM416.759 88V70.83H420.975V88H416.759ZM434.238 88.34C431.359 88.34 429.104 87.5467 427.472 85.96C425.84 84.3733 425.024 82.1973 425.024 79.432C425.024 77.6413 425.375 76.0773 426.078 74.74C426.78 73.4027 427.755 72.36 429.002 71.612C430.271 70.864 431.744 70.49 433.422 70.49C435.076 70.49 436.459 70.8413 437.57 71.544C438.68 72.2467 439.519 73.2327 440.086 74.502C440.675 75.7713 440.97 77.256 440.97 78.956V80.078H428.458V77.834H437.944L437.366 78.31C437.366 76.7233 437.026 75.5107 436.346 74.672C435.688 73.8333 434.725 73.414 433.456 73.414C432.05 73.414 430.962 73.9127 430.192 74.91C429.444 75.9073 429.07 77.3013 429.07 79.092V79.534C429.07 81.3927 429.523 82.7867 430.43 83.716C431.359 84.6227 432.662 85.076 434.34 85.076C435.314 85.076 436.221 84.9513 437.06 84.702C437.921 84.43 438.737 83.9993 439.508 83.41L440.766 86.266C439.95 86.9233 438.975 87.4333 437.842 87.796C436.708 88.1587 435.507 88.34 434.238 88.34ZM452.697 92.42V84.77H454.669C455.349 83.7047 455.837 82.458 456.131 81.03C456.449 79.5793 456.607 77.8113 456.607 75.726V70.83H469.833V84.77H472.621V92.42H469.017V88H456.301V92.42H452.697ZM458.477 84.804H465.855V74.026H460.211V76.678C460.211 78.1967 460.064 79.6813 459.769 81.132C459.475 82.5827 459.044 83.8067 458.477 84.804ZM482.509 88.34C481.013 88.34 479.698 87.9887 478.565 87.286C477.432 86.5607 476.548 85.5293 475.913 84.192C475.278 82.8547 474.961 81.2567 474.961 79.398C474.961 77.5393 475.278 75.9527 475.913 74.638C476.548 73.3007 477.432 72.2807 478.565 71.578C479.698 70.8527 481.013 70.49 482.509 70.49C483.96 70.49 485.229 70.8527 486.317 71.578C487.428 72.2807 488.164 73.2327 488.527 74.434H488.153L488.527 70.83H492.607C492.539 71.5327 492.471 72.2467 492.403 72.972C492.358 73.6973 492.335 74.4113 492.335 75.114V88H488.119L488.085 84.464H488.493C488.13 85.6427 487.394 86.5833 486.283 87.286C485.172 87.9887 483.914 88.34 482.509 88.34ZM483.699 85.076C485.036 85.076 486.113 84.6113 486.929 83.682C487.745 82.73 488.153 81.302 488.153 79.398C488.153 77.494 487.745 76.0773 486.929 75.148C486.113 74.2187 485.036 73.754 483.699 73.754C482.362 73.754 481.285 74.2187 480.469 75.148C479.653 76.0773 479.245 77.494 479.245 79.398C479.245 81.302 479.642 82.73 480.435 83.682C481.251 84.6113 482.339 85.076 483.699 85.076ZM497.292 88V70.83H501.508V77.562H509.26V70.83H513.476V88H509.26V80.826H501.508V88H497.292ZM518.31 88V70.83H522.526V77.562H530.278V70.83H534.494V88H530.278V80.826H522.526V88H518.31ZM539.327 88V70.83H543.543V76.576H548.065C550.354 76.576 552.077 77.0633 553.233 78.038C554.389 78.99 554.967 80.3727 554.967 82.186C554.967 83.3647 554.695 84.396 554.151 85.28C553.607 86.1413 552.814 86.81 551.771 87.286C550.751 87.762 549.516 88 548.065 88H539.327ZM543.543 85.212H547.487C548.643 85.212 549.527 84.974 550.139 84.498C550.751 83.9993 551.057 83.2513 551.057 82.254C551.057 81.2567 550.751 80.5313 550.139 80.078C549.55 79.602 548.666 79.364 547.487 79.364H543.543V85.212ZM557.109 88V70.83H561.325V88H557.109ZM574.587 88.34C571.709 88.34 569.453 87.5467 567.821 85.96C566.189 84.3733 565.373 82.1973 565.373 79.432C565.373 77.6413 565.725 76.0773 566.427 74.74C567.13 73.4027 568.105 72.36 569.351 71.612C570.621 70.864 572.094 70.49 573.771 70.49C575.426 70.49 576.809 70.8413 577.919 71.544C579.03 72.2467 579.869 73.2327 580.435 74.502C581.025 75.7713 581.319 77.256 581.319 78.956V80.078H568.807V77.834H578.293L577.715 78.31C577.715 76.7233 577.375 75.5107 576.695 74.672C576.038 73.8333 575.075 73.414 573.805 73.414C572.4 73.414 571.312 73.9127 570.541 74.91C569.793 75.9073 569.419 77.3013 569.419 79.092V79.534C569.419 81.3927 569.873 82.7867 570.779 83.716C571.709 84.6227 573.012 85.076 574.689 85.076C575.664 85.076 576.571 84.9513 577.409 84.702C578.271 84.43 579.087 83.9993 579.857 83.41L581.115 86.266C580.299 86.9233 579.325 87.4333 578.191 87.796C577.058 88.1587 575.857 88.34 574.587 88.34ZM594.577 88V70.83H610.659V88H606.443V74.094H598.793V88H594.577ZM623.383 88.34C621.615 88.34 620.085 87.9773 618.793 87.252C617.501 86.5267 616.492 85.4953 615.767 84.158C615.064 82.8207 614.713 81.234 614.713 79.398C614.713 77.562 615.064 75.9867 615.767 74.672C616.492 73.3347 617.501 72.3033 618.793 71.578C620.085 70.8527 621.615 70.49 623.383 70.49C625.151 70.49 626.681 70.8527 627.973 71.578C629.288 72.3033 630.296 73.3347 630.999 74.672C631.724 75.9867 632.087 77.562 632.087 79.398C632.087 81.234 631.724 82.8207 630.999 84.158C630.296 85.4953 629.288 86.5267 627.973 87.252C626.681 87.9773 625.151 88.34 623.383 88.34ZM623.383 85.076C624.72 85.076 625.786 84.6113 626.579 83.682C627.372 82.73 627.769 81.302 627.769 79.398C627.769 77.494 627.372 76.0773 626.579 75.148C625.786 74.2187 624.72 73.754 623.383 73.754C622.046 73.754 620.98 74.2187 620.187 75.148C619.394 76.0773 618.997 77.494 618.997 79.398C618.997 81.302 619.394 82.73 620.187 83.682C620.98 84.6113 622.046 85.076 623.383 85.076ZM47.0244 131V113.83H56.1704C58.3237 113.83 59.899 114.227 60.8964 115.02C61.8937 115.791 62.3924 116.89 62.3924 118.318C62.3924 119.406 62.0297 120.313 61.3044 121.038C60.579 121.763 59.6157 122.217 58.4144 122.398V121.922C59.8877 122.013 61.021 122.443 61.8144 123.214C62.6077 123.985 63.0044 124.982 63.0044 126.206C63.0044 127.679 62.4377 128.847 61.3044 129.708C60.171 130.569 58.5617 131 56.4764 131H47.0244ZM50.9684 128.382H56.0344C57.0317 128.382 57.791 128.178 58.3124 127.77C58.8564 127.362 59.1284 126.761 59.1284 125.968C59.1284 125.175 58.8564 124.574 58.3124 124.166C57.791 123.758 57.0317 123.554 56.0344 123.554H50.9684V128.382ZM50.9684 120.936H55.6604C56.567 120.936 57.2697 120.743 57.7684 120.358C58.267 119.95 58.5164 119.383 58.5164 118.658C58.5164 117.933 58.267 117.377 57.7684 116.992C57.2697 116.607 56.567 116.414 55.6604 116.414H50.9684V120.936ZM73.4798 131.34C71.9838 131.34 70.6691 130.989 69.5358 130.286C68.4025 129.561 67.5185 128.529 66.8838 127.192C66.2491 125.855 65.9318 124.257 65.9318 122.398C65.9318 120.539 66.2491 118.953 66.8838 117.638C67.5185 116.301 68.4025 115.281 69.5358 114.578C70.6691 113.853 71.9838 113.49 73.4798 113.49C74.9305 113.49 76.1998 113.853 77.2878 114.578C78.3985 115.281 79.1351 116.233 79.4978 117.434H79.1238L79.4978 113.83H83.5778C83.5098 114.533 83.4418 115.247 83.3738 115.972C83.3285 116.697 83.3058 117.411 83.3058 118.114V131H79.0898L79.0558 127.464H79.4638C79.1011 128.643 78.3645 129.583 77.2538 130.286C76.1431 130.989 74.8851 131.34 73.4798 131.34ZM74.6698 128.076C76.0071 128.076 77.0838 127.611 77.8998 126.682C78.7158 125.73 79.1238 124.302 79.1238 122.398C79.1238 120.494 78.7158 119.077 77.8998 118.148C77.0838 117.219 76.0071 116.754 74.6698 116.754C73.3325 116.754 72.2558 117.219 71.4398 118.148C70.6238 119.077 70.2158 120.494 70.2158 122.398C70.2158 124.302 70.6125 125.73 71.4058 126.682C72.2218 127.611 73.3098 128.076 74.6698 128.076ZM88.2626 131V113.83H92.2406V127.736H98.2926V113.83H102.237V127.736H108.289V113.83H112.267V131H88.2626ZM117.083 131V113.83H120.925V126.818H119.905L129.663 113.83H133.165V131H129.323V117.978H130.377L120.585 131H117.083ZM138.001 131V113.83H141.537L147.453 124.098L153.369 113.83H156.905V131H153.165V118.59H153.947L148.439 128.212H146.467L140.959 118.59H141.741V131H138.001ZM174.777 131V117.162H168.895V113.83H184.909V117.162H178.993V131H174.777ZM195.262 131.34C193.494 131.34 191.964 130.977 190.672 130.252C189.38 129.527 188.371 128.495 187.646 127.158C186.943 125.821 186.592 124.234 186.592 122.398C186.592 120.562 186.943 118.987 187.646 117.672C188.371 116.335 189.38 115.303 190.672 114.578C191.964 113.853 193.494 113.49 195.262 113.49C197.03 113.49 198.56 113.853 199.852 114.578C201.167 115.303 202.175 116.335 202.878 117.672C203.603 118.987 203.966 120.562 203.966 122.398C203.966 124.234 203.603 125.821 202.878 127.158C202.175 128.495 201.167 129.527 199.852 130.252C198.56 130.977 197.03 131.34 195.262 131.34ZM195.262 128.076C196.599 128.076 197.665 127.611 198.458 126.682C199.251 125.73 199.648 124.302 199.648 122.398C199.648 120.494 199.251 119.077 198.458 118.148C197.665 117.219 196.599 116.754 195.262 116.754C193.925 116.754 192.859 117.219 192.066 118.148C191.273 119.077 190.876 120.494 190.876 122.398C190.876 124.302 191.273 125.73 192.066 126.682C192.859 127.611 193.925 128.076 195.262 128.076ZM207.993 131V113.83H217.139C219.292 113.83 220.868 114.227 221.865 115.02C222.862 115.791 223.361 116.89 223.361 118.318C223.361 119.406 222.998 120.313 222.273 121.038C221.548 121.763 220.584 122.217 219.383 122.398V121.922C220.856 122.013 221.99 122.443 222.783 123.214C223.576 123.985 223.973 124.982 223.973 126.206C223.973 127.679 223.406 128.847 222.273 129.708C221.14 130.569 219.53 131 217.445 131H207.993ZM211.937 128.382H217.003C218 128.382 218.76 128.178 219.281 127.77C219.825 127.362 220.097 126.761 220.097 125.968C220.097 125.175 219.825 124.574 219.281 124.166C218.76 123.758 218 123.554 217.003 123.554H211.937V128.382ZM211.937 120.936H216.629C217.536 120.936 218.238 120.743 218.737 120.358C219.236 119.95 219.485 119.383 219.485 118.658C219.485 117.933 219.236 117.377 218.737 116.992C218.238 116.607 217.536 116.414 216.629 116.414H211.937V120.936ZM234.449 131.34C232.953 131.34 231.638 130.989 230.505 130.286C229.371 129.561 228.487 128.529 227.853 127.192C227.218 125.855 226.901 124.257 226.901 122.398C226.901 120.539 227.218 118.953 227.853 117.638C228.487 116.301 229.371 115.281 230.505 114.578C231.638 113.853 232.953 113.49 234.449 113.49C235.899 113.49 237.169 113.853 238.257 114.578C239.367 115.281 240.104 116.233 240.467 117.434H240.093L240.467 113.83H244.547C244.479 114.533 244.411 115.247 244.343 115.972C244.297 116.697 244.275 117.411 244.275 118.114V131H240.059L240.025 127.464H240.433C240.07 128.643 239.333 129.583 238.223 130.286C237.112 130.989 235.854 131.34 234.449 131.34ZM235.639 128.076C236.976 128.076 238.053 127.611 238.869 126.682C239.685 125.73 240.093 124.302 240.093 122.398C240.093 120.494 239.685 119.077 238.869 118.148C238.053 117.219 236.976 116.754 235.639 116.754C234.301 116.754 233.225 117.219 232.409 118.148C231.593 119.077 231.185 120.494 231.185 122.398C231.185 124.302 231.581 125.73 232.375 126.682C233.191 127.611 234.279 128.076 235.639 128.076ZM249.367 138.344V118.114C249.367 117.411 249.345 116.697 249.299 115.972C249.254 115.247 249.186 114.533 249.095 113.83H253.209L253.583 117.434H253.209C253.549 116.233 254.263 115.281 255.351 114.578C256.462 113.853 257.743 113.49 259.193 113.49C260.712 113.49 262.038 113.853 263.171 114.578C264.305 115.281 265.189 116.301 265.823 117.638C266.458 118.953 266.775 120.539 266.775 122.398C266.775 124.257 266.458 125.855 265.823 127.192C265.189 128.529 264.305 129.561 263.171 130.286C262.038 130.989 260.712 131.34 259.193 131.34C257.765 131.34 256.507 130.989 255.419 130.286C254.331 129.583 253.606 128.643 253.243 127.464H253.617V138.344H249.367ZM258.003 128.076C259.363 128.076 260.451 127.611 261.267 126.682C262.083 125.73 262.491 124.302 262.491 122.398C262.491 120.494 262.083 119.077 261.267 118.148C260.451 117.219 259.363 116.754 258.003 116.754C256.666 116.754 255.589 117.219 254.773 118.148C253.957 119.077 253.549 120.494 253.549 122.398C253.549 124.302 253.957 125.73 254.773 126.682C255.589 127.611 256.666 128.076 258.003 128.076ZM277.546 131.34C276.05 131.34 274.736 130.989 273.602 130.286C272.469 129.561 271.585 128.529 270.95 127.192C270.316 125.855 269.998 124.257 269.998 122.398C269.998 120.539 270.316 118.953 270.95 117.638C271.585 116.301 272.469 115.281 273.602 114.578C274.736 113.853 276.05 113.49 277.546 113.49C278.997 113.49 280.266 113.853 281.354 114.578C282.465 115.281 283.202 116.233 283.564 117.434H283.19L283.564 113.83H287.644C287.576 114.533 287.508 115.247 287.44 115.972C287.395 116.697 287.372 117.411 287.372 118.114V131H283.156L283.122 127.464H283.53C283.168 128.643 282.431 129.583 281.32 130.286C280.21 130.989 278.952 131.34 277.546 131.34ZM278.736 128.076C280.074 128.076 281.15 127.611 281.966 126.682C282.782 125.73 283.19 124.302 283.19 122.398C283.19 120.494 282.782 119.077 281.966 118.148C281.15 117.219 280.074 116.754 278.736 116.754C277.399 116.754 276.322 117.219 275.506 118.148C274.69 119.077 274.282 120.494 274.282 122.398C274.282 124.302 274.679 125.73 275.472 126.682C276.288 127.611 277.376 128.076 278.736 128.076ZM292.329 131V113.83H295.865L301.781 124.098L307.697 113.83H311.233V131H307.493V118.59H308.275L302.767 128.212H300.795L295.287 118.59H296.069V131H292.329ZM325.399 131V113.83H329.615V120.562H337.367V113.83H341.583V131H337.367V123.826H329.615V131H325.399ZM353.183 131.34C351.687 131.34 350.372 130.989 349.239 130.286C348.106 129.561 347.222 128.529 346.587 127.192C345.952 125.855 345.635 124.257 345.635 122.398C345.635 120.539 345.952 118.953 346.587 117.638C347.222 116.301 348.106 115.281 349.239 114.578C350.372 113.853 351.687 113.49 353.183 113.49C354.634 113.49 355.903 113.853 356.991 114.578C358.102 115.281 358.838 116.233 359.201 117.434H358.827L359.201 113.83H363.281C363.213 114.533 363.145 115.247 363.077 115.972C363.032 116.697 363.009 117.411 363.009 118.114V131H358.793L358.759 127.464H359.167C358.804 128.643 358.068 129.583 356.957 130.286C355.846 130.989 354.588 131.34 353.183 131.34ZM354.373 128.076C355.71 128.076 356.787 127.611 357.603 126.682C358.419 125.73 358.827 124.302 358.827 122.398C358.827 120.494 358.419 119.077 357.603 118.148C356.787 117.219 355.71 116.754 354.373 116.754C353.036 116.754 351.959 117.219 351.143 118.148C350.327 119.077 349.919 120.494 349.919 122.398C349.919 124.302 350.316 125.73 351.109 126.682C351.925 127.611 353.013 128.076 354.373 128.076ZM377.296 131V113.83H380.832L386.748 124.098L392.664 113.83H396.2V131H392.46V118.59H393.242L387.734 128.212H385.762L380.254 118.59H381.036V131H377.296ZM407.802 131.34C406.306 131.34 404.991 130.989 403.858 130.286C402.725 129.561 401.841 128.529 401.206 127.192C400.571 125.855 400.254 124.257 400.254 122.398C400.254 120.539 400.571 118.953 401.206 117.638C401.841 116.301 402.725 115.281 403.858 114.578C404.991 113.853 406.306 113.49 407.802 113.49C409.253 113.49 410.522 113.853 411.61 114.578C412.721 115.281 413.457 116.233 413.82 117.434H413.446L413.82 113.83H417.9C417.832 114.533 417.764 115.247 417.696 115.972C417.651 116.697 417.628 117.411 417.628 118.114V131H413.412L413.378 127.464H413.786C413.423 128.643 412.687 129.583 411.576 130.286C410.465 130.989 409.207 131.34 407.802 131.34ZM408.992 128.076C410.329 128.076 411.406 127.611 412.222 126.682C413.038 125.73 413.446 124.302 413.446 122.398C413.446 120.494 413.038 119.077 412.222 118.148C411.406 117.219 410.329 116.754 408.992 116.754C407.655 116.754 406.578 117.219 405.762 118.148C404.946 119.077 404.538 120.494 404.538 122.398C404.538 124.302 404.935 125.73 405.728 126.682C406.544 127.611 407.632 128.076 408.992 128.076ZM422.721 138.344V118.114C422.721 117.411 422.698 116.697 422.653 115.972C422.608 115.247 422.54 114.533 422.449 113.83H426.563L426.937 117.434H426.563C426.903 116.233 427.617 115.281 428.705 114.578C429.816 113.853 431.096 113.49 432.547 113.49C434.066 113.49 435.392 113.853 436.525 114.578C437.658 115.281 438.542 116.301 439.177 117.638C439.812 118.953 440.129 120.539 440.129 122.398C440.129 124.257 439.812 125.855 439.177 127.192C438.542 128.529 437.658 129.561 436.525 130.286C435.392 130.989 434.066 131.34 432.547 131.34C431.119 131.34 429.861 130.989 428.773 130.286C427.685 129.583 426.96 128.643 426.597 127.464H426.971V138.344H422.721ZM431.357 128.076C432.717 128.076 433.805 127.611 434.621 126.682C435.437 125.73 435.845 124.302 435.845 122.398C435.845 120.494 435.437 119.077 434.621 118.148C433.805 117.219 432.717 116.754 431.357 116.754C430.02 116.754 428.943 117.219 428.127 118.148C427.311 119.077 426.903 120.494 426.903 122.398C426.903 124.302 427.311 125.73 428.127 126.682C428.943 127.611 430.02 128.076 431.357 128.076ZM444.134 131V113.83H448.35V120.562H450.934L455.966 113.83H460.522L454.198 122.398L453.28 121.072C453.914 121.14 454.47 121.31 454.946 121.582C455.444 121.854 455.909 122.239 456.34 122.738C456.793 123.214 457.235 123.826 457.666 124.574L461.27 131H456.748L453.824 125.832C453.529 125.311 453.234 124.903 452.94 124.608C452.645 124.313 452.316 124.109 451.954 123.996C451.591 123.883 451.149 123.826 450.628 123.826H448.35V131H444.134ZM471.956 131.34C469.078 131.34 466.822 130.547 465.19 128.96C463.558 127.373 462.742 125.197 462.742 122.432C462.742 120.641 463.094 119.077 463.796 117.74C464.499 116.403 465.474 115.36 466.72 114.612C467.99 113.864 469.463 113.49 471.14 113.49C472.795 113.49 474.178 113.841 475.288 114.544C476.399 115.247 477.238 116.233 477.804 117.502C478.394 118.771 478.688 120.256 478.688 121.956V123.078H466.176V120.834H475.662L475.084 121.31C475.084 119.723 474.744 118.511 474.064 117.672C473.407 116.833 472.444 116.414 471.174 116.414C469.769 116.414 468.681 116.913 467.91 117.91C467.162 118.907 466.788 120.301 466.788 122.092V122.534C466.788 124.393 467.242 125.787 468.148 126.716C469.078 127.623 470.381 128.076 472.058 128.076C473.033 128.076 473.94 127.951 474.778 127.702C475.64 127.43 476.456 126.999 477.226 126.41L478.484 129.266C477.668 129.923 476.694 130.433 475.56 130.796C474.427 131.159 473.226 131.34 471.956 131.34ZM486.322 131V117.162H480.44V113.83H496.454V117.162H490.538V131H486.322ZM499.085 131V113.83H515.167V131H510.951V117.094H503.301V131H499.085ZM519.561 131.476L518.235 128.144C518.983 127.872 519.606 127.521 520.105 127.09C520.626 126.637 521.034 126.07 521.329 125.39C521.646 124.687 521.873 123.826 522.009 122.806C522.145 121.763 522.213 120.528 522.213 119.1V113.83H535.881V131H531.665V117.094H526.089V119.236C526.089 121.707 525.862 123.781 525.409 125.458C524.956 127.113 524.253 128.427 523.301 129.402C522.349 130.377 521.102 131.068 519.561 131.476ZM549.154 131.34C546.275 131.34 544.02 130.547 542.388 128.96C540.756 127.373 539.94 125.197 539.94 122.432C539.94 120.641 540.291 119.077 540.994 117.74C541.696 116.403 542.671 115.36 543.918 114.612C545.187 113.864 546.66 113.49 548.338 113.49C549.992 113.49 551.375 113.841 552.486 114.544C553.596 115.247 554.435 116.233 555.002 117.502C555.591 118.771 555.886 120.256 555.886 121.956V123.078H543.374V120.834H552.86L552.282 121.31C552.282 119.723 551.942 118.511 551.262 117.672C550.604 116.833 549.641 116.414 548.372 116.414C546.966 116.414 545.878 116.913 545.108 117.91C544.36 118.907 543.986 120.301 543.986 122.092V122.534C543.986 124.393 544.439 125.787 545.346 126.716C546.275 127.623 547.578 128.076 549.256 128.076C550.23 128.076 551.137 127.951 551.976 127.702C552.837 127.43 553.653 126.999 554.424 126.41L555.682 129.266C554.866 129.923 553.891 130.433 552.758 130.796C551.624 131.159 550.423 131.34 549.154 131.34ZM559.813 131V113.83H563.655V126.818H562.635L572.393 113.83H575.895V131H572.053V117.978H573.107L563.315 131H559.813ZM567.837 112.266C566.704 112.266 565.707 112.085 564.845 111.722C563.984 111.337 563.27 110.804 562.703 110.124C562.137 109.421 561.729 108.594 561.479 107.642L563.655 106.894C564.041 107.937 564.573 108.707 565.253 109.206C565.933 109.682 566.806 109.92 567.871 109.92C568.937 109.92 569.809 109.682 570.489 109.206C571.169 108.73 571.725 107.971 572.155 106.928L574.229 107.642C573.753 109.161 572.96 110.317 571.849 111.11C570.761 111.881 569.424 112.266 567.837 112.266ZM588.755 131.34C586.987 131.34 585.435 130.977 584.097 130.252C582.783 129.527 581.763 128.495 581.037 127.158C580.312 125.798 579.949 124.189 579.949 122.33C579.949 120.471 580.312 118.885 581.037 117.57C581.785 116.255 582.817 115.247 584.131 114.544C585.446 113.841 586.987 113.49 588.755 113.49C589.889 113.49 590.988 113.671 592.053 114.034C593.141 114.374 594.025 114.873 594.705 115.53L593.413 118.488C592.801 117.921 592.11 117.502 591.339 117.23C590.591 116.935 589.855 116.788 589.129 116.788C587.611 116.788 586.421 117.264 585.559 118.216C584.721 119.168 584.301 120.551 584.301 122.364C584.301 124.177 584.721 125.571 585.559 126.546C586.421 127.521 587.611 128.008 589.129 128.008C589.832 128.008 590.557 127.872 591.305 127.6C592.076 127.328 592.779 126.909 593.413 126.342L594.705 129.266C594.003 129.923 593.107 130.433 592.019 130.796C590.954 131.159 589.866 131.34 588.755 131.34ZM606.761 131.34C603.882 131.34 601.627 130.547 599.995 128.96C598.363 127.373 597.547 125.197 597.547 122.432C597.547 120.641 597.898 119.077 598.601 117.74C599.304 116.403 600.278 115.36 601.525 114.612C602.794 113.864 604.268 113.49 605.945 113.49C607.6 113.49 608.982 113.841 610.093 114.544C611.204 115.247 612.042 116.233 612.609 117.502C613.198 118.771 613.493 120.256 613.493 121.956V123.078H600.981V120.834H610.467L609.889 121.31C609.889 119.723 609.549 118.511 608.869 117.672C608.212 116.833 607.248 116.414 605.979 116.414C604.574 116.414 603.486 116.913 602.715 117.91C601.967 118.907 601.593 120.301 601.593 122.092V122.534C601.593 124.393 602.046 125.787 602.953 126.716C603.882 127.623 605.186 128.076 606.863 128.076C607.838 128.076 608.744 127.951 609.583 127.702C610.444 127.43 611.26 126.999 612.031 126.41L613.289 129.266C612.473 129.923 611.498 130.433 610.365 130.796C609.232 131.159 608.03 131.34 606.761 131.34Z" fill="#1A1A1A"/>
<rect x="44.6104" y="165" width="142" height="44" rx="9.6" fill="white"/>
<circle opacity="0.2" cx="73.61" cy="187" r="14.4" fill="#4092F7"/>
<rect opacity="0.4" x="64.6104" y="178" width="18" height="18" rx="9" fill="#4092F7"/>
<rect x="65.0904" y="178.48" width="17.04" height="17.04" rx="8.52" stroke="#4092F7" strokeWidth="0.96"/>
<circle cx="73.7306" cy="186.64" r="2.16" fill="white" stroke="#1261C2" strokeWidth="1.44"/>
<path d="M100.678 194.173C99.5128 194.173 98.4696 194.026 97.548 193.731C96.6392 193.424 95.884 193.008 95.2824 192.483L95.9544 190.986C96.5688 191.485 97.2472 191.862 97.9896 192.118C98.732 192.374 99.5896 192.502 100.562 192.502C101.778 192.502 102.668 192.304 103.231 191.907C103.807 191.51 104.095 190.915 104.095 190.122C104.095 189.379 103.852 188.829 103.366 188.47C102.879 188.112 102.137 187.933 101.138 187.933H97.7208V186.339H100.85C101.81 186.339 102.534 186.16 103.02 185.802C103.519 185.43 103.769 184.893 103.769 184.189C103.769 183.498 103.506 182.954 102.982 182.557C102.457 182.16 101.657 181.962 100.582 181.962C99.7624 181.962 98.988 182.083 98.2584 182.326C97.5288 182.57 96.8696 182.934 96.2808 183.421L95.5896 181.923C96.1912 181.398 96.9464 180.995 97.8552 180.714C98.7768 180.432 99.7368 180.291 100.735 180.291C102.386 180.291 103.628 180.624 104.46 181.29C105.305 181.955 105.727 182.845 105.727 183.958C105.727 184.79 105.478 185.494 104.978 186.07C104.479 186.634 103.801 187.011 102.943 187.203V186.915C103.903 187.056 104.658 187.414 105.209 187.99C105.772 188.566 106.054 189.322 106.054 190.256C106.054 191.062 105.855 191.76 105.458 192.349C105.062 192.938 104.466 193.392 103.673 193.712C102.879 194.019 101.881 194.173 100.678 194.173ZM112.302 194.173C111.444 194.173 110.696 193.974 110.056 193.578C109.416 193.181 108.916 192.605 108.558 191.85C108.212 191.094 108.04 190.198 108.04 189.162C108.04 188.112 108.212 187.216 108.558 186.474C108.916 185.731 109.416 185.162 110.056 184.765C110.696 184.355 111.444 184.15 112.302 184.15C113.147 184.15 113.883 184.362 114.51 184.784C115.137 185.206 115.553 185.782 115.758 186.512H115.547L115.739 184.323H117.62C117.582 184.72 117.544 185.117 117.505 185.514C117.48 185.898 117.467 186.275 117.467 186.646V194H115.528V191.85H115.739C115.534 192.566 115.112 193.136 114.472 193.558C113.844 193.968 113.121 194.173 112.302 194.173ZM112.782 192.656C113.614 192.656 114.28 192.362 114.779 191.773C115.291 191.184 115.547 190.314 115.547 189.162C115.547 188.01 115.291 187.146 114.779 186.57C114.28 185.981 113.614 185.686 112.782 185.686C111.937 185.686 111.259 185.981 110.747 186.57C110.248 187.146 109.998 188.01 109.998 189.162C109.998 190.314 110.248 191.184 110.747 191.773C111.246 192.362 111.924 192.656 112.782 192.656ZM120.445 194V184.323H122.365V188.278H124.035L127.049 184.323H129.161L125.552 189.085L125.072 188.47C125.443 188.509 125.763 188.605 126.032 188.758C126.301 188.899 126.563 189.11 126.819 189.392C127.075 189.674 127.337 190.045 127.606 190.506L129.622 194H127.549L125.821 191.043C125.629 190.71 125.443 190.454 125.264 190.275C125.085 190.083 124.88 189.955 124.649 189.891C124.419 189.814 124.137 189.776 123.805 189.776H122.365V194H120.445ZM134.821 194.173C133.963 194.173 133.214 193.974 132.574 193.578C131.934 193.181 131.435 192.605 131.077 191.85C130.731 191.094 130.558 190.198 130.558 189.162C130.558 188.112 130.731 187.216 131.077 186.474C131.435 185.731 131.934 185.162 132.574 184.765C133.214 184.355 133.963 184.15 134.821 184.15C135.666 184.15 136.402 184.362 137.029 184.784C137.656 185.206 138.072 185.782 138.277 186.512H138.066L138.258 184.323H140.139C140.101 184.72 140.062 185.117 140.024 185.514C139.998 185.898 139.986 186.275 139.986 186.646V194H138.046V191.85H138.258C138.053 192.566 137.63 193.136 136.99 193.558C136.363 193.968 135.64 194.173 134.821 194.173ZM135.301 192.656C136.133 192.656 136.798 192.362 137.298 191.773C137.81 191.184 138.066 190.314 138.066 189.162C138.066 188.01 137.81 187.146 137.298 186.57C136.798 185.981 136.133 185.686 135.301 185.686C134.456 185.686 133.778 185.981 133.266 186.57C132.766 187.146 132.517 188.01 132.517 189.162C132.517 190.314 132.766 191.184 133.266 191.773C133.765 192.362 134.443 192.656 135.301 192.656ZM146.323 194.173C145.479 194.173 144.685 194.07 143.943 193.866C143.2 193.648 142.592 193.341 142.119 192.944L142.714 191.638C143.187 192.01 143.731 192.291 144.346 192.483C144.96 192.662 145.619 192.752 146.323 192.752C147.207 192.752 147.847 192.624 148.243 192.368C148.653 192.099 148.858 191.722 148.858 191.235C148.858 190.762 148.691 190.403 148.359 190.16C148.026 189.917 147.539 189.795 146.899 189.795H144.519V188.413H146.707C147.283 188.413 147.731 188.291 148.051 188.048C148.371 187.805 148.531 187.466 148.531 187.03C148.531 186.57 148.346 186.211 147.975 185.955C147.603 185.699 147.027 185.571 146.247 185.571C145.581 185.571 144.973 185.654 144.423 185.821C143.872 185.987 143.347 186.237 142.848 186.57L142.272 185.322C142.797 184.925 143.418 184.63 144.135 184.438C144.851 184.246 145.626 184.15 146.458 184.15C147.712 184.15 148.666 184.387 149.319 184.861C149.971 185.322 150.298 185.987 150.298 186.858C150.298 187.459 150.093 187.971 149.683 188.394C149.287 188.816 148.749 189.072 148.071 189.162V188.912C148.851 188.95 149.472 189.187 149.933 189.622C150.407 190.045 150.643 190.608 150.643 191.312C150.643 192.182 150.272 192.88 149.53 193.405C148.8 193.917 147.731 194.173 146.323 194.173ZM152.901 194V184.323H154.821V187.702H157.566C158.834 187.702 159.787 187.971 160.427 188.509C161.067 189.034 161.387 189.802 161.387 190.813C161.387 191.466 161.24 192.035 160.946 192.522C160.651 192.995 160.216 193.36 159.64 193.616C159.077 193.872 158.386 194 157.566 194H152.901ZM154.821 192.675H157.355C158.085 192.675 158.635 192.528 159.006 192.234C159.39 191.926 159.582 191.459 159.582 190.832C159.582 190.205 159.39 189.75 159.006 189.469C158.635 189.174 158.085 189.027 157.355 189.027H154.821V192.675ZM162.75 194V184.323H164.67V194H162.75Z" fill="black"/>
<rect x="196.61" y="165" width="254" height="44" rx="9.6" fill="white"/>
<circle opacity="0.2" cx="225.61" cy="187" r="14.4" fill="#4092F7"/>
<rect opacity="0.4" x="216.61" y="178" width="18" height="18" rx="9" fill="#4092F7"/>
<rect x="217.09" y="178.48" width="17.04" height="17.04" rx="8.52" stroke="#4092F7" strokeWidth="0.96"/>
<circle cx="225.731" cy="186.64" r="2.16" fill="white" stroke="#1261C2" strokeWidth="1.44"/>
<path d="M248.204 194V180.464H257.132V182.115H250.201V194H248.204ZM261.132 194.173C259.571 194.173 258.342 193.731 257.446 192.848C256.55 191.965 256.102 190.742 256.102 189.181C256.102 188.17 256.294 187.286 256.678 186.531C257.075 185.776 257.619 185.194 258.31 184.784C259.014 184.362 259.827 184.15 260.748 184.15C261.657 184.15 262.419 184.342 263.033 184.726C263.648 185.11 264.115 185.654 264.435 186.358C264.755 187.05 264.915 187.869 264.915 188.816V189.43H257.619V188.317H263.59L263.264 188.566C263.264 187.606 263.046 186.864 262.611 186.339C262.188 185.802 261.574 185.533 260.768 185.533C259.872 185.533 259.18 185.846 258.694 186.474C258.208 187.088 257.964 187.939 257.964 189.027V189.219C257.964 190.358 258.24 191.216 258.79 191.792C259.353 192.368 260.147 192.656 261.171 192.656C261.734 192.656 262.259 192.579 262.745 192.426C263.244 192.259 263.718 191.99 264.166 191.619L264.8 192.944C264.352 193.341 263.808 193.648 263.168 193.866C262.528 194.07 261.849 194.173 261.132 194.173ZM271.512 194.173C270.552 194.173 269.72 193.974 269.016 193.578C268.312 193.168 267.768 192.592 267.384 191.85C267 191.094 266.808 190.198 266.808 189.162C266.808 188.125 267 187.235 267.384 186.493C267.768 185.738 268.312 185.162 269.016 184.765C269.72 184.355 270.552 184.15 271.512 184.15C272.472 184.15 273.304 184.355 274.008 184.765C274.725 185.162 275.276 185.738 275.66 186.493C276.056 187.235 276.255 188.125 276.255 189.162C276.255 190.198 276.056 191.094 275.66 191.85C275.276 192.592 274.725 193.168 274.008 193.578C273.304 193.974 272.472 194.173 271.512 194.173ZM271.512 192.656C272.357 192.656 273.029 192.362 273.528 191.773C274.028 191.184 274.277 190.314 274.277 189.162C274.277 188.01 274.028 187.146 273.528 186.57C273.029 185.981 272.357 185.686 271.512 185.686C270.68 185.686 270.015 185.981 269.516 186.57C269.016 187.146 268.767 188.01 268.767 189.162C268.767 190.314 269.01 191.184 269.496 191.773C269.996 192.362 270.668 192.656 271.512 192.656ZM278.651 194V184.323H285.62V185.878H280.59V194H278.651ZM287.465 198.147V186.646C287.465 186.275 287.446 185.898 287.408 185.514C287.382 185.117 287.35 184.72 287.312 184.323H289.193L289.385 186.512H289.174C289.379 185.782 289.788 185.206 290.403 184.784C291.03 184.362 291.772 184.15 292.63 184.15C293.488 184.15 294.236 184.355 294.876 184.765C295.516 185.162 296.009 185.731 296.355 186.474C296.713 187.216 296.892 188.112 296.892 189.162C296.892 190.198 296.713 191.094 296.355 191.85C296.009 192.605 295.516 193.181 294.876 193.578C294.236 193.974 293.488 194.173 292.63 194.173C291.785 194.173 291.049 193.968 290.422 193.558C289.808 193.136 289.398 192.566 289.193 191.85H289.404V198.147H287.465ZM292.15 192.656C292.995 192.656 293.667 192.362 294.166 191.773C294.678 191.184 294.934 190.314 294.934 189.162C294.934 188.01 294.678 187.146 294.166 186.57C293.667 185.981 292.995 185.686 292.15 185.686C291.305 185.686 290.627 185.981 290.115 186.57C289.616 187.146 289.366 188.01 289.366 189.162C289.366 190.314 289.616 191.184 290.115 191.773C290.627 192.362 291.305 192.656 292.15 192.656ZM303.096 194.173C302.238 194.173 301.489 193.974 300.849 193.578C300.209 193.181 299.71 192.605 299.352 191.85C299.006 191.094 298.833 190.198 298.833 189.162C298.833 188.112 299.006 187.216 299.352 186.474C299.71 185.731 300.209 185.162 300.849 184.765C301.489 184.355 302.238 184.15 303.096 184.15C303.941 184.15 304.677 184.362 305.304 184.784C305.931 185.206 306.347 185.782 306.552 186.512H306.341L306.533 184.323H308.414C308.376 184.72 308.337 185.117 308.299 185.514C308.273 185.898 308.261 186.275 308.261 186.646V194H306.321V191.85H306.533C306.328 192.566 305.905 193.136 305.265 193.558C304.638 193.968 303.915 194.173 303.096 194.173ZM303.576 192.656C304.408 192.656 305.073 192.362 305.573 191.773C306.085 191.184 306.341 190.314 306.341 189.162C306.341 188.01 306.085 187.146 305.573 186.57C305.073 185.981 304.408 185.686 303.576 185.686C302.731 185.686 302.053 185.981 301.541 186.57C301.041 187.146 300.792 188.01 300.792 189.162C300.792 190.314 301.041 191.184 301.541 191.773C302.04 192.362 302.718 192.656 303.576 192.656ZM316.845 198.147V191.965H317.037C316.845 192.682 316.506 193.232 316.019 193.616C315.546 193.987 314.963 194.173 314.272 194.173C313.581 194.173 312.966 193.968 312.429 193.558C311.891 193.149 311.475 192.573 311.181 191.83C310.886 191.075 310.739 190.186 310.739 189.162C310.739 188.125 310.886 187.235 311.181 186.493C311.475 185.75 311.885 185.174 312.41 184.765C312.947 184.355 313.568 184.15 314.272 184.15C314.963 184.15 315.546 184.342 316.019 184.726C316.506 185.11 316.845 185.648 317.037 186.339H316.845V179.869H318.765V186.339H318.573C318.778 185.648 319.117 185.11 319.59 184.726C320.064 184.342 320.646 184.15 321.338 184.15C322.042 184.15 322.662 184.355 323.2 184.765C323.738 185.174 324.147 185.75 324.429 186.493C324.723 187.235 324.87 188.125 324.87 189.162C324.87 190.186 324.723 191.075 324.429 191.83C324.147 192.573 323.738 193.149 323.2 193.558C322.675 193.968 322.054 194.173 321.338 194.173C320.659 194.173 320.077 193.987 319.59 193.616C319.117 193.232 318.778 192.682 318.573 191.965H318.765V198.147H316.845ZM314.771 192.694C315.424 192.694 315.936 192.4 316.307 191.811C316.691 191.21 316.883 190.326 316.883 189.162C316.883 188.01 316.691 187.133 316.307 186.531C315.936 185.93 315.424 185.629 314.771 185.629C314.118 185.629 313.6 185.93 313.216 186.531C312.845 187.133 312.659 188.01 312.659 189.162C312.659 190.326 312.845 191.21 313.216 191.811C313.6 192.4 314.118 192.694 314.771 192.694ZM320.838 192.694C321.491 192.694 322.003 192.4 322.374 191.811C322.758 191.21 322.95 190.326 322.95 189.162C322.95 188.01 322.758 187.133 322.374 186.531C321.99 185.93 321.478 185.629 320.838 185.629C320.186 185.629 319.674 185.93 319.302 186.531C318.931 187.133 318.746 188.01 318.746 189.162C318.746 190.326 318.931 191.21 319.302 191.811C319.674 192.4 320.186 192.694 320.838 192.694ZM327.288 194V184.323H329.055V192.138H328.517L334.354 184.323H335.967V194H334.22V186.166H334.776L328.901 194H327.288ZM338.089 194L339.605 191.389C339.849 190.966 340.156 190.627 340.527 190.371C340.911 190.102 341.301 189.968 341.698 189.968H342.044L342.025 190.16C340.924 190.16 340.066 189.91 339.452 189.411C338.837 188.912 338.53 188.195 338.53 187.261C338.53 186.326 338.837 185.603 339.452 185.091C340.066 184.579 340.969 184.323 342.159 184.323H346.69V194H344.905V190.41H343.618C343.132 190.41 342.716 190.531 342.37 190.774C342.037 191.018 341.762 191.338 341.545 191.734L340.239 194H338.089ZM342.505 189.104H344.905V185.629H342.505C341.788 185.629 341.25 185.782 340.892 186.09C340.546 186.397 340.373 186.819 340.373 187.357C340.373 187.92 340.546 188.355 340.892 188.662C341.25 188.957 341.788 189.104 342.505 189.104ZM358.08 194.173C357.235 194.173 356.441 194.07 355.699 193.866C354.956 193.648 354.348 193.341 353.875 192.944L354.47 191.638C354.944 192.01 355.488 192.291 356.102 192.483C356.716 192.662 357.376 192.752 358.08 192.752C358.963 192.752 359.603 192.624 360 192.368C360.409 192.099 360.614 191.722 360.614 191.235C360.614 190.762 360.448 190.403 360.115 190.16C359.782 189.917 359.296 189.795 358.656 189.795H356.275V188.413H358.464C359.04 188.413 359.488 188.291 359.808 188.048C360.128 187.805 360.288 187.466 360.288 187.03C360.288 186.57 360.102 186.211 359.731 185.955C359.36 185.699 358.784 185.571 358.003 185.571C357.337 185.571 356.729 185.654 356.179 185.821C355.628 185.987 355.104 186.237 354.604 186.57L354.028 185.322C354.553 184.925 355.174 184.63 355.891 184.438C356.608 184.246 357.382 184.15 358.214 184.15C359.468 184.15 360.422 184.387 361.075 184.861C361.728 185.322 362.054 185.987 362.054 186.858C362.054 187.459 361.849 187.971 361.44 188.394C361.043 188.816 360.505 189.072 359.827 189.162V188.912C360.608 188.95 361.228 189.187 361.689 189.622C362.163 190.045 362.4 190.608 362.4 191.312C362.4 192.182 362.028 192.88 361.286 193.405C360.556 193.917 359.488 194.173 358.08 194.173ZM368.439 194.173C367.582 194.173 366.833 193.974 366.193 193.578C365.553 193.181 365.054 192.605 364.695 191.85C364.35 191.094 364.177 190.198 364.177 189.162C364.177 188.112 364.35 187.216 364.695 186.474C365.054 185.731 365.553 185.162 366.193 184.765C366.833 184.355 367.582 184.15 368.439 184.15C369.284 184.15 370.02 184.362 370.647 184.784C371.275 185.206 371.691 185.782 371.895 186.512H371.684L371.876 184.323H373.758C373.719 184.72 373.681 185.117 373.643 185.514C373.617 185.898 373.604 186.275 373.604 186.646V194H371.665V191.85H371.876C371.671 192.566 371.249 193.136 370.609 193.558C369.982 193.968 369.259 194.173 368.439 194.173ZM368.919 192.656C369.751 192.656 370.417 192.362 370.916 191.773C371.428 191.184 371.684 190.314 371.684 189.162C371.684 188.01 371.428 187.146 370.916 186.57C370.417 185.981 369.751 185.686 368.919 185.686C368.075 185.686 367.396 185.981 366.884 186.57C366.385 187.146 366.135 188.01 366.135 189.162C366.135 190.314 366.385 191.184 366.884 191.773C367.383 192.362 368.062 192.656 368.919 192.656ZM376.582 194V184.323H378.502V188.278H380.172L383.187 184.323H385.299L381.689 189.085L381.209 188.47C381.58 188.509 381.9 188.605 382.169 188.758C382.438 188.899 382.7 189.11 382.956 189.392C383.212 189.674 383.475 190.045 383.744 190.506L385.76 194H383.686L381.958 191.043C381.766 190.71 381.58 190.454 381.401 190.275C381.222 190.083 381.017 189.955 380.787 189.891C380.556 189.814 380.275 189.776 379.942 189.776H378.502V194H376.582ZM390.958 194.173C390.101 194.173 389.352 193.974 388.712 193.578C388.072 193.181 387.573 192.605 387.214 191.85C386.869 191.094 386.696 190.198 386.696 189.162C386.696 188.112 386.869 187.216 387.214 186.474C387.573 185.731 388.072 185.162 388.712 184.765C389.352 184.355 390.101 184.15 390.958 184.15C391.803 184.15 392.539 184.362 393.166 184.784C393.793 185.206 394.209 185.782 394.414 186.512H394.203L394.395 184.323H396.277C396.238 184.72 396.2 185.117 396.161 185.514C396.136 185.898 396.123 186.275 396.123 186.646V194H394.184V191.85H394.395C394.19 192.566 393.768 193.136 393.128 193.558C392.501 193.968 391.777 194.173 390.958 194.173ZM391.438 192.656C392.27 192.656 392.936 192.362 393.435 191.773C393.947 191.184 394.203 190.314 394.203 189.162C394.203 188.01 393.947 187.146 393.435 186.57C392.936 185.981 392.27 185.686 391.438 185.686C390.593 185.686 389.915 185.981 389.403 186.57C388.904 187.146 388.654 188.01 388.654 189.162C388.654 190.314 388.904 191.184 389.403 191.773C389.902 192.362 390.581 192.656 391.438 192.656ZM402.461 194.173C401.616 194.173 400.822 194.07 400.08 193.866C399.338 193.648 398.73 193.341 398.256 192.944L398.851 191.638C399.325 192.01 399.869 192.291 400.483 192.483C401.098 192.662 401.757 192.752 402.461 192.752C403.344 192.752 403.984 192.624 404.381 192.368C404.79 192.099 404.995 191.722 404.995 191.235C404.995 190.762 404.829 190.403 404.496 190.16C404.163 189.917 403.677 189.795 403.037 189.795H400.656V188.413H402.845C403.421 188.413 403.869 188.291 404.189 188.048C404.509 187.805 404.669 187.466 404.669 187.03C404.669 186.57 404.483 186.211 404.112 185.955C403.741 185.699 403.165 185.571 402.384 185.571C401.718 185.571 401.11 185.654 400.56 185.821C400.01 185.987 399.485 186.237 398.986 186.57L398.41 185.322C398.934 184.925 399.555 184.63 400.272 184.438C400.989 184.246 401.763 184.15 402.595 184.15C403.85 184.15 404.803 184.387 405.456 184.861C406.109 185.322 406.435 185.987 406.435 186.858C406.435 187.459 406.23 187.971 405.821 188.394C405.424 188.816 404.886 189.072 404.208 189.162V188.912C404.989 188.95 405.61 189.187 406.07 189.622C406.544 190.045 406.781 190.608 406.781 191.312C406.781 192.182 406.41 192.88 405.667 193.405C404.938 193.917 403.869 194.173 402.461 194.173ZM413.262 194.173C412.302 194.173 411.47 193.974 410.766 193.578C410.062 193.168 409.518 192.592 409.134 191.85C408.75 191.094 408.558 190.198 408.558 189.162C408.558 188.125 408.75 187.235 409.134 186.493C409.518 185.738 410.062 185.162 410.766 184.765C411.47 184.355 412.302 184.15 413.262 184.15C414.222 184.15 415.054 184.355 415.758 184.765C416.475 185.162 417.026 185.738 417.41 186.493C417.806 187.235 418.005 188.125 418.005 189.162C418.005 190.198 417.806 191.094 417.41 191.85C417.026 192.592 416.475 193.168 415.758 193.578C415.054 193.974 414.222 194.173 413.262 194.173ZM413.262 192.656C414.107 192.656 414.779 192.362 415.278 191.773C415.778 191.184 416.027 190.314 416.027 189.162C416.027 188.01 415.778 187.146 415.278 186.57C414.779 185.981 414.107 185.686 413.262 185.686C412.43 185.686 411.765 185.981 411.266 186.57C410.766 187.146 410.517 188.01 410.517 189.162C410.517 190.314 410.76 191.184 411.246 191.773C411.746 192.362 412.418 192.656 413.262 192.656ZM420.401 194V184.323H425.278C426.442 184.323 427.3 184.547 427.85 184.995C428.414 185.43 428.695 186.051 428.695 186.858C428.695 187.485 428.484 188.003 428.062 188.413C427.652 188.822 427.108 189.072 426.43 189.162V188.912C427.236 188.95 427.87 189.187 428.33 189.622C428.791 190.058 429.022 190.621 429.022 191.312C429.022 192.144 428.708 192.803 428.081 193.29C427.466 193.763 426.59 194 425.45 194H420.401ZM422.225 192.752H425.297C425.924 192.752 426.404 192.624 426.737 192.368C427.07 192.099 427.236 191.715 427.236 191.216C427.236 190.717 427.07 190.339 426.737 190.083C426.404 189.827 425.924 189.699 425.297 189.699H422.225V192.752ZM422.225 188.451H425.086C425.662 188.451 426.11 188.323 426.43 188.067C426.75 187.811 426.91 187.459 426.91 187.011C426.91 186.55 426.75 186.198 426.43 185.955C426.11 185.699 425.662 185.571 425.086 185.571H422.225V188.451Z" fill="black"/>
<rect x="460.61" y="165" width="146" height="44" rx="9.6" fill="white"/>
<circle opacity="0.2" cx="489.61" cy="187" r="14.4" fill="#4092F7"/>
<rect opacity="0.4" x="480.61" y="178" width="18" height="18" rx="9" fill="#4092F7"/>
<rect x="481.09" y="178.48" width="17.04" height="17.04" rx="8.52" stroke="#4092F7" strokeWidth="0.96"/>
<circle cx="489.731" cy="186.64" r="2.16" fill="white" stroke="#1261C2" strokeWidth="1.44"/>
<path d="M512.204 194V180.464H517.849C519.308 180.464 520.428 180.771 521.209 181.386C522.002 182 522.399 182.864 522.399 183.978C522.399 184.81 522.15 185.507 521.65 186.07C521.151 186.634 520.466 187.011 519.596 187.203V186.915C520.594 187.043 521.369 187.395 521.919 187.971C522.47 188.547 522.745 189.309 522.745 190.256C522.745 191.459 522.335 192.387 521.516 193.04C520.71 193.68 519.57 194 518.098 194H512.204ZM514.143 192.445H517.887C518.796 192.445 519.506 192.272 520.018 191.926C520.543 191.581 520.806 190.998 520.806 190.179C520.806 189.36 520.543 188.778 520.018 188.432C519.506 188.086 518.796 187.914 517.887 187.914H514.143V192.445ZM514.143 186.378H517.542C518.514 186.378 519.244 186.192 519.73 185.821C520.217 185.45 520.46 184.906 520.46 184.189C520.46 183.472 520.217 182.928 519.73 182.557C519.244 182.186 518.514 182 517.542 182H514.143V186.378ZM525.213 194V184.323H527.133V187.702H529.879C531.146 187.702 532.1 187.971 532.74 188.509C533.38 189.034 533.7 189.802 533.7 190.813C533.7 191.466 533.553 192.035 533.258 192.522C532.964 192.995 532.529 193.36 531.953 193.616C531.389 193.872 530.698 194 529.879 194H525.213ZM527.133 192.675H529.668C530.397 192.675 530.948 192.528 531.319 192.234C531.703 191.926 531.895 191.459 531.895 190.832C531.895 190.205 531.703 189.75 531.319 189.469C530.948 189.174 530.397 189.027 529.668 189.027H527.133V192.675ZM535.063 194V184.323H536.983V194H535.063ZM539.876 194V184.323H541.796V188.278H543.466L546.481 184.323H548.593L544.983 189.085L544.503 188.47C544.874 188.509 545.194 188.605 545.463 188.758C545.732 188.899 545.994 189.11 546.25 189.392C546.506 189.674 546.769 190.045 547.037 190.506L549.053 194H546.98L545.252 191.043C545.06 190.71 544.874 190.454 544.695 190.275C544.516 190.083 544.311 189.955 544.081 189.891C543.85 189.814 543.569 189.776 543.236 189.776H541.796V194H539.876ZM550.258 198.358L549.798 196.784C550.399 196.656 550.898 196.502 551.295 196.323C551.705 196.144 552.044 195.907 552.313 195.613C552.582 195.331 552.812 194.966 553.004 194.518L553.484 193.386L553.446 194.173L549.241 184.323H551.314L554.578 192.387H554.06L557.324 184.323H559.321L554.886 194.691C554.604 195.331 554.303 195.869 553.983 196.304C553.663 196.739 553.318 197.091 552.946 197.36C552.575 197.629 552.166 197.84 551.718 197.994C551.27 198.147 550.783 198.269 550.258 198.358ZM560.988 194V184.323H569.667V194H567.747V185.84H562.908V194H560.988ZM572.576 194V184.323H574.496V187.702H577.241C578.509 187.702 579.462 187.971 580.102 188.509C580.742 189.034 581.062 189.802 581.062 190.813C581.062 191.466 580.915 192.035 580.621 192.522C580.326 192.995 579.891 193.36 579.315 193.616C578.752 193.872 578.061 194 577.241 194H572.576ZM574.496 192.675H577.03C577.76 192.675 578.31 192.528 578.681 192.234C579.065 191.926 579.257 191.459 579.257 190.832C579.257 190.205 579.065 189.75 578.681 189.469C578.31 189.174 577.76 189.027 577.03 189.027H574.496V192.675ZM582.425 194V184.323H584.345V194H582.425Z" fill="black"/>
<rect x="44.6104" y="219" width="312" height="44" rx="9.6" fill="white"/>
<circle opacity="0.2" cx="73.61" cy="241" r="14.4" fill="#4092F7"/>
<rect opacity="0.4" x="64.6104" y="232" width="18" height="18" rx="9" fill="#4092F7"/>
<rect x="65.0904" y="232.48" width="17.04" height="17.04" rx="8.52" stroke="#4092F7" strokeWidth="0.96"/>
<circle cx="73.7306" cy="240.64" r="2.16" fill="white" stroke="#1261C2" strokeWidth="1.44"/>
<path d="M100.774 248.173C99.6856 248.173 98.7 248.038 97.8168 247.77C96.9336 247.488 96.1656 247.091 95.5128 246.579L96.1848 245.005C96.62 245.338 97.068 245.613 97.5288 245.83C98.0024 246.048 98.5016 246.214 99.0264 246.33C99.564 246.432 100.146 246.483 100.774 246.483C101.849 246.483 102.636 246.291 103.135 245.907C103.647 245.523 103.903 245.018 103.903 244.39C103.903 243.853 103.724 243.437 103.366 243.142C103.02 242.848 102.406 242.611 101.522 242.432L99.4296 242.01C98.188 241.754 97.26 241.338 96.6456 240.762C96.044 240.173 95.7432 239.373 95.7432 238.362C95.7432 237.542 95.9608 236.826 96.396 236.211C96.8312 235.597 97.4328 235.123 98.2008 234.79C98.9816 234.458 99.8904 234.291 100.927 234.291C101.887 234.291 102.77 234.432 103.577 234.714C104.383 234.982 105.062 235.386 105.612 235.923L104.959 237.44C104.383 236.941 103.769 236.576 103.116 236.346C102.463 236.102 101.721 235.981 100.889 235.981C99.9032 235.981 99.1288 236.186 98.5656 236.595C98.0152 237.005 97.74 237.562 97.74 238.266C97.74 238.829 97.9128 239.27 98.2584 239.59C98.6168 239.91 99.2056 240.154 100.025 240.32L102.118 240.723C103.41 240.992 104.364 241.408 104.978 241.971C105.593 242.522 105.9 243.283 105.9 244.256C105.9 245.037 105.689 245.722 105.266 246.31C104.857 246.899 104.268 247.36 103.5 247.693C102.732 248.013 101.823 248.173 100.774 248.173ZM108.354 248V234.464H117.224V236.058H110.293V240.32H116.783V241.933H110.293V246.387H117.224V248H108.354ZM119.199 241.222C119.199 239.802 119.449 238.573 119.948 237.536C120.447 236.499 121.171 235.699 122.118 235.136C123.078 234.573 124.217 234.291 125.535 234.291C126.841 234.291 127.967 234.573 128.915 235.136C129.862 235.699 130.591 236.499 131.103 237.536C131.628 238.573 131.891 239.795 131.891 241.203C131.891 242.624 131.628 243.859 131.103 244.909C130.591 245.946 129.855 246.752 128.895 247.328C127.948 247.891 126.828 248.173 125.535 248.173C124.217 248.173 123.084 247.891 122.137 247.328C121.19 246.752 120.46 245.946 119.948 244.909C119.449 243.859 119.199 242.63 119.199 241.222ZM121.292 241.222C121.292 242.861 121.651 244.141 122.367 245.062C123.084 245.984 124.14 246.445 125.535 246.445C126.892 246.445 127.942 245.99 128.684 245.082C129.427 244.16 129.798 242.874 129.798 241.222C129.798 239.571 129.427 238.291 128.684 237.382C127.955 236.474 126.905 236.019 125.535 236.019C124.14 236.019 123.084 236.474 122.367 237.382C121.651 238.291 121.292 239.571 121.292 241.222ZM134.373 243.507V241.952H139.999V243.507H134.373ZM146.577 248.173C145.719 248.173 144.971 247.974 144.331 247.578C143.691 247.181 143.191 246.605 142.833 245.85C142.487 245.094 142.315 244.198 142.315 243.162C142.315 242.112 142.487 241.216 142.833 240.474C143.191 239.731 143.691 239.162 144.331 238.765C144.971 238.355 145.719 238.15 146.577 238.15C147.422 238.15 148.158 238.362 148.785 238.784C149.412 239.206 149.828 239.782 150.033 240.512H149.822L150.014 238.323H151.895C151.857 238.72 151.819 239.117 151.78 239.514C151.755 239.898 151.742 240.275 151.742 240.646V248H149.803V245.85H150.014C149.809 246.566 149.387 247.136 148.747 247.558C148.119 247.968 147.396 248.173 146.577 248.173ZM147.057 246.656C147.889 246.656 148.555 246.362 149.054 245.773C149.566 245.184 149.822 244.314 149.822 243.162C149.822 242.01 149.566 241.146 149.054 240.57C148.555 239.981 147.889 239.686 147.057 239.686C146.212 239.686 145.534 239.981 145.022 240.57C144.523 241.146 144.273 242.01 144.273 243.162C144.273 244.314 144.523 245.184 145.022 245.773C145.521 246.362 146.199 246.656 147.057 246.656ZM154.72 248V238.323H156.64V242.259H161.536V238.323H163.456V248H161.536V243.776H156.64V248H154.72ZM170.164 248.173C169.307 248.173 168.558 247.974 167.918 247.578C167.278 247.181 166.779 246.605 166.42 245.85C166.075 245.094 165.902 244.198 165.902 243.162C165.902 242.112 166.075 241.216 166.42 240.474C166.779 239.731 167.278 239.162 167.918 238.765C168.558 238.355 169.307 238.15 170.164 238.15C171.009 238.15 171.745 238.362 172.372 238.784C173 239.206 173.416 239.782 173.62 240.512H173.409L173.601 238.323H175.483C175.444 238.72 175.406 239.117 175.368 239.514C175.342 239.898 175.329 240.275 175.329 240.646V248H173.39V245.85H173.601C173.396 246.566 172.974 247.136 172.334 247.558C171.707 247.968 170.984 248.173 170.164 248.173ZM170.644 246.656C171.476 246.656 172.142 246.362 172.641 245.773C173.153 245.184 173.409 244.314 173.409 243.162C173.409 242.01 173.153 241.146 172.641 240.57C172.142 239.981 171.476 239.686 170.644 239.686C169.8 239.686 169.121 239.981 168.609 240.57C168.11 241.146 167.86 242.01 167.86 243.162C167.86 244.314 168.11 245.184 168.609 245.773C169.108 246.362 169.787 246.656 170.644 246.656ZM177.904 248.25L177.251 246.714C177.686 246.534 178.051 246.31 178.345 246.042C178.653 245.76 178.889 245.402 179.056 244.966C179.235 244.531 179.363 243.994 179.44 243.354C179.517 242.714 179.555 241.939 179.555 241.03V238.323H186.851V248H184.931V239.84H181.341V241.088C181.341 242.547 181.225 243.757 180.995 244.717C180.765 245.677 180.393 246.438 179.881 247.002C179.382 247.552 178.723 247.968 177.904 248.25ZM189.763 248V238.323H191.53V246.138H190.992L196.829 238.323H198.442V248H196.695V240.166H197.251L191.376 248H189.763ZM203.424 248V239.878H200.007V238.323H208.781V239.878H205.344V248H203.424ZM210.332 248V238.323H212.098V246.138H211.561L217.398 238.323H219.01V248H217.263V240.166H217.82L211.945 248H210.332ZM221.92 248V238.323H223.84V242.278H225.51L228.524 238.323H230.636L227.027 243.085L226.547 242.47C226.918 242.509 227.238 242.605 227.507 242.758C227.776 242.899 228.038 243.11 228.294 243.392C228.55 243.674 228.812 244.045 229.081 244.506L231.097 248H229.024L227.296 245.043C227.104 244.71 226.918 244.454 226.739 244.275C226.56 244.083 226.355 243.955 226.124 243.891C225.894 243.814 225.612 243.776 225.28 243.776H223.84V248H221.92ZM236.296 248.173C235.438 248.173 234.689 247.974 234.049 247.578C233.409 247.181 232.91 246.605 232.552 245.85C232.206 245.094 232.033 244.198 232.033 243.162C232.033 242.112 232.206 241.216 232.552 240.474C232.91 239.731 233.409 239.162 234.049 238.765C234.689 238.355 235.438 238.15 236.296 238.15C237.141 238.15 237.877 238.362 238.504 238.784C239.131 239.206 239.547 239.782 239.752 240.512H239.541L239.733 238.323H241.614C241.576 238.72 241.537 239.117 241.499 239.514C241.473 239.898 241.461 240.275 241.461 240.646V248H239.521V245.85H239.733C239.528 246.566 239.105 247.136 238.465 247.558C237.838 247.968 237.115 248.173 236.296 248.173ZM236.776 246.656C237.608 246.656 238.273 246.362 238.773 245.773C239.285 245.184 239.541 244.314 239.541 243.162C239.541 242.01 239.285 241.146 238.773 240.57C238.273 239.981 237.608 239.686 236.776 239.686C235.931 239.686 235.253 239.981 234.741 240.57C234.241 241.146 233.992 242.01 233.992 243.162C233.992 244.314 234.241 245.184 234.741 245.773C235.24 246.362 235.918 246.656 236.776 246.656ZM249.557 248V238.323H251.477V242.278H253.147L256.162 238.323H258.274L254.664 243.085L254.184 242.47C254.555 242.509 254.875 242.605 255.144 242.758C255.413 242.899 255.675 243.11 255.931 243.392C256.187 243.674 256.45 244.045 256.719 244.506L258.735 248H256.661L254.933 245.043C254.741 244.71 254.555 244.454 254.376 244.275C254.197 244.083 253.992 243.955 253.762 243.891C253.531 243.814 253.25 243.776 252.917 243.776H251.477V248H249.557ZM263.933 248.173C263.076 248.173 262.327 247.974 261.687 247.578C261.047 247.181 260.548 246.605 260.189 245.85C259.844 245.094 259.671 244.198 259.671 243.162C259.671 242.112 259.844 241.216 260.189 240.474C260.548 239.731 261.047 239.162 261.687 238.765C262.327 238.355 263.076 238.15 263.933 238.15C264.778 238.15 265.514 238.362 266.141 238.784C266.768 239.206 267.184 239.782 267.389 240.512H267.178L267.37 238.323H269.252C269.213 238.72 269.175 239.117 269.136 239.514C269.111 239.898 269.098 240.275 269.098 240.646V248H267.159V245.85H267.37C267.165 246.566 266.743 247.136 266.103 247.558C265.476 247.968 264.752 248.173 263.933 248.173ZM264.413 246.656C265.245 246.656 265.911 246.362 266.41 245.773C266.922 245.184 267.178 244.314 267.178 243.162C267.178 242.01 266.922 241.146 266.41 240.57C265.911 239.981 265.245 239.686 264.413 239.686C263.568 239.686 262.89 239.981 262.378 240.57C261.879 241.146 261.629 242.01 261.629 243.162C261.629 244.314 261.879 245.184 262.378 245.773C262.877 246.362 263.556 246.656 264.413 246.656ZM272.153 252.147V240.646C272.153 240.275 272.133 239.898 272.095 239.514C272.069 239.117 272.037 238.72 271.999 238.323H273.881L274.073 240.512H273.861C274.066 239.782 274.476 239.206 275.09 238.784C275.717 238.362 276.46 238.15 277.317 238.15C278.175 238.15 278.924 238.355 279.564 238.765C280.204 239.162 280.697 239.731 281.042 240.474C281.401 241.216 281.58 242.112 281.58 243.162C281.58 244.198 281.401 245.094 281.042 245.85C280.697 246.605 280.204 247.181 279.564 247.578C278.924 247.974 278.175 248.173 277.317 248.173C276.473 248.173 275.737 247.968 275.109 247.558C274.495 247.136 274.085 246.566 273.881 245.85H274.092V252.147H272.153ZM276.837 246.656C277.682 246.656 278.354 246.362 278.853 245.773C279.365 245.184 279.621 244.314 279.621 243.162C279.621 242.01 279.365 241.146 278.853 240.57C278.354 239.981 277.682 239.686 276.837 239.686C275.993 239.686 275.314 239.981 274.802 240.57C274.303 241.146 274.053 242.01 274.053 243.162C274.053 244.314 274.303 245.184 274.802 245.773C275.314 246.362 275.993 246.656 276.837 246.656ZM286.074 248V239.878H282.657V238.323H291.431V239.878H287.994V248H286.074ZM297.15 248.173C296.19 248.173 295.358 247.974 294.654 247.578C293.95 247.168 293.406 246.592 293.022 245.85C292.638 245.094 292.446 244.198 292.446 243.162C292.446 242.125 292.638 241.235 293.022 240.493C293.406 239.738 293.95 239.162 294.654 238.765C295.358 238.355 296.19 238.15 297.15 238.15C298.11 238.15 298.942 238.355 299.646 238.765C300.363 239.162 300.913 239.738 301.297 240.493C301.694 241.235 301.892 242.125 301.892 243.162C301.892 244.198 301.694 245.094 301.297 245.85C300.913 246.592 300.363 247.168 299.646 247.578C298.942 247.974 298.11 248.173 297.15 248.173ZM297.15 246.656C297.995 246.656 298.667 246.362 299.166 245.773C299.665 245.184 299.915 244.314 299.915 243.162C299.915 242.01 299.665 241.146 299.166 240.57C298.667 239.981 297.995 239.686 297.15 239.686C296.318 239.686 295.652 239.981 295.153 240.57C294.654 241.146 294.404 242.01 294.404 243.162C294.404 244.314 294.647 245.184 295.134 245.773C295.633 246.362 296.305 246.656 297.15 246.656ZM310.471 248V244.256C310.112 244.448 309.728 244.602 309.319 244.717C308.909 244.819 308.474 244.87 308.013 244.87C306.618 244.87 305.581 244.544 304.903 243.891C304.237 243.226 303.904 242.234 303.904 240.915V238.323H305.824V240.762C305.824 241.645 306.023 242.285 306.42 242.682C306.816 243.078 307.444 243.277 308.301 243.277C308.736 243.277 309.12 243.232 309.453 243.142C309.786 243.04 310.112 242.886 310.432 242.682V238.323H312.372V248H310.471ZM315.276 248V238.323H317.196V242.278H318.866L321.881 238.323H323.993L320.383 243.085L319.903 242.47C320.274 242.509 320.594 242.605 320.863 242.758C321.132 242.899 321.394 243.11 321.65 243.392C321.906 243.674 322.169 244.045 322.437 244.506L324.453 248H322.38L320.652 245.043C320.46 244.71 320.274 244.454 320.095 244.275C319.916 244.083 319.711 243.955 319.481 243.891C319.25 243.814 318.969 243.776 318.636 243.776H317.196V248H315.276ZM325.87 248V238.323H327.636V246.138H327.098L332.935 238.323H334.548V248H332.801V240.166H333.358L327.482 248H325.87Z" fill="black"/>
<rect x="366.61" y="219" width="145" height="44" rx="9.6" fill="white"/>
<circle opacity="0.2" cx="395.61" cy="241" r="14.4" fill="#4092F7"/>
<rect opacity="0.4" x="386.61" y="232" width="18" height="18" rx="9" fill="#4092F7"/>
<rect x="387.09" y="232.48" width="17.04" height="17.04" rx="8.52" stroke="#4092F7" strokeWidth="0.96"/>
<circle cx="395.731" cy="240.64" r="2.16" fill="white" stroke="#1261C2" strokeWidth="1.44"/>
<path d="M417.743 241.222C417.743 239.802 417.993 238.573 418.492 237.536C418.991 236.499 419.714 235.699 420.662 235.136C421.622 234.573 422.761 234.291 424.079 234.291C425.385 234.291 426.511 234.573 427.458 235.136C428.406 235.699 429.135 236.499 429.647 237.536C430.172 238.573 430.434 239.795 430.434 241.203C430.434 242.624 430.172 243.859 429.647 244.909C429.135 245.946 428.399 246.752 427.439 247.328C426.492 247.891 425.372 248.173 424.079 248.173C422.761 248.173 421.628 247.891 420.681 247.328C419.734 246.752 419.004 245.946 418.492 244.909C417.993 243.859 417.743 242.63 417.743 241.222ZM419.836 241.222C419.836 242.861 420.194 244.141 420.911 245.062C421.628 245.984 422.684 246.445 424.079 246.445C425.436 246.445 426.486 245.99 427.228 245.082C427.97 244.16 428.342 242.874 428.342 241.222C428.342 239.571 427.97 238.291 427.228 237.382C426.498 236.474 425.449 236.019 424.079 236.019C422.684 236.019 421.628 236.474 420.911 237.382C420.194 238.291 419.836 239.571 419.836 241.222ZM435.106 248V239.878H431.688V238.323H440.462V239.878H437.026V248H435.106ZM442.013 248V238.323H443.626L447.121 244.506L450.615 238.323H452.228V248H450.519V240.493H450.941L447.581 246.445H446.66L443.3 240.493H443.722V248H442.013ZM459.689 248.173C458.127 248.173 456.898 247.731 456.002 246.848C455.106 245.965 454.658 244.742 454.658 243.181C454.658 242.17 454.85 241.286 455.234 240.531C455.631 239.776 456.175 239.194 456.866 238.784C457.57 238.362 458.383 238.15 459.305 238.15C460.214 238.15 460.975 238.342 461.59 238.726C462.204 239.11 462.671 239.654 462.991 240.358C463.311 241.05 463.471 241.869 463.471 242.816V243.43H456.175V242.317H462.146L461.82 242.566C461.82 241.606 461.602 240.864 461.167 240.339C460.745 239.802 460.13 239.533 459.324 239.533C458.428 239.533 457.737 239.846 457.25 240.474C456.764 241.088 456.521 241.939 456.521 243.027V243.219C456.521 244.358 456.796 245.216 457.346 245.792C457.91 246.368 458.703 246.656 459.727 246.656C460.29 246.656 460.815 246.579 461.302 246.426C461.801 246.259 462.274 245.99 462.722 245.619L463.356 246.944C462.908 247.341 462.364 247.648 461.724 247.866C461.084 248.07 460.406 248.173 459.689 248.173ZM465.845 248V238.323H467.765V242.259H472.661V238.323H474.581V248H472.661V243.776H467.765V248H465.845ZM477.507 248V238.323H479.427V241.702H482.173C483.44 241.702 484.393 241.971 485.033 242.509C485.673 243.034 485.993 243.802 485.993 244.813C485.993 245.466 485.846 246.035 485.552 246.522C485.257 246.995 484.822 247.36 484.246 247.616C483.683 247.872 482.992 248 482.173 248H477.507ZM479.427 246.675H481.961C482.691 246.675 483.241 246.528 483.613 246.234C483.997 245.926 484.189 245.459 484.189 244.832C484.189 244.205 483.997 243.75 483.613 243.469C483.241 243.174 482.691 243.027 481.961 243.027H479.427V246.675ZM487.357 248V238.323H489.277V248H487.357Z" fill="black"/>
<rect x="521.61" y="219" width="163" height="44" rx="9.6" fill="white"/>
<circle opacity="0.2" cx="550.61" cy="241" r="14.4" fill="#4092F7"/>
<rect opacity="0.4" x="541.61" y="232" width="18" height="18" rx="9" fill="#4092F7"/>
<rect x="542.09" y="232.48" width="17.04" height="17.04" rx="8.52" stroke="#4092F7" strokeWidth="0.96"/>
<circle cx="550.731" cy="240.64" r="2.16" fill="white" stroke="#1261C2" strokeWidth="1.44"/>
<path d="M573.204 248V234.464H578.849C580.308 234.464 581.428 234.771 582.209 235.386C583.002 236 583.399 236.864 583.399 237.978C583.399 238.81 583.15 239.507 582.65 240.07C582.151 240.634 581.466 241.011 580.596 241.203V240.915C581.594 241.043 582.369 241.395 582.919 241.971C583.47 242.547 583.745 243.309 583.745 244.256C583.745 245.459 583.335 246.387 582.516 247.04C581.71 247.68 580.57 248 579.098 248H573.204ZM575.143 246.445H578.887C579.796 246.445 580.506 246.272 581.018 245.926C581.543 245.581 581.806 244.998 581.806 244.179C581.806 243.36 581.543 242.778 581.018 242.432C580.506 242.086 579.796 241.914 578.887 241.914H575.143V246.445ZM575.143 240.378H578.542C579.514 240.378 580.244 240.192 580.73 239.821C581.217 239.45 581.46 238.906 581.46 238.189C581.46 237.472 581.217 236.928 580.73 236.557C580.244 236.186 579.514 236 578.542 236H575.143V240.378ZM590.437 248.173C589.477 248.173 588.645 247.974 587.941 247.578C587.237 247.168 586.693 246.592 586.309 245.85C585.925 245.094 585.733 244.198 585.733 243.162C585.733 242.125 585.925 241.235 586.309 240.493C586.693 239.738 587.237 239.162 587.941 238.765C588.645 238.355 589.477 238.15 590.437 238.15C591.397 238.15 592.229 238.355 592.933 238.765C593.65 239.162 594.201 239.738 594.585 240.493C594.981 241.235 595.18 242.125 595.18 243.162C595.18 244.198 594.981 245.094 594.585 245.85C594.201 246.592 593.65 247.168 592.933 247.578C592.229 247.974 591.397 248.173 590.437 248.173ZM590.437 246.656C591.282 246.656 591.954 246.362 592.453 245.773C592.953 245.184 593.202 244.314 593.202 243.162C593.202 242.01 592.953 241.146 592.453 240.57C591.954 239.981 591.282 239.686 590.437 239.686C589.605 239.686 588.94 239.981 588.441 240.57C587.941 241.146 587.692 242.01 587.692 243.162C587.692 244.314 587.935 245.184 588.421 245.773C588.921 246.362 589.593 246.656 590.437 246.656ZM600.936 248.173C600.091 248.173 599.297 248.07 598.555 247.866C597.813 247.648 597.205 247.341 596.731 246.944L597.326 245.638C597.8 246.01 598.344 246.291 598.958 246.483C599.573 246.662 600.232 246.752 600.936 246.752C601.819 246.752 602.459 246.624 602.856 246.368C603.265 246.099 603.47 245.722 603.47 245.235C603.47 244.762 603.304 244.403 602.971 244.16C602.638 243.917 602.152 243.795 601.512 243.795H599.131V242.413H601.32C601.896 242.413 602.344 242.291 602.664 242.048C602.984 241.805 603.144 241.466 603.144 241.03C603.144 240.57 602.958 240.211 602.587 239.955C602.216 239.699 601.64 239.571 600.859 239.571C600.193 239.571 599.585 239.654 599.035 239.821C598.485 239.987 597.96 240.237 597.461 240.57L596.885 239.322C597.409 238.925 598.03 238.63 598.747 238.438C599.464 238.246 600.238 238.15 601.07 238.15C602.325 238.15 603.278 238.387 603.931 238.861C604.584 239.322 604.91 239.987 604.91 240.858C604.91 241.459 604.705 241.971 604.296 242.394C603.899 242.816 603.361 243.072 602.683 243.162V242.912C603.464 242.95 604.085 243.187 604.545 243.622C605.019 244.045 605.256 244.608 605.256 245.312C605.256 246.182 604.885 246.88 604.142 247.405C603.413 247.917 602.344 248.173 600.936 248.173ZM607.513 248V238.323H612.39C613.555 238.323 614.413 238.547 614.963 238.995C615.526 239.43 615.808 240.051 615.808 240.858C615.808 241.485 615.597 242.003 615.174 242.413C614.765 242.822 614.221 243.072 613.542 243.162V242.912C614.349 242.95 614.982 243.187 615.443 243.622C615.904 244.058 616.134 244.621 616.134 245.312C616.134 246.144 615.821 246.803 615.193 247.29C614.579 247.763 613.702 248 612.563 248H607.513ZM609.337 246.752H612.409C613.037 246.752 613.517 246.624 613.849 246.368C614.182 246.099 614.349 245.715 614.349 245.216C614.349 244.717 614.182 244.339 613.849 244.083C613.517 243.827 613.037 243.699 612.409 243.699H609.337V246.752ZM609.337 242.451H612.198C612.774 242.451 613.222 242.323 613.542 242.067C613.862 241.811 614.022 241.459 614.022 241.011C614.022 240.55 613.862 240.198 613.542 239.955C613.222 239.699 612.774 239.571 612.198 239.571H609.337V242.451ZM618.503 252.147V240.646C618.503 240.275 618.483 239.898 618.445 239.514C618.419 239.117 618.387 238.72 618.349 238.323H620.231L620.423 240.512H620.211C620.416 239.782 620.826 239.206 621.44 238.784C622.067 238.362 622.81 238.15 623.667 238.15C624.525 238.15 625.274 238.355 625.914 238.765C626.554 239.162 627.047 239.731 627.392 240.474C627.751 241.216 627.93 242.112 627.93 243.162C627.93 244.198 627.751 245.094 627.392 245.85C627.047 246.605 626.554 247.181 625.914 247.578C625.274 247.974 624.525 248.173 623.667 248.173C622.823 248.173 622.087 247.968 621.459 247.558C620.845 247.136 620.435 246.566 620.231 245.85H620.442V252.147H618.503ZM623.187 246.656C624.032 246.656 624.704 246.362 625.203 245.773C625.715 245.184 625.971 244.314 625.971 243.162C625.971 242.01 625.715 241.146 625.203 240.57C624.704 239.981 624.032 239.686 623.187 239.686C622.343 239.686 621.664 239.981 621.152 240.57C620.653 241.146 620.403 242.01 620.403 243.162C620.403 244.314 620.653 245.184 621.152 245.773C621.664 246.362 622.343 246.656 623.187 246.656ZM634.133 248.173C633.276 248.173 632.527 247.974 631.887 247.578C631.247 247.181 630.748 246.605 630.389 245.85C630.044 245.094 629.871 244.198 629.871 243.162C629.871 242.112 630.044 241.216 630.389 240.474C630.748 239.731 631.247 239.162 631.887 238.765C632.527 238.355 633.276 238.15 634.133 238.15C634.978 238.15 635.714 238.362 636.341 238.784C636.968 239.206 637.384 239.782 637.589 240.512H637.378L637.57 238.323H639.452C639.413 238.72 639.375 239.117 639.336 239.514C639.311 239.898 639.298 240.275 639.298 240.646V248H637.359V245.85H637.57C637.365 246.566 636.943 247.136 636.303 247.558C635.676 247.968 634.952 248.173 634.133 248.173ZM634.613 246.656C635.445 246.656 636.111 246.362 636.61 245.773C637.122 245.184 637.378 244.314 637.378 243.162C637.378 242.01 637.122 241.146 636.61 240.57C636.111 239.981 635.445 239.686 634.613 239.686C633.768 239.686 633.09 239.981 632.578 240.57C632.079 241.146 631.829 242.01 631.829 243.162C631.829 244.314 632.079 245.184 632.578 245.773C633.077 246.362 633.756 246.656 634.613 246.656ZM644.349 248V239.878H640.932V238.323H649.706V239.878H646.269V248H644.349ZM651.257 248V238.323H653.177V241.702H655.923C657.19 241.702 658.143 241.971 658.783 242.509C659.423 243.034 659.743 243.802 659.743 244.813C659.743 245.466 659.596 246.035 659.302 246.522C659.007 246.995 658.572 247.36 657.996 247.616C657.433 247.872 656.742 248 655.923 248H651.257ZM653.177 246.675H655.711C656.441 246.675 656.991 246.528 657.363 246.234C657.747 245.926 657.939 245.459 657.939 244.832C657.939 244.205 657.747 243.75 657.363 243.469C656.991 243.174 656.441 243.027 655.711 243.027H653.177V246.675ZM661.107 248V238.323H663.027V248H661.107Z" fill="black"/>
<rect x="44.6104" y="273" width="261" height="44" rx="9.6" fill="white"/>
<circle opacity="0.2" cx="73.61" cy="295" r="14.4" fill="#4092F7"/>
<rect opacity="0.4" x="64.6104" y="286" width="18" height="18" rx="9" fill="#4092F7"/>
<rect x="65.0904" y="286.48" width="17.04" height="17.04" rx="8.52" stroke="#4092F7" strokeWidth="0.96"/>
<circle cx="73.7306" cy="294.64" r="2.16" fill="white" stroke="#1261C2" strokeWidth="1.44"/>
<path d="M95.7432 295.222C95.7432 293.802 95.9928 292.573 96.492 291.536C96.9912 290.499 97.7144 289.699 98.6616 289.136C99.6216 288.573 100.761 288.291 102.079 288.291C103.385 288.291 104.511 288.573 105.458 289.136C106.406 289.699 107.135 290.499 107.647 291.536C108.172 292.573 108.434 293.795 108.434 295.203C108.434 296.624 108.172 297.859 107.647 298.909C107.135 299.946 106.399 300.752 105.439 301.328C104.492 301.891 103.372 302.173 102.079 302.173C100.761 302.173 99.628 301.891 98.6808 301.328C97.7336 300.752 97.004 299.946 96.492 298.909C95.9928 297.859 95.7432 296.63 95.7432 295.222ZM97.836 295.222C97.836 296.861 98.1944 298.141 98.9112 299.062C99.628 299.984 100.684 300.445 102.079 300.445C103.436 300.445 104.486 299.99 105.228 299.082C105.97 298.16 106.342 296.874 106.342 295.222C106.342 293.571 105.97 292.291 105.228 291.382C104.498 290.474 103.449 290.019 102.079 290.019C100.684 290.019 99.628 290.474 98.9112 291.382C98.1944 292.291 97.836 293.571 97.836 295.222ZM115.352 302.173C114.379 302.173 113.528 301.974 112.798 301.578C112.082 301.168 111.525 300.586 111.128 299.83C110.744 299.062 110.552 298.154 110.552 297.104C110.552 296.067 110.75 295.178 111.147 294.435C111.544 293.693 112.101 293.13 112.818 292.746C113.534 292.349 114.379 292.15 115.352 292.15C115.979 292.15 116.587 292.259 117.176 292.477C117.765 292.682 118.251 292.976 118.635 293.36L118.002 294.723C117.643 294.378 117.24 294.122 116.792 293.955C116.344 293.776 115.909 293.686 115.486 293.686C114.565 293.686 113.842 293.981 113.317 294.57C112.792 295.158 112.53 296.01 112.53 297.123C112.53 298.25 112.792 299.114 113.317 299.715C113.842 300.317 114.565 300.618 115.486 300.618C115.896 300.618 116.325 300.541 116.773 300.387C117.221 300.221 117.63 299.958 118.002 299.6L118.635 300.963C118.238 301.347 117.739 301.648 117.138 301.866C116.549 302.07 115.954 302.173 115.352 302.173ZM122.912 302V293.878H119.494V292.323H128.269V293.878H124.832V302H122.912ZM133.602 302.173C132.744 302.173 131.996 301.974 131.356 301.578C130.716 301.181 130.216 300.605 129.858 299.85C129.512 299.094 129.34 298.198 129.34 297.162C129.34 296.112 129.512 295.216 129.858 294.474C130.216 293.731 130.716 293.162 131.356 292.765C131.996 292.355 132.744 292.15 133.602 292.15C134.447 292.15 135.183 292.362 135.81 292.784C136.437 293.206 136.853 293.782 137.058 294.512H136.847L137.039 292.323H138.92C138.882 292.72 138.844 293.117 138.805 293.514C138.78 293.898 138.767 294.275 138.767 294.646V302H136.828V299.85H137.039C136.834 300.566 136.412 301.136 135.772 301.558C135.144 301.968 134.421 302.173 133.602 302.173ZM134.082 300.656C134.914 300.656 135.58 300.362 136.079 299.773C136.591 299.184 136.847 298.314 136.847 297.162C136.847 296.01 136.591 295.146 136.079 294.57C135.58 293.981 134.914 293.686 134.082 293.686C133.237 293.686 132.559 293.981 132.047 294.57C131.548 295.146 131.298 296.01 131.298 297.162C131.298 298.314 131.548 299.184 132.047 299.773C132.546 300.362 133.224 300.656 134.082 300.656ZM143.818 302V293.878H140.401V292.323H149.175V293.878H145.738V302H143.818ZM150.726 302V292.323H152.646V296.278H154.316L157.331 292.323H159.443L155.833 297.085L155.353 296.47C155.724 296.509 156.044 296.605 156.313 296.758C156.582 296.899 156.844 297.11 157.1 297.392C157.356 297.674 157.619 298.045 157.887 298.506L159.903 302H157.83L156.102 299.043C155.91 298.71 155.724 298.454 155.545 298.275C155.366 298.083 155.161 297.955 154.931 297.891C154.7 297.814 154.419 297.776 154.086 297.776H152.646V302H150.726ZM161.32 302V292.323H163.086V300.138H162.548L168.385 292.323H169.998V302H168.251V294.166H168.808L162.932 302H161.32ZM178.026 302V292.323H186.704V302H184.784V293.84H179.946V302H178.026ZM193.837 302.173C192.877 302.173 192.045 301.974 191.341 301.578C190.637 301.168 190.093 300.592 189.709 299.85C189.325 299.094 189.133 298.198 189.133 297.162C189.133 296.125 189.325 295.235 189.709 294.493C190.093 293.738 190.637 293.162 191.341 292.765C192.045 292.355 192.877 292.15 193.837 292.15C194.797 292.15 195.629 292.355 196.333 292.765C197.05 293.162 197.601 293.738 197.985 294.493C198.381 295.235 198.58 296.125 198.58 297.162C198.58 298.198 198.381 299.094 197.985 299.85C197.601 300.592 197.05 301.168 196.333 301.578C195.629 301.974 194.797 302.173 193.837 302.173ZM193.837 300.656C194.682 300.656 195.354 300.362 195.853 299.773C196.353 299.184 196.602 298.314 196.602 297.162C196.602 296.01 196.353 295.146 195.853 294.57C195.354 293.981 194.682 293.686 193.837 293.686C193.005 293.686 192.34 293.981 191.841 294.57C191.341 295.146 191.092 296.01 191.092 297.162C191.092 298.314 191.335 299.184 191.821 299.773C192.321 300.362 192.993 300.656 193.837 300.656ZM210.415 302.173C209.442 302.173 208.591 301.974 207.861 301.578C207.144 301.168 206.587 300.586 206.191 299.83C205.807 299.062 205.615 298.154 205.615 297.104C205.615 296.067 205.813 295.178 206.21 294.435C206.607 293.693 207.163 293.13 207.88 292.746C208.597 292.349 209.442 292.15 210.415 292.15C211.042 292.15 211.65 292.259 212.239 292.477C212.827 292.682 213.314 292.976 213.698 293.36L213.064 294.723C212.706 294.378 212.303 294.122 211.855 293.955C211.407 293.776 210.971 293.686 210.549 293.686C209.627 293.686 208.904 293.981 208.379 294.57C207.855 295.158 207.592 296.01 207.592 297.123C207.592 298.25 207.855 299.114 208.379 299.715C208.904 300.317 209.627 300.618 210.549 300.618C210.959 300.618 211.387 300.541 211.835 300.387C212.283 300.221 212.693 299.958 213.064 299.6L213.698 300.963C213.301 301.347 212.802 301.648 212.2 301.866C211.611 302.07 211.016 302.173 210.415 302.173ZM215.901 302V292.323H217.821V296.278H219.491L222.506 292.323H224.618L221.008 297.085L220.528 296.47C220.899 296.509 221.219 296.605 221.488 296.758C221.757 296.899 222.019 297.11 222.275 297.392C222.531 297.674 222.794 298.045 223.062 298.506L225.078 302H223.005L221.277 299.043C221.085 298.71 220.899 298.454 220.72 298.275C220.541 298.083 220.336 297.955 220.106 297.891C219.875 297.814 219.594 297.776 219.261 297.776H217.821V302H215.901ZM226.091 302.25L225.439 300.714C225.874 300.534 226.239 300.31 226.533 300.042C226.84 299.76 227.077 299.402 227.243 298.966C227.423 298.531 227.551 297.994 227.627 297.354C227.704 296.714 227.743 295.939 227.743 295.03V292.323H235.039V302H233.119V293.84H229.528V295.088C229.528 296.547 229.413 297.757 229.183 298.717C228.952 299.677 228.581 300.438 228.069 301.002C227.57 301.552 226.911 301.968 226.091 302.25ZM241.733 302.173C240.876 302.173 240.127 301.974 239.487 301.578C238.847 301.181 238.348 300.605 237.989 299.85C237.644 299.094 237.471 298.198 237.471 297.162C237.471 296.112 237.644 295.216 237.989 294.474C238.348 293.731 238.847 293.162 239.487 292.765C240.127 292.355 240.876 292.15 241.733 292.15C242.578 292.15 243.314 292.362 243.941 292.784C244.568 293.206 244.984 293.782 245.189 294.512H244.978L245.17 292.323H247.052C247.013 292.72 246.975 293.117 246.936 293.514C246.911 293.898 246.898 294.275 246.898 294.646V302H244.959V299.85H245.17C244.965 300.566 244.543 301.136 243.903 301.558C243.276 301.968 242.552 302.173 241.733 302.173ZM242.213 300.656C243.045 300.656 243.711 300.362 244.21 299.773C244.722 299.184 244.978 298.314 244.978 297.162C244.978 296.01 244.722 295.146 244.21 294.57C243.711 293.981 243.045 293.686 242.213 293.686C241.368 293.686 240.69 293.981 240.178 294.57C239.679 295.146 239.429 296.01 239.429 297.162C239.429 298.314 239.679 299.184 240.178 299.773C240.677 300.362 241.356 300.656 242.213 300.656ZM248.916 304.496V300.502H249.991C250.413 299.862 250.721 299.114 250.913 298.256C251.105 297.398 251.201 296.362 251.201 295.146V292.323H258.285V300.502H259.841V304.496H258.17V302H250.586V304.496H248.916ZM251.777 300.522H256.461V293.821H252.871V295.53C252.871 296.464 252.775 297.379 252.583 298.275C252.404 299.158 252.135 299.907 251.777 300.522ZM265.546 302.173C264.688 302.173 263.939 301.974 263.299 301.578C262.659 301.181 262.16 300.605 261.802 299.85C261.456 299.094 261.283 298.198 261.283 297.162C261.283 296.112 261.456 295.216 261.802 294.474C262.16 293.731 262.659 293.162 263.299 292.765C263.939 292.355 264.688 292.15 265.546 292.15C266.391 292.15 267.127 292.362 267.754 292.784C268.381 293.206 268.797 293.782 269.002 294.512H268.791L268.983 292.323H270.864C270.826 292.72 270.787 293.117 270.749 293.514C270.723 293.898 270.711 294.275 270.711 294.646V302H268.771V299.85H268.983C268.778 300.566 268.355 301.136 267.715 301.558C267.088 301.968 266.365 302.173 265.546 302.173ZM266.026 300.656C266.858 300.656 267.523 300.362 268.023 299.773C268.535 299.184 268.791 298.314 268.791 297.162C268.791 296.01 268.535 295.146 268.023 294.57C267.523 293.981 266.858 293.686 266.026 293.686C265.181 293.686 264.503 293.981 263.991 294.57C263.491 295.146 263.242 296.01 263.242 297.162C263.242 298.314 263.491 299.184 263.991 299.773C264.49 300.362 265.168 300.656 266.026 300.656ZM273.688 302V292.323H275.301L278.796 298.506L282.29 292.323H283.903V302H282.194V294.493H282.616L279.256 300.445H278.335L274.975 294.493H275.397V302H273.688Z" fill="black"/>
<rect x="315.61" y="273" width="322" height="44" rx="9.6" fill="white"/>
<circle opacity="0.2" cx="344.61" cy="295" r="14.4" fill="#4092F7"/>
<rect opacity="0.4" x="335.61" y="286" width="18" height="18" rx="9" fill="#4092F7"/>
<rect x="336.09" y="286.48" width="17.04" height="17.04" rx="8.52" stroke="#4092F7" strokeWidth="0.96"/>
<circle cx="344.731" cy="294.64" r="2.16" fill="white" stroke="#1261C2" strokeWidth="1.44"/>
<path d="M366.743 295.222C366.743 293.802 366.993 292.573 367.492 291.536C367.991 290.499 368.714 289.699 369.662 289.136C370.622 288.573 371.761 288.291 373.079 288.291C374.385 288.291 375.511 288.573 376.458 289.136C377.406 289.699 378.135 290.499 378.647 291.536C379.172 292.573 379.434 293.795 379.434 295.203C379.434 296.624 379.172 297.859 378.647 298.909C378.135 299.946 377.399 300.752 376.439 301.328C375.492 301.891 374.372 302.173 373.079 302.173C371.761 302.173 370.628 301.891 369.681 301.328C368.734 300.752 368.004 299.946 367.492 298.909C366.993 297.859 366.743 296.63 366.743 295.222ZM368.836 295.222C368.836 296.861 369.194 298.141 369.911 299.062C370.628 299.984 371.684 300.445 373.079 300.445C374.436 300.445 375.486 299.99 376.228 299.082C376.97 298.16 377.342 296.874 377.342 295.222C377.342 293.571 376.97 292.291 376.228 291.382C375.498 290.474 374.449 290.019 373.079 290.019C371.684 290.019 370.628 290.474 369.911 291.382C369.194 292.291 368.836 293.571 368.836 295.222ZM386.333 302.173C384.874 302.173 383.709 301.718 382.838 300.81C381.981 299.901 381.552 298.563 381.552 296.797V295.126C381.552 293.322 381.936 291.869 382.704 290.768C383.485 289.667 384.688 288.925 386.314 288.541L389.846 287.696L390.403 289.251L386.448 290.173C385.757 290.326 385.187 290.614 384.739 291.037C384.291 291.459 383.952 291.958 383.722 292.534C383.504 293.11 383.395 293.725 383.395 294.378V295.261H383.107C383.261 294.672 383.504 294.173 383.837 293.763C384.182 293.341 384.605 293.014 385.104 292.784C385.616 292.541 386.186 292.419 386.813 292.419C387.645 292.419 388.374 292.611 389.002 292.995C389.629 293.379 390.115 293.936 390.461 294.666C390.819 295.382 390.998 296.234 390.998 297.219C390.998 298.243 390.806 299.126 390.422 299.869C390.038 300.611 389.494 301.181 388.79 301.578C388.099 301.974 387.28 302.173 386.333 302.173ZM386.275 300.675C387.146 300.675 387.824 300.394 388.31 299.83C388.81 299.254 389.059 298.41 389.059 297.296C389.059 296.195 388.81 295.357 388.31 294.781C387.811 294.205 387.133 293.917 386.275 293.917C385.418 293.917 384.739 294.205 384.24 294.781C383.741 295.344 383.491 296.15 383.491 297.2C383.491 298.352 383.734 299.222 384.221 299.811C384.72 300.387 385.405 300.675 386.275 300.675ZM406.354 304.496V302H393.413V292.323H395.237V300.483H399.02V292.323H400.844V300.483H404.607V292.323H406.45V300.483H407.986V304.496H406.354ZM413.714 302.173C412.857 302.173 412.108 301.974 411.468 301.578C410.828 301.181 410.329 300.605 409.97 299.85C409.625 299.094 409.452 298.198 409.452 297.162C409.452 296.112 409.625 295.216 409.97 294.474C410.329 293.731 410.828 293.162 411.468 292.765C412.108 292.355 412.857 292.15 413.714 292.15C414.559 292.15 415.295 292.362 415.922 292.784C416.55 293.206 416.966 293.782 417.17 294.512H416.959L417.151 292.323H419.033C418.994 292.72 418.956 293.117 418.918 293.514C418.892 293.898 418.879 294.275 418.879 294.646V302H416.94V299.85H417.151C416.946 300.566 416.524 301.136 415.884 301.558C415.257 301.968 414.534 302.173 413.714 302.173ZM414.194 300.656C415.026 300.656 415.692 300.362 416.191 299.773C416.703 299.184 416.959 298.314 416.959 297.162C416.959 296.01 416.703 295.146 416.191 294.57C415.692 293.981 415.026 293.686 414.194 293.686C413.35 293.686 412.671 293.981 412.159 294.57C411.66 295.146 411.41 296.01 411.41 297.162C411.41 298.314 411.66 299.184 412.159 299.773C412.658 300.362 413.337 300.656 414.194 300.656ZM421.07 302L422.587 299.389C422.83 298.966 423.137 298.627 423.508 298.371C423.892 298.102 424.283 297.968 424.679 297.968H425.025L425.006 298.16C423.905 298.16 423.047 297.91 422.433 297.411C421.819 296.912 421.511 296.195 421.511 295.261C421.511 294.326 421.819 293.603 422.433 293.091C423.047 292.579 423.95 292.323 425.14 292.323H429.671V302H427.886V298.41H426.599C426.113 298.41 425.697 298.531 425.351 298.774C425.019 299.018 424.743 299.338 424.526 299.734L423.22 302H421.07ZM425.486 297.104H427.886V293.629H425.486C424.769 293.629 424.231 293.782 423.873 294.09C423.527 294.397 423.355 294.819 423.355 295.357C423.355 295.92 423.527 296.355 423.873 296.662C424.231 296.957 424.769 297.104 425.486 297.104ZM442.021 302.173C441.048 302.173 440.197 301.974 439.467 301.578C438.75 301.168 438.194 300.586 437.797 299.83C437.413 299.062 437.221 298.154 437.221 297.104C437.221 296.067 437.419 295.178 437.816 294.435C438.213 293.693 438.77 293.13 439.486 292.746C440.203 292.349 441.048 292.15 442.021 292.15C442.648 292.15 443.256 292.259 443.845 292.477C444.434 292.682 444.92 292.976 445.304 293.36L444.67 294.723C444.312 294.378 443.909 294.122 443.461 293.955C443.013 293.776 442.578 293.686 442.155 293.686C441.234 293.686 440.51 293.981 439.986 294.57C439.461 295.158 439.198 296.01 439.198 297.123C439.198 298.25 439.461 299.114 439.986 299.715C440.51 300.317 441.234 300.618 442.155 300.618C442.565 300.618 442.994 300.541 443.442 300.387C443.89 300.221 444.299 299.958 444.67 299.6L445.304 300.963C444.907 301.347 444.408 301.648 443.806 301.866C443.218 302.07 442.622 302.173 442.021 302.173ZM449.581 302V293.878H446.163V292.323H454.937V293.878H451.501V302H449.581ZM460.271 302.173C459.413 302.173 458.664 301.974 458.024 301.578C457.384 301.181 456.885 300.605 456.527 299.85C456.181 299.094 456.008 298.198 456.008 297.162C456.008 296.112 456.181 295.216 456.527 294.474C456.885 293.731 457.384 293.162 458.024 292.765C458.664 292.355 459.413 292.15 460.271 292.15C461.116 292.15 461.852 292.362 462.479 292.784C463.106 293.206 463.522 293.782 463.727 294.512H463.516L463.708 292.323H465.589C465.551 292.72 465.512 293.117 465.474 293.514C465.448 293.898 465.436 294.275 465.436 294.646V302H463.496V299.85H463.708C463.503 300.566 463.08 301.136 462.44 301.558C461.813 301.968 461.09 302.173 460.271 302.173ZM460.751 300.656C461.583 300.656 462.248 300.362 462.748 299.773C463.26 299.184 463.516 298.314 463.516 297.162C463.516 296.01 463.26 295.146 462.748 294.57C462.248 293.981 461.583 293.686 460.751 293.686C459.906 293.686 459.228 293.981 458.716 294.57C458.216 295.146 457.967 296.01 457.967 297.162C457.967 298.314 458.216 299.184 458.716 299.773C459.215 300.362 459.893 300.656 460.751 300.656ZM470.487 302V293.878H467.069V292.323H475.844V293.878H472.407V302H470.487ZM477.395 302V292.323H479.161V300.138H478.623L484.46 292.323H486.073V302H484.326V294.166H484.883L479.007 302H477.395ZM493.302 302.173C492.329 302.173 491.478 301.974 490.748 301.578C490.032 301.168 489.475 300.586 489.078 299.83C488.694 299.062 488.502 298.154 488.502 297.104C488.502 296.067 488.7 295.178 489.097 294.435C489.494 293.693 490.051 293.13 490.768 292.746C491.484 292.349 492.329 292.15 493.302 292.15C493.929 292.15 494.537 292.259 495.126 292.477C495.715 292.682 496.201 292.976 496.585 293.36L495.952 294.723C495.593 294.378 495.19 294.122 494.742 293.955C494.294 293.776 493.859 293.686 493.436 293.686C492.515 293.686 491.792 293.981 491.267 294.57C490.742 295.158 490.48 296.01 490.48 297.123C490.48 298.25 490.742 299.114 491.267 299.715C491.792 300.317 492.515 300.618 493.436 300.618C493.846 300.618 494.275 300.541 494.723 300.387C495.171 300.221 495.58 299.958 495.952 299.6L496.585 300.963C496.188 301.347 495.689 301.648 495.088 301.866C494.499 302.07 493.904 302.173 493.302 302.173ZM500.862 302V293.878H497.444V292.323H506.219V293.878H502.782V302H500.862ZM507.77 302V292.323H509.536V300.138H508.998L514.835 292.323H516.448V302H514.701V294.166H515.258L509.382 302H507.77ZM519.357 302V292.323H521.277V296.278H522.947L525.962 292.323H528.074L524.464 297.085L523.984 296.47C524.355 296.509 524.675 296.605 524.944 296.758C525.213 296.899 525.475 297.11 525.731 297.392C525.987 297.674 526.25 298.045 526.519 298.506L528.535 302H526.461L524.733 299.043C524.541 298.71 524.355 298.454 524.176 298.275C523.997 298.083 523.792 297.955 523.562 297.891C523.331 297.814 523.05 297.776 522.717 297.776H521.277V302H519.357ZM533.733 302.173C532.876 302.173 532.127 301.974 531.487 301.578C530.847 301.181 530.348 300.605 529.989 299.85C529.644 299.094 529.471 298.198 529.471 297.162C529.471 296.112 529.644 295.216 529.989 294.474C530.348 293.731 530.847 293.162 531.487 292.765C532.127 292.355 532.876 292.15 533.733 292.15C534.578 292.15 535.314 292.362 535.941 292.784C536.568 293.206 536.984 293.782 537.189 294.512H536.978L537.17 292.323H539.052C539.013 292.72 538.975 293.117 538.936 293.514C538.911 293.898 538.898 294.275 538.898 294.646V302H536.959V299.85H537.17C536.965 300.566 536.543 301.136 535.903 301.558C535.276 301.968 534.552 302.173 533.733 302.173ZM534.213 300.656C535.045 300.656 535.711 300.362 536.21 299.773C536.722 299.184 536.978 298.314 536.978 297.162C536.978 296.01 536.722 295.146 536.21 294.57C535.711 293.981 535.045 293.686 534.213 293.686C533.368 293.686 532.69 293.981 532.178 294.57C531.679 295.146 531.429 296.01 531.429 297.162C531.429 298.314 531.679 299.184 532.178 299.773C532.677 300.362 533.356 300.656 534.213 300.656ZM550.355 302.173C549.51 302.173 548.716 302.07 547.974 301.866C547.231 301.648 546.623 301.341 546.15 300.944L546.745 299.638C547.219 300.01 547.763 300.291 548.377 300.483C548.991 300.662 549.651 300.752 550.355 300.752C551.238 300.752 551.878 300.624 552.275 300.368C552.684 300.099 552.889 299.722 552.889 299.235C552.889 298.762 552.723 298.403 552.39 298.16C552.057 297.917 551.571 297.795 550.931 297.795H548.55V296.413H550.739C551.315 296.413 551.763 296.291 552.083 296.048C552.403 295.805 552.563 295.466 552.563 295.03C552.563 294.57 552.377 294.211 552.006 293.955C551.635 293.699 551.059 293.571 550.278 293.571C549.612 293.571 549.004 293.654 548.454 293.821C547.903 293.987 547.379 294.237 546.879 294.57L546.303 293.322C546.828 292.925 547.449 292.63 548.166 292.438C548.883 292.246 549.657 292.15 550.489 292.15C551.743 292.15 552.697 292.387 553.35 292.861C554.003 293.322 554.329 293.987 554.329 294.858C554.329 295.459 554.124 295.971 553.715 296.394C553.318 296.816 552.78 297.072 552.102 297.162V296.912C552.883 296.95 553.503 297.187 553.964 297.622C554.438 298.045 554.675 298.608 554.675 299.312C554.675 300.182 554.303 300.88 553.561 301.405C552.831 301.917 551.763 302.173 550.355 302.173ZM560.714 302.173C559.857 302.173 559.108 301.974 558.468 301.578C557.828 301.181 557.329 300.605 556.97 299.85C556.625 299.094 556.452 298.198 556.452 297.162C556.452 296.112 556.625 295.216 556.97 294.474C557.329 293.731 557.828 293.162 558.468 292.765C559.108 292.355 559.857 292.15 560.714 292.15C561.559 292.15 562.295 292.362 562.922 292.784C563.55 293.206 563.966 293.782 564.17 294.512H563.959L564.151 292.323H566.033C565.994 292.72 565.956 293.117 565.918 293.514C565.892 293.898 565.879 294.275 565.879 294.646V302H563.94V299.85H564.151C563.946 300.566 563.524 301.136 562.884 301.558C562.257 301.968 561.534 302.173 560.714 302.173ZM561.194 300.656C562.026 300.656 562.692 300.362 563.191 299.773C563.703 299.184 563.959 298.314 563.959 297.162C563.959 296.01 563.703 295.146 563.191 294.57C562.692 293.981 562.026 293.686 561.194 293.686C560.35 293.686 559.671 293.981 559.159 294.57C558.66 295.146 558.41 296.01 558.41 297.162C558.41 298.314 558.66 299.184 559.159 299.773C559.658 300.362 560.337 300.656 561.194 300.656ZM573.016 304.496V300.502H574.091C574.513 299.862 574.821 299.114 575.013 298.256C575.205 297.398 575.301 296.362 575.301 295.146V292.323H582.385V300.502H583.941V304.496H582.27V302H574.686V304.496H573.016ZM575.877 300.522H580.561V293.821H576.971V295.53C576.971 296.464 576.875 297.379 576.683 298.275C576.504 299.158 576.235 299.907 575.877 300.522ZM590.414 302.173C588.852 302.173 587.623 301.731 586.727 300.848C585.831 299.965 585.383 298.742 585.383 297.181C585.383 296.17 585.575 295.286 585.959 294.531C586.356 293.776 586.9 293.194 587.591 292.784C588.295 292.362 589.108 292.15 590.03 292.15C590.939 292.15 591.7 292.342 592.315 292.726C592.929 293.11 593.396 293.654 593.716 294.358C594.036 295.05 594.196 295.869 594.196 296.816V297.43H586.9V296.317H592.871L592.545 296.566C592.545 295.606 592.327 294.864 591.892 294.339C591.47 293.802 590.855 293.533 590.049 293.533C589.153 293.533 588.462 293.846 587.975 294.474C587.489 295.088 587.246 295.939 587.246 297.027V297.219C587.246 298.358 587.521 299.216 588.071 299.792C588.635 300.368 589.428 300.656 590.452 300.656C591.015 300.656 591.54 300.579 592.027 300.426C592.526 300.259 592.999 299.99 593.447 299.619L594.081 300.944C593.633 301.341 593.089 301.648 592.449 301.866C591.809 302.07 591.131 302.173 590.414 302.173ZM596.57 302V292.323H598.49V296.259H603.386V292.323H605.306V302H603.386V297.776H598.49V302H596.57ZM608.232 302V292.323H610.152V295.702H612.898C614.165 295.702 615.118 295.971 615.758 296.509C616.398 297.034 616.718 297.802 616.718 298.813C616.718 299.466 616.571 300.035 616.277 300.522C615.982 300.995 615.547 301.36 614.971 301.616C614.408 301.872 613.717 302 612.898 302H608.232ZM610.152 300.675H612.686C613.403 300.675 613.954 300.528 614.338 300.234C614.722 299.926 614.914 299.459 614.914 298.832C614.914 298.205 614.722 297.75 614.338 297.469C613.966 297.174 613.416 297.027 612.686 297.027H610.152V300.675Z" fill="black"/>
</svg>
