<svg width="194" height="301" viewBox="0 0 194 301" fill="none" xmlns="http://www.w3.org/2000/svg">
<g clip-path="url(#clip0_1081_2654)">
<rect x="0.5" y="0.100098" width="193" height="300" rx="16" fill="#F7F7F7"/>
<rect x="-11.5" y="295.1" width="94" height="61" rx="8.10263" transform="rotate(-70.3402 -11.5 295.1)" fill="#1A1A1A"/>
<path d="M35.3515 295.046L15.5685 275.713L17.1158 271.382L44.7192 268.826L42.8241 274.13L35.2242 274.633L37.3995 273.101L32.3738 287.168L31.6738 284.571L37.2347 289.775L35.3515 295.046ZM21.8422 275.531L30.5684 283.532L28.9687 283.983L32.747 273.407L33.7469 274.635L21.8902 275.397L21.8422 275.531ZM45.4483 266.785L21.7791 258.329L25.7253 247.283C26.6768 244.62 28.0456 242.837 29.8315 241.935C31.6031 241.004 33.608 240.937 35.8462 241.737C38.062 242.529 39.5823 243.854 40.4071 245.714C41.2175 247.543 41.1469 249.789 40.1954 252.453L38.1203 258.261L47.3194 261.547L45.4483 266.785ZM34.058 256.809L35.8931 251.673C36.3409 250.419 36.393 249.391 36.0493 248.586C35.7137 247.76 35.0422 247.166 34.035 246.807C33.0278 246.447 32.1437 246.484 31.3826 246.919C30.6072 247.323 29.9955 248.152 29.5477 249.406L27.7126 254.543L34.058 256.809ZM53.5422 244.129L29.873 235.673L31.7441 230.436L55.4133 238.892L53.5422 244.129Z" fill="white"/>
<rect x="120.5" y="174.1" width="94" height="61" rx="8.10263" transform="rotate(19.6312 120.5 174.1)" fill="#4092F7"/>
<path d="M120.577 220.952L139.901 201.159L144.233 202.704L146.802 230.307L141.497 228.414L140.99 220.814L142.524 222.989L128.454 217.97L131.051 217.269L125.849 222.832L120.577 220.952ZM140.086 207.433L132.089 216.163L131.637 214.564L142.215 218.337L140.987 219.337L140.22 207.481L140.086 207.433ZM148.844 231.035L157.288 207.361L168.335 211.302C170.999 212.252 172.783 213.62 173.685 215.405C174.618 217.177 174.685 219.181 173.886 221.42C173.096 223.636 171.771 225.157 169.912 225.983C168.083 226.794 165.837 226.725 163.173 225.775L157.364 223.702L154.082 232.903L148.844 231.035ZM158.813 219.639L163.951 221.472C165.204 221.919 166.233 221.971 167.037 221.627C167.864 221.291 168.457 220.619 168.816 219.611C169.175 218.604 169.137 217.72 168.702 216.959C168.297 216.184 167.468 215.573 166.215 215.125L161.077 213.293L158.813 219.639ZM171.503 239.117L179.947 215.444L185.186 217.312L176.741 240.986L171.503 239.117Z" fill="white"/>
<rect x="104.5" y="266.1" width="94" height="61" rx="8.10263" transform="rotate(-26.9865 104.5 266.1)" fill="#F0AD00"/>
<path d="M138.604 298.225L137.492 270.586L141.59 268.499L163.416 285.59L158.396 288.146L152.525 283.294L155.159 283.673L141.847 290.452L143.121 288.083L143.592 295.685L138.604 298.225ZM142.178 274.76L143.03 286.569L141.558 285.798L151.565 280.702L151.449 282.282L142.305 274.696L142.178 274.76ZM165.347 284.606L153.942 262.209L164.394 256.886C166.914 255.603 169.133 255.246 171.051 255.817C172.979 256.355 174.482 257.684 175.56 259.802C176.628 261.898 176.824 263.906 176.147 265.824C175.48 267.711 173.887 269.296 171.367 270.579L165.87 273.378L170.303 282.083L165.347 284.606ZM163.913 269.534L168.774 267.058C169.96 266.454 170.704 265.742 171.006 264.921C171.329 264.09 171.248 263.198 170.763 262.245C170.278 261.291 169.609 260.712 168.757 260.505C167.916 260.267 166.902 260.45 165.716 261.054L160.855 263.529L163.913 269.534ZM186.785 273.689L175.38 251.292L180.336 248.768L191.741 271.166L186.785 273.689Z" fill="white"/>
<rect x="44.5" y="256.1" width="94" height="61" rx="8.10263" transform="rotate(-11.1203 44.5 256.1)" fill="#5329FF"/>
<path d="M68.5224 296.325L75.0089 269.434L79.5216 268.547L95.8435 290.955L90.3163 292.041L85.9951 285.769L88.4247 286.854L73.7671 289.735L75.6403 287.804L74.0146 295.245L68.5224 296.325ZM78.3755 274.731L75.9669 286.323L74.7611 285.179L85.7804 283.013L85.2371 284.501L78.5154 274.704L78.3755 274.731ZM97.97 290.537L93.1223 265.874L104.631 263.612C107.407 263.066 109.639 263.33 111.327 264.403C113.034 265.448 114.117 267.137 114.576 269.469C115.029 271.778 114.669 273.762 113.493 275.423C112.336 277.055 110.37 278.144 107.595 278.689L101.543 279.879L103.427 289.464L97.97 290.537ZM100.711 275.646L106.063 274.594C107.369 274.337 108.28 273.855 108.795 273.149C109.333 272.437 109.5 271.557 109.293 270.507C109.087 269.458 108.602 268.717 107.839 268.286C107.095 267.827 106.07 267.726 104.764 267.982L99.4116 269.034L100.711 275.646ZM121.576 285.897L116.729 261.234L122.186 260.161L127.033 284.824L121.576 285.897Z" fill="white"/>
<rect x="-19.5" y="88.1001" width="94" height="61" rx="8.10263" transform="rotate(-31.1941 -19.5 88.1001)" fill="#4092F7"/>
<path d="M16.8689 117.636L13.7319 90.1529L17.666 87.7709L40.6871 103.215L35.8686 106.132L29.6571 101.724L32.3114 101.909L19.5332 109.646L20.63 107.19L21.657 114.737L16.8689 117.636ZM18.712 93.9727L20.4283 105.687L18.9032 105.026L28.5098 99.2099L28.51 100.793L18.834 93.8988L18.712 93.9727ZM42.541 102.092L29.5229 80.5918L39.5564 74.5167C41.9758 73.0518 44.1626 72.5334 46.1169 72.9617C48.0791 73.3574 49.6757 74.5718 50.9067 76.6049C52.1254 78.6177 52.4677 80.6055 51.9334 82.5683C51.4072 84.4984 49.9344 86.196 47.515 87.6609L42.239 90.8554L47.2985 99.2116L42.541 102.092ZM40.0047 87.1652L44.6707 84.34C45.8093 83.6507 46.4992 82.8857 46.7403 82.045C47.0019 81.192 46.8556 80.3081 46.3017 79.3932C45.7477 78.4783 45.0384 77.9492 44.1737 77.8059C43.317 77.63 42.3193 77.8867 41.1808 78.5761L36.5147 81.4013L40.0047 87.1652ZM63.1205 89.6316L50.1024 68.1313L54.8599 65.2507L67.878 86.751L63.1205 89.6316Z" fill="white"/>
<rect x="18.5" y="104.1" width="94" height="61" rx="8.10263" transform="rotate(10.4261 18.5 104.1)" fill="#1A1A1A"/>
<path d="M26.0712 150.336L41.9801 127.707L46.5032 128.539L53.4554 155.375L47.9154 154.356L46.1996 146.935L48.061 148.836L33.3696 146.133L35.821 145.025L31.5761 151.349L26.0712 150.336ZM43.166 133.87L36.6687 143.767L35.9671 142.261L47.0119 144.293L45.9603 145.477L43.3063 133.896L43.166 133.87ZM55.5868 155.767L60.1353 131.048L71.671 133.17C74.4526 133.682 76.4317 134.747 77.6081 136.365C78.8122 137.964 79.1992 139.933 78.7691 142.27C78.3433 144.584 77.2789 146.298 75.5758 147.41C73.9005 148.504 71.6719 148.794 68.8903 148.282L62.8244 147.166L61.0566 156.774L55.5868 155.767ZM63.6051 142.924L68.9697 143.911C70.2787 144.152 71.3025 144.038 72.0412 143.57C72.8032 143.106 73.281 142.348 73.4746 141.296C73.6681 140.244 73.4893 139.377 72.938 138.696C72.4144 137.995 71.4981 137.525 70.1891 137.284L64.8244 136.297L63.6051 142.924ZM79.2474 160.121L83.7959 135.401L89.2657 136.408L84.7173 161.127L79.2474 160.121Z" fill="white"/>
<rect x="22.5" y="-65.8999" width="94" height="61" rx="8.10263" transform="rotate(27.886 22.5 -65.8999)" fill="#1A1A1A"/>
<path d="M15.8499 -19.5224L37.8154 -36.3356L41.8804 -34.1845L40.4605 -6.49947L35.4817 -9.13407L36.0714 -16.7277L37.2766 -14.3556L24.0732 -21.3423L26.744 -21.6634L20.7972 -16.9045L15.8499 -19.5224ZM37.0975 -30.1005L27.93 -22.6089L27.7128 -24.2566L37.639 -19.0041L36.2806 -18.1901L37.2235 -30.0338L37.0975 -30.1005ZM42.3761 -5.48583L54.1318 -27.7016L64.4991 -22.2156C66.9991 -20.8928 68.5674 -19.2831 69.2041 -17.3865C69.873 -15.4998 69.6516 -13.5061 68.5399 -11.4053C67.4394 -9.32554 65.9099 -8.01054 63.9516 -7.4603C62.0254 -6.91995 59.8123 -7.3112 57.3123 -8.63406L51.8608 -11.5188L47.2919 -2.88457L42.3761 -5.48583ZM53.8785 -15.3317L58.6997 -12.7805C59.8762 -12.158 60.887 -11.9592 61.7321 -12.1843C62.5982 -12.3982 63.2814 -12.9778 63.7816 -13.9232C64.2819 -14.8686 64.3713 -15.749 64.0499 -16.5644C63.7606 -17.3897 63.0277 -18.1137 61.8513 -18.7362L57.03 -21.2874L53.8785 -15.3317ZM63.6404 5.76635L75.396 -16.4494L80.3119 -13.8482L68.5562 8.3676L63.6404 5.76635Z" fill="white"/>
<rect x="59.5" y="174.1" width="94" height="61" rx="8.10263" transform="rotate(26.3128 59.5 174.1)" fill="#F0AD00"/>
<path d="M54.1253 220.643L75.6209 203.233L79.7434 205.272L79.0842 232.985L74.0349 230.488L74.4159 222.881L75.6858 225.219L62.2956 218.598L64.9565 218.203L59.1426 223.124L54.1253 220.643ZM75.0744 209.485L66.1161 217.226L65.8538 215.585L75.9204 220.563L74.5849 221.414L75.2023 209.549L75.0744 209.485ZM81.0269 233.946L92.1682 211.416L102.682 216.615C105.218 217.869 106.829 219.435 107.518 221.313C108.238 223.181 108.072 225.18 107.018 227.31C105.975 229.419 104.483 230.776 102.54 231.38C100.629 231.973 98.4063 231.642 95.871 230.389L90.3424 227.655L86.0123 236.411L81.0269 233.946ZM92.2546 223.788L97.1441 226.206C98.3372 226.796 99.353 226.967 100.192 226.719C101.052 226.481 101.719 225.883 102.193 224.924C102.667 223.965 102.732 223.083 102.388 222.276C102.076 221.459 101.324 220.756 100.131 220.166L95.2414 217.748L92.2546 223.788ZM102.592 244.61L113.733 222.08L118.719 224.545L107.577 247.075L102.592 244.61Z" fill="white"/>
<rect x="100.5" y="50.1001" width="94" height="61" rx="8.10263" transform="rotate(-19.4489 100.5 50.1001)" fill="#F0AD00"/>
<path d="M130.096 86.4209L132.619 58.8745L136.955 57.3432L156.351 77.1498L151.039 79.0253L145.855 73.4454L148.416 74.1668L134.33 79.1407L135.904 76.9591L135.373 84.5571L130.096 86.4209ZM136.717 63.628L136.013 75.4463L134.654 74.4893L145.243 70.75L144.921 72.3005L136.851 63.5806L136.717 63.628ZM158.394 76.4282L150.025 52.728L161.085 48.8225C163.752 47.8807 165.999 47.8184 167.825 48.6356C169.666 49.4224 170.982 50.9363 171.773 53.1775C172.556 55.3962 172.487 57.4121 171.564 59.225C170.656 61.0076 168.869 62.3698 166.202 63.3115L160.386 65.3652L163.638 74.5763L158.394 76.4282ZM158.949 61.2975L164.093 59.4813C165.348 59.0381 166.179 58.4295 166.586 57.6556C167.016 56.8737 167.053 55.9785 166.697 54.97C166.341 53.9614 165.754 53.299 164.936 52.9828C164.133 52.6361 163.104 52.6844 161.849 53.1276L156.706 54.9438L158.949 61.2975ZM181.079 68.4177L172.71 44.7175L177.955 42.8657L186.324 66.5658L181.079 68.4177Z" fill="white"/>
<rect x="9.5" y="147.1" width="94" height="61" rx="8.10263" transform="rotate(48.8345 9.5 147.1)" fill="#5329FF"/>
<path d="M-13.292 188.034L13.2328 180.186L16.2601 183.648L5.03591 208.996L1.3281 204.755L4.59381 197.874L4.87124 200.52L-4.96151 189.275L-2.35247 189.93L-9.60761 192.248L-13.292 188.034ZM10.3332 185.752L-0.906812 189.471L-0.520547 187.854L6.87161 196.309L5.31199 196.583L10.427 185.859L10.3332 185.752ZM6.46246 210.627L25.3839 194.083L33.1046 202.913C34.9663 205.042 35.8555 207.106 35.772 209.105C35.7221 211.106 34.8025 212.889 33.0133 214.453C31.2419 216.002 29.3434 216.683 27.3178 216.497C25.3257 216.313 23.3988 215.156 21.537 213.027L17.4772 208.384L10.1233 214.814L6.46246 210.627ZM20.7247 205.544L24.3152 209.651C25.1913 210.653 26.0642 211.2 26.9339 211.292C27.8193 211.402 28.6646 211.104 29.4697 210.4C30.2749 209.696 30.6732 208.906 30.6645 208.03C30.6895 207.156 30.2638 206.217 29.3877 205.215L25.7973 201.109L20.7247 205.544ZM22.2982 228.738L41.2197 212.194L44.8805 216.381L25.9591 232.925L22.2982 228.738Z" fill="white"/>
<rect x="100.5" y="147.1" width="94" height="61" rx="8.10263" transform="rotate(-24.9665 100.5 147.1)" fill="#5329FF"/>
<path d="M133.451 180.407L133.314 152.746L137.483 150.805L158.693 168.654L153.586 171.032L147.89 165.976L150.508 166.448L136.966 172.753L138.323 170.431L138.525 178.044L133.451 180.407ZM137.85 157.083L138.286 168.914L136.841 168.092L147.022 163.352L146.85 164.927L137.979 157.023L137.85 157.083ZM160.658 167.74L150.049 144.954L160.682 140.003C163.246 138.809 165.476 138.531 167.373 139.169C169.28 139.775 170.736 141.156 171.739 143.31C172.732 145.443 172.857 147.457 172.113 149.35C171.38 151.212 169.732 152.739 167.168 153.933L161.576 156.536L165.7 165.392L160.658 167.74ZM159.756 152.626L164.701 150.323C165.907 149.762 166.676 149.076 167.007 148.266C167.359 147.447 167.31 146.552 166.859 145.583C166.407 144.613 165.759 144.01 164.915 143.774C164.083 143.506 163.063 143.653 161.857 144.215L156.912 146.517L159.756 152.626ZM182.467 157.585L171.859 134.799L176.9 132.452L187.509 155.238L182.467 157.585Z" fill="white"/>
</g>
<defs>
<clipPath id="clip0_1081_2654">
<rect x="0.5" y="0.100098" width="193" height="300" rx="16" fill="white"/>
</clipPath>
</defs>
</svg>
