<svg width="616" height="84" viewBox="0 0 616 84" fill="none" xmlns="http://www.w3.org/2000/svg">
<rect x="0.5" y="0.756348" width="615" height="82.3005" rx="8" fill="#270C94"/>
<rect x="28.6133" y="20.7563" width="70.772" height="42.3005" rx="21.1503" fill="#5329FF"/>
<rect x="61.1523" y="25.6372" width="32.5389" height="32.5389" rx="16.2694" fill="white"/>
<path d="M120.382 54.6567V49.0317H121.832C122.332 48.2484 122.69 47.3317 122.907 46.2817C123.14 45.2151 123.257 43.9151 123.257 42.3817V38.7817H132.982V49.0317H135.032V54.6567H132.382V51.4067H123.032V54.6567H120.382ZM124.632 49.0567H130.057V41.1317H125.907V43.0817C125.907 44.1984 125.799 45.2901 125.582 46.3567C125.365 47.4234 125.049 48.3234 124.632 49.0567ZM137.002 51.7567L136.027 49.3067C136.577 49.1067 137.036 48.8484 137.402 48.5317C137.786 48.1984 138.086 47.7817 138.302 47.2817C138.536 46.7651 138.702 46.1317 138.802 45.3817C138.902 44.6151 138.952 43.7067 138.952 42.6567V38.7817H149.002V51.4067H145.902V41.1817H141.802V42.7567C141.802 44.5734 141.636 46.0984 141.302 47.3317C140.969 48.5484 140.452 49.5151 139.752 50.2317C139.052 50.9484 138.136 51.4567 137.002 51.7567ZM151.512 51.4067L153.437 48.0817C153.77 47.5151 154.178 47.0651 154.662 46.7317C155.162 46.3817 155.678 46.2067 156.212 46.2067H156.762L156.737 46.4817C155.253 46.4817 154.112 46.1567 153.312 45.5067C152.512 44.8567 152.112 43.9067 152.112 42.6567C152.112 41.4234 152.52 40.4734 153.337 39.8067C154.17 39.1234 155.387 38.7817 156.987 38.7817H163.262V51.4067H160.412V46.9567H158.987C158.47 46.9567 158.012 47.0984 157.612 47.3817C157.228 47.6651 156.903 48.0317 156.637 48.4817L154.987 51.4067H151.512ZM157.587 44.9317H160.412V40.8067H157.587C156.737 40.8067 156.095 40.9901 155.662 41.3567C155.245 41.7234 155.037 42.2234 155.037 42.8567C155.037 43.5234 155.245 44.0401 155.662 44.4067C156.095 44.7567 156.737 44.9317 157.587 44.9317ZM179.605 51.6567C177.621 51.6567 176.038 51.0567 174.855 49.8567C173.688 48.6567 173.105 46.8984 173.105 44.5817V42.4317C173.105 40.0484 173.646 38.1317 174.73 36.6817C175.813 35.2317 177.446 34.2734 179.63 33.8067L184.255 32.7567L185.105 35.2067L179.905 36.3567C179.038 36.5401 178.321 36.8901 177.755 37.4067C177.188 37.9067 176.763 38.5067 176.48 39.2067C176.196 39.9067 176.055 40.6567 176.055 41.4567V42.7817H175.63C175.813 42.0317 176.121 41.3817 176.555 40.8317C176.988 40.2651 177.538 39.8234 178.205 39.5067C178.871 39.1901 179.63 39.0317 180.48 39.0317C181.546 39.0317 182.48 39.2817 183.28 39.7817C184.096 40.2651 184.738 40.9734 185.205 41.9067C185.671 42.8234 185.905 43.9234 185.905 45.2067C185.905 46.5234 185.638 47.6651 185.105 48.6317C184.588 49.5984 183.855 50.3484 182.905 50.8817C181.971 51.3984 180.871 51.6567 179.605 51.6567ZM179.505 49.2817C180.538 49.2817 181.338 48.9567 181.905 48.3067C182.488 47.6401 182.78 46.6484 182.78 45.3317C182.78 44.0484 182.488 43.0734 181.905 42.4067C181.321 41.7234 180.521 41.3817 179.505 41.3817C178.488 41.3817 177.688 41.7151 177.105 42.3817C176.521 43.0484 176.23 43.9984 176.23 45.2317C176.23 46.5817 176.521 47.5984 177.105 48.2817C177.688 48.9484 178.488 49.2817 179.505 49.2817ZM188.865 51.4067V38.7817H191.965V43.0067H195.29C196.974 43.0067 198.24 43.3651 199.09 44.0817C199.94 44.7817 200.365 45.7984 200.365 47.1317C200.365 47.9984 200.165 48.7567 199.765 49.4067C199.365 50.0401 198.782 50.5317 198.015 50.8817C197.265 51.2317 196.357 51.4067 195.29 51.4067H188.865ZM191.965 49.3567H194.865C195.715 49.3567 196.365 49.1817 196.815 48.8317C197.265 48.4651 197.49 47.9151 197.49 47.1817C197.49 46.4484 197.265 45.9151 196.815 45.5817C196.382 45.2317 195.732 45.0567 194.865 45.0567H191.965V49.3567ZM201.94 51.4067V38.7817H205.04V51.4067H201.94ZM214.492 51.6567C213.192 51.6567 212.05 51.3901 211.067 50.8567C210.1 50.3234 209.35 49.5651 208.817 48.5817C208.284 47.5817 208.017 46.3984 208.017 45.0317C208.017 43.6651 208.284 42.4984 208.817 41.5317C209.367 40.5651 210.125 39.8234 211.092 39.3067C212.059 38.7901 213.192 38.5317 214.492 38.5317C215.325 38.5317 216.134 38.6651 216.917 38.9317C217.717 39.1817 218.367 39.5484 218.867 40.0317L217.917 42.2067C217.467 41.7901 216.959 41.4817 216.392 41.2817C215.842 41.0651 215.3 40.9567 214.767 40.9567C213.65 40.9567 212.775 41.3067 212.142 42.0067C211.525 42.7067 211.217 43.7234 211.217 45.0567C211.217 46.3901 211.525 47.4151 212.142 48.1317C212.775 48.8484 213.65 49.2067 214.767 49.2067C215.284 49.2067 215.817 49.1067 216.367 48.9067C216.934 48.7067 217.45 48.3984 217.917 47.9817L218.867 50.1317C218.35 50.6151 217.692 50.9901 216.892 51.2567C216.109 51.5234 215.309 51.6567 214.492 51.6567ZM224.256 51.4067V41.2317H219.931V38.7817H231.706V41.2317H227.356V51.4067H224.256ZM233.741 56.8067V41.9317C233.741 41.4151 233.724 40.8901 233.691 40.3567C233.657 39.8234 233.607 39.2984 233.541 38.7817H236.566L236.841 41.4317H236.566C236.816 40.5484 237.341 39.8484 238.141 39.3317C238.957 38.7984 239.899 38.5317 240.966 38.5317C242.082 38.5317 243.057 38.7984 243.891 39.3317C244.724 39.8484 245.374 40.5984 245.841 41.5817C246.307 42.5484 246.541 43.7151 246.541 45.0817C246.541 46.4484 246.307 47.6234 245.841 48.6067C245.374 49.5901 244.724 50.3484 243.891 50.8817C243.057 51.3984 242.082 51.6567 240.966 51.6567C239.916 51.6567 238.991 51.3984 238.191 50.8817C237.391 50.3651 236.857 49.6734 236.591 48.8067H236.866V56.8067H233.741ZM240.091 49.2567C241.091 49.2567 241.891 48.9151 242.491 48.2317C243.091 47.5317 243.391 46.4817 243.391 45.0817C243.391 43.6817 243.091 42.6401 242.491 41.9567C241.891 41.2734 241.091 40.9317 240.091 40.9317C239.107 40.9317 238.316 41.2734 237.716 41.9567C237.116 42.6401 236.816 43.6817 236.816 45.0817C236.816 46.4817 237.116 47.5317 237.716 48.2317C238.316 48.9151 239.107 49.2567 240.091 49.2567ZM255.285 51.6567C253.985 51.6567 252.86 51.3901 251.91 50.8567C250.96 50.3234 250.219 49.5651 249.685 48.5817C249.169 47.5984 248.91 46.4317 248.91 45.0817C248.91 43.7317 249.169 42.5734 249.685 41.6067C250.219 40.6234 250.96 39.8651 251.91 39.3317C252.86 38.7984 253.985 38.5317 255.285 38.5317C256.585 38.5317 257.71 38.7984 258.66 39.3317C259.627 39.8651 260.369 40.6234 260.885 41.6067C261.419 42.5734 261.685 43.7317 261.685 45.0817C261.685 46.4317 261.419 47.5984 260.885 48.5817C260.369 49.5651 259.627 50.3234 258.66 50.8567C257.71 51.3901 256.585 51.6567 255.285 51.6567ZM255.285 49.2567C256.269 49.2567 257.052 48.9151 257.635 48.2317C258.219 47.5317 258.51 46.4817 258.51 45.0817C258.51 43.6817 258.219 42.6401 257.635 41.9567C257.052 41.2734 256.269 40.9317 255.285 40.9317C254.302 40.9317 253.519 41.2734 252.935 41.9567C252.352 42.6401 252.06 43.6817 252.06 45.0817C252.06 46.4817 252.352 47.5317 252.935 48.2317C253.519 48.9151 254.302 49.2567 255.285 49.2567ZM264.647 51.4067V38.7817H267.472V48.3317H266.722L273.897 38.7817H276.472V51.4067H273.647V41.8317H274.422L267.222 51.4067H264.647ZM270.547 37.6317C269.713 37.6317 268.98 37.4984 268.347 37.2317C267.713 36.9484 267.188 36.5567 266.772 36.0567C266.355 35.5401 266.055 34.9317 265.872 34.2317L267.472 33.6817C267.755 34.4484 268.147 35.0151 268.647 35.3817C269.147 35.7317 269.788 35.9067 270.572 35.9067C271.355 35.9067 271.997 35.7317 272.497 35.3817C272.997 35.0317 273.405 34.4734 273.722 33.7067L275.247 34.2317C274.897 35.3484 274.313 36.1984 273.497 36.7817C272.697 37.3484 271.713 37.6317 270.547 37.6317ZM286.888 51.4067V38.7817H289.713V48.3317H288.963L296.138 38.7817H298.713V51.4067H295.888V41.8317H296.663L289.463 51.4067H286.888ZM313.029 51.6567C312.079 51.6567 311.171 51.5234 310.304 51.2567C309.437 50.9734 308.746 50.5734 308.229 50.0567L309.154 48.1067C309.637 48.5234 310.196 48.8484 310.829 49.0817C311.479 49.2984 312.129 49.4067 312.779 49.4067C313.962 49.4067 314.904 49.0734 315.604 48.4067C316.304 47.7401 316.687 46.7567 316.754 45.4567L317.079 46.0567H310.729V43.9317H317.079L316.754 44.5317C316.687 43.7484 316.496 43.0734 316.179 42.5067C315.879 41.9401 315.446 41.5067 314.879 41.2067C314.312 40.9067 313.612 40.7567 312.779 40.7567C312.146 40.7567 311.504 40.8651 310.854 41.0817C310.221 41.2984 309.654 41.6234 309.154 42.0567L308.229 40.0817C308.796 39.5984 309.512 39.2234 310.379 38.9567C311.246 38.6734 312.137 38.5317 313.054 38.5317C314.404 38.5317 315.571 38.7901 316.554 39.3067C317.554 39.8234 318.321 40.5734 318.854 41.5567C319.387 42.5234 319.654 43.6901 319.654 45.0567C319.654 46.4234 319.379 47.6067 318.829 48.6067C318.296 49.5901 317.529 50.3484 316.529 50.8817C315.546 51.3984 314.379 51.6567 313.029 51.6567ZM330.031 56.8067V48.9567H330.306C330.039 49.8234 329.589 50.4901 328.956 50.9567C328.339 51.4234 327.589 51.6567 326.706 51.6567C325.789 51.6567 324.972 51.3901 324.256 50.8567C323.556 50.3067 323.006 49.5401 322.606 48.5567C322.206 47.5734 322.006 46.4151 322.006 45.0817C322.006 43.7317 322.197 42.5734 322.581 41.6067C322.981 40.6234 323.531 39.8651 324.231 39.3317C324.947 38.7984 325.772 38.5317 326.706 38.5317C327.589 38.5317 328.339 38.7651 328.956 39.2317C329.589 39.6984 330.039 40.3567 330.306 41.2067H330.031V33.0067H333.131V41.2067H332.856C333.122 40.3567 333.564 39.6984 334.181 39.2317C334.814 38.7651 335.572 38.5317 336.456 38.5317C337.389 38.5317 338.206 38.7984 338.906 39.3317C339.622 39.8651 340.172 40.6234 340.556 41.6067C340.956 42.5734 341.156 43.7317 341.156 45.0817C341.156 46.4151 340.956 47.5734 340.556 48.5567C340.172 49.5401 339.622 50.3067 338.906 50.8567C338.206 51.3901 337.389 51.6567 336.456 51.6567C335.589 51.6567 334.839 51.4234 334.206 50.9567C333.589 50.4901 333.139 49.8234 332.856 48.9567H333.131V56.8067H330.031ZM327.606 49.3067C328.372 49.3067 328.972 48.9567 329.406 48.2567C329.856 47.5567 330.081 46.4984 330.081 45.0817C330.081 43.6817 329.856 42.6317 329.406 41.9317C328.956 41.2151 328.356 40.8567 327.606 40.8567C326.839 40.8567 326.231 41.2151 325.781 41.9317C325.331 42.6317 325.106 43.6817 325.106 45.0817C325.106 46.4984 325.331 47.5567 325.781 48.2567C326.231 48.9567 326.839 49.3067 327.606 49.3067ZM335.556 49.3067C336.322 49.3067 336.931 48.9567 337.381 48.2567C337.831 47.5567 338.056 46.4984 338.056 45.0817C338.056 43.6817 337.822 42.6317 337.356 41.9317C336.906 41.2151 336.306 40.8567 335.556 40.8567C334.789 40.8567 334.181 41.2151 333.731 41.9317C333.297 42.6317 333.081 43.6817 333.081 45.0817C333.081 46.4984 333.297 47.5567 333.731 48.2567C334.181 48.9567 334.789 49.3067 335.556 49.3067ZM351.539 56.8067V48.9567H351.814C351.548 49.8234 351.098 50.4901 350.464 50.9567C349.848 51.4234 349.098 51.6567 348.214 51.6567C347.298 51.6567 346.481 51.3901 345.764 50.8567C345.064 50.3067 344.514 49.5401 344.114 48.5567C343.714 47.5734 343.514 46.4151 343.514 45.0817C343.514 43.7317 343.706 42.5734 344.089 41.6067C344.489 40.6234 345.039 39.8651 345.739 39.3317C346.456 38.7984 347.281 38.5317 348.214 38.5317C349.098 38.5317 349.848 38.7651 350.464 39.2317C351.098 39.6984 351.548 40.3567 351.814 41.2067H351.539V33.0067H354.639V41.2067H354.364C354.631 40.3567 355.073 39.6984 355.689 39.2317C356.323 38.7651 357.081 38.5317 357.964 38.5317C358.898 38.5317 359.714 38.7984 360.414 39.3317C361.131 39.8651 361.681 40.6234 362.064 41.6067C362.464 42.5734 362.664 43.7317 362.664 45.0817C362.664 46.4151 362.464 47.5734 362.064 48.5567C361.681 49.5401 361.131 50.3067 360.414 50.8567C359.714 51.3901 358.898 51.6567 357.964 51.6567C357.098 51.6567 356.348 51.4234 355.714 50.9567C355.098 50.4901 354.648 49.8234 354.364 48.9567H354.639V56.8067H351.539ZM349.114 49.3067C349.881 49.3067 350.481 48.9567 350.914 48.2567C351.364 47.5567 351.589 46.4984 351.589 45.0817C351.589 43.6817 351.364 42.6317 350.914 41.9317C350.464 41.2151 349.864 40.8567 349.114 40.8567C348.348 40.8567 347.739 41.2151 347.289 41.9317C346.839 42.6317 346.614 43.6817 346.614 45.0817C346.614 46.4984 346.839 47.5567 347.289 48.2567C347.739 48.9567 348.348 49.3067 349.114 49.3067ZM357.064 49.3067C357.831 49.3067 358.439 48.9567 358.889 48.2567C359.339 47.5567 359.564 46.4984 359.564 45.0817C359.564 43.6817 359.331 42.6317 358.864 41.9317C358.414 41.2151 357.814 40.8567 357.064 40.8567C356.298 40.8567 355.689 41.2151 355.239 41.9317C354.806 42.6317 354.589 43.6817 354.589 45.0817C354.589 46.4984 354.806 47.5567 355.239 48.2567C355.689 48.9567 356.298 49.3067 357.064 49.3067ZM371.823 51.6567C369.706 51.6567 368.048 51.0734 366.848 49.9067C365.648 48.7401 365.048 47.1401 365.048 45.1067C365.048 43.7901 365.306 42.6401 365.823 41.6567C366.34 40.6734 367.056 39.9067 367.973 39.3567C368.906 38.8067 369.99 38.5317 371.223 38.5317C372.44 38.5317 373.456 38.7901 374.273 39.3067C375.09 39.8234 375.706 40.5484 376.123 41.4817C376.556 42.4151 376.773 43.5067 376.773 44.7567V45.5817H367.573V43.9317H374.548L374.123 44.2817C374.123 43.1151 373.873 42.2234 373.373 41.6067C372.89 40.9901 372.181 40.6817 371.248 40.6817C370.215 40.6817 369.415 41.0484 368.848 41.7817C368.298 42.5151 368.023 43.5401 368.023 44.8567V45.1817C368.023 46.5484 368.356 47.5734 369.023 48.2567C369.706 48.9234 370.665 49.2567 371.898 49.2567C372.615 49.2567 373.281 49.1651 373.898 48.9817C374.531 48.7817 375.131 48.4651 375.698 48.0317L376.623 50.1317C376.023 50.6151 375.306 50.9901 374.473 51.2567C373.64 51.5234 372.756 51.6567 371.823 51.6567ZM379.661 51.4067V38.7817H382.761V43.7317H384.661L388.361 38.7817H391.711L387.061 45.0817L386.386 44.1067C386.853 44.1567 387.261 44.2817 387.611 44.4817C387.978 44.6817 388.32 44.9651 388.636 45.3317C388.97 45.6817 389.295 46.1317 389.611 46.6817L392.261 51.4067H388.936L386.786 47.6067C386.57 47.2234 386.353 46.9234 386.136 46.7067C385.92 46.4901 385.678 46.3401 385.411 46.2567C385.145 46.1734 384.82 46.1317 384.436 46.1317H382.761V51.4067H379.661ZM396.644 51.4067V41.2317H392.319V38.7817H404.094V41.2317H399.744V51.4067H396.644ZM406.028 51.4067V38.7817H408.853V48.3317H408.103L415.278 38.7817H417.853V51.4067H415.028V41.8317H415.803L408.603 51.4067H406.028ZM421.409 51.4067V38.7817H428.134C429.718 38.7817 430.876 39.0734 431.609 39.6567C432.343 40.2234 432.709 41.0317 432.709 42.0817C432.709 42.8817 432.443 43.5484 431.909 44.0817C431.376 44.6151 430.668 44.9484 429.784 45.0817V44.7317C430.868 44.7984 431.701 45.1151 432.284 45.6817C432.868 46.2484 433.159 46.9817 433.159 47.8817C433.159 48.9651 432.743 49.8234 431.909 50.4567C431.076 51.0901 429.893 51.4067 428.359 51.4067H421.409ZM424.309 49.4817H428.034C428.768 49.4817 429.326 49.3317 429.709 49.0317C430.109 48.7317 430.309 48.2901 430.309 47.7067C430.309 47.1234 430.109 46.6817 429.709 46.3817C429.326 46.0817 428.768 45.9317 428.034 45.9317H424.309V49.4817ZM424.309 44.0067H427.759C428.426 44.0067 428.943 43.8651 429.309 43.5817C429.676 43.2817 429.859 42.8651 429.859 42.3317C429.859 41.7984 429.676 41.3901 429.309 41.1067C428.943 40.8234 428.426 40.6817 427.759 40.6817H424.309V44.0067ZM435.887 51.4067V38.7817H438.987V43.7317H444.687V38.7817H447.787V51.4067H444.687V46.1317H438.987V51.4067H435.887ZM457.141 51.6567C455.841 51.6567 454.716 51.3901 453.766 50.8567C452.816 50.3234 452.074 49.5651 451.541 48.5817C451.024 47.5984 450.766 46.4317 450.766 45.0817C450.766 43.7317 451.024 42.5734 451.541 41.6067C452.074 40.6234 452.816 39.8651 453.766 39.3317C454.716 38.7984 455.841 38.5317 457.141 38.5317C458.441 38.5317 459.566 38.7984 460.516 39.3317C461.483 39.8651 462.224 40.6234 462.741 41.6067C463.274 42.5734 463.541 43.7317 463.541 45.0817C463.541 46.4317 463.274 47.5984 462.741 48.5817C462.224 49.5651 461.483 50.3234 460.516 50.8567C459.566 51.3901 458.441 51.6567 457.141 51.6567ZM457.141 49.2567C458.124 49.2567 458.908 48.9151 459.491 48.2317C460.074 47.5317 460.366 46.4817 460.366 45.0817C460.366 43.6817 460.074 42.6401 459.491 41.9567C458.908 41.2734 458.124 40.9317 457.141 40.9317C456.158 40.9317 455.374 41.2734 454.791 41.9567C454.208 42.6401 453.916 43.6817 453.916 45.0817C453.916 46.4817 454.208 47.5317 454.791 48.2317C455.374 48.9151 456.158 49.2567 457.141 49.2567ZM466.502 51.4067V38.7817H469.327V48.3317H468.577L475.752 38.7817H478.327V51.4067H475.502V41.8317H476.277L469.077 51.4067H466.502ZM472.402 37.6317C471.569 37.6317 470.835 37.4984 470.202 37.2317C469.569 36.9484 469.044 36.5567 468.627 36.0567C468.21 35.5401 467.91 34.9317 467.727 34.2317L469.327 33.6817C469.61 34.4484 470.002 35.0151 470.502 35.3817C471.002 35.7317 471.644 35.9067 472.427 35.9067C473.21 35.9067 473.852 35.7317 474.352 35.3817C474.852 35.0317 475.26 34.4734 475.577 33.7067L477.102 34.2317C476.752 35.3484 476.169 36.1984 475.352 36.7817C474.552 37.3484 473.569 37.6317 472.402 37.6317ZM488.843 56.8067V41.9317C488.843 41.4151 488.827 40.8901 488.793 40.3567C488.76 39.8234 488.71 39.2984 488.643 38.7817H491.668L491.943 41.4317H491.668C491.918 40.5484 492.443 39.8484 493.243 39.3317C494.06 38.7984 495.002 38.5317 496.068 38.5317C497.185 38.5317 498.16 38.7984 498.993 39.3317C499.827 39.8484 500.477 40.5984 500.943 41.5817C501.41 42.5484 501.643 43.7151 501.643 45.0817C501.643 46.4484 501.41 47.6234 500.943 48.6067C500.477 49.5901 499.827 50.3484 498.993 50.8817C498.16 51.3984 497.185 51.6567 496.068 51.6567C495.018 51.6567 494.093 51.3984 493.293 50.8817C492.493 50.3651 491.96 49.6734 491.693 48.8067H491.968V56.8067H488.843ZM495.193 49.2567C496.193 49.2567 496.993 48.9151 497.593 48.2317C498.193 47.5317 498.493 46.4817 498.493 45.0817C498.493 43.6817 498.193 42.6401 497.593 41.9567C496.993 41.2734 496.193 40.9317 495.193 40.9317C494.21 40.9317 493.418 41.2734 492.818 41.9567C492.218 42.6401 491.918 43.6817 491.918 45.0817C491.918 46.4817 492.218 47.5317 492.818 48.2317C493.418 48.9151 494.21 49.2567 495.193 49.2567ZM509.563 51.6567C508.463 51.6567 507.496 51.3984 506.663 50.8817C505.83 50.3484 505.18 49.5901 504.713 48.6067C504.246 47.6234 504.013 46.4484 504.013 45.0817C504.013 43.7151 504.246 42.5484 504.713 41.5817C505.18 40.5984 505.83 39.8484 506.663 39.3317C507.496 38.7984 508.463 38.5317 509.563 38.5317C510.63 38.5317 511.563 38.7984 512.363 39.3317C513.18 39.8484 513.721 40.5484 513.988 41.4317H513.713L513.988 38.7817H516.988C516.938 39.2984 516.888 39.8234 516.838 40.3567C516.805 40.8901 516.788 41.4151 516.788 41.9317V51.4067H513.688L513.663 48.8067H513.963C513.696 49.6734 513.155 50.3651 512.338 50.8817C511.521 51.3984 510.596 51.6567 509.563 51.6567ZM510.438 49.2567C511.421 49.2567 512.213 48.9151 512.813 48.2317C513.413 47.5317 513.713 46.4817 513.713 45.0817C513.713 43.6817 513.413 42.6401 512.813 41.9567C512.213 41.2734 511.421 40.9317 510.438 40.9317C509.455 40.9317 508.663 41.2734 508.063 41.9567C507.463 42.6401 507.163 43.6817 507.163 45.0817C507.163 46.4817 507.455 47.5317 508.038 48.2317C508.638 48.9151 509.438 49.2567 510.438 49.2567ZM526.358 51.6567C524.374 51.6567 522.791 51.0567 521.608 49.8567C520.441 48.6567 519.858 46.8984 519.858 44.5817V42.4317C519.858 40.0484 520.399 38.1317 521.483 36.6817C522.566 35.2317 524.199 34.2734 526.383 33.8067L531.008 32.7567L531.858 35.2067L526.658 36.3567C525.791 36.5401 525.074 36.8901 524.508 37.4067C523.941 37.9067 523.516 38.5067 523.233 39.2067C522.949 39.9067 522.808 40.6567 522.808 41.4567V42.7817H522.383C522.566 42.0317 522.874 41.3817 523.308 40.8317C523.741 40.2651 524.291 39.8234 524.958 39.5067C525.624 39.1901 526.383 39.0317 527.233 39.0317C528.299 39.0317 529.233 39.2817 530.033 39.7817C530.849 40.2651 531.491 40.9734 531.958 41.9067C532.424 42.8234 532.658 43.9234 532.658 45.2067C532.658 46.5234 532.391 47.6651 531.858 48.6317C531.341 49.5984 530.608 50.3484 529.658 50.8817C528.724 51.3984 527.624 51.6567 526.358 51.6567ZM526.258 49.2817C527.291 49.2817 528.091 48.9567 528.658 48.3067C529.241 47.6401 529.533 46.6484 529.533 45.3317C529.533 44.0484 529.241 43.0734 528.658 42.4067C528.074 41.7234 527.274 41.3817 526.258 41.3817C525.241 41.3817 524.441 41.7151 523.858 42.3817C523.274 43.0484 522.983 43.9984 522.983 45.2317C522.983 46.5817 523.274 47.5984 523.858 48.2817C524.441 48.9484 525.241 49.2817 526.258 49.2817ZM541.418 51.6567C540.118 51.6567 538.993 51.3901 538.043 50.8567C537.093 50.3234 536.352 49.5651 535.818 48.5817C535.302 47.5984 535.043 46.4317 535.043 45.0817C535.043 43.7317 535.302 42.5734 535.818 41.6067C536.352 40.6234 537.093 39.8651 538.043 39.3317C538.993 38.7984 540.118 38.5317 541.418 38.5317C542.718 38.5317 543.843 38.7984 544.793 39.3317C545.76 39.8651 546.502 40.6234 547.018 41.6067C547.552 42.5734 547.818 43.7317 547.818 45.0817C547.818 46.4317 547.552 47.5984 547.018 48.5817C546.502 49.5651 545.76 50.3234 544.793 50.8567C543.843 51.3901 542.718 51.6567 541.418 51.6567ZM541.418 49.2567C542.402 49.2567 543.185 48.9151 543.768 48.2317C544.352 47.5317 544.643 46.4817 544.643 45.0817C544.643 43.6817 544.352 42.6401 543.768 41.9567C543.185 41.2734 542.402 40.9317 541.418 40.9317C540.435 40.9317 539.652 41.2734 539.068 41.9567C538.485 42.6401 538.193 43.6817 538.193 45.0817C538.193 46.4817 538.485 47.5317 539.068 48.2317C539.652 48.9151 540.435 49.2567 541.418 49.2567ZM553.504 51.4067V41.2317H549.179V38.7817H560.954V41.2317H556.604V51.4067H553.504ZM562.889 51.4067V38.7817H565.989V43.0067H569.314C570.997 43.0067 572.264 43.3651 573.114 44.0817C573.964 44.7817 574.389 45.7984 574.389 47.1317C574.389 47.9984 574.189 48.7567 573.789 49.4067C573.389 50.0401 572.805 50.5317 572.039 50.8817C571.289 51.2317 570.38 51.4067 569.314 51.4067H562.889ZM565.989 49.3567H568.889C569.739 49.3567 570.389 49.1817 570.839 48.8317C571.289 48.4651 571.514 47.9151 571.514 47.1817C571.514 46.4484 571.289 45.9151 570.839 45.5817C570.405 45.2317 569.755 45.0567 568.889 45.0567H565.989V49.3567ZM575.964 51.4067V38.7817H579.064V51.4067H575.964ZM582.99 46.1817L582.015 33.7817H585.865L584.89 46.1817H582.99ZM582.19 51.4067V47.9317H585.69V51.4067H582.19Z" fill="white"/>
</svg>
