<svg width="275" height="63" viewBox="0 0 275 63" fill="none" xmlns="http://www.w3.org/2000/svg">
<rect width="274.527" height="63" rx="8" fill="white"/>
<path d="M32.6608 29.9102L28.5962 33.9749C26.0578 36.5133 26.0578 40.6288 28.5962 43.1672V43.1672C31.1346 45.7056 35.2502 45.7056 37.7886 43.1672L41.8532 39.1026M35.6469 36.7579L45.7972 26.6076M38.9495 23.6215L42.7383 19.8327C45.2767 17.2943 49.3923 17.2943 51.9307 19.8327V19.8327C54.4691 22.3711 54.4691 26.4867 51.9307 29.0251L48.1419 32.8139" stroke="#5329FF" strokeWidth="2" strokeLinecap="round" strokeLinejoin="round"/>
<path d="M73.7269 38.162C72.4309 38.162 71.3269 37.898 70.4149 37.37C69.5029 36.842 68.8009 36.092 68.3089 35.12C67.8289 34.136 67.5889 32.978 67.5889 31.646C67.5889 30.314 67.8289 29.162 68.3089 28.19C68.8009 27.218 69.5029 26.468 70.4149 25.94C71.3269 25.412 72.4309 25.148 73.7269 25.148C74.6269 25.148 75.4309 25.28 76.1389 25.544C76.8469 25.808 77.4649 26.192 77.9929 26.696L77.3449 28.19C76.7689 27.698 76.2049 27.344 75.6529 27.128C75.1129 26.912 74.4829 26.804 73.7629 26.804C72.3949 26.804 71.3509 27.224 70.6309 28.064C69.9109 28.904 69.5509 30.098 69.5509 31.646C69.5509 33.194 69.9109 34.394 70.6309 35.246C71.3509 36.086 72.3949 36.506 73.7629 36.506C74.4829 36.506 75.1129 36.398 75.6529 36.182C76.2049 35.966 76.7689 35.606 77.3449 35.102L77.9929 36.596C77.4649 37.1 76.8469 37.49 76.1389 37.766C75.4309 38.03 74.6269 38.162 73.7269 38.162ZM80.2171 38V28.928H82.0171V32.636H83.5831L86.4091 28.928H88.3891L85.0051 33.392L84.5551 32.816C84.9031 32.852 85.2031 32.942 85.4551 33.086C85.7071 33.218 85.9531 33.416 86.1931 33.68C86.4331 33.944 86.6791 34.292 86.9311 34.724L88.8211 38H86.8771L85.2571 35.228C85.0771 34.916 84.9031 34.676 84.7351 34.508C84.5671 34.328 84.3751 34.208 84.1591 34.148C83.9431 34.076 83.6791 34.04 83.3671 34.04H82.0171V38H80.2171ZM94.1088 38.162C93.2088 38.162 92.4288 37.976 91.7688 37.604C91.1088 37.22 90.5988 36.68 90.2388 35.984C89.8788 35.276 89.6988 34.436 89.6988 33.464C89.6988 32.492 89.8788 31.658 90.2388 30.962C90.5988 30.254 91.1088 29.714 91.7688 29.342C92.4288 28.958 93.2088 28.766 94.1088 28.766C95.0088 28.766 95.7888 28.958 96.4488 29.342C97.1208 29.714 97.6368 30.254 97.9968 30.962C98.3688 31.658 98.5548 32.492 98.5548 33.464C98.5548 34.436 98.3688 35.276 97.9968 35.984C97.6368 36.68 97.1208 37.22 96.4488 37.604C95.7888 37.976 95.0088 38.162 94.1088 38.162ZM94.1088 36.74C94.9008 36.74 95.5308 36.464 95.9988 35.912C96.4668 35.36 96.7008 34.544 96.7008 33.464C96.7008 32.384 96.4668 31.574 95.9988 31.034C95.5308 30.482 94.9008 30.206 94.1088 30.206C93.3288 30.206 92.7048 30.482 92.2368 31.034C91.7688 31.574 91.5348 32.384 91.5348 33.464C91.5348 34.544 91.7628 35.36 92.2188 35.912C92.6868 36.464 93.3168 36.74 94.1088 36.74ZM100.801 38V28.928H108.937V38H107.137V30.35H102.601V38H100.801ZM111.664 38V28.928H113.32V36.254H112.816L118.288 28.928H119.8V38H118.162V30.656H118.684L113.176 38H111.664ZM122.6 41.888V31.106C122.6 30.758 122.582 30.404 122.546 30.044C122.522 29.672 122.492 29.3 122.456 28.928H124.22L124.4 30.98H124.202C124.394 30.296 124.778 29.756 125.354 29.36C125.942 28.964 126.638 28.766 127.442 28.766C128.246 28.766 128.948 28.958 129.548 29.342C130.148 29.714 130.61 30.248 130.934 30.944C131.27 31.64 131.438 32.48 131.438 33.464C131.438 34.436 131.27 35.276 130.934 35.984C130.61 36.692 130.148 37.232 129.548 37.604C128.948 37.976 128.246 38.162 127.442 38.162C126.65 38.162 125.96 37.97 125.372 37.586C124.796 37.19 124.412 36.656 124.22 35.984H124.418V41.888H122.6ZM126.992 36.74C127.784 36.74 128.414 36.464 128.882 35.912C129.362 35.36 129.602 34.544 129.602 33.464C129.602 32.384 129.362 31.574 128.882 31.034C128.414 30.482 127.784 30.206 126.992 30.206C126.2 30.206 125.564 30.482 125.084 31.034C124.616 31.574 124.382 32.384 124.382 33.464C124.382 34.544 124.616 35.36 125.084 35.912C125.564 36.464 126.2 36.74 126.992 36.74ZM137.667 38.162C136.767 38.162 135.987 37.976 135.327 37.604C134.667 37.22 134.157 36.68 133.797 35.984C133.437 35.276 133.257 34.436 133.257 33.464C133.257 32.492 133.437 31.658 133.797 30.962C134.157 30.254 134.667 29.714 135.327 29.342C135.987 28.958 136.767 28.766 137.667 28.766C138.567 28.766 139.347 28.958 140.007 29.342C140.679 29.714 141.195 30.254 141.555 30.962C141.927 31.658 142.113 32.492 142.113 33.464C142.113 34.436 141.927 35.276 141.555 35.984C141.195 36.68 140.679 37.22 140.007 37.604C139.347 37.976 138.567 38.162 137.667 38.162ZM137.667 36.74C138.459 36.74 139.089 36.464 139.557 35.912C140.025 35.36 140.259 34.544 140.259 33.464C140.259 32.384 140.025 31.574 139.557 31.034C139.089 30.482 138.459 30.206 137.667 30.206C136.887 30.206 136.263 30.482 135.795 31.034C135.327 31.574 135.093 32.384 135.093 33.464C135.093 34.544 135.321 35.36 135.777 35.912C136.245 36.464 136.875 36.74 137.667 36.74ZM144.36 38V28.928H148.932C150.024 28.928 150.828 29.138 151.344 29.558C151.872 29.966 152.136 30.548 152.136 31.304C152.136 31.892 151.938 32.378 151.542 32.762C151.158 33.146 150.648 33.38 150.012 33.464V33.23C150.768 33.266 151.362 33.488 151.794 33.896C152.226 34.304 152.442 34.832 152.442 35.48C152.442 36.26 152.148 36.878 151.56 37.334C150.984 37.778 150.162 38 149.094 38H144.36ZM146.07 36.83H148.95C149.538 36.83 149.988 36.71 150.3 36.47C150.612 36.218 150.768 35.858 150.768 35.39C150.768 34.922 150.612 34.568 150.3 34.328C149.988 34.088 149.538 33.968 148.95 33.968H146.07V36.83ZM146.07 32.798H148.752C149.292 32.798 149.712 32.678 150.012 32.438C150.312 32.198 150.462 31.868 150.462 31.448C150.462 31.016 150.312 30.686 150.012 30.458C149.712 30.218 149.292 30.098 148.752 30.098H146.07V32.798ZM158.136 38.162C157.332 38.162 156.63 37.976 156.03 37.604C155.43 37.232 154.962 36.692 154.626 35.984C154.302 35.276 154.14 34.436 154.14 33.464C154.14 32.48 154.302 31.64 154.626 30.944C154.962 30.248 155.43 29.714 156.03 29.342C156.63 28.958 157.332 28.766 158.136 28.766C158.928 28.766 159.618 28.964 160.206 29.36C160.794 29.756 161.184 30.296 161.376 30.98H161.178L161.358 28.928H163.122C163.086 29.3 163.05 29.672 163.014 30.044C162.99 30.404 162.978 30.758 162.978 31.106V38H161.16V35.984H161.358C161.166 36.656 160.77 37.19 160.17 37.586C159.582 37.97 158.904 38.162 158.136 38.162ZM158.586 36.74C159.366 36.74 159.99 36.464 160.458 35.912C160.938 35.36 161.178 34.544 161.178 33.464C161.178 32.384 160.938 31.574 160.458 31.034C159.99 30.482 159.366 30.206 158.586 30.206C157.794 30.206 157.158 30.482 156.678 31.034C156.21 31.574 155.976 32.384 155.976 33.464C155.976 34.544 156.21 35.36 156.678 35.912C157.146 36.464 157.782 36.74 158.586 36.74ZM167.714 38V30.386H164.51V28.928H172.736V30.386H169.514V38H167.714ZM174.19 38V28.928H175.99V32.096H178.564C179.752 32.096 180.646 32.348 181.246 32.852C181.846 33.344 182.146 34.064 182.146 35.012C182.146 35.624 182.008 36.158 181.732 36.614C181.456 37.058 181.048 37.4 180.508 37.64C179.98 37.88 179.332 38 178.564 38H174.19ZM175.99 36.758H178.366C179.038 36.758 179.554 36.62 179.914 36.344C180.274 36.056 180.454 35.618 180.454 35.03C180.454 34.442 180.274 34.016 179.914 33.752C179.566 33.476 179.05 33.338 178.366 33.338H175.99V36.758ZM193.041 38.162C192.129 38.162 191.331 37.976 190.647 37.604C189.975 37.22 189.453 36.674 189.081 35.966C188.721 35.246 188.541 34.394 188.541 33.41C188.541 32.438 188.727 31.604 189.099 30.908C189.471 30.212 189.993 29.684 190.665 29.324C191.337 28.952 192.129 28.766 193.041 28.766C193.629 28.766 194.199 28.868 194.751 29.072C195.303 29.264 195.759 29.54 196.119 29.9L195.525 31.178C195.189 30.854 194.811 30.614 194.391 30.458C193.971 30.29 193.563 30.206 193.167 30.206C192.303 30.206 191.625 30.482 191.133 31.034C190.641 31.586 190.395 32.384 190.395 33.428C190.395 34.484 190.641 35.294 191.133 35.858C191.625 36.422 192.303 36.704 193.167 36.704C193.551 36.704 193.953 36.632 194.373 36.488C194.793 36.332 195.177 36.086 195.525 35.75L196.119 37.028C195.747 37.388 195.279 37.67 194.715 37.874C194.163 38.066 193.605 38.162 193.041 38.162ZM202.234 38.162C201.322 38.162 200.524 37.976 199.84 37.604C199.168 37.22 198.646 36.674 198.274 35.966C197.914 35.246 197.734 34.394 197.734 33.41C197.734 32.438 197.92 31.604 198.292 30.908C198.664 30.212 199.186 29.684 199.858 29.324C200.53 28.952 201.322 28.766 202.234 28.766C202.822 28.766 203.392 28.868 203.944 29.072C204.496 29.264 204.952 29.54 205.312 29.9L204.718 31.178C204.382 30.854 204.004 30.614 203.584 30.458C203.164 30.29 202.756 30.206 202.36 30.206C201.496 30.206 200.818 30.482 200.326 31.034C199.834 31.586 199.588 32.384 199.588 33.428C199.588 34.484 199.834 35.294 200.326 35.858C200.818 36.422 201.496 36.704 202.36 36.704C202.744 36.704 203.146 36.632 203.566 36.488C203.986 36.332 204.37 36.086 204.718 35.75L205.312 37.028C204.94 37.388 204.472 37.67 203.908 37.874C203.356 38.066 202.798 38.162 202.234 38.162ZM207.377 38V28.928H209.177V32.096H211.751C212.939 32.096 213.833 32.348 214.433 32.852C215.033 33.344 215.333 34.064 215.333 35.012C215.333 35.624 215.195 36.158 214.919 36.614C214.643 37.058 214.235 37.4 213.695 37.64C213.167 37.88 212.519 38 211.751 38H207.377ZM209.177 36.758H211.553C212.237 36.758 212.753 36.62 213.101 36.344C213.461 36.056 213.641 35.618 213.641 35.03C213.641 34.442 213.461 34.016 213.101 33.752C212.753 33.476 212.237 33.338 211.553 33.338H209.177V36.758ZM216.611 38V28.928H218.411V38H216.611ZM220.745 38.234L220.133 36.794C220.541 36.626 220.883 36.416 221.159 36.164C221.447 35.9 221.669 35.564 221.825 35.156C221.993 34.748 222.113 34.244 222.185 33.644C222.257 33.044 222.293 32.318 222.293 31.466V28.928H229.133V38H227.333V30.35H223.967V31.52C223.967 32.888 223.859 34.022 223.643 34.922C223.427 35.822 223.079 36.536 222.599 37.064C222.131 37.58 221.513 37.97 220.745 38.234ZM231.864 38V28.928H233.664V32.636H235.23L238.056 28.928H240.036L236.652 33.392L236.202 32.816C236.55 32.852 236.85 32.942 237.102 33.086C237.354 33.218 237.6 33.416 237.84 33.68C238.08 33.944 238.326 34.292 238.578 34.724L240.468 38H238.524L236.904 35.228C236.724 34.916 236.55 34.676 236.382 34.508C236.214 34.328 236.022 34.208 235.806 34.148C235.59 34.076 235.326 34.04 235.014 34.04H233.664V38H231.864ZM241.597 42.086L241.165 40.61C241.729 40.49 242.197 40.346 242.569 40.178C242.953 40.01 243.271 39.788 243.523 39.512C243.775 39.248 243.991 38.906 244.171 38.486L244.621 37.424L244.585 38.162L240.643 28.928H242.587L245.647 36.488H245.161L248.221 28.928H250.093L245.935 38.648C245.671 39.248 245.389 39.752 245.089 40.16C244.789 40.568 244.465 40.898 244.117 41.15C243.769 41.402 243.385 41.6 242.965 41.744C242.545 41.888 242.089 42.002 241.597 42.086Z" fill="#5329FF"/>
</svg>
