<svg width="60" height="60" viewBox="0 0 60 60" fill="none" xmlns="http://www.w3.org/2000/svg">
<rect width="60" height="60" rx="10" fill="#0069FF" fill-opacity="0.15"/>
<path fill-rule="evenodd" clip-rule="evenodd" d="M18 24C18 23.4477 18.4477 23 19 23H41C41.5523 23 42 23.4477 42 24V38C42 39.6569 40.6569 41 39 41H21C19.3431 41 18 39.6569 18 38V24ZM20 25V38C20 38.5523 20.4477 39 21 39H39C39.5523 39 40 38.5523 40 38V25H20Z" fill="#0069FF"/>
<path fill-rule="evenodd" clip-rule="evenodd" d="M23.7629 17.3243C23.9523 17.1176 24.2197 17 24.5 17H35.5C35.7803 17 36.0478 17.1176 36.2372 17.3243L41.7372 23.3243C42.0051 23.6166 42.0751 24.0397 41.9154 24.4027C41.7557 24.7657 41.3966 25 41 25H19C18.6035 25 18.2444 24.7657 18.0847 24.4027C17.925 24.0397 17.9949 23.6166 18.2629 23.3243L23.7629 17.3243ZM24.9399 19L21.2733 23H38.7268L35.0601 19H24.9399Z" fill="#0069FF"/>
<path fill-rule="evenodd" clip-rule="evenodd" d="M24 29C24 28.4477 24.4477 28 25 28H30C30.5523 28 31 28.4477 31 29C31 29.5523 30.5523 30 30 30H25C24.4477 30 24 29.5523 24 29Z" fill="#0069FF"/>
</svg>
