<svg width="508" height="33" viewBox="0 0 508 33" fill="none" xmlns="http://www.w3.org/2000/svg">
<rect width="269" height="33" rx="8" fill="white" fillOpacity="0.2"/>
<circle opacity="0.2" cx="21.5" cy="16.5" r="12" fill="white"/>
<rect opacity="0.4" x="14" y="9" width="15" height="15" rx="7.5" fill="white"/>
<rect x="14.4" y="9.4" width="14.2" height="14.2" rx="7.1" stroke="white" strokeWidth="0.8"/>
<circle cx="21.6002" cy="16.2003" r="1.8" fill="white" stroke="white" strokeWidth="1.2"/>
<path d="M45.4 23.144C44.248 23.144 43.2667 22.9093 42.456 22.44C41.6453 21.9707 41.0213 21.304 40.584 20.44C40.1573 19.5653 39.944 18.536 39.944 17.352C39.944 16.168 40.1573 15.144 40.584 14.28C41.0213 13.416 41.6453 12.7493 42.456 12.28C43.2667 11.8107 44.248 11.576 45.4 11.576C46.2 11.576 46.9147 11.6933 47.544 11.928C48.1733 12.1627 48.7227 12.504 49.192 12.952L48.616 14.28C48.104 13.8427 47.6027 13.528 47.112 13.336C46.632 13.144 46.072 13.048 45.432 13.048C44.216 13.048 43.288 13.4213 42.648 14.168C42.008 14.9147 41.688 15.976 41.688 17.352C41.688 18.728 42.008 19.7947 42.648 20.552C43.288 21.2987 44.216 21.672 45.432 21.672C46.072 21.672 46.632 21.576 47.112 21.384C47.6027 21.192 48.104 20.872 48.616 20.424L49.192 21.752C48.7227 22.2 48.1733 22.5467 47.544 22.792C46.9147 23.0267 46.2 23.144 45.4 23.144ZM52.8971 23V16.232H50.0491V14.936H57.3611V16.232H54.4971V23H52.8971ZM61.8055 23.144C61.0908 23.144 60.4668 22.9787 59.9335 22.648C59.4002 22.3173 58.9842 21.8373 58.6855 21.208C58.3975 20.5787 58.2535 19.832 58.2535 18.968C58.2535 18.0933 58.3975 17.3467 58.6855 16.728C58.9842 16.1093 59.4002 15.6347 59.9335 15.304C60.4668 14.9627 61.0908 14.792 61.8055 14.792C62.5095 14.792 63.1228 14.968 63.6455 15.32C64.1682 15.672 64.5148 16.152 64.6855 16.76H64.5095L64.6695 14.936H66.2375C66.2055 15.2667 66.1735 15.5973 66.1415 15.928C66.1202 16.248 66.1095 16.5627 66.1095 16.872V23H64.4935V21.208H64.6695C64.4988 21.8053 64.1468 22.28 63.6135 22.632C63.0908 22.9733 62.4882 23.144 61.8055 23.144ZM62.2055 21.88C62.8988 21.88 63.4535 21.6347 63.8695 21.144C64.2962 20.6533 64.5095 19.928 64.5095 18.968C64.5095 18.008 64.2962 17.288 63.8695 16.808C63.4535 16.3173 62.8988 16.072 62.2055 16.072C61.5015 16.072 60.9362 16.3173 60.5095 16.808C60.0935 17.288 59.8855 18.008 59.8855 18.968C59.8855 19.928 60.0935 20.6533 60.5095 21.144C60.9255 21.6347 61.4908 21.88 62.2055 21.88ZM68.655 26.456V16.872C68.655 16.5627 68.639 16.248 68.607 15.928C68.5857 15.5973 68.559 15.2667 68.527 14.936H70.095L70.255 16.76H70.079C70.2497 16.152 70.591 15.672 71.103 15.32C71.6257 14.968 72.2443 14.792 72.959 14.792C73.6737 14.792 74.2977 14.9627 74.831 15.304C75.3643 15.6347 75.775 16.1093 76.063 16.728C76.3617 17.3467 76.511 18.0933 76.511 18.968C76.511 19.832 76.3617 20.5787 76.063 21.208C75.775 21.8373 75.3643 22.3173 74.831 22.648C74.2977 22.9787 73.6737 23.144 72.959 23.144C72.255 23.144 71.6417 22.9733 71.119 22.632C70.607 22.28 70.2657 21.8053 70.095 21.208H70.271V26.456H68.655ZM72.559 21.88C73.263 21.88 73.823 21.6347 74.239 21.144C74.6657 20.6533 74.879 19.928 74.879 18.968C74.879 18.008 74.6657 17.288 74.239 16.808C73.823 16.3173 73.263 16.072 72.559 16.072C71.855 16.072 71.2897 16.3173 70.863 16.808C70.447 17.288 70.239 18.008 70.239 18.968C70.239 19.928 70.447 20.6533 70.863 21.144C71.2897 21.6347 71.855 21.88 72.559 21.88ZM80.2565 23V16.232H77.4085V14.936H84.7205V16.232H81.8565V23H80.2565ZM90.2785 23V14.936H94.3425C95.3132 14.936 96.0278 15.1227 96.4865 15.496C96.9558 15.8587 97.1905 16.376 97.1905 17.048C97.1905 17.5707 97.0145 18.0027 96.6625 18.344C96.3212 18.6853 95.8678 18.8933 95.3025 18.968V18.76C95.9745 18.792 96.5025 18.9893 96.8865 19.352C97.2705 19.7147 97.4625 20.184 97.4625 20.76C97.4625 21.4533 97.2012 22.0027 96.6785 22.408C96.1665 22.8027 95.4358 23 94.4865 23H90.2785ZM91.7985 21.96H94.3585C94.8812 21.96 95.2812 21.8533 95.5585 21.64C95.8358 21.416 95.9745 21.096 95.9745 20.68C95.9745 20.264 95.8358 19.9493 95.5585 19.736C95.2812 19.5227 94.8812 19.416 94.3585 19.416H91.7985V21.96ZM91.7985 18.376H94.1825C94.6625 18.376 95.0358 18.2693 95.3025 18.056C95.5692 17.8427 95.7025 17.5493 95.7025 17.176C95.7025 16.792 95.5692 16.4987 95.3025 16.296C95.0358 16.0827 94.6625 15.976 94.1825 15.976H91.7985V18.376ZM106.79 23.144C106.075 23.144 105.451 22.9787 104.918 22.648C104.385 22.3173 103.969 21.8373 103.67 21.208C103.382 20.5787 103.238 19.832 103.238 18.968C103.238 18.0933 103.382 17.3467 103.67 16.728C103.969 16.1093 104.385 15.6347 104.918 15.304C105.451 14.9627 106.075 14.792 106.79 14.792C107.494 14.792 108.107 14.968 108.63 15.32C109.153 15.672 109.499 16.152 109.67 16.76H109.494L109.654 14.936H111.222C111.19 15.2667 111.158 15.5973 111.126 15.928C111.105 16.248 111.094 16.5627 111.094 16.872V23H109.478V21.208H109.654C109.483 21.8053 109.131 22.28 108.598 22.632C108.075 22.9733 107.473 23.144 106.79 23.144ZM107.19 21.88C107.883 21.88 108.438 21.6347 108.854 21.144C109.281 20.6533 109.494 19.928 109.494 18.968C109.494 18.008 109.281 17.288 108.854 16.808C108.438 16.3173 107.883 16.072 107.19 16.072C106.486 16.072 105.921 16.3173 105.494 16.808C105.078 17.288 104.87 18.008 104.87 18.968C104.87 19.928 105.078 20.6533 105.494 21.144C105.91 21.6347 106.475 21.88 107.19 21.88ZM113.575 23V14.936H115.175V18.216H119.255V14.936H120.855V23H119.255V19.48H115.175V23H113.575ZM126.446 23.144C125.731 23.144 125.107 22.9787 124.574 22.648C124.041 22.3173 123.625 21.8373 123.326 21.208C123.038 20.5787 122.894 19.832 122.894 18.968C122.894 18.0933 123.038 17.3467 123.326 16.728C123.625 16.1093 124.041 15.6347 124.574 15.304C125.107 14.9627 125.731 14.792 126.446 14.792C127.15 14.792 127.763 14.968 128.286 15.32C128.809 15.672 129.155 16.152 129.326 16.76H129.15L129.31 14.936H130.878C130.846 15.2667 130.814 15.5973 130.782 15.928C130.761 16.248 130.75 16.5627 130.75 16.872V23H129.134V21.208H129.31C129.139 21.8053 128.787 22.28 128.254 22.632C127.731 22.9733 127.129 23.144 126.446 23.144ZM126.846 21.88C127.539 21.88 128.094 21.6347 128.51 21.144C128.937 20.6533 129.15 19.928 129.15 18.968C129.15 18.008 128.937 17.288 128.51 16.808C128.094 16.3173 127.539 16.072 126.846 16.072C126.142 16.072 125.577 16.3173 125.15 16.808C124.734 17.288 124.526 18.008 124.526 18.968C124.526 19.928 124.734 20.6533 125.15 21.144C125.566 21.6347 126.131 21.88 126.846 21.88ZM132.896 23.208L132.352 21.928C132.714 21.7787 133.018 21.592 133.264 21.368C133.52 21.1333 133.717 20.8347 133.856 20.472C134.005 20.1093 134.112 19.6613 134.176 19.128C134.24 18.5947 134.272 17.9493 134.272 17.192V14.936H140.352V23H138.752V16.2H135.76V17.24C135.76 18.456 135.664 19.464 135.472 20.264C135.28 21.064 134.97 21.6987 134.544 22.168C134.128 22.6267 133.578 22.9733 132.896 23.208ZM142.779 23V14.936H144.251V21.448H143.803L148.667 14.936H150.01V23H148.555V16.472H149.019L144.123 23H142.779ZM154.163 23V16.232H151.315V14.936H158.627V16.232H155.763V23H154.163ZM159.919 23V14.936H161.391V21.448H160.943L165.807 14.936H167.151V23H165.695V16.472H166.159L161.263 23H159.919ZM169.575 23V14.936H171.175V18.232H172.567L175.079 14.936H176.839L173.831 18.904L173.431 18.392C173.741 18.424 174.007 18.504 174.231 18.632C174.455 18.7493 174.674 18.9253 174.887 19.16C175.101 19.3947 175.319 19.704 175.543 20.088L177.223 23H175.495L174.055 20.536C173.895 20.2587 173.741 20.0453 173.591 19.896C173.442 19.736 173.271 19.6293 173.079 19.576C172.887 19.512 172.653 19.48 172.375 19.48H171.175V23H169.575ZM182.196 23.144C180.894 23.144 179.87 22.776 179.124 22.04C178.377 21.304 178.004 20.2853 178.004 18.984C178.004 18.1413 178.164 17.4053 178.484 16.776C178.814 16.1467 179.268 15.6613 179.844 15.32C180.43 14.968 181.108 14.792 181.876 14.792C182.633 14.792 183.268 14.952 183.78 15.272C184.292 15.592 184.681 16.0453 184.948 16.632C185.214 17.208 185.348 17.8907 185.348 18.68V19.192H179.268V18.264H184.244L183.972 18.472C183.972 17.672 183.79 17.0533 183.428 16.616C183.076 16.168 182.564 15.944 181.891 15.944C181.145 15.944 180.569 16.2053 180.164 16.728C179.758 17.24 179.556 17.9493 179.556 18.856V19.016C179.556 19.9653 179.785 20.68 180.244 21.16C180.713 21.64 181.374 21.88 182.228 21.88C182.697 21.88 183.134 21.816 183.54 21.688C183.956 21.5493 184.35 21.3253 184.724 21.016L185.252 22.12C184.878 22.4507 184.425 22.7067 183.892 22.888C183.358 23.0587 182.793 23.144 182.196 23.144ZM195.175 23.144C193.959 23.144 192.988 22.7653 192.263 22.008C191.548 21.2507 191.191 20.136 191.191 18.664V17.272C191.191 15.768 191.511 14.5573 192.151 13.64C192.802 12.7227 193.804 12.104 195.159 11.784L198.103 11.08L198.567 12.376L195.271 13.144C194.695 13.272 194.22 13.512 193.847 13.864C193.474 14.216 193.191 14.632 192.999 15.112C192.818 15.592 192.727 16.104 192.727 16.648V17.384H192.487C192.615 16.8933 192.818 16.4773 193.095 16.136C193.383 15.784 193.735 15.512 194.151 15.32C194.578 15.1173 195.052 15.016 195.575 15.016C196.268 15.016 196.876 15.176 197.399 15.496C197.922 15.816 198.327 16.28 198.615 16.888C198.914 17.4853 199.063 18.1947 199.063 19.016C199.063 19.8693 198.903 20.6053 198.583 21.224C198.263 21.8427 197.81 22.3173 197.223 22.648C196.647 22.9787 195.964 23.144 195.175 23.144ZM195.127 21.896C195.852 21.896 196.418 21.6613 196.823 21.192C197.239 20.712 197.447 20.008 197.447 19.08C197.447 18.1627 197.239 17.464 196.823 16.984C196.407 16.504 195.842 16.264 195.127 16.264C194.412 16.264 193.847 16.504 193.431 16.984C193.015 17.4533 192.807 18.1253 192.807 19C192.807 19.96 193.01 20.6853 193.415 21.176C193.831 21.656 194.402 21.896 195.127 21.896ZM201.075 23V14.936H202.547V21.448H202.099L206.963 14.936H208.307V23H206.851V16.472H207.315L202.419 23H201.075ZM213.532 23.144C212.828 23.144 212.166 23.0587 211.548 22.888C210.929 22.7067 210.422 22.4507 210.028 22.12L210.524 21.032C210.918 21.3413 211.372 21.576 211.884 21.736C212.396 21.8853 212.945 21.96 213.532 21.96C214.268 21.96 214.801 21.8533 215.132 21.64C215.473 21.416 215.644 21.1013 215.644 20.696C215.644 20.3013 215.505 20.0027 215.228 19.8C214.95 19.5973 214.545 19.496 214.012 19.496H212.028V18.344H213.852C214.332 18.344 214.705 18.2427 214.972 18.04C215.238 17.8373 215.372 17.5547 215.372 17.192C215.372 16.808 215.217 16.5093 214.908 16.296C214.598 16.0827 214.118 15.976 213.468 15.976C212.913 15.976 212.406 16.0453 211.948 16.184C211.489 16.3227 211.052 16.5307 210.636 16.808L210.156 15.768C210.593 15.4373 211.11 15.192 211.708 15.032C212.305 14.872 212.95 14.792 213.644 14.792C214.689 14.792 215.484 14.9893 216.028 15.384C216.572 15.768 216.844 16.3227 216.844 17.048C216.844 17.5493 216.673 17.976 216.332 18.328C216.001 18.68 215.553 18.8933 214.988 18.968V18.76C215.638 18.792 216.156 18.9893 216.54 19.352C216.934 19.704 217.132 20.1733 217.132 20.76C217.132 21.4853 216.822 22.0667 216.204 22.504C215.596 22.9307 214.705 23.144 213.532 23.144ZM219.013 23V14.936H220.613V18.216H224.693V14.936H226.293V23H224.693V19.48H220.613V23H219.013ZM232.524 23.144C231.222 23.144 230.198 22.776 229.452 22.04C228.705 21.304 228.332 20.2853 228.332 18.984C228.332 18.1413 228.492 17.4053 228.812 16.776C229.142 16.1467 229.596 15.6613 230.172 15.32C230.758 14.968 231.436 14.792 232.204 14.792C232.961 14.792 233.596 14.952 234.108 15.272C234.62 15.592 235.009 16.0453 235.276 16.632C235.542 17.208 235.676 17.8907 235.676 18.68V19.192H229.596V18.264H234.572L234.3 18.472C234.3 17.672 234.118 17.0533 233.756 16.616C233.404 16.168 232.892 15.944 232.22 15.944C231.473 15.944 230.897 16.2053 230.492 16.728C230.086 17.24 229.884 17.9493 229.884 18.856V19.016C229.884 19.9653 230.113 20.68 230.572 21.16C231.041 21.64 231.702 21.88 232.556 21.88C233.025 21.88 233.462 21.816 233.868 21.688C234.284 21.5493 234.678 21.3253 235.052 21.016L235.58 22.12C235.206 22.4507 234.753 22.7067 234.22 22.888C233.686 23.0587 233.121 23.144 232.524 23.144ZM241.254 23.144C240.443 23.144 239.734 22.9787 239.126 22.648C238.528 22.3067 238.064 21.8213 237.734 21.192C237.414 20.552 237.254 19.7947 237.254 18.92C237.254 18.056 237.419 17.3147 237.75 16.696C238.08 16.0773 238.544 15.608 239.142 15.288C239.739 14.9573 240.443 14.792 241.254 14.792C241.776 14.792 242.283 14.8827 242.774 15.064C243.264 15.2347 243.67 15.48 243.99 15.8L243.462 16.936C243.163 16.648 242.827 16.4347 242.454 16.296C242.08 16.1467 241.718 16.072 241.366 16.072C240.598 16.072 239.995 16.3173 239.558 16.808C239.12 17.2987 238.902 18.008 238.902 18.936C238.902 19.8747 239.12 20.5947 239.558 21.096C239.995 21.5973 240.598 21.848 241.366 21.848C241.707 21.848 242.064 21.784 242.438 21.656C242.811 21.5173 243.152 21.2987 243.462 21L243.99 22.136C243.659 22.456 243.243 22.7067 242.742 22.888C242.251 23.0587 241.755 23.144 241.254 23.144ZM248.977 23.144C248.263 23.144 247.639 22.9787 247.105 22.648C246.572 22.3173 246.156 21.8373 245.857 21.208C245.569 20.5787 245.425 19.832 245.425 18.968C245.425 18.0933 245.569 17.3467 245.857 16.728C246.156 16.1093 246.572 15.6347 247.105 15.304C247.639 14.9627 248.263 14.792 248.977 14.792C249.681 14.792 250.295 14.968 250.817 15.32C251.34 15.672 251.687 16.152 251.857 16.76H251.681L251.841 14.936H253.409C253.377 15.2667 253.345 15.5973 253.313 15.928C253.292 16.248 253.281 16.5627 253.281 16.872V23H251.665V21.208H251.841C251.671 21.8053 251.319 22.28 250.785 22.632C250.263 22.9733 249.66 23.144 248.977 23.144ZM249.377 21.88C250.071 21.88 250.625 21.6347 251.041 21.144C251.468 20.6533 251.681 19.928 251.681 18.968C251.681 18.008 251.468 17.288 251.041 16.808C250.625 16.3173 250.071 16.072 249.377 16.072C248.673 16.072 248.108 16.3173 247.681 16.808C247.265 17.288 247.057 18.008 247.057 18.968C247.057 19.928 247.265 20.6533 247.681 21.144C248.097 21.6347 248.663 21.88 249.377 21.88Z" fill="white"/>
</svg>
