<svg width="421" height="33" viewBox="0 0 421 33" fill="none" xmlns="http://www.w3.org/2000/svg">
<rect width="421" height="33" rx="8" fill="#5329FF" fillOpacity="0.05"/>
<circle opacity="0.2" cx="21.5" cy="16.5" r="12" fill="#9A81FF"/>
<rect opacity="0.4" x="14" y="9" width="15" height="15" rx="7.5" fill="#9A81FF"/>
<rect x="14.4" y="9.4" width="14.2" height="14.2" rx="7.1" stroke="#9A81FF" strokeWidth="0.8"/>
<circle cx="21.6002" cy="16.2" r="1.8" fill="white" stroke="#5030E5" strokeWidth="1.2"/>
<path d="M40.328 23V11.72H45.112C46.3173 11.72 47.24 12.0133 47.88 12.6C48.5307 13.176 48.856 13.976 48.856 15C48.856 16.024 48.5307 16.8293 47.88 17.416C47.24 18.0027 46.3173 18.296 45.112 18.296H41.992V23H40.328ZM41.992 16.968H44.936C45.6933 16.968 46.264 16.7973 46.648 16.456C47.032 16.1147 47.224 15.6293 47.224 15C47.224 14.3813 47.032 13.9013 46.648 13.56C46.264 13.2187 45.6933 13.048 44.936 13.048H41.992V16.968ZM53.7118 23.144C52.9971 23.144 52.3731 22.9787 51.8398 22.648C51.3064 22.3173 50.8904 21.8373 50.5918 21.208C50.3038 20.5787 50.1598 19.832 50.1598 18.968C50.1598 18.0933 50.3038 17.3467 50.5918 16.728C50.8904 16.1093 51.3064 15.6347 51.8398 15.304C52.3731 14.9627 52.9971 14.792 53.7118 14.792C54.4158 14.792 55.0291 14.968 55.5518 15.32C56.0744 15.672 56.4211 16.152 56.5918 16.76H56.4158L56.5758 14.936H58.1438C58.1118 15.2667 58.0798 15.5973 58.0478 15.928C58.0264 16.248 58.0158 16.5627 58.0158 16.872V23H56.3998V21.208H56.5758C56.4051 21.8053 56.0531 22.28 55.5198 22.632C54.9971 22.9733 54.3944 23.144 53.7118 23.144ZM54.1118 21.88C54.8051 21.88 55.3598 21.6347 55.7758 21.144C56.2024 20.6533 56.4158 19.928 56.4158 18.968C56.4158 18.008 56.2024 17.288 55.7758 16.808C55.3598 16.3173 54.8051 16.072 54.1118 16.072C53.4078 16.072 52.8424 16.3173 52.4158 16.808C51.9998 17.288 51.7918 18.008 51.7918 18.968C51.7918 19.928 51.9998 20.6533 52.4158 21.144C52.8318 21.6347 53.3971 21.88 54.1118 21.88ZM64.0973 23.144C63.2866 23.144 62.5773 22.9787 61.9693 22.648C61.3719 22.3067 60.9079 21.8213 60.5773 21.192C60.2573 20.552 60.0973 19.7947 60.0973 18.92C60.0973 18.056 60.2626 17.3147 60.5933 16.696C60.9239 16.0773 61.3879 15.608 61.9853 15.288C62.5826 14.9573 63.2866 14.792 64.0973 14.792C64.6199 14.792 65.1266 14.8827 65.6173 15.064C66.1079 15.2347 66.5133 15.48 66.8333 15.8L66.3053 16.936C66.0066 16.648 65.6706 16.4347 65.2973 16.296C64.9239 16.1467 64.5613 16.072 64.2093 16.072C63.4413 16.072 62.8386 16.3173 62.4013 16.808C61.9639 17.2987 61.7453 18.008 61.7453 18.936C61.7453 19.8747 61.9639 20.5947 62.4013 21.096C62.8386 21.5973 63.4413 21.848 64.2093 21.848C64.5506 21.848 64.9079 21.784 65.2813 21.656C65.6546 21.5173 65.9959 21.2987 66.3053 21L66.8333 22.136C66.5026 22.456 66.0866 22.7067 65.5853 22.888C65.0946 23.0587 64.5986 23.144 64.0973 23.144ZM68.6691 23V14.936H70.1891V21.736H73.3411V14.936H74.8611V21.736H77.9971V14.936H79.5331V23H68.6691ZM81.966 23V14.936H83.438V21.448H82.99L87.854 14.936H89.198V23H87.742V16.472H88.206L83.31 23H81.966ZM91.6863 26.456V16.872C91.6863 16.5627 91.6703 16.248 91.6383 15.928C91.6169 15.5973 91.5903 15.2667 91.5583 14.936H93.1263L93.2863 16.76H93.1103C93.2809 16.152 93.6223 15.672 94.1343 15.32C94.6569 14.968 95.2756 14.792 95.9903 14.792C96.7049 14.792 97.3289 14.9627 97.8623 15.304C98.3956 15.6347 98.8063 16.1093 99.0943 16.728C99.3929 17.3467 99.5423 18.0933 99.5423 18.968C99.5423 19.832 99.3929 20.5787 99.0943 21.208C98.8063 21.8373 98.3956 22.3173 97.8623 22.648C97.3289 22.9787 96.7049 23.144 95.9903 23.144C95.2863 23.144 94.6729 22.9733 94.1503 22.632C93.6383 22.28 93.2969 21.8053 93.1263 21.208H93.3023V26.456H91.6863ZM95.5903 21.88C96.2943 21.88 96.8543 21.6347 97.2703 21.144C97.6969 20.6533 97.9103 19.928 97.9103 18.968C97.9103 18.008 97.6969 17.288 97.2703 16.808C96.8543 16.3173 96.2943 16.072 95.5903 16.072C94.8863 16.072 94.3209 16.3173 93.8943 16.808C93.4783 17.288 93.2703 18.008 93.2703 18.968C93.2703 19.928 93.4783 20.6533 93.8943 21.144C94.3209 21.6347 94.8863 21.88 95.5903 21.88ZM105.352 23.144C104.05 23.144 103.026 22.776 102.28 22.04C101.533 21.304 101.16 20.2853 101.16 18.984C101.16 18.1413 101.32 17.4053 101.64 16.776C101.97 16.1467 102.424 15.6613 103 15.32C103.586 14.968 104.264 14.792 105.032 14.792C105.789 14.792 106.424 14.952 106.936 15.272C107.448 15.592 107.837 16.0453 108.104 16.632C108.37 17.208 108.504 17.8907 108.504 18.68V19.192H102.424V18.264H107.4L107.128 18.472C107.128 17.672 106.946 17.0533 106.584 16.616C106.232 16.168 105.72 15.944 105.048 15.944C104.301 15.944 103.725 16.2053 103.32 16.728C102.914 17.24 102.712 17.9493 102.712 18.856V19.016C102.712 19.9653 102.941 20.68 103.4 21.16C103.869 21.64 104.53 21.88 105.384 21.88C105.853 21.88 106.29 21.816 106.696 21.688C107.112 21.5493 107.506 21.3253 107.88 21.016L108.408 22.12C108.034 22.4507 107.581 22.7067 107.048 22.888C106.514 23.0587 105.949 23.144 105.352 23.144ZM110.482 23V14.936H112.082V18.216H116.162V14.936H117.762V23H116.162V19.48H112.082V23H110.482ZM120.2 23V14.936H121.672V21.448H121.224L126.088 14.936H127.432V23H125.976V16.472H126.44L121.544 23H120.2ZM133.649 23.144C132.347 23.144 131.323 22.776 130.577 22.04C129.83 21.304 129.457 20.2853 129.457 18.984C129.457 18.1413 129.617 17.4053 129.937 16.776C130.267 16.1467 130.721 15.6613 131.297 15.32C131.883 14.968 132.561 14.792 133.329 14.792C134.086 14.792 134.721 14.952 135.233 15.272C135.745 15.592 136.134 16.0453 136.401 16.632C136.667 17.208 136.801 17.8907 136.801 18.68V19.192H130.721V18.264H135.697L135.425 18.472C135.425 17.672 135.243 17.0533 134.881 16.616C134.529 16.168 134.017 15.944 133.345 15.944C132.598 15.944 132.022 16.2053 131.617 16.728C131.211 17.24 131.009 17.9493 131.009 18.856V19.016C131.009 19.9653 131.238 20.68 131.697 21.16C132.166 21.64 132.827 21.88 133.681 21.88C134.15 21.88 134.587 21.816 134.993 21.688C135.409 21.5493 135.803 21.3253 136.177 21.016L136.705 22.12C136.331 22.4507 135.878 22.7067 135.345 22.888C134.811 23.0587 134.246 23.144 133.649 23.144ZM143.108 26.456V16.872C143.108 16.5627 143.092 16.248 143.06 15.928C143.039 15.5973 143.012 15.2667 142.98 14.936H144.548L144.708 16.76H144.532C144.703 16.152 145.044 15.672 145.556 15.32C146.079 14.968 146.697 14.792 147.412 14.792C148.127 14.792 148.751 14.9627 149.284 15.304C149.817 15.6347 150.228 16.1093 150.516 16.728C150.815 17.3467 150.964 18.0933 150.964 18.968C150.964 19.832 150.815 20.5787 150.516 21.208C150.228 21.8373 149.817 22.3173 149.284 22.648C148.751 22.9787 148.127 23.144 147.412 23.144C146.708 23.144 146.095 22.9733 145.572 22.632C145.06 22.28 144.719 21.8053 144.548 21.208H144.724V26.456H143.108ZM147.012 21.88C147.716 21.88 148.276 21.6347 148.692 21.144C149.119 20.6533 149.332 19.928 149.332 18.968C149.332 18.008 149.119 17.288 148.692 16.808C148.276 16.3173 147.716 16.072 147.012 16.072C146.308 16.072 145.743 16.3173 145.316 16.808C144.9 17.288 144.692 18.008 144.692 18.968C144.692 19.928 144.9 20.6533 145.316 21.144C145.743 21.6347 146.308 21.88 147.012 21.88ZM156.134 23.144C155.419 23.144 154.795 22.9787 154.262 22.648C153.728 22.3173 153.312 21.8373 153.014 21.208C152.726 20.5787 152.582 19.832 152.582 18.968C152.582 18.0933 152.726 17.3467 153.014 16.728C153.312 16.1093 153.728 15.6347 154.262 15.304C154.795 14.9627 155.419 14.792 156.134 14.792C156.838 14.792 157.451 14.968 157.974 15.32C158.496 15.672 158.843 16.152 159.014 16.76H158.838L158.998 14.936H160.566C160.534 15.2667 160.502 15.5973 160.47 15.928C160.448 16.248 160.438 16.5627 160.438 16.872V23H158.822V21.208H158.998C158.827 21.8053 158.475 22.28 157.942 22.632C157.419 22.9733 156.816 23.144 156.134 23.144ZM156.534 21.88C157.227 21.88 157.782 21.6347 158.198 21.144C158.624 20.6533 158.838 19.928 158.838 18.968C158.838 18.008 158.624 17.288 158.198 16.808C157.782 16.3173 157.227 16.072 156.534 16.072C155.83 16.072 155.264 16.3173 154.838 16.808C154.422 17.288 154.214 18.008 154.214 18.968C154.214 19.928 154.422 20.6533 154.838 21.144C155.254 21.6347 155.819 21.88 156.534 21.88ZM166.503 23.144C165.287 23.144 164.316 22.7653 163.591 22.008C162.876 21.2507 162.519 20.136 162.519 18.664V17.272C162.519 15.768 162.839 14.5573 163.479 13.64C164.13 12.7227 165.132 12.104 166.487 11.784L169.431 11.08L169.895 12.376L166.599 13.144C166.023 13.272 165.548 13.512 165.175 13.864C164.802 14.216 164.519 14.632 164.327 15.112C164.146 15.592 164.055 16.104 164.055 16.648V17.384H163.815C163.943 16.8933 164.146 16.4773 164.423 16.136C164.711 15.784 165.063 15.512 165.479 15.32C165.906 15.1173 166.38 15.016 166.903 15.016C167.596 15.016 168.204 15.176 168.727 15.496C169.25 15.816 169.655 16.28 169.943 16.888C170.242 17.4853 170.391 18.1947 170.391 19.016C170.391 19.8693 170.231 20.6053 169.911 21.224C169.591 21.8427 169.138 22.3173 168.551 22.648C167.975 22.9787 167.292 23.144 166.503 23.144ZM166.455 21.896C167.18 21.896 167.746 21.6613 168.151 21.192C168.567 20.712 168.775 20.008 168.775 19.08C168.775 18.1627 168.567 17.464 168.151 16.984C167.735 16.504 167.17 16.264 166.455 16.264C165.74 16.264 165.175 16.504 164.759 16.984C164.343 17.4533 164.135 18.1253 164.135 19C164.135 19.96 164.338 20.6853 164.743 21.176C165.159 21.656 165.73 21.896 166.455 21.896ZM175.924 23.144C175.124 23.144 174.43 22.9787 173.844 22.648C173.257 22.3067 172.804 21.8267 172.484 21.208C172.164 20.5787 172.004 19.832 172.004 18.968C172.004 18.104 172.164 17.3627 172.484 16.744C172.804 16.1147 173.257 15.6347 173.844 15.304C174.43 14.9627 175.124 14.792 175.924 14.792C176.724 14.792 177.417 14.9627 178.004 15.304C178.601 15.6347 179.06 16.1147 179.38 16.744C179.71 17.3627 179.876 18.104 179.876 18.968C179.876 19.832 179.71 20.5787 179.38 21.208C179.06 21.8267 178.601 22.3067 178.004 22.648C177.417 22.9787 176.724 23.144 175.924 23.144ZM175.924 21.88C176.628 21.88 177.188 21.6347 177.604 21.144C178.02 20.6533 178.228 19.928 178.228 18.968C178.228 18.008 178.02 17.288 177.604 16.808C177.188 16.3173 176.628 16.072 175.924 16.072C175.23 16.072 174.676 16.3173 174.26 16.808C173.844 17.288 173.636 18.008 173.636 18.968C173.636 19.928 173.838 20.6533 174.244 21.144C174.66 21.6347 175.22 21.88 175.924 21.88ZM183.6 23V16.232H180.752V14.936H188.064V16.232H185.2V23H183.6ZM192.509 23.144C191.794 23.144 191.17 22.9787 190.637 22.648C190.103 22.3173 189.687 21.8373 189.389 21.208C189.101 20.5787 188.957 19.832 188.957 18.968C188.957 18.0933 189.101 17.3467 189.389 16.728C189.687 16.1093 190.103 15.6347 190.637 15.304C191.17 14.9627 191.794 14.792 192.509 14.792C193.213 14.792 193.826 14.968 194.349 15.32C194.871 15.672 195.218 16.152 195.389 16.76H195.213L195.373 14.936H196.941C196.909 15.2667 196.877 15.5973 196.845 15.928C196.823 16.248 196.813 16.5627 196.813 16.872V23H195.197V21.208H195.373C195.202 21.8053 194.85 22.28 194.317 22.632C193.794 22.9733 193.191 23.144 192.509 23.144ZM192.909 21.88C193.602 21.88 194.157 21.6347 194.573 21.144C194.999 20.6533 195.213 19.928 195.213 18.968C195.213 18.008 194.999 17.288 194.573 16.808C194.157 16.3173 193.602 16.072 192.909 16.072C192.205 16.072 191.639 16.3173 191.213 16.808C190.797 17.288 190.589 18.008 190.589 18.968C190.589 19.928 190.797 20.6533 191.213 21.144C191.629 21.6347 192.194 21.88 192.909 21.88ZM203.086 23.144C201.785 23.144 200.761 22.776 200.014 22.04C199.267 21.304 198.894 20.2853 198.894 18.984C198.894 18.1413 199.054 17.4053 199.374 16.776C199.705 16.1467 200.158 15.6613 200.734 15.32C201.321 14.968 201.998 14.792 202.766 14.792C203.523 14.792 204.158 14.952 204.67 15.272C205.182 15.592 205.571 16.0453 205.838 16.632C206.105 17.208 206.238 17.8907 206.238 18.68V19.192H200.158V18.264H205.134L204.862 18.472C204.862 17.672 204.681 17.0533 204.318 16.616C203.966 16.168 203.454 15.944 202.782 15.944C202.035 15.944 201.459 16.2053 201.054 16.728C200.649 17.24 200.446 17.9493 200.446 18.856V19.016C200.446 19.9653 200.675 20.68 201.134 21.16C201.603 21.64 202.265 21.88 203.118 21.88C203.587 21.88 204.025 21.816 204.43 21.688C204.846 21.5493 205.241 21.3253 205.614 21.016L206.142 22.12C205.769 22.4507 205.315 22.7067 204.782 22.888C204.249 23.0587 203.683 23.144 203.086 23.144ZM209.944 23V16.232H207.096V14.936H214.408V16.232H211.544V23H209.944ZM221.694 23V16.232H218.846V14.936H226.158V16.232H223.294V23H221.694ZM230.924 23.144C230.124 23.144 229.43 22.9787 228.844 22.648C228.257 22.3067 227.804 21.8267 227.484 21.208C227.164 20.5787 227.004 19.832 227.004 18.968C227.004 18.104 227.164 17.3627 227.484 16.744C227.804 16.1147 228.257 15.6347 228.844 15.304C229.43 14.9627 230.124 14.792 230.924 14.792C231.724 14.792 232.417 14.9627 233.004 15.304C233.601 15.6347 234.06 16.1147 234.38 16.744C234.71 17.3627 234.876 18.104 234.876 18.968C234.876 19.832 234.71 20.5787 234.38 21.208C234.06 21.8267 233.601 22.3067 233.004 22.648C232.417 22.9787 231.724 23.144 230.924 23.144ZM230.924 21.88C231.628 21.88 232.188 21.6347 232.604 21.144C233.02 20.6533 233.228 19.928 233.228 18.968C233.228 18.008 233.02 17.288 232.604 16.808C232.188 16.3173 231.628 16.072 230.924 16.072C230.23 16.072 229.676 16.3173 229.26 16.808C228.844 17.288 228.636 18.008 228.636 18.968C228.636 19.928 228.838 20.6533 229.244 21.144C229.66 21.6347 230.22 21.88 230.924 21.88ZM236.38 23.208L235.836 21.928C236.199 21.7787 236.503 21.592 236.748 21.368C237.004 21.1333 237.201 20.8347 237.34 20.472C237.489 20.1093 237.596 19.6613 237.66 19.128C237.724 18.5947 237.756 17.9493 237.756 17.192V14.936H243.836V23H242.236V16.2H239.244V17.24C239.244 18.456 239.148 19.464 238.956 20.264C238.764 21.064 238.455 21.6987 238.028 22.168C237.612 22.6267 237.063 22.9733 236.38 23.208ZM246.263 23V14.936H247.863V17.752H250.151C251.207 17.752 252.002 17.976 252.535 18.424C253.068 18.8613 253.335 19.5013 253.335 20.344C253.335 20.888 253.212 21.3627 252.967 21.768C252.722 22.1627 252.359 22.4667 251.879 22.68C251.41 22.8933 250.834 23 250.151 23H246.263ZM247.863 21.896H249.975C250.572 21.896 251.031 21.7733 251.351 21.528C251.671 21.272 251.831 20.8827 251.831 20.36C251.831 19.8373 251.671 19.4587 251.351 19.224C251.042 18.9787 250.583 18.856 249.975 18.856H247.863V21.896ZM255.154 23V14.936H256.754V18.232H258.146L260.658 14.936H262.418L259.41 18.904L259.01 18.392C259.319 18.424 259.586 18.504 259.81 18.632C260.034 18.7493 260.252 18.9253 260.466 19.16C260.679 19.3947 260.898 19.704 261.122 20.088L262.802 23H261.074L259.634 20.536C259.474 20.2587 259.319 20.0453 259.17 19.896C259.02 19.736 258.85 19.6293 258.658 19.576C258.466 19.512 258.231 19.48 257.954 19.48H256.754V23H255.154ZM267.502 23.144C266.702 23.144 266.008 22.9787 265.422 22.648C264.835 22.3067 264.382 21.8267 264.062 21.208C263.742 20.5787 263.582 19.832 263.582 18.968C263.582 18.104 263.742 17.3627 264.062 16.744C264.382 16.1147 264.835 15.6347 265.422 15.304C266.008 14.9627 266.702 14.792 267.502 14.792C268.302 14.792 268.995 14.9627 269.582 15.304C270.179 15.6347 270.638 16.1147 270.958 16.744C271.288 17.3627 271.454 18.104 271.454 18.968C271.454 19.832 271.288 20.5787 270.958 21.208C270.638 21.8267 270.179 22.3067 269.582 22.648C268.995 22.9787 268.302 23.144 267.502 23.144ZM267.502 21.88C268.206 21.88 268.766 21.6347 269.182 21.144C269.598 20.6533 269.806 19.928 269.806 18.968C269.806 18.008 269.598 17.288 269.182 16.808C268.766 16.3173 268.206 16.072 267.502 16.072C266.808 16.072 266.254 16.3173 265.838 16.808C265.422 17.288 265.214 18.008 265.214 18.968C265.214 19.928 265.416 20.6533 265.822 21.144C266.238 21.6347 266.798 21.88 267.502 21.88ZM277.716 23V14.936H279.316V18.216H283.396V14.936H284.996V23H283.396V19.48H279.316V23H277.716ZM290.587 23.144C289.872 23.144 289.248 22.9787 288.715 22.648C288.181 22.3173 287.765 21.8373 287.467 21.208C287.179 20.5787 287.035 19.832 287.035 18.968C287.035 18.0933 287.179 17.3467 287.467 16.728C287.765 16.1093 288.181 15.6347 288.715 15.304C289.248 14.9627 289.872 14.792 290.587 14.792C291.291 14.792 291.904 14.968 292.427 15.32C292.949 15.672 293.296 16.152 293.467 16.76H293.291L293.451 14.936H295.019C294.987 15.2667 294.955 15.5973 294.923 15.928C294.901 16.248 294.891 16.5627 294.891 16.872V23H293.275V21.208H293.451C293.28 21.8053 292.928 22.28 292.395 22.632C291.872 22.9733 291.269 23.144 290.587 23.144ZM290.987 21.88C291.68 21.88 292.235 21.6347 292.651 21.144C293.077 20.6533 293.291 19.928 293.291 18.968C293.291 18.008 293.077 17.288 292.651 16.808C292.235 16.3173 291.68 16.072 290.987 16.072C290.283 16.072 289.717 16.3173 289.291 16.808C288.875 17.288 288.667 18.008 288.667 18.968C288.667 19.928 288.875 20.6533 289.291 21.144C289.707 21.6347 290.272 21.88 290.987 21.88ZM301.638 23V14.936H303.238V18.232H304.63L307.142 14.936H308.902L305.894 18.904L305.494 18.392C305.803 18.424 306.07 18.504 306.294 18.632C306.518 18.7493 306.737 18.9253 306.95 19.16C307.163 19.3947 307.382 19.704 307.606 20.088L309.286 23H307.558L306.118 20.536C305.958 20.2587 305.803 20.0453 305.654 19.896C305.505 19.736 305.334 19.6293 305.142 19.576C304.95 19.512 304.715 19.48 304.438 19.48H303.238V23H301.638ZM313.986 23.144C313.186 23.144 312.493 22.9787 311.906 22.648C311.319 22.3067 310.866 21.8267 310.546 21.208C310.226 20.5787 310.066 19.832 310.066 18.968C310.066 18.104 310.226 17.3627 310.546 16.744C310.866 16.1147 311.319 15.6347 311.906 15.304C312.493 14.9627 313.186 14.792 313.986 14.792C314.786 14.792 315.479 14.9627 316.066 15.304C316.663 15.6347 317.122 16.1147 317.442 16.744C317.773 17.3627 317.938 18.104 317.938 18.968C317.938 19.832 317.773 20.5787 317.442 21.208C317.122 21.8267 316.663 22.3067 316.066 22.648C315.479 22.9787 314.786 23.144 313.986 23.144ZM313.986 21.88C314.69 21.88 315.25 21.6347 315.666 21.144C316.082 20.6533 316.29 19.928 316.29 18.968C316.29 18.008 316.082 17.288 315.666 16.808C315.25 16.3173 314.69 16.072 313.986 16.072C313.293 16.072 312.738 16.3173 312.322 16.808C311.906 17.288 311.698 18.008 311.698 18.968C311.698 19.928 311.901 20.6533 312.306 21.144C312.722 21.6347 313.282 21.88 313.986 21.88ZM319.935 23V14.936H321.279L324.191 20.088L327.103 14.936H328.447V23H327.023V16.744H327.375L324.575 21.704H323.807L321.007 16.744H321.359V23H319.935ZM330.872 23V14.936H338.104V23H336.504V16.2H332.472V23H330.872ZM340.529 23V14.936H342.129V17.752H344.417C345.473 17.752 346.267 17.976 346.801 18.424C347.334 18.8613 347.601 19.5013 347.601 20.344C347.601 20.888 347.478 21.3627 347.233 21.768C346.987 22.1627 346.625 22.4667 346.145 22.68C345.675 22.8933 345.099 23 344.417 23H340.529ZM342.129 21.896H344.241C344.838 21.896 345.297 21.7733 345.617 21.528C345.937 21.272 346.097 20.8827 346.097 20.36C346.097 19.8373 345.937 19.4587 345.617 19.224C345.307 18.9787 344.849 18.856 344.241 18.856H342.129V21.896ZM356.395 23.144C355.296 23.144 354.4 22.824 353.707 22.184C353.014 21.5333 352.614 20.632 352.507 19.48H350.987V23H349.419V14.936H350.987V18.216H352.523C352.672 17.1387 353.088 16.3013 353.771 15.704C354.454 15.096 355.328 14.792 356.395 14.792C357.195 14.792 357.888 14.9627 358.475 15.304C359.072 15.6347 359.531 16.1093 359.851 16.728C360.182 17.3467 360.347 18.0933 360.347 18.968C360.347 19.832 360.182 20.5787 359.851 21.208C359.531 21.8267 359.072 22.3067 358.475 22.648C357.888 22.9787 357.195 23.144 356.395 23.144ZM356.395 21.896C357.099 21.896 357.659 21.6507 358.075 21.16C358.502 20.6693 358.715 19.9387 358.715 18.968C358.715 18.008 358.502 17.2827 358.075 16.792C357.659 16.3013 357.099 16.056 356.395 16.056C355.691 16.056 355.126 16.3013 354.699 16.792C354.283 17.2827 354.075 18.008 354.075 18.968C354.075 19.9387 354.283 20.6693 354.699 21.16C355.126 21.6507 355.691 21.896 356.395 21.896ZM364.085 23V16.232H361.237V14.936H368.549V16.232H365.685V23H364.085ZM373.586 23.144C372.285 23.144 371.261 22.776 370.514 22.04C369.767 21.304 369.394 20.2853 369.394 18.984C369.394 18.1413 369.554 17.4053 369.874 16.776C370.205 16.1467 370.658 15.6613 371.234 15.32C371.821 14.968 372.498 14.792 373.266 14.792C374.023 14.792 374.658 14.952 375.17 15.272C375.682 15.592 376.071 16.0453 376.338 16.632C376.605 17.208 376.738 17.8907 376.738 18.68V19.192H370.658V18.264H375.634L375.362 18.472C375.362 17.672 375.181 17.0533 374.818 16.616C374.466 16.168 373.954 15.944 373.282 15.944C372.535 15.944 371.959 16.2053 371.554 16.728C371.149 17.24 370.946 17.9493 370.946 18.856V19.016C370.946 19.9653 371.175 20.68 371.634 21.16C372.103 21.64 372.765 21.88 373.618 21.88C374.087 21.88 374.525 21.816 374.93 21.688C375.346 21.5493 375.741 21.3253 376.114 21.016L376.642 22.12C376.269 22.4507 375.815 22.7067 375.282 22.888C374.749 23.0587 374.183 23.144 373.586 23.144ZM378.78 26.456V16.872C378.78 16.5627 378.764 16.248 378.732 15.928C378.711 15.5973 378.684 15.2667 378.652 14.936H380.22L380.38 16.76H380.204C380.375 16.152 380.716 15.672 381.228 15.32C381.751 14.968 382.369 14.792 383.084 14.792C383.799 14.792 384.423 14.9627 384.956 15.304C385.489 15.6347 385.9 16.1093 386.188 16.728C386.487 17.3467 386.636 18.0933 386.636 18.968C386.636 19.832 386.487 20.5787 386.188 21.208C385.9 21.8373 385.489 22.3173 384.956 22.648C384.423 22.9787 383.799 23.144 383.084 23.144C382.38 23.144 381.767 22.9733 381.244 22.632C380.732 22.28 380.391 21.8053 380.22 21.208H380.396V26.456H378.78ZM382.684 21.88C383.388 21.88 383.948 21.6347 384.364 21.144C384.791 20.6533 385.004 19.928 385.004 18.968C385.004 18.008 384.791 17.288 384.364 16.808C383.948 16.3173 383.388 16.072 382.684 16.072C381.98 16.072 381.415 16.3173 380.988 16.808C380.572 17.288 380.364 18.008 380.364 18.968C380.364 19.928 380.572 20.6533 380.988 21.144C381.415 21.6347 381.98 21.88 382.684 21.88ZM391.806 23.144C391.091 23.144 390.467 22.9787 389.934 22.648C389.4 22.3173 388.984 21.8373 388.686 21.208C388.398 20.5787 388.254 19.832 388.254 18.968C388.254 18.0933 388.398 17.3467 388.686 16.728C388.984 16.1093 389.4 15.6347 389.934 15.304C390.467 14.9627 391.091 14.792 391.806 14.792C392.51 14.792 393.123 14.968 393.646 15.32C394.168 15.672 394.515 16.152 394.686 16.76H394.51L394.67 14.936H396.238C396.206 15.2667 396.174 15.5973 396.142 15.928C396.12 16.248 396.11 16.5627 396.11 16.872V23H394.494V21.208H394.67C394.499 21.8053 394.147 22.28 393.614 22.632C393.091 22.9733 392.488 23.144 391.806 23.144ZM392.206 21.88C392.899 21.88 393.454 21.6347 393.87 21.144C394.296 20.6533 394.51 19.928 394.51 18.968C394.51 18.008 394.296 17.288 393.87 16.808C393.454 16.3173 392.899 16.072 392.206 16.072C391.502 16.072 390.936 16.3173 390.51 16.808C390.094 17.288 389.886 18.008 389.886 18.968C389.886 19.928 390.094 20.6533 390.51 21.144C390.926 21.6347 391.491 21.88 392.206 21.88ZM397.503 23L401.167 18.456V19.224L397.695 14.936H399.631L402.079 18.088H401.503L403.951 14.936H405.871L402.431 19.208V18.472L406.079 23H404.143L401.503 19.624H402.079L399.423 23H397.503Z" fill="#5329FF"/>
</svg>
