<svg width="15" height="20" viewBox="0 0 15 20" fill="none" xmlns="http://www.w3.org/2000/svg">
<path fill-rule="evenodd" clip-rule="evenodd" d="M11.3395 14.7074C11.6375 14.9951 12.1123 14.9868 12.4 14.6888C12.6878 14.3909 12.6795 13.9161 12.3815 13.6284L8.60499 9.98139L12.2519 6.20486C12.5397 5.9069 12.5314 5.4321 12.2334 5.14436C11.9355 4.85662 11.4607 4.86491 11.1729 5.16287L7.52598 8.93941L3.74944 5.29245C3.45148 5.00471 2.97668 5.013 2.68894 5.31096C2.40121 5.60892 2.4095 6.08372 2.70746 6.37146L6.48399 10.0184L2.83703 13.7949C2.5493 14.0929 2.55758 14.5677 2.85554 14.8554C3.1535 15.1432 3.62831 15.1349 3.91604 14.8369L7.563 11.0604L11.3395 14.7074Z" fill="black" fill-opacity="0.2"/>
</svg>
