<svg width="48" height="48" viewBox="0 0 48 48" fill="none" xmlns="http://www.w3.org/2000/svg">
<path d="M24 34.6668V11.5557H30.7046C33.3307 11.5557 35.1582 11.6767 36.1872 11.9187C37.2269 12.1503 38.1219 12.5449 38.8722 13.1027C39.719 13.7342 40.3675 14.5393 40.8177 15.518C41.2786 16.4968 41.509 17.5755 41.509 18.7542C41.509 20.5433 41.0589 22.0009 40.1585 23.127C39.2688 24.2426 37.9665 24.9845 36.2515 25.3529L42.6667 34.6668H35.4154L30.0132 25.6212V34.6668H24ZM30.0132 22.4798H31.203C32.5857 22.4798 33.5933 22.2482 34.2257 21.7852C34.8688 21.3221 35.1904 20.5959 35.1904 19.6067C35.1904 18.449 34.8902 17.6281 34.29 17.144C33.7004 16.6494 32.7036 16.4021 31.2995 16.4021H30.0132V22.4798Z" fill="#1A1A1A"/>
<path d="M17.0927 39.0176C15.9683 39.3475 14.7625 38.7753 14.4483 37.7267C11.755 28.7387 11.7783 19.2413 14.5155 10.2646C14.8348 9.21724 16.0434 8.65009 17.1662 8.98466C18.289 9.31922 18.9004 10.4288 18.5847 11.4771C16.1172 19.6704 16.096 28.3276 18.5234 36.5311C18.834 37.5807 18.2171 38.6877 17.0927 39.0176Z" fill="#F0AD00"/>
<path d="M8.07226 34.6175C6.90147 34.8513 5.72438 34.2368 5.49382 33.2359C4.15975 27.445 4.09819 21.4947 5.31225 15.6848C5.52207 14.6806 6.68627 14.0487 7.86171 14.2651C9.03716 14.4815 9.77838 15.4643 9.57236 16.469C8.49147 21.7402 8.54727 27.1342 9.73705 32.3885C9.96382 33.39 9.24304 34.3836 8.07226 34.6175Z" fill="#F0AD00"/>
</svg>
