<svg width="280" height="45" viewBox="0 0 280 45" fill="none" xmlns="http://www.w3.org/2000/svg">
<rect width="280" height="45" rx="8" fill="#5329FF" fillOpacity="0.05"/>
<path d="M31 31.5C26.0293 31.5 22 27.4707 22 22.5C22 17.5293 26.0293 13.5 31 13.5C35.9707 13.5 40 17.5293 40 22.5C40 27.4707 35.9707 31.5 31 31.5ZM31 29.7C32.9096 29.7 34.7409 28.9414 36.0912 27.5912C37.4414 26.2409 38.2 24.4096 38.2 22.5C38.2 20.5904 37.4414 18.7591 36.0912 17.4088C34.7409 16.0586 32.9096 15.3 31 15.3C29.0904 15.3 27.2591 16.0586 25.9088 17.4088C24.5586 18.7591 23.8 20.5904 23.8 22.5C23.8 24.4096 24.5586 26.2409 25.9088 27.5912C27.2591 28.9414 29.0904 29.7 31 29.7ZM31 18.045L35.455 22.5L31 26.955L26.545 22.5L31 18.045ZM31 20.5911L29.0911 22.5L31 24.4089L32.9089 22.5L31 20.5911Z" fill="#5329FF"/>
<path d="M51.136 28.5L53.104 24.788L53.12 25.364L47.888 17.22H49.68L53.936 23.908H53.6L57.12 17.22H58.848L52.864 28.5H51.136ZM62.5191 28.644C61.7085 28.644 60.9991 28.4787 60.3911 28.148C59.7938 27.8067 59.3298 27.3213 58.9991 26.692C58.6791 26.052 58.5191 25.2947 58.5191 24.42C58.5191 23.556 58.6845 22.8147 59.0151 22.196C59.3458 21.5773 59.8098 21.108 60.4071 20.788C61.0045 20.4573 61.7085 20.292 62.5191 20.292C63.0418 20.292 63.5485 20.3827 64.0391 20.564C64.5298 20.7347 64.9351 20.98 65.2551 21.3L64.7271 22.436C64.4285 22.148 64.0925 21.9347 63.7191 21.796C63.3458 21.6467 62.9831 21.572 62.6311 21.572C61.8631 21.572 61.2605 21.8173 60.8231 22.308C60.3858 22.7987 60.1671 23.508 60.1671 24.436C60.1671 25.3747 60.3858 26.0947 60.8231 26.596C61.2605 27.0973 61.8631 27.348 62.6311 27.348C62.9725 27.348 63.3298 27.284 63.7031 27.156C64.0765 27.0173 64.4178 26.7987 64.7271 26.5L65.2551 27.636C64.9245 27.956 64.5085 28.2067 64.0071 28.388C63.5165 28.5587 63.0205 28.644 62.5191 28.644ZM68.819 28.5V21.732H65.971V20.436H73.283V21.732H70.419V28.5H68.819ZM77.7274 28.644C77.0127 28.644 76.3887 28.4787 75.8554 28.148C75.322 27.8173 74.906 27.3373 74.6074 26.708C74.3194 26.0787 74.1754 25.332 74.1754 24.468C74.1754 23.5933 74.3194 22.8467 74.6074 22.228C74.906 21.6093 75.322 21.1347 75.8554 20.804C76.3887 20.4627 77.0127 20.292 77.7274 20.292C78.4314 20.292 79.0447 20.468 79.5674 20.82C80.09 21.172 80.4367 21.652 80.6074 22.26H80.4314L80.5914 20.436H82.1594C82.1274 20.7667 82.0954 21.0973 82.0634 21.428C82.042 21.748 82.0314 22.0627 82.0314 22.372V28.5H80.4154V26.708H80.5914C80.4207 27.3053 80.0687 27.78 79.5354 28.132C79.0127 28.4733 78.41 28.644 77.7274 28.644ZM78.1274 27.38C78.8207 27.38 79.3754 27.1347 79.7914 26.644C80.218 26.1533 80.4314 25.428 80.4314 24.468C80.4314 23.508 80.218 22.788 79.7914 22.308C79.3754 21.8173 78.8207 21.572 78.1274 21.572C77.4234 21.572 76.858 21.8173 76.4314 22.308C76.0154 22.788 75.8074 23.508 75.8074 24.468C75.8074 25.428 76.0154 26.1533 76.4314 26.644C76.8474 27.1347 77.4127 27.38 78.1274 27.38ZM84.5129 28.5V20.436H86.1129V23.716H90.1929V20.436H91.7929V28.5H90.1929V24.98H86.1129V28.5H84.5129ZM97.7516 28.644C96.9516 28.644 96.2583 28.4787 95.6716 28.148C95.085 27.8067 94.6316 27.3267 94.3116 26.708C93.9916 26.0787 93.8316 25.332 93.8316 24.468C93.8316 23.604 93.9916 22.8627 94.3116 22.244C94.6316 21.6147 95.085 21.1347 95.6716 20.804C96.2583 20.4627 96.9516 20.292 97.7516 20.292C98.5516 20.292 99.245 20.4627 99.8316 20.804C100.429 21.1347 100.888 21.6147 101.208 22.244C101.538 22.8627 101.704 23.604 101.704 24.468C101.704 25.332 101.538 26.0787 101.208 26.708C100.888 27.3267 100.429 27.8067 99.8316 28.148C99.245 28.4787 98.5516 28.644 97.7516 28.644ZM97.7516 27.38C98.4556 27.38 99.0156 27.1347 99.4316 26.644C99.8476 26.1533 100.056 25.428 100.056 24.468C100.056 23.508 99.8476 22.788 99.4316 22.308C99.0156 21.8173 98.4556 21.572 97.7516 21.572C97.0583 21.572 96.5036 21.8173 96.0876 22.308C95.6716 22.788 95.4636 23.508 95.4636 24.468C95.4636 25.428 95.6663 26.1533 96.0716 26.644C96.4876 27.1347 97.0476 27.38 97.7516 27.38ZM103.7 28.5V20.436H107.764C108.735 20.436 109.45 20.6227 109.908 20.996C110.378 21.3587 110.612 21.876 110.612 22.548C110.612 23.0707 110.436 23.5027 110.084 23.844C109.743 24.1853 109.29 24.3933 108.724 24.468V24.26C109.396 24.292 109.924 24.4893 110.308 24.852C110.692 25.2147 110.884 25.684 110.884 26.26C110.884 26.9533 110.623 27.5027 110.1 27.908C109.588 28.3027 108.858 28.5 107.908 28.5H103.7ZM105.22 27.46H107.78C108.303 27.46 108.703 27.3533 108.98 27.14C109.258 26.916 109.396 26.596 109.396 26.18C109.396 25.764 109.258 25.4493 108.98 25.236C108.703 25.0227 108.303 24.916 107.78 24.916H105.22V27.46ZM105.22 23.876H107.604C108.084 23.876 108.458 23.7693 108.724 23.556C108.991 23.3427 109.124 23.0493 109.124 22.676C109.124 22.292 108.991 21.9987 108.724 21.796C108.458 21.5827 108.084 21.476 107.604 21.476H105.22V23.876ZM112.794 28.5V20.436H114.266V26.948H113.818L118.682 20.436H120.026V28.5H118.57V21.972H119.034L114.138 28.5H112.794ZM124.178 28.5V21.732H121.33V20.436H128.642V21.732H125.778V28.5H124.178ZM129.935 28.5V20.436H131.535V23.252H133.823C134.879 23.252 135.673 23.476 136.207 23.924C136.74 24.3613 137.007 25.0013 137.007 25.844C137.007 26.388 136.884 26.8627 136.639 27.268C136.393 27.6627 136.031 27.9667 135.551 28.18C135.081 28.3933 134.505 28.5 133.823 28.5H129.935ZM131.535 27.396H133.647C134.244 27.396 134.703 27.2733 135.023 27.028C135.343 26.772 135.503 26.3827 135.503 25.86C135.503 25.3373 135.343 24.9587 135.023 24.724C134.713 24.4787 134.255 24.356 133.647 24.356H131.535V27.396ZM146.691 28.644C145.88 28.644 145.171 28.4787 144.563 28.148C143.966 27.8067 143.502 27.3213 143.171 26.692C142.851 26.052 142.691 25.2947 142.691 24.42C142.691 23.556 142.856 22.8147 143.187 22.196C143.518 21.5773 143.982 21.108 144.579 20.788C145.176 20.4573 145.88 20.292 146.691 20.292C147.214 20.292 147.72 20.3827 148.211 20.564C148.702 20.7347 149.107 20.98 149.427 21.3L148.899 22.436C148.6 22.148 148.264 21.9347 147.891 21.796C147.518 21.6467 147.155 21.572 146.803 21.572C146.035 21.572 145.432 21.8173 144.995 22.308C144.558 22.7987 144.339 23.508 144.339 24.436C144.339 25.3747 144.558 26.0947 144.995 26.596C145.432 27.0973 146.035 27.348 146.803 27.348C147.144 27.348 147.502 27.284 147.875 27.156C148.248 27.0173 148.59 26.7987 148.899 26.5L149.427 27.636C149.096 27.956 148.68 28.2067 148.179 28.388C147.688 28.5587 147.192 28.644 146.691 28.644ZM155.055 28.644C153.754 28.644 152.73 28.276 151.983 27.54C151.236 26.804 150.863 25.7853 150.863 24.484C150.863 23.6413 151.023 22.9053 151.343 22.276C151.674 21.6467 152.127 21.1613 152.703 20.82C153.29 20.468 153.967 20.292 154.735 20.292C155.492 20.292 156.127 20.452 156.639 20.772C157.151 21.092 157.54 21.5453 157.807 22.132C158.074 22.708 158.207 23.3907 158.207 24.18V24.692H152.127V23.764H157.103L156.831 23.972C156.831 23.172 156.65 22.5533 156.287 22.116C155.935 21.668 155.423 21.444 154.751 21.444C154.004 21.444 153.428 21.7053 153.023 22.228C152.618 22.74 152.415 23.4493 152.415 24.356V24.516C152.415 25.4653 152.644 26.18 153.103 26.66C153.572 27.14 154.234 27.38 155.087 27.38C155.556 27.38 155.994 27.316 156.399 27.188C156.815 27.0493 157.21 26.8253 157.583 26.516L158.111 27.62C157.738 27.9507 157.284 28.2067 156.751 28.388C156.218 28.5587 155.652 28.644 155.055 28.644ZM163.769 28.644C162.553 28.644 161.582 28.2653 160.857 27.508C160.142 26.7507 159.785 25.636 159.785 24.164V22.772C159.785 21.268 160.105 20.0573 160.745 19.14C161.395 18.2227 162.398 17.604 163.753 17.284L166.697 16.58L167.161 17.876L163.865 18.644C163.289 18.772 162.814 19.012 162.441 19.364C162.067 19.716 161.785 20.132 161.593 20.612C161.411 21.092 161.321 21.604 161.321 22.148V22.884H161.081C161.209 22.3933 161.411 21.9773 161.689 21.636C161.977 21.284 162.329 21.012 162.745 20.82C163.171 20.6173 163.646 20.516 164.169 20.516C164.862 20.516 165.47 20.676 165.993 20.996C166.515 21.316 166.921 21.78 167.209 22.388C167.507 22.9853 167.657 23.6947 167.657 24.516C167.657 25.3693 167.497 26.1053 167.177 26.724C166.857 27.3427 166.403 27.8173 165.817 28.148C165.241 28.4787 164.558 28.644 163.769 28.644ZM163.721 27.396C164.446 27.396 165.011 27.1613 165.417 26.692C165.833 26.212 166.041 25.508 166.041 24.58C166.041 23.6627 165.833 22.964 165.417 22.484C165.001 22.004 164.435 21.764 163.721 21.764C163.006 21.764 162.441 22.004 162.025 22.484C161.609 22.9533 161.401 23.6253 161.401 24.5C161.401 25.46 161.603 26.1853 162.009 26.676C162.425 27.156 162.995 27.396 163.721 27.396ZM173.461 28.644C172.16 28.644 171.136 28.276 170.389 27.54C169.642 26.804 169.269 25.7853 169.269 24.484C169.269 23.6413 169.429 22.9053 169.749 22.276C170.08 21.6467 170.533 21.1613 171.109 20.82C171.696 20.468 172.373 20.292 173.141 20.292C173.898 20.292 174.533 20.452 175.045 20.772C175.557 21.092 175.946 21.5453 176.213 22.132C176.48 22.708 176.613 23.3907 176.613 24.18V24.692H170.533V23.764H175.509L175.237 23.972C175.237 23.172 175.056 22.5533 174.693 22.116C174.341 21.668 173.829 21.444 173.157 21.444C172.41 21.444 171.834 21.7053 171.429 22.228C171.024 22.74 170.821 23.4493 170.821 24.356V24.516C170.821 25.4653 171.05 26.18 171.509 26.66C171.978 27.14 172.64 27.38 173.493 27.38C173.962 27.38 174.4 27.316 174.805 27.188C175.221 27.0493 175.616 26.8253 175.989 26.516L176.517 27.62C176.144 27.9507 175.69 28.2067 175.157 28.388C174.624 28.5587 174.058 28.644 173.461 28.644ZM182.191 28.644C181.38 28.644 180.671 28.4787 180.063 28.148C179.466 27.8067 179.002 27.3213 178.671 26.692C178.351 26.052 178.191 25.2947 178.191 24.42C178.191 23.556 178.356 22.8147 178.687 22.196C179.018 21.5773 179.482 21.108 180.079 20.788C180.676 20.4573 181.38 20.292 182.191 20.292C182.714 20.292 183.22 20.3827 183.711 20.564C184.202 20.7347 184.607 20.98 184.927 21.3L184.399 22.436C184.1 22.148 183.764 21.9347 183.391 21.796C183.018 21.6467 182.655 21.572 182.303 21.572C181.535 21.572 180.932 21.8173 180.495 22.308C180.058 22.7987 179.839 23.508 179.839 24.436C179.839 25.3747 180.058 26.0947 180.495 26.596C180.932 27.0973 181.535 27.348 182.303 27.348C182.644 27.348 183.002 27.284 183.375 27.156C183.748 27.0173 184.09 26.7987 184.399 26.5L184.927 27.636C184.596 27.956 184.18 28.2067 183.679 28.388C183.188 28.5587 182.692 28.644 182.191 28.644ZM188.491 28.5V21.732H185.643V20.436H192.955V21.732H190.091V28.5H188.491ZM197.72 28.644C196.92 28.644 196.227 28.4787 195.64 28.148C195.054 27.8067 194.6 27.3267 194.28 26.708C193.96 26.0787 193.8 25.332 193.8 24.468C193.8 23.604 193.96 22.8627 194.28 22.244C194.6 21.6147 195.054 21.1347 195.64 20.804C196.227 20.4627 196.92 20.292 197.72 20.292C198.52 20.292 199.214 20.4627 199.8 20.804C200.398 21.1347 200.856 21.6147 201.176 22.244C201.507 22.8627 201.672 23.604 201.672 24.468C201.672 25.332 201.507 26.0787 201.176 26.708C200.856 27.3267 200.398 27.8067 199.8 28.148C199.214 28.4787 198.52 28.644 197.72 28.644ZM197.72 27.38C198.424 27.38 198.984 27.1347 199.4 26.644C199.816 26.1533 200.024 25.428 200.024 24.468C200.024 23.508 199.816 22.788 199.4 22.308C198.984 21.8173 198.424 21.572 197.72 21.572C197.027 21.572 196.472 21.8173 196.056 22.308C195.64 22.788 195.432 23.508 195.432 24.468C195.432 25.428 195.635 26.1533 196.04 26.644C196.456 27.1347 197.016 27.38 197.72 27.38ZM203.669 28.5V20.436H205.141V26.948H204.693L209.557 20.436H210.901V28.5H209.445V21.972H209.909L205.013 28.5H203.669ZM213.325 28.5V20.436H214.669L217.581 25.588L220.493 20.436H221.837V28.5H220.413V22.244H220.765L217.965 27.204H217.197L214.397 22.244H214.749V28.5H213.325ZM227.783 28.644C226.983 28.644 226.29 28.4787 225.703 28.148C225.116 27.8067 224.663 27.3267 224.343 26.708C224.023 26.0787 223.863 25.332 223.863 24.468C223.863 23.604 224.023 22.8627 224.343 22.244C224.663 21.6147 225.116 21.1347 225.703 20.804C226.29 20.4627 226.983 20.292 227.783 20.292C228.583 20.292 229.276 20.4627 229.863 20.804C230.46 21.1347 230.919 21.6147 231.239 22.244C231.57 22.8627 231.735 23.604 231.735 24.468C231.735 25.332 231.57 26.0787 231.239 26.708C230.919 27.3267 230.46 27.8067 229.863 28.148C229.276 28.4787 228.583 28.644 227.783 28.644ZM227.783 27.38C228.487 27.38 229.047 27.1347 229.463 26.644C229.879 26.1533 230.087 25.428 230.087 24.468C230.087 23.508 229.879 22.788 229.463 22.308C229.047 21.8173 228.487 21.572 227.783 21.572C227.09 21.572 226.535 21.8173 226.119 22.308C225.703 22.788 225.495 23.508 225.495 24.468C225.495 25.428 225.698 26.1533 226.103 26.644C226.519 27.1347 227.079 27.38 227.783 27.38ZM237.332 28.644C236.521 28.644 235.812 28.4787 235.204 28.148C234.606 27.8067 234.142 27.3213 233.812 26.692C233.492 26.052 233.332 25.2947 233.332 24.42C233.332 23.556 233.497 22.8147 233.828 22.196C234.158 21.5773 234.622 21.108 235.22 20.788C235.817 20.4573 236.521 20.292 237.332 20.292C237.854 20.292 238.361 20.3827 238.852 20.564C239.342 20.7347 239.748 20.98 240.068 21.3L239.54 22.436C239.241 22.148 238.905 21.9347 238.532 21.796C238.158 21.6467 237.796 21.572 237.444 21.572C236.676 21.572 236.073 21.8173 235.636 22.308C235.198 22.7987 234.98 23.508 234.98 24.436C234.98 25.3747 235.198 26.0947 235.636 26.596C236.073 27.0973 236.676 27.348 237.444 27.348C237.785 27.348 238.142 27.284 238.516 27.156C238.889 27.0173 239.23 26.7987 239.54 26.5L240.068 27.636C239.737 27.956 239.321 28.2067 238.82 28.388C238.329 28.5587 237.833 28.644 237.332 28.644ZM243.632 28.5V21.732H240.784V20.436H248.096V21.732H245.232V28.5H243.632ZM249.388 28.5V20.436H250.988V23.252H253.276C254.332 23.252 255.127 23.476 255.66 23.924C256.193 24.3613 256.46 25.0013 256.46 25.844C256.46 26.388 256.337 26.8627 256.092 27.268C255.847 27.6627 255.484 27.9667 255.004 28.18C254.535 28.3933 253.959 28.5 253.276 28.5H249.388ZM250.988 27.396H253.1C253.697 27.396 254.156 27.2733 254.476 27.028C254.796 26.772 254.956 26.3827 254.956 25.86C254.956 25.3373 254.796 24.9587 254.476 24.724C254.167 24.4787 253.708 24.356 253.1 24.356H250.988V27.396Z" fill="#5329FF"/>
</svg>
