<svg width="29" height="40" viewBox="0 0 29 40" fill="none" xmlns="http://www.w3.org/2000/svg">
<path d="M19.7646 38.6923L19.2099 39.5244C19.5167 39.729 19.9113 39.748 20.2364 39.574C20.5616 39.4 20.7646 39.0611 20.7646 38.6923H19.7646ZM14.0862 34.9068L14.6409 34.0747C14.305 33.8508 13.8674 33.8508 13.5315 34.0747L14.0862 34.9068ZM8.4079 38.6923H7.4079C7.4079 39.0611 7.61088 39.4 7.93604 39.574C8.2612 39.748 8.65574 39.729 8.9626 39.5244L8.4079 38.6923ZM7.9363 3.74621L7.856 4.74298L7.9363 3.74621ZM11.1234 2.42607L10.3618 1.77803V1.77803L11.1234 2.42607ZM3.73633 7.81365L2.73956 7.89395L3.73633 7.81365ZM7.81365 3.73633L7.89395 2.73956L7.81365 3.73633ZM2.42608 11.1234L3.07411 11.885L3.07412 11.885L2.42608 11.1234ZM3.74621 7.9363L4.74298 7.85599L3.74621 7.9363ZM2.33236 16.9693L1.68432 17.7309L1.68433 17.7309L2.33236 16.9693ZM2.33236 11.2031L1.68433 10.4415L1.68432 10.4415L2.33236 11.2031ZM3.74621 20.2362L2.74944 20.1559L2.74944 20.1559L3.74621 20.2362ZM2.42607 17.0491L3.07411 16.2875L3.07411 16.2875L2.42607 17.0491ZM7.81365 24.4361L7.89395 25.4329H7.89395L7.81365 24.4361ZM3.73633 20.3588L4.7331 20.4391V20.4391L3.73633 20.3588ZM11.1234 25.7464L11.885 25.0983L11.885 25.0983L11.1234 25.7464ZM7.9363 24.4262L7.85599 23.4295H7.85599L7.9363 24.4262ZM16.9693 25.8401L17.7309 26.4881L17.7309 26.4881L16.9693 25.8401ZM11.2031 25.8401L10.4415 26.4881L10.4415 26.4881L11.2031 25.8401ZM20.2362 24.4262L20.3165 23.4295H20.3165L20.2362 24.4262ZM17.0491 25.7464L16.2875 25.0983L16.2875 25.0983L17.0491 25.7464ZM24.4361 20.3588L25.4329 20.2785V20.2785L24.4361 20.3588ZM20.3588 24.4361L20.2785 25.4329H20.2785L20.3588 24.4361ZM25.7464 17.0491L26.3944 17.8107L26.3944 17.8107L25.7464 17.0491ZM24.4262 20.2362L23.4295 20.3165V20.3165L24.4262 20.2362ZM25.8401 11.2031L26.4881 10.4415L26.4881 10.4415L25.8401 11.2031ZM25.8401 16.9693L25.192 16.2077L25.192 16.2077L25.8401 16.9693ZM24.4262 7.9363L23.4295 7.85599V7.856L24.4262 7.9363ZM25.7464 11.1234L25.0983 11.885L25.7464 11.1234ZM20.3588 3.73633L20.2785 2.73956H20.2785L20.3588 3.73633ZM24.4361 7.81365L25.4329 7.89395V7.89395L24.4361 7.81365ZM17.0491 2.42608L17.8107 1.77804L17.8107 1.77803L17.0491 2.42608ZM20.2362 3.74621L20.3165 4.74298H20.3165L20.2362 3.74621ZM16.9693 2.33236L16.2077 2.9804L16.2077 2.98041L16.9693 2.33236ZM11.2031 2.33236L11.9647 2.9804V2.9804L11.2031 2.33236ZM8.4079 24.4177L8.45209 23.4187L8.4079 24.4177ZM20.3193 37.8603L14.6409 34.0747L13.5315 35.7388L19.2099 39.5244L20.3193 37.8603ZM13.5315 34.0747L7.8532 37.8603L8.9626 39.5244L14.6409 35.7388L13.5315 34.0747ZM16.2077 2.98041L16.2875 3.07412L17.8107 1.77803L17.7309 1.68432L16.2077 2.98041ZM20.3165 4.74298L20.4391 4.7331L20.2785 2.73956L20.1559 2.74944L20.3165 4.74298ZM23.4394 7.73335L23.4295 7.85599L25.423 8.0166L25.4329 7.89395L23.4394 7.73335ZM25.0983 11.885L25.1921 11.9647L26.4881 10.4415L26.3944 10.3618L25.0983 11.885ZM25.192 16.2077L25.0983 16.2875L26.3944 17.8107L26.4881 17.7309L25.192 16.2077ZM23.4295 20.3165L23.4394 20.4391L25.4329 20.2785L25.423 20.1559L23.4295 20.3165ZM20.4391 23.4394L20.3165 23.4295L20.1558 25.423L20.2785 25.4329L20.4391 23.4394ZM16.2875 25.0983L16.2077 25.1921L17.7309 26.4881L17.8107 26.3944L16.2875 25.0983ZM11.9647 25.1921L11.885 25.0983L10.3618 26.3944L10.4415 26.4881L11.9647 25.1921ZM7.85599 23.4295L7.73334 23.4394L7.89395 25.4329L8.0166 25.423L7.85599 23.4295ZM4.7331 20.4391L4.74298 20.3165L2.74944 20.1559L2.73956 20.2785L4.7331 20.4391ZM3.07411 16.2875L2.9804 16.2077L1.68433 17.7309L1.77804 17.8107L3.07411 16.2875ZM2.9804 11.9647L3.07411 11.885L1.77804 10.3618L1.68433 10.4415L2.9804 11.9647ZM4.74298 7.85599L4.7331 7.73334L2.73956 7.89395L2.74944 8.0166L4.74298 7.85599ZM7.73335 4.7331L7.856 4.74298L8.0166 2.74944L7.89395 2.73956L7.73335 4.7331ZM11.885 3.07412L11.9647 2.9804L10.4415 1.68432L10.3618 1.77803L11.885 3.07412ZM7.856 4.74298C9.38915 4.8665 10.8882 4.24556 11.885 3.07411L10.3618 1.77803C9.78159 2.4599 8.90901 2.82134 8.0166 2.74944L7.856 4.74298ZM4.7331 7.73334C4.59527 6.02251 6.02251 4.59527 7.73335 4.7331L7.89395 2.73956C4.95476 2.50277 2.50277 4.95475 2.73956 7.89395L4.7331 7.73334ZM3.07412 11.885C4.24556 10.8882 4.8665 9.38915 4.74298 7.85599L2.74944 8.0166C2.82134 8.90901 2.4599 9.78159 1.77804 10.3618L3.07412 11.885ZM2.9804 16.2077C1.6732 15.0954 1.6732 13.077 2.9804 11.9647L1.68432 10.4415C-0.561439 12.3524 -0.561442 15.82 1.68432 17.7309L2.9804 16.2077ZM4.74298 20.3165C4.8665 18.7833 4.24556 17.2842 3.07411 16.2875L1.77803 17.8107C2.4599 18.3909 2.82134 19.2634 2.74944 20.1559L4.74298 20.3165ZM7.73334 23.4394C6.02251 23.5772 4.59527 22.1499 4.7331 20.4391L2.73956 20.2785C2.50277 23.2177 4.95475 25.6697 7.89395 25.4329L7.73334 23.4394ZM16.2077 25.1921C15.0954 26.4993 13.077 26.4993 11.9647 25.192L10.4415 26.4881C12.3524 28.7339 15.82 28.7339 17.7309 26.4881L16.2077 25.1921ZM23.4394 20.4391C23.5772 22.1499 22.1499 23.5772 20.4391 23.4394L20.2785 25.4329C23.2177 25.6697 25.6697 23.2177 25.4329 20.2785L23.4394 20.4391ZM25.0983 16.2875C23.9269 17.2842 23.306 18.7833 23.4295 20.3165L25.423 20.1559C25.3511 19.2634 25.7125 18.3909 26.3944 17.8107L25.0983 16.2875ZM25.1921 11.9647C26.4993 13.077 26.4993 15.0954 25.192 16.2077L26.4881 17.7309C28.7339 15.82 28.7339 12.3524 26.4881 10.4415L25.1921 11.9647ZM23.4295 7.856C23.306 9.38915 23.9269 10.8882 25.0983 11.885L26.3944 10.3618C25.7125 9.78159 25.3511 8.90901 25.423 8.0166L23.4295 7.856ZM20.4391 4.7331C22.1499 4.59527 23.5772 6.02251 23.4394 7.73335L25.4329 7.89395C25.6697 4.95476 23.2177 2.50277 20.2785 2.73956L20.4391 4.7331ZM16.2875 3.07412C17.2842 4.24556 18.7833 4.8665 20.3165 4.74298L20.1559 2.74944C19.2634 2.82134 18.3909 2.4599 17.8107 1.77804L16.2875 3.07412ZM17.7309 1.68432C15.82 -0.561439 12.3524 -0.561442 10.4415 1.68432L11.9647 2.9804C13.077 1.6732 15.0954 1.6732 16.2077 2.9804L17.7309 1.68432ZM11.885 25.0983C11.018 24.0794 9.77102 23.477 8.45209 23.4187L8.3637 25.4167C9.13134 25.4507 9.85719 25.8014 10.3618 26.3944L11.885 25.0983ZM8.45209 23.4187C8.25459 23.4099 8.05553 23.4134 7.85599 23.4295L8.0166 25.423C8.13292 25.4136 8.24881 25.4116 8.3637 25.4167L8.45209 23.4187ZM9.4079 38.6923V24.4177H7.4079V38.6923H9.4079ZM20.3165 23.4295C20.1169 23.4134 19.9179 23.4099 19.7204 23.4187L19.8088 25.4167C19.9236 25.4116 20.0395 25.4136 20.1559 25.423L20.3165 23.4295ZM19.7204 23.4187C18.4014 23.477 17.1545 24.0794 16.2875 25.0983L17.8107 26.3944C18.3153 25.8014 19.0411 25.4507 19.8088 25.4167L19.7204 23.4187ZM18.7646 24.4177V38.6923H20.7646V24.4177H18.7646Z" fill="#F0AD00"/>
<path d="M17.8719 12.1936L12.1936 17.8719L10.3008 15.9792" stroke="#F0AD00" strokeWidth="2" strokeLinecap="round" strokeLinejoin="round"/>
</svg>
