<svg width="30" height="34" viewBox="0 0 30 34" fill="none" xmlns="http://www.w3.org/2000/svg">
<path fillRule="evenodd" clipRule="evenodd" d="M0 11.3164L12.9005 18.7645C13.0394 18.8447 13.1851 18.9026 13.3333 18.9394V33.3846L0.920065 26.0385C0.349784 25.701 0 25.0875 0 24.4248V11.3164ZM29.9993 11.1184V24.4248C29.9993 25.0875 29.6496 25.701 29.0793 26.0385L16.666 33.3846V18.8129C16.6963 18.7978 16.7262 18.7816 16.7559 18.7645L29.9993 11.1184Z" fill="#5329FF"/>
<path opacity="0.499209" fillRule="evenodd" clipRule="evenodd" d="M0.404297 7.70142C0.561872 7.50244 0.76076 7.33426 0.992639 7.21076L14.1176 0.2201C14.6686 -0.0733665 15.3295 -0.0733665 15.8805 0.2201L29.0055 7.21076C29.1843 7.30596 29.3434 7.42771 29.4791 7.56966L15.089 15.8778C14.9943 15.9325 14.9071 15.995 14.8276 16.064C14.7481 15.995 14.6609 15.9325 14.5662 15.8778L0.404297 7.70142Z" fill="#5329FF"/>
</svg>
