<svg width="26" height="26" viewBox="0 0 26 26" fill="none" xmlns="http://www.w3.org/2000/svg">
<rect width="26" height="26" fill="#F8F8F8"/>
<path d="M-1055 -2006C-1055 -2007.1 -1054.1 -2008 -1053 -2008H7307C7308.1 -2008 7309 -2007.1 7309 -2006V5821C7309 5822.1 7308.1 5823 7307 5823H-1053C-1054.1 5823 -1055 5822.1 -1055 5821V-2006Z" fill="#ECECEC"/>
<path d="M-1053 -2007H7307V-2009H-1053V-2007ZM7308 -2006V5821H7310V-2006H7308ZM7307 5822H-1053V5824H7307V5822ZM-1054 5821V-2006H-1056V5821H-1054ZM-1053 5822C-1053.55 5822 -1054 5821.55 -1054 5821H-1056C-1056 5822.66 -1054.66 5824 -1053 5824V5822ZM7308 5821C7308 5821.55 7307.55 5822 7307 5822V5824C7308.66 5824 7310 5822.66 7310 5821H7308ZM7307 -2007C7307.55 -2007 7308 -2006.55 7308 -2006H7310C7310 -2007.66 7308.66 -2009 7307 -2009V-2007ZM-1053 -2009C-1054.66 -2009 -1056 -2007.66 -1056 -2006H-1054C-1054 -2006.55 -1053.55 -2007 -1053 -2007V-2009Z" fill="#E8E8E8"/>
<rect width="1680" height="2060" transform="translate(-813 -143)" fill="#F7F6FE"/>
<g filter="url(#filter0_d_0_1)">
<rect x="-18" y="-17" width="422" height="198" rx="16" fill="white"/>
<path d="M12.093 0.952965C12.4514 0.181233 13.5486 0.181231 13.907 0.952963L17.0154 7.64621C17.1611 7.95996 17.4586 8.17612 17.802 8.21775L25.1282 9.10567C25.9729 9.20804 26.3119 10.2515 25.6887 10.8308L20.2836 15.8554C20.0303 16.0909 19.9166 16.4407 19.9832 16.7802L21.4026 24.0222C21.5663 24.8572 20.6787 25.5021 19.9351 25.0884L13.4862 21.5005C13.1839 21.3323 12.8161 21.3323 12.5138 21.5005L6.0649 25.0884C5.32134 25.5021 4.43373 24.8572 4.59739 24.0222L6.01685 16.7802C6.08339 16.4407 5.96975 16.0909 5.71638 15.8554L0.311264 10.8308C-0.311947 10.2515 0.0270872 9.20804 0.871799 9.10567L8.198 8.21775C8.54142 8.17612 8.83894 7.95996 8.98465 7.64621L12.093 0.952965Z" fill="#FEC53D"/>
</g>
<defs>
<filter id="filter0_d_0_1" x="-38" y="-37" width="462" height="238" filterUnits="userSpaceOnUse" colorInterpolationFilters="sRGB">
<feFlood floodOpacity="0" result="BackgroundImageFix"/>
<feColorMatrix in="SourceAlpha" type="matrix" values="0 0 0 0 0 0 0 0 0 0 0 0 0 0 0 0 0 0 127 0" result="hardAlpha"/>
<feOffset/>
<feGaussianBlur stdDeviation="10"/>
<feComposite in2="hardAlpha" operator="out"/>
<feColorMatrix type="matrix" values="0 0 0 0 0 0 0 0 0 0 0 0 0 0 0 0 0 0 0.08 0"/>
<feBlend mode="normal" in2="BackgroundImageFix" result="effect1_dropShadow_0_1"/>
<feBlend mode="normal" in="SourceGraphic" in2="effect1_dropShadow_0_1" result="shape"/>
</filter>
</defs>
</svg>
