<svg width="28" height="30" viewBox="0 0 28 30" fill="none" xmlns="http://www.w3.org/2000/svg">
<path opacity="0.901274" fillRule="evenodd" clipRule="evenodd" d="M6.72042 0.178923C6.45632 -0.135826 5.94637 -0.0153557 5.85104 0.384307L4.21758 7.23244C4.1399 7.55809 4.39797 7.86659 4.73222 7.84765L11.777 7.44844C12.1879 7.42515 12.3963 6.94313 12.1317 6.62785L10.3307 4.48147C11.4958 4.08322 12.7313 3.8752 14 3.8752C20.2592 3.8752 25.3333 8.94931 25.3333 15.2085C25.3333 21.4678 20.2592 26.5419 14 26.5419C7.74077 26.5419 2.66667 21.4678 2.66667 15.2085C2.66667 14.1578 2.80896 13.1286 3.08641 12.1395L0.518845 11.4193C0.180793 12.6244 0 13.8954 0 15.2085C0 22.9405 6.26801 29.2085 14 29.2085C21.732 29.2085 28 22.9405 28 15.2085C28 7.47655 21.732 1.20853 14 1.20853C12.0548 1.20853 10.2022 1.60525 8.51884 2.32219L6.72042 0.178923Z" fill="#FF9066"/>
</svg>
