<svg width="35" height="35" viewBox="0 0 35 35" fill="none" xmlns="http://www.w3.org/2000/svg">
<rect width="35" height="35" rx="5" fill="black" fillOpacity="0.05"/>
<g clipPath="url(#clip0_117_3423)">
<path d="M18 9.47803C20.6719 9.47803 20.9883 9.48975 22.0391 9.53662C23.0156 9.57959 23.543 9.74365 23.8945 9.88037C24.3594 10.0601 24.6953 10.2788 25.043 10.6265C25.3945 10.978 25.6094 11.3101 25.7891 11.7749C25.9258 12.1265 26.0898 12.6577 26.1328 13.6304C26.1797 14.6851 26.1914 15.0015 26.1914 17.6694C26.1914 20.3413 26.1797 20.6577 26.1328 21.7085C26.0898 22.6851 25.9258 23.2124 25.7891 23.564C25.6094 24.0288 25.3906 24.3647 25.043 24.7124C24.6914 25.064 24.3594 25.2788 23.8945 25.4585C23.543 25.5952 23.0117 25.7593 22.0391 25.8022C20.9844 25.8491 20.668 25.8608 18 25.8608C15.3281 25.8608 15.0117 25.8491 13.9609 25.8022C12.9844 25.7593 12.457 25.5952 12.1055 25.4585C11.6406 25.2788 11.3047 25.0601 10.957 24.7124C10.6055 24.3608 10.3906 24.0288 10.2109 23.564C10.0742 23.2124 9.91016 22.6812 9.86719 21.7085C9.82031 20.6538 9.80859 20.3374 9.80859 17.6694C9.80859 14.9976 9.82031 14.6812 9.86719 13.6304C9.91016 12.6538 10.0742 12.1265 10.2109 11.7749C10.3906 11.3101 10.6094 10.9741 10.957 10.6265C11.3086 10.2749 11.6406 10.0601 12.1055 9.88037C12.457 9.74365 12.9883 9.57959 13.9609 9.53662C15.0117 9.48975 15.3281 9.47803 18 9.47803ZM18 7.67725C15.2852 7.67725 14.9453 7.68896 13.8789 7.73584C12.8164 7.78271 12.0859 7.95459 11.4531 8.20068C10.793 8.4585 10.2344 8.79834 9.67969 9.35693C9.12109 9.91162 8.78125 10.4702 8.52344 11.1265C8.27734 11.7632 8.10547 12.4897 8.05859 13.5522C8.01172 14.6226 8 14.9624 8 17.6772C8 20.3921 8.01172 20.7319 8.05859 21.7983C8.10547 22.8608 8.27734 23.5913 8.52344 24.2241C8.78125 24.8843 9.12109 25.4429 9.67969 25.9976C10.2344 26.5522 10.793 26.896 11.4492 27.1499C12.0859 27.396 12.8125 27.5679 13.875 27.6147C14.9414 27.6616 15.2812 27.6733 17.9961 27.6733C20.7109 27.6733 21.0508 27.6616 22.1172 27.6147C23.1797 27.5679 23.9102 27.396 24.543 27.1499C25.1992 26.896 25.7578 26.5522 26.3125 25.9976C26.8672 25.4429 27.2109 24.8843 27.4648 24.228C27.7109 23.5913 27.8828 22.8647 27.9297 21.8022C27.9766 20.7358 27.9883 20.396 27.9883 17.6812C27.9883 14.9663 27.9766 14.6265 27.9297 13.5601C27.8828 12.4976 27.7109 11.7671 27.4648 11.1343C27.2188 10.4702 26.8789 9.91162 26.3203 9.35693C25.7656 8.80225 25.207 8.4585 24.5508 8.20459C23.9141 7.9585 23.1875 7.78662 22.125 7.73975C21.0547 7.68896 20.7148 7.67725 18 7.67725Z" fill="#000100"/>
<path d="M18 12.5405C15.1641 12.5405 12.8633 14.8413 12.8633 17.6772C12.8633 20.5132 15.1641 22.814 18 22.814C20.8359 22.814 23.1367 20.5132 23.1367 17.6772C23.1367 14.8413 20.8359 12.5405 18 12.5405ZM18 21.0093C16.1602 21.0093 14.668 19.5171 14.668 17.6772C14.668 15.8374 16.1602 14.3452 18 14.3452C19.8398 14.3452 21.332 15.8374 21.332 17.6772C21.332 19.5171 19.8398 21.0093 18 21.0093Z" fill="#000100"/>
<path d="M24.5391 12.3374C24.5391 13.0015 24 13.5366 23.3398 13.5366C22.6758 13.5366 22.1406 12.9976 22.1406 12.3374C22.1406 11.6733 22.6797 11.1382 23.3398 11.1382C24 11.1382 24.5391 11.6772 24.5391 12.3374Z" fill="#000100"/>
</g>
<defs>
<clipPath id="clip0_117_3423">
<rect width="20" height="20" fill="white" transform="translate(8 7.67725)"/>
</clipPath>
</defs>
</svg>
