<svg width="674" height="635" viewBox="0 0 674 635" fill="none" xmlns="http://www.w3.org/2000/svg">
<rect width="611" height="635" rx="18" fill="#F7F7F7"/>
<path d="M46.354 137V106.685H72.885V137H67.381V111.2H51.815V137H46.354ZM89.2448 137.43C87.0088 137.43 85.0738 136.971 83.4398 136.054C81.8058 135.137 80.5302 133.832 79.6128 132.141C78.7242 130.45 78.2798 128.443 78.2798 126.121C78.2798 123.799 78.7242 121.807 79.6128 120.144C80.5302 118.453 81.8058 117.148 83.4398 116.231C85.0738 115.314 87.0088 114.855 89.2448 114.855C91.4808 114.855 93.4158 115.314 95.0498 116.231C96.7125 117.148 97.9882 118.453 98.8768 120.144C99.7942 121.807 100.253 123.799 100.253 126.121C100.253 128.443 99.7942 130.45 98.8768 132.141C97.9882 133.832 96.7125 135.137 95.0498 136.054C93.4158 136.971 91.4808 137.43 89.2448 137.43ZM89.2448 133.302C90.9362 133.302 92.2835 132.714 93.2868 131.539C94.2902 130.335 94.7918 128.529 94.7918 126.121C94.7918 123.713 94.2902 121.921 93.2868 120.746C92.2835 119.571 90.9362 118.983 89.2448 118.983C87.5535 118.983 86.2062 119.571 85.2028 120.746C84.1995 121.921 83.6978 123.713 83.6978 126.121C83.6978 128.529 84.1995 130.335 85.2028 131.539C86.2062 132.714 87.5535 133.302 89.2448 133.302ZM103.411 142.59V132.915H105.905C106.765 131.568 107.381 129.991 107.754 128.185C108.155 126.35 108.356 124.114 108.356 121.477V115.285H125.083V132.915H128.609V142.59H124.051V137H107.969V142.59H103.411ZM110.721 132.958H120.052V119.327H112.914V122.681C112.914 124.602 112.728 126.479 112.355 128.314C111.982 130.149 111.438 131.697 110.721 132.958ZM132.557 137V115.285H137.889V123.799H147.693V115.285H153.025V137H147.693V127.927H137.889V137H132.557ZM159.138 137V115.285H163.997V131.711H162.707L175.048 115.285H179.477V137H174.618V120.531H175.951L163.567 137H159.138ZM185.593 137V115.285H190.065L197.547 128.271L205.029 115.285H209.501V137H204.771V121.305H205.76L198.794 133.474H196.3L189.334 121.305H190.323V137H185.593ZM215.617 137V115.285H220.476V131.711H219.186L231.527 115.285H235.956V137H231.097V120.531H232.43L220.046 137H215.617ZM264.02 137.43C261.784 137.43 259.821 136.971 258.129 136.054C256.467 135.137 255.177 133.832 254.259 132.141C253.342 130.421 252.883 128.386 252.883 126.035C252.883 123.684 253.342 121.678 254.259 120.015C255.205 118.352 256.51 117.077 258.172 116.188C259.835 115.299 261.784 114.855 264.02 114.855C265.454 114.855 266.844 115.084 268.191 115.543C269.567 115.973 270.685 116.604 271.545 117.435L269.911 121.176C269.137 120.459 268.263 119.929 267.288 119.585C266.342 119.212 265.411 119.026 264.493 119.026C262.573 119.026 261.068 119.628 259.978 120.832C258.918 122.036 258.387 123.785 258.387 126.078C258.387 128.371 258.918 130.134 259.978 131.367C261.068 132.6 262.573 133.216 264.493 133.216C265.382 133.216 266.299 133.044 267.245 132.7C268.22 132.356 269.109 131.826 269.911 131.109L271.545 134.807C270.657 135.638 269.524 136.283 268.148 136.742C266.801 137.201 265.425 137.43 264.02 137.43ZM276.128 137V115.285H287.695C290.419 115.285 292.411 115.787 293.672 116.79C294.934 117.765 295.564 119.155 295.564 120.961C295.564 122.337 295.106 123.484 294.188 124.401C293.271 125.318 292.053 125.892 290.533 126.121V125.519C292.397 125.634 293.83 126.178 294.833 127.153C295.837 128.128 296.338 129.389 296.338 130.937C296.338 132.8 295.622 134.277 294.188 135.366C292.755 136.455 290.72 137 288.082 137H276.128ZM281.116 133.689H287.523C288.785 133.689 289.745 133.431 290.404 132.915C291.092 132.399 291.436 131.639 291.436 130.636C291.436 129.633 291.092 128.873 290.404 128.357C289.745 127.841 288.785 127.583 287.523 127.583H281.116V133.689ZM281.116 124.272H287.05C288.197 124.272 289.086 124.028 289.716 123.541C290.347 123.025 290.662 122.308 290.662 121.391C290.662 120.474 290.347 119.771 289.716 119.284C289.086 118.797 288.197 118.553 287.05 118.553H281.116V124.272ZM311.006 137.43C308.77 137.43 306.835 136.971 305.201 136.054C303.567 135.137 302.291 133.832 301.374 132.141C300.485 130.45 300.041 128.443 300.041 126.121C300.041 123.799 300.485 121.807 301.374 120.144C302.291 118.453 303.567 117.148 305.201 116.231C306.835 115.314 308.77 114.855 311.006 114.855C313.242 114.855 315.177 115.314 316.811 116.231C318.473 117.148 319.749 118.453 320.638 120.144C321.555 121.807 322.014 123.799 322.014 126.121C322.014 128.443 321.555 130.45 320.638 132.141C319.749 133.832 318.473 135.137 316.811 136.054C315.177 136.971 313.242 137.43 311.006 137.43ZM311.006 133.302C312.697 133.302 314.044 132.714 315.048 131.539C316.051 130.335 316.553 128.529 316.553 126.121C316.553 123.713 316.051 121.921 315.048 120.746C314.044 119.571 312.697 118.983 311.006 118.983C309.314 118.983 307.967 119.571 306.964 120.746C305.96 121.921 305.459 123.713 305.459 126.121C305.459 128.529 305.96 130.335 306.964 131.539C307.967 132.714 309.314 133.302 311.006 133.302ZM327.107 137V115.285H331.966V131.711H330.676L343.017 115.285H347.446V137H342.587V120.531H343.92L331.536 137H327.107ZM365.362 137V115.285H385.701V137H380.369V119.413H370.694V137H365.362ZM391.989 146.288V120.703C391.989 119.814 391.96 118.911 391.903 117.994C391.845 117.077 391.759 116.174 391.645 115.285H396.848L397.321 119.843H396.848C397.278 118.324 398.181 117.12 399.557 116.231C400.961 115.314 402.581 114.855 404.416 114.855C406.336 114.855 408.013 115.314 409.447 116.231C410.88 117.12 411.998 118.41 412.801 120.101C413.603 121.764 414.005 123.77 414.005 126.121C414.005 128.472 413.603 130.493 412.801 132.184C411.998 133.875 410.88 135.18 409.447 136.097C408.013 136.986 406.336 137.43 404.416 137.43C402.61 137.43 401.019 136.986 399.643 136.097C398.267 135.208 397.349 134.019 396.891 132.528H397.364V146.288H391.989ZM402.911 133.302C404.631 133.302 406.007 132.714 407.039 131.539C408.071 130.335 408.587 128.529 408.587 126.121C408.587 123.713 408.071 121.921 407.039 120.746C406.007 119.571 404.631 118.983 402.911 118.983C401.219 118.983 399.858 119.571 398.826 120.746C397.794 121.921 397.278 123.713 397.278 126.121C397.278 128.529 397.794 130.335 398.826 131.539C399.858 132.714 401.219 133.302 402.911 133.302ZM429.046 137.43C426.81 137.43 424.875 136.971 423.241 136.054C421.607 135.137 420.331 133.832 419.414 132.141C418.525 130.45 418.081 128.443 418.081 126.121C418.081 123.799 418.525 121.807 419.414 120.144C420.331 118.453 421.607 117.148 423.241 116.231C424.875 115.314 426.81 114.855 429.046 114.855C431.282 114.855 433.217 115.314 434.851 116.231C436.513 117.148 437.789 118.453 438.678 120.144C439.595 121.807 440.054 123.799 440.054 126.121C440.054 128.443 439.595 130.45 438.678 132.141C437.789 133.832 436.513 135.137 434.851 136.054C433.217 136.971 431.282 137.43 429.046 137.43ZM429.046 133.302C430.737 133.302 432.084 132.714 433.088 131.539C434.091 130.335 434.593 128.529 434.593 126.121C434.593 123.713 434.091 121.921 433.088 120.746C432.084 119.571 430.737 118.983 429.046 118.983C427.354 118.983 426.007 119.571 425.004 120.746C424 121.921 423.499 123.713 423.499 126.121C423.499 128.529 424 130.335 425.004 131.539C426.007 132.714 427.354 133.302 429.046 133.302ZM443.212 142.59V132.915H445.706C446.566 131.568 447.182 129.991 447.555 128.185C447.956 126.35 448.157 124.114 448.157 121.477V115.285H464.884V132.915H468.41V142.59H463.852V137H447.77V142.59H443.212ZM450.522 132.958H459.853V119.327H452.715V122.681C452.715 124.602 452.528 126.479 452.156 128.314C451.783 130.149 451.238 131.697 450.522 132.958ZM480.915 137.43C479.023 137.43 477.36 136.986 475.927 136.097C474.493 135.18 473.375 133.875 472.573 132.184C471.77 130.493 471.369 128.472 471.369 126.121C471.369 123.77 471.77 121.764 472.573 120.101C473.375 118.41 474.493 117.12 475.927 116.231C477.36 115.314 479.023 114.855 480.915 114.855C482.749 114.855 484.355 115.314 485.731 116.231C487.135 117.12 488.067 118.324 488.526 119.843H488.053L488.526 115.285H493.686C493.6 116.174 493.514 117.077 493.428 117.994C493.37 118.911 493.342 119.814 493.342 120.703V137H488.01L487.967 132.528H488.483C488.024 134.019 487.092 135.208 485.688 136.097C484.283 136.986 482.692 137.43 480.915 137.43ZM482.42 133.302C484.111 133.302 485.473 132.714 486.505 131.539C487.537 130.335 488.053 128.529 488.053 126.121C488.053 123.713 487.537 121.921 486.505 120.746C485.473 119.571 484.111 118.983 482.42 118.983C480.728 118.983 479.367 119.571 478.335 120.746C477.303 121.921 476.787 123.713 476.787 126.121C476.787 128.529 477.288 130.335 478.292 131.539C479.324 132.714 480.7 133.302 482.42 133.302ZM496.343 137L500.901 128.873C501.474 127.927 502.019 127.153 502.535 126.551C503.079 125.92 503.667 125.433 504.298 125.089C504.928 124.745 505.645 124.53 506.448 124.444L505.33 126.121L497.289 115.285H503.051L509.458 123.799H512.167V115.285H517.499V123.799H520.165L526.529 115.285H532.334L524.25 126.121L523.132 124.444C523.934 124.53 524.651 124.745 525.282 125.089C525.912 125.433 526.5 125.92 527.045 126.551C527.618 127.153 528.177 127.927 528.722 128.873L533.28 137H527.561L523.863 130.464C523.49 129.805 523.117 129.289 522.745 128.916C522.372 128.543 521.956 128.285 521.498 128.142C521.039 127.999 520.48 127.927 519.821 127.927H517.499V137H512.167V127.927H509.802C509.142 127.927 508.583 127.999 508.125 128.142C507.666 128.285 507.25 128.543 506.878 128.916C506.534 129.289 506.161 129.805 505.76 130.464L502.062 137H496.343ZM536.102 137V115.285H540.961V131.711H539.671L552.012 115.285H556.441V137H551.582V120.531H552.915L540.531 137H536.102ZM46.053 191V169.285H51.385V177.799H61.189V169.285H66.521V191H61.189V181.927H51.385V191H46.053ZM81.1911 191.43C79.2991 191.43 77.6364 190.986 76.2031 190.097C74.7697 189.18 73.6517 187.875 72.8491 186.184C72.0464 184.493 71.6451 182.472 71.6451 180.121C71.6451 177.77 72.0464 175.764 72.8491 174.101C73.6517 172.41 74.7697 171.12 76.2031 170.231C77.6364 169.314 79.2991 168.855 81.1911 168.855C83.0257 168.855 84.6311 169.314 86.0071 170.231C87.4117 171.12 88.3434 172.324 88.8021 173.843H88.3291L88.8021 169.285H93.9621C93.8761 170.174 93.7901 171.077 93.7041 171.994C93.6467 172.911 93.6181 173.814 93.6181 174.703V191H88.2861L88.2431 186.528H88.7591C88.3004 188.019 87.3687 189.208 85.9641 190.097C84.5594 190.986 82.9684 191.43 81.1911 191.43ZM82.6961 187.302C84.3874 187.302 85.7491 186.714 86.7811 185.539C87.8131 184.335 88.3291 182.529 88.3291 180.121C88.3291 177.713 87.8131 175.921 86.7811 174.746C85.7491 173.571 84.3874 172.983 82.6961 172.983C81.0047 172.983 79.6431 173.571 78.6111 174.746C77.5791 175.921 77.0631 177.713 77.0631 180.121C77.0631 182.529 77.5647 184.335 78.5681 185.539C79.6001 186.714 80.9761 187.302 82.6961 187.302ZM111.687 191V169.285H116.159L123.641 182.271L131.123 169.285H135.595V191H130.865V175.305H131.854L124.888 187.474H122.394L115.428 175.305H116.417V191H111.687ZM150.268 191.43C148.376 191.43 146.714 190.986 145.28 190.097C143.847 189.18 142.729 187.875 141.926 186.184C141.124 184.493 140.722 182.472 140.722 180.121C140.722 177.77 141.124 175.764 141.926 174.101C142.729 172.41 143.847 171.12 145.28 170.231C146.714 169.314 148.376 168.855 150.268 168.855C152.103 168.855 153.708 169.314 155.084 170.231C156.489 171.12 157.421 172.324 157.879 173.843H157.406L157.879 169.285H163.039C162.953 170.174 162.867 171.077 162.781 171.994C162.724 172.911 162.695 173.814 162.695 174.703V191H157.363L157.32 186.528H157.836C157.378 188.019 156.446 189.208 155.041 190.097C153.637 190.986 152.046 191.43 150.268 191.43ZM151.773 187.302C153.465 187.302 154.826 186.714 155.858 185.539C156.89 184.335 157.406 182.529 157.406 180.121C157.406 177.713 156.89 175.921 155.858 174.746C154.826 173.571 153.465 172.983 151.773 172.983C150.082 172.983 148.72 173.571 147.688 174.746C146.656 175.921 146.14 177.713 146.14 180.121C146.14 182.529 146.642 184.335 147.645 185.539C148.677 186.714 150.053 187.302 151.773 187.302ZM169.136 200.288V174.703C169.136 173.814 169.107 172.911 169.05 171.994C168.993 171.077 168.907 170.174 168.792 169.285H173.995L174.468 173.843H173.995C174.425 172.324 175.328 171.12 176.704 170.231C178.109 169.314 179.728 168.855 181.563 168.855C183.484 168.855 185.161 169.314 186.594 170.231C188.027 171.12 189.145 172.41 189.948 174.101C190.751 175.764 191.152 177.77 191.152 180.121C191.152 182.472 190.751 184.493 189.948 186.184C189.145 187.875 188.027 189.18 186.594 190.097C185.161 190.986 183.484 191.43 181.563 191.43C179.757 191.43 178.166 190.986 176.79 190.097C175.414 189.208 174.497 188.019 174.038 186.528H174.511V200.288H169.136ZM180.058 187.302C181.778 187.302 183.154 186.714 184.186 185.539C185.218 184.335 185.734 182.529 185.734 180.121C185.734 177.713 185.218 175.921 184.186 174.746C183.154 173.571 181.778 172.983 180.058 172.983C178.367 172.983 177.005 173.571 175.973 174.746C174.941 175.921 174.425 177.713 174.425 180.121C174.425 182.529 174.941 184.335 175.973 185.539C177.005 186.714 178.367 187.302 180.058 187.302ZM196.217 191V169.285H201.549V177.799H204.817L211.181 169.285H216.943L208.945 180.121L207.784 178.444C208.587 178.53 209.289 178.745 209.891 179.089C210.522 179.433 211.109 179.92 211.654 180.551C212.227 181.153 212.786 181.927 213.331 182.873L217.889 191H212.17L208.472 184.464C208.099 183.805 207.727 183.289 207.354 182.916C206.981 182.543 206.566 182.285 206.107 182.142C205.648 181.999 205.089 181.927 204.43 181.927H201.549V191H196.217ZM231.405 191.43C227.764 191.43 224.912 190.427 222.848 188.42C220.784 186.413 219.752 183.661 219.752 180.164C219.752 177.899 220.196 175.921 221.085 174.23C221.973 172.539 223.206 171.22 224.783 170.274C226.388 169.328 228.251 168.855 230.373 168.855C232.465 168.855 234.214 169.299 235.619 170.188C237.023 171.077 238.084 172.324 238.801 173.929C239.546 175.534 239.919 177.412 239.919 179.562V180.981H224.095V178.143H236.092L235.361 178.745C235.361 176.738 234.931 175.205 234.071 174.144C233.239 173.083 232.021 172.553 230.416 172.553C228.638 172.553 227.262 173.184 226.288 174.445C225.342 175.706 224.869 177.469 224.869 179.734V180.293C224.869 182.644 225.442 184.407 226.589 185.582C227.764 186.729 229.412 187.302 231.534 187.302C232.766 187.302 233.913 187.144 234.974 186.829C236.063 186.485 237.095 185.94 238.07 185.195L239.661 188.807C238.629 189.638 237.396 190.283 235.963 190.742C234.529 191.201 233.01 191.43 231.405 191.43ZM249.573 191V173.499H242.134V169.285H262.387V173.499H254.905V191H249.573ZM265.714 191V169.285H286.053V191H280.721V173.413H271.046V191H265.714ZM291.61 191.602L289.933 187.388C290.879 187.044 291.668 186.6 292.298 186.055C292.958 185.482 293.474 184.765 293.846 183.905C294.248 183.016 294.534 181.927 294.706 180.637C294.878 179.318 294.964 177.756 294.964 175.95V169.285H312.25V191H306.918V173.413H299.866V176.122C299.866 179.247 299.58 181.87 299.006 183.991C298.433 186.084 297.544 187.746 296.34 188.979C295.136 190.212 293.56 191.086 291.61 191.602ZM329.036 191.43C325.396 191.43 322.543 190.427 320.479 188.42C318.415 186.413 317.383 183.661 317.383 180.164C317.383 177.899 317.828 175.921 318.716 174.23C319.605 172.539 320.838 171.22 322.414 170.274C324.02 169.328 325.883 168.855 328.004 168.855C330.097 168.855 331.846 169.299 333.25 170.188C334.655 171.077 335.716 172.324 336.432 173.929C337.178 175.534 337.55 177.412 337.55 179.562V180.981H321.726V178.143H333.723L332.992 178.745C332.992 176.738 332.562 175.205 331.702 174.144C330.871 173.083 329.653 172.553 328.047 172.553C326.27 172.553 324.894 173.184 323.919 174.445C322.973 175.706 322.5 177.469 322.5 179.734V180.293C322.5 182.644 323.074 184.407 324.22 185.582C325.396 186.729 327.044 187.302 329.165 187.302C330.398 187.302 331.545 187.144 332.605 186.829C333.695 186.485 334.727 185.94 335.701 185.195L337.292 188.807C336.26 189.638 335.028 190.283 333.594 190.742C332.161 191.201 330.642 191.43 329.036 191.43ZM342.518 191V169.285H347.377V185.711H346.087L358.428 169.285H362.857V191H357.998V174.531H359.331L346.947 191H342.518ZM352.666 167.307C351.233 167.307 349.971 167.078 348.882 166.619C347.793 166.132 346.89 165.458 346.173 164.598C345.456 163.709 344.94 162.663 344.625 161.459L347.377 160.513C347.864 161.832 348.538 162.806 349.398 163.437C350.258 164.039 351.362 164.34 352.709 164.34C354.056 164.34 355.16 164.039 356.02 163.437C356.88 162.835 357.582 161.875 358.127 160.556L360.75 161.459C360.148 163.38 359.145 164.842 357.74 165.845C356.364 166.82 354.673 167.307 352.666 167.307ZM379.121 191.43C376.885 191.43 374.921 190.971 373.23 190.054C371.567 189.137 370.277 187.832 369.36 186.141C368.443 184.421 367.984 182.386 367.984 180.035C367.984 177.684 368.443 175.678 369.36 174.015C370.306 172.352 371.61 171.077 373.273 170.188C374.936 169.299 376.885 168.855 379.121 168.855C380.554 168.855 381.945 169.084 383.292 169.543C384.668 169.973 385.786 170.604 386.646 171.435L385.012 175.176C384.238 174.459 383.364 173.929 382.389 173.585C381.443 173.212 380.511 173.026 379.594 173.026C377.673 173.026 376.168 173.628 375.079 174.832C374.018 176.036 373.488 177.785 373.488 180.078C373.488 182.371 374.018 184.134 375.079 185.367C376.168 186.6 377.673 187.216 379.594 187.216C380.483 187.216 381.4 187.044 382.346 186.7C383.321 186.356 384.209 185.826 385.012 185.109L386.646 188.807C385.757 189.638 384.625 190.283 383.249 190.742C381.902 191.201 380.526 191.43 379.121 191.43ZM399.786 191.43C397.894 191.43 396.231 190.986 394.798 190.097C393.364 189.18 392.246 187.875 391.444 186.184C390.641 184.493 390.24 182.472 390.24 180.121C390.24 177.77 390.641 175.764 391.444 174.101C392.246 172.41 393.364 171.12 394.798 170.231C396.231 169.314 397.894 168.855 399.786 168.855C401.62 168.855 403.226 169.314 404.602 170.231C406.006 171.12 406.938 172.324 407.397 173.843H406.924L407.397 169.285H412.557C412.471 170.174 412.385 171.077 412.299 171.994C412.241 172.911 412.213 173.814 412.213 174.703V191H406.881L406.838 186.528H407.354C406.895 188.019 405.963 189.208 404.559 190.097C403.154 190.986 401.563 191.43 399.786 191.43ZM401.291 187.302C402.982 187.302 404.344 186.714 405.376 185.539C406.408 184.335 406.924 182.529 406.924 180.121C406.924 177.713 406.408 175.921 405.376 174.746C404.344 173.571 402.982 172.983 401.291 172.983C399.599 172.983 398.238 173.571 397.206 174.746C396.174 175.921 395.658 177.713 395.658 180.121C395.658 182.529 396.159 184.335 397.163 185.539C398.195 186.714 399.571 187.302 401.291 187.302ZM415.3 191L425.405 178.573V181.024L415.859 169.285H422.223L428.458 177.326H426.523L432.758 169.285H439.079L429.619 181.024V178.573L439.681 191H433.274L426.523 182.357H428.458L421.664 191H415.3ZM338.263 299.43C336.027 299.43 334.063 298.971 332.372 298.054C330.709 297.137 329.419 295.832 328.502 294.141C327.584 292.421 327.126 290.386 327.126 288.035C327.126 285.684 327.584 283.678 328.502 282.015C329.448 280.352 330.752 279.077 332.415 278.188C334.077 277.299 336.027 276.855 338.263 276.855C339.696 276.855 341.086 277.084 342.434 277.543C343.81 277.973 344.928 278.604 345.788 279.435L344.154 283.176C343.38 282.459 342.505 281.929 341.531 281.585C340.585 281.212 339.653 281.026 338.736 281.026C336.815 281.026 335.31 281.628 334.221 282.832C333.16 284.036 332.63 285.785 332.63 288.078C332.63 290.371 333.16 292.134 334.221 293.367C335.31 294.6 336.815 295.216 338.736 295.216C339.624 295.216 340.542 295.044 341.488 294.7C342.462 294.356 343.351 293.826 344.154 293.109L345.788 296.807C344.899 297.638 343.767 298.283 342.391 298.742C341.043 299.201 339.667 299.43 338.263 299.43ZM350.37 299V277.285H361.937C364.661 277.285 366.653 277.787 367.914 278.79C369.176 279.765 369.806 281.155 369.806 282.961C369.806 284.337 369.348 285.484 368.43 286.401C367.513 287.318 366.295 287.892 364.775 288.121V287.519C366.639 287.634 368.072 288.178 369.075 289.153C370.079 290.128 370.58 291.389 370.58 292.937C370.58 294.8 369.864 296.277 368.43 297.366C366.997 298.455 364.962 299 362.324 299H350.37ZM355.358 295.689H361.765C363.027 295.689 363.987 295.431 364.646 294.915C365.334 294.399 365.678 293.639 365.678 292.636C365.678 291.633 365.334 290.873 364.646 290.357C363.987 289.841 363.027 289.583 361.765 289.583H355.358V295.689ZM355.358 286.272H361.292C362.439 286.272 363.328 286.028 363.958 285.541C364.589 285.025 364.904 284.308 364.904 283.391C364.904 282.474 364.589 281.771 363.958 281.284C363.328 280.797 362.439 280.553 361.292 280.553H355.358V286.272ZM385.248 299.43C383.012 299.43 381.077 298.971 379.443 298.054C377.809 297.137 376.533 295.832 375.616 294.141C374.727 292.45 374.283 290.443 374.283 288.121C374.283 285.799 374.727 283.807 375.616 282.144C376.533 280.453 377.809 279.148 379.443 278.231C381.077 277.314 383.012 276.855 385.248 276.855C387.484 276.855 389.419 277.314 391.053 278.231C392.715 279.148 393.991 280.453 394.88 282.144C395.797 283.807 396.256 285.799 396.256 288.121C396.256 290.443 395.797 292.45 394.88 294.141C393.991 295.832 392.715 297.137 391.053 298.054C389.419 298.971 387.484 299.43 385.248 299.43ZM385.248 295.302C386.939 295.302 388.286 294.714 389.29 293.539C390.293 292.335 390.795 290.529 390.795 288.121C390.795 285.713 390.293 283.921 389.29 282.746C388.286 281.571 386.939 280.983 385.248 280.983C383.556 280.983 382.209 281.571 381.206 282.746C380.202 283.921 379.701 285.713 379.701 288.121C379.701 290.529 380.202 292.335 381.206 293.539C382.209 294.714 383.556 295.302 385.248 295.302ZM412.013 299.43C408.372 299.43 405.52 298.427 403.456 296.42C401.392 294.413 400.36 291.661 400.36 288.164C400.36 285.899 400.804 283.921 401.693 282.23C402.582 280.539 403.814 279.22 405.391 278.274C406.996 277.328 408.86 276.855 410.981 276.855C413.074 276.855 414.822 277.299 416.227 278.188C417.632 279.077 418.692 280.324 419.409 281.929C420.154 283.534 420.527 285.412 420.527 287.562V288.981H404.703V286.143H416.7L415.969 286.745C415.969 284.738 415.539 283.205 414.679 282.144C413.848 281.083 412.629 280.553 411.024 280.553C409.247 280.553 407.871 281.184 406.896 282.445C405.95 283.706 405.477 285.469 405.477 287.734V288.293C405.477 290.644 406.05 292.407 407.197 293.582C408.372 294.729 410.021 295.302 412.142 295.302C413.375 295.302 414.521 295.144 415.582 294.829C416.671 294.485 417.703 293.94 418.678 293.195L420.269 296.807C419.237 297.638 418.004 298.283 416.571 298.742C415.138 299.201 413.618 299.43 412.013 299.43ZM425.494 299V277.285H441.791V281.499H430.869V299H425.494ZM455.543 299.43C453.307 299.43 451.372 298.971 449.738 298.054C448.104 297.137 446.828 295.832 445.911 294.141C445.022 292.45 444.578 290.443 444.578 288.121C444.578 285.799 445.022 283.807 445.911 282.144C446.828 280.453 448.104 279.148 449.738 278.231C451.372 277.314 453.307 276.855 455.543 276.855C457.779 276.855 459.714 277.314 461.348 278.231C463.01 279.148 464.286 280.453 465.175 282.144C466.092 283.807 466.551 285.799 466.551 288.121C466.551 290.443 466.092 292.45 465.175 294.141C464.286 295.832 463.01 297.137 461.348 298.054C459.714 298.971 457.779 299.43 455.543 299.43ZM455.543 295.302C457.234 295.302 458.581 294.714 459.585 293.539C460.588 292.335 461.09 290.529 461.09 288.121C461.09 285.713 460.588 283.921 459.585 282.746C458.581 281.571 457.234 280.983 455.543 280.983C453.851 280.983 452.504 281.571 451.501 282.746C450.497 283.921 449.996 285.713 449.996 288.121C449.996 290.529 450.497 292.335 451.501 293.539C452.504 294.714 453.851 295.302 455.543 295.302ZM56.244 353.43C52.8327 353.43 50.1093 352.398 48.074 350.334C46.0673 348.27 45.064 345.246 45.064 341.261V337.563C45.064 333.464 45.9957 330.167 47.859 327.673C49.7223 325.179 52.5317 323.531 56.287 322.728L64.242 320.922L65.704 325.136L56.76 327.114C55.2693 327.429 54.0367 328.031 53.062 328.92C52.0873 329.78 51.3563 330.812 50.869 332.016C50.3817 333.22 50.138 334.51 50.138 335.886V338.165H49.407C49.7223 336.875 50.2527 335.757 50.998 334.811C51.7433 333.836 52.6893 333.077 53.836 332.532C54.9827 331.987 56.287 331.715 57.749 331.715C59.5837 331.715 61.189 332.145 62.565 333.005C63.9697 333.836 65.0733 335.055 65.876 336.66C66.6787 338.237 67.08 340.129 67.08 342.336C67.08 344.601 66.6213 346.564 65.704 348.227C64.8153 349.89 63.554 351.18 61.92 352.097C60.3147 352.986 58.4227 353.43 56.244 353.43ZM56.072 349.345C57.8493 349.345 59.2253 348.786 60.2 347.668C61.2033 346.521 61.705 344.816 61.705 342.551C61.705 340.344 61.2033 338.667 60.2 337.52C59.1967 336.345 57.8207 335.757 56.072 335.757C54.3233 335.757 52.9473 336.33 51.944 337.477C50.9407 338.624 50.439 340.258 50.439 342.379C50.439 344.701 50.9407 346.45 51.944 347.625C52.9473 348.772 54.3233 349.345 56.072 349.345ZM72.1721 353V331.285H77.0311V347.711H75.7411L88.0821 331.285H92.5111V353H87.6521V336.531H88.9851L76.6011 353H72.1721ZM106.625 353.43C104.676 353.43 102.841 353.201 101.121 352.742C99.4299 352.283 98.0109 351.624 96.8642 350.764L98.3692 347.238C99.4299 348.012 100.663 348.6 102.067 349.001C103.501 349.402 105.006 349.603 106.582 349.603C108.417 349.603 109.75 349.359 110.581 348.872C111.441 348.356 111.871 347.611 111.871 346.636C111.871 345.719 111.542 345.031 110.882 344.572C110.223 344.085 109.248 343.841 107.958 343.841H102.325V340.143H107.442C108.618 340.143 109.521 339.914 110.151 339.455C110.782 338.996 111.097 338.351 111.097 337.52C111.097 336.631 110.71 335.929 109.936 335.413C109.191 334.897 107.958 334.639 106.238 334.639C104.748 334.639 103.386 334.825 102.153 335.198C100.921 335.542 99.7596 336.058 98.6702 336.746L97.2082 333.392C98.3836 332.561 99.8026 331.93 101.465 331.5C103.157 331.07 104.991 330.855 106.969 330.855C109.865 330.855 112.086 331.385 113.634 332.446C115.182 333.507 115.956 335.012 115.956 336.961C115.956 338.28 115.498 339.412 114.58 340.358C113.692 341.304 112.488 341.892 110.968 342.121V341.519C112.746 341.634 114.15 342.164 115.182 343.11C116.214 344.056 116.73 345.332 116.73 346.937C116.73 348.915 115.856 350.492 114.107 351.667C112.359 352.842 109.865 353.43 106.625 353.43ZM121.429 353V331.285H126.761V339.799H136.565V331.285H141.897V353H136.565V343.927H126.761V353H121.429ZM158.674 353.43C155.033 353.43 152.181 352.427 150.117 350.42C148.053 348.413 147.021 345.661 147.021 342.164C147.021 339.899 147.465 337.921 148.354 336.23C149.243 334.539 150.475 333.22 152.052 332.274C153.657 331.328 155.521 330.855 157.642 330.855C159.735 330.855 161.483 331.299 162.888 332.188C164.293 333.077 165.353 334.324 166.07 335.929C166.815 337.534 167.188 339.412 167.188 341.562V342.981H151.364V340.143H163.361L162.63 340.745C162.63 338.738 162.2 337.205 161.34 336.144C160.509 335.083 159.29 334.553 157.685 334.553C155.908 334.553 154.532 335.184 153.557 336.445C152.611 337.706 152.138 339.469 152.138 341.734V342.293C152.138 344.644 152.711 346.407 153.858 347.582C155.033 348.729 156.682 349.302 158.803 349.302C160.036 349.302 161.182 349.144 162.243 348.829C163.332 348.485 164.364 347.94 165.339 347.195L166.93 350.807C165.898 351.638 164.665 352.283 163.232 352.742C161.799 353.201 160.279 353.43 158.674 353.43ZM182.304 353.43C180.068 353.43 178.104 352.971 176.413 352.054C174.75 351.137 173.46 349.832 172.543 348.141C171.625 346.421 171.167 344.386 171.167 342.035C171.167 339.684 171.625 337.678 172.543 336.015C173.489 334.352 174.793 333.077 176.456 332.188C178.118 331.299 180.068 330.855 182.304 330.855C183.737 330.855 185.127 331.084 186.475 331.543C187.851 331.973 188.969 332.604 189.829 333.435L188.195 337.176C187.421 336.459 186.546 335.929 185.572 335.585C184.626 335.212 183.694 335.026 182.777 335.026C180.856 335.026 179.351 335.628 178.262 336.832C177.201 338.036 176.671 339.785 176.671 342.078C176.671 344.371 177.201 346.134 178.262 347.367C179.351 348.6 180.856 349.216 182.777 349.216C183.665 349.216 184.583 349.044 185.529 348.7C186.503 348.356 187.392 347.826 188.195 347.109L189.829 350.807C188.94 351.638 187.808 352.283 186.432 352.742C185.084 353.201 183.708 353.43 182.304 353.43ZM202.968 353.43C201.076 353.43 199.414 352.986 197.98 352.097C196.547 351.18 195.429 349.875 194.626 348.184C193.824 346.493 193.422 344.472 193.422 342.121C193.422 339.77 193.824 337.764 194.626 336.101C195.429 334.41 196.547 333.12 197.98 332.231C199.414 331.314 201.076 330.855 202.968 330.855C204.803 330.855 206.408 331.314 207.784 332.231C209.189 333.12 210.121 334.324 210.579 335.843H210.106L210.579 331.285H215.739C215.653 332.174 215.567 333.077 215.481 333.994C215.424 334.911 215.395 335.814 215.395 336.703V353H210.063L210.02 348.528H210.536C210.078 350.019 209.146 351.208 207.741 352.097C206.337 352.986 204.746 353.43 202.968 353.43ZM204.473 349.302C206.165 349.302 207.526 348.714 208.558 347.539C209.59 346.335 210.106 344.529 210.106 342.121C210.106 339.713 209.59 337.921 208.558 336.746C207.526 335.571 206.165 334.983 204.473 334.983C202.782 334.983 201.42 335.571 200.388 336.746C199.356 337.921 198.84 339.713 198.84 342.121C198.84 344.529 199.342 346.335 200.345 347.539C201.377 348.714 202.753 349.302 204.473 349.302Z" fill="#1A1A1A"/>
<path d="M56.201 245.43C53.965 245.43 52.0013 244.971 50.31 244.054C48.6473 243.137 47.3573 241.832 46.44 240.141C45.5227 238.421 45.064 236.386 45.064 234.035C45.064 231.684 45.5227 229.678 46.44 228.015C47.386 226.352 48.6903 225.077 50.353 224.188C52.0157 223.299 53.965 222.855 56.201 222.855C57.6343 222.855 59.0247 223.084 60.372 223.543C61.748 223.973 62.866 224.604 63.726 225.435L62.092 229.176C61.318 228.459 60.4437 227.929 59.469 227.585C58.523 227.212 57.5913 227.026 56.674 227.026C54.7533 227.026 53.2483 227.628 52.159 228.832C51.0983 230.036 50.568 231.785 50.568 234.078C50.568 236.371 51.0983 238.134 52.159 239.367C53.2483 240.6 54.7533 241.216 56.674 241.216C57.5627 241.216 58.48 241.044 59.426 240.7C60.4007 240.356 61.2893 239.826 62.092 239.109L63.726 242.807C62.8373 243.638 61.705 244.283 60.329 244.742C58.9817 245.201 57.6057 245.43 56.201 245.43ZM80.1087 245V223.285H100.448V245H95.1157V227.413H85.4407V245H80.1087ZM116.54 245.43C114.304 245.43 112.369 244.971 110.735 244.054C109.101 243.137 107.825 241.832 106.908 240.141C106.019 238.45 105.575 236.443 105.575 234.121C105.575 231.799 106.019 229.807 106.908 228.144C107.825 226.453 109.101 225.148 110.735 224.231C112.369 223.314 114.304 222.855 116.54 222.855C118.776 222.855 120.711 223.314 122.345 224.231C124.007 225.148 125.283 226.453 126.172 228.144C127.089 229.807 127.548 231.799 127.548 234.121C127.548 236.443 127.089 238.45 126.172 240.141C125.283 241.832 124.007 243.137 122.345 244.054C120.711 244.971 118.776 245.43 116.54 245.43ZM116.54 241.302C118.231 241.302 119.578 240.714 120.582 239.539C121.585 238.335 122.087 236.529 122.087 234.121C122.087 231.713 121.585 229.921 120.582 228.746C119.578 227.571 118.231 226.983 116.54 226.983C114.848 226.983 113.501 227.571 112.498 228.746C111.494 229.921 110.993 231.713 110.993 234.121C110.993 236.529 111.494 238.335 112.498 239.539C113.501 240.714 114.848 241.302 116.54 241.302ZM132.641 245V223.285H137.113L144.595 236.271L152.077 223.285H156.549V245H151.819V229.305H152.808L145.842 241.474H143.348L136.382 229.305H137.371V245H132.641ZM172.641 245.43C170.405 245.43 168.47 244.971 166.836 244.054C165.202 243.137 163.927 241.832 163.009 240.141C162.121 238.45 161.676 236.443 161.676 234.121C161.676 231.799 162.121 229.807 163.009 228.144C163.927 226.453 165.202 225.148 166.836 224.231C168.47 223.314 170.405 222.855 172.641 222.855C174.877 222.855 176.812 223.314 178.446 224.231C180.109 225.148 181.385 226.453 182.273 228.144C183.191 229.807 183.649 231.799 183.649 234.121C183.649 236.443 183.191 238.45 182.273 240.141C181.385 241.832 180.109 243.137 178.446 244.054C176.812 244.971 174.877 245.43 172.641 245.43ZM172.641 241.302C174.333 241.302 175.68 240.714 176.683 239.539C177.687 238.335 178.188 236.529 178.188 234.121C178.188 231.713 177.687 229.921 176.683 228.746C175.68 227.571 174.333 226.983 172.641 226.983C170.95 226.983 169.603 227.571 168.599 228.746C167.596 229.921 167.094 231.713 167.094 234.121C167.094 236.529 167.596 238.335 168.599 239.539C169.603 240.714 170.95 241.302 172.641 241.302ZM218.111 250.59V245H188.742V223.285H193.773V240.872H201.427V223.285H206.415V240.872H214.069V223.285H219.1V240.872H222.626V250.59H218.111ZM226.577 245V223.285H231.909V230.552H237.628C240.524 230.552 242.702 231.168 244.164 232.401C245.626 233.605 246.357 235.354 246.357 237.647C246.357 239.138 246.013 240.442 245.325 241.56C244.637 242.649 243.634 243.495 242.315 244.097C241.025 244.699 239.463 245 237.628 245H226.577ZM231.909 241.474H236.897C238.359 241.474 239.477 241.173 240.251 240.571C241.025 239.94 241.412 238.994 241.412 237.733C241.412 236.472 241.025 235.554 240.251 234.981C239.506 234.379 238.388 234.078 236.897 234.078H231.909V241.474ZM270.629 245.43C267.619 245.43 265.154 244.599 263.233 242.936C261.341 241.245 260.209 238.908 259.836 235.927H256.095V245H250.849V223.285H256.095V231.799H259.879C260.338 228.99 261.513 226.797 263.405 225.22C265.297 223.643 267.705 222.855 270.629 222.855C272.865 222.855 274.8 223.314 276.434 224.231C278.097 225.12 279.372 226.41 280.261 228.101C281.178 229.764 281.637 231.77 281.637 234.121C281.637 236.443 281.178 238.45 280.261 240.141C279.372 241.832 278.097 243.137 276.434 244.054C274.8 244.971 272.865 245.43 270.629 245.43ZM270.629 241.345C272.32 241.345 273.682 240.757 274.714 239.582C275.746 238.378 276.262 236.558 276.262 234.121C276.262 231.713 275.746 229.921 274.714 228.746C273.682 227.542 272.32 226.94 270.629 226.94C268.909 226.94 267.533 227.542 266.501 228.746C265.498 229.921 264.996 231.713 264.996 234.121C264.996 236.558 265.498 238.378 266.501 239.582C267.533 240.757 268.909 241.345 270.629 241.345ZM308.486 245.43C306.25 245.43 304.315 244.971 302.681 244.054C301.047 243.137 299.771 241.832 298.854 240.141C297.965 238.45 297.521 236.443 297.521 234.121C297.521 231.799 297.965 229.807 298.854 228.144C299.771 226.453 301.047 225.148 302.681 224.231C304.315 223.314 306.25 222.855 308.486 222.855C310.722 222.855 312.657 223.314 314.291 224.231C315.954 225.148 317.229 226.453 318.118 228.144C319.035 229.807 319.494 231.799 319.494 234.121C319.494 236.443 319.035 238.45 318.118 240.141C317.229 241.832 315.954 243.137 314.291 244.054C312.657 244.971 310.722 245.43 308.486 245.43ZM308.486 241.302C310.177 241.302 311.525 240.714 312.528 239.539C313.531 238.335 314.033 236.529 314.033 234.121C314.033 231.713 313.531 229.921 312.528 228.746C311.525 227.571 310.177 226.983 308.486 226.983C306.795 226.983 305.447 227.571 304.444 228.746C303.441 229.921 302.939 231.713 302.939 234.121C302.939 236.529 303.441 238.335 304.444 239.539C305.447 240.714 306.795 241.302 308.486 241.302ZM343.421 250.59V245H324.587V223.285H329.919V240.872H339.121V223.285H344.41V240.872H347.936V250.59H343.421ZM351.882 245V223.285H356.741V239.711H355.451L367.792 223.285H372.221V245H367.362V228.531H368.695L356.311 245H351.882ZM391.108 254.288V240.786H391.581C391.123 242.277 390.349 243.423 389.259 244.226C388.199 245.029 386.909 245.43 385.389 245.43C383.813 245.43 382.408 244.971 381.175 244.054C379.971 243.108 379.025 241.789 378.337 240.098C377.649 238.407 377.305 236.414 377.305 234.121C377.305 231.799 377.635 229.807 378.294 228.144C378.982 226.453 379.928 225.148 381.132 224.231C382.365 223.314 383.784 222.855 385.389 222.855C386.909 222.855 388.199 223.256 389.259 224.059C390.349 224.862 391.123 225.994 391.581 227.456H391.108V213.352H396.44V227.456H395.967C396.426 225.994 397.186 224.862 398.246 224.059C399.336 223.256 400.64 222.855 402.159 222.855C403.765 222.855 405.169 223.314 406.373 224.231C407.606 225.148 408.552 226.453 409.211 228.144C409.899 229.807 410.243 231.799 410.243 234.121C410.243 236.414 409.899 238.407 409.211 240.098C408.552 241.789 407.606 243.108 406.373 244.054C405.169 244.971 403.765 245.43 402.159 245.43C400.669 245.43 399.379 245.029 398.289 244.226C397.229 243.423 396.455 242.277 395.967 240.786H396.44V254.288H391.108ZM386.937 241.388C388.256 241.388 389.288 240.786 390.033 239.582C390.807 238.378 391.194 236.558 391.194 234.121C391.194 231.713 390.807 229.907 390.033 228.703C389.259 227.47 388.227 226.854 386.937 226.854C385.619 226.854 384.572 227.47 383.798 228.703C383.024 229.907 382.637 231.713 382.637 234.121C382.637 236.558 383.024 238.378 383.798 239.582C384.572 240.786 385.619 241.388 386.937 241.388ZM400.611 241.388C401.93 241.388 402.976 240.786 403.75 239.582C404.524 238.378 404.911 236.558 404.911 234.121C404.911 231.713 404.51 229.907 403.707 228.703C402.933 227.47 401.901 226.854 400.611 226.854C399.293 226.854 398.246 227.47 397.472 228.703C396.727 229.907 396.354 231.713 396.354 234.121C396.354 236.558 396.727 238.378 397.472 239.582C398.246 240.786 399.293 241.388 400.611 241.388ZM415.504 254.288V228.703C415.504 227.814 415.476 226.911 415.418 225.994C415.361 225.077 415.275 224.174 415.16 223.285H420.363L420.836 227.843H420.363C420.793 226.324 421.696 225.12 423.072 224.231C424.477 223.314 426.097 222.855 427.931 222.855C429.852 222.855 431.529 223.314 432.962 224.231C434.396 225.12 435.514 226.41 436.316 228.101C437.119 229.764 437.52 231.77 437.52 234.121C437.52 236.472 437.119 238.493 436.316 240.184C435.514 241.875 434.396 243.18 432.962 244.097C431.529 244.986 429.852 245.43 427.931 245.43C426.125 245.43 424.534 244.986 423.158 244.097C421.782 243.208 420.865 242.019 420.406 240.528H420.879V254.288H415.504ZM426.426 241.302C428.146 241.302 429.522 240.714 430.554 239.539C431.586 238.335 432.102 236.529 432.102 234.121C432.102 231.713 431.586 229.921 430.554 228.746C429.522 227.571 428.146 226.983 426.426 226.983C424.735 226.983 423.373 227.571 422.341 228.746C421.309 229.921 420.793 231.713 420.793 234.121C420.793 236.529 421.309 238.335 422.341 239.539C423.373 240.714 424.735 241.302 426.426 241.302ZM452.561 245.43C450.325 245.43 448.39 244.971 446.756 244.054C445.122 243.137 443.847 241.832 442.929 240.141C442.041 238.45 441.596 236.443 441.596 234.121C441.596 231.799 442.041 229.807 442.929 228.144C443.847 226.453 445.122 225.148 446.756 224.231C448.39 223.314 450.325 222.855 452.561 222.855C454.797 222.855 456.732 223.314 458.366 224.231C460.029 225.148 461.305 226.453 462.193 228.144C463.111 229.807 463.569 231.799 463.569 234.121C463.569 236.443 463.111 238.45 462.193 240.141C461.305 241.832 460.029 243.137 458.366 244.054C456.732 244.971 454.797 245.43 452.561 245.43ZM452.561 241.302C454.253 241.302 455.6 240.714 456.603 239.539C457.607 238.335 458.108 236.529 458.108 234.121C458.108 231.713 457.607 229.921 456.603 228.746C455.6 227.571 454.253 226.983 452.561 226.983C450.87 226.983 449.523 227.571 448.519 228.746C447.516 229.921 447.014 231.713 447.014 234.121C447.014 236.529 447.516 238.335 448.519 239.539C449.523 240.714 450.87 241.302 452.561 241.302ZM468.662 245V223.285H480.229C482.953 223.285 484.945 223.787 486.206 224.79C487.468 225.765 488.098 227.155 488.098 228.961C488.098 230.337 487.64 231.484 486.722 232.401C485.805 233.318 484.587 233.892 483.067 234.121V233.519C484.931 233.634 486.364 234.178 487.367 235.153C488.371 236.128 488.872 237.389 488.872 238.937C488.872 240.8 488.156 242.277 486.722 243.366C485.289 244.455 483.254 245 480.616 245H468.662ZM473.65 241.689H480.057C481.319 241.689 482.279 241.431 482.938 240.915C483.626 240.399 483.97 239.639 483.97 238.636C483.97 237.633 483.626 236.873 482.938 236.357C482.279 235.841 481.319 235.583 480.057 235.583H473.65V241.689ZM473.65 232.272H479.584C480.731 232.272 481.62 232.028 482.25 231.541C482.881 231.025 483.196 230.308 483.196 229.391C483.196 228.474 482.881 227.771 482.25 227.284C481.62 226.797 480.731 226.553 479.584 226.553H473.65V232.272ZM493.564 245V223.285H498.896V231.799H502.164L508.528 223.285H514.29L506.292 234.121L505.131 232.444C505.933 232.53 506.636 232.745 507.238 233.089C507.868 233.433 508.456 233.92 509.001 234.551C509.574 235.153 510.133 235.927 510.678 236.873L515.236 245H509.517L505.819 238.464C505.446 237.805 505.073 237.289 504.701 236.916C504.328 236.543 503.912 236.285 503.454 236.142C502.995 235.999 502.436 235.927 501.777 235.927H498.896V245H493.564ZM518.087 245V223.285H522.946V239.711H521.656L533.997 223.285H538.426V245H533.567V228.531H534.9L522.516 245H518.087ZM46.053 299V277.285H50.912V293.711H49.622L61.963 277.285H66.392V299H61.533V282.531H62.866L50.482 299H46.053ZM92.8649 299.43C90.9729 299.43 89.3102 298.986 87.8769 298.097C86.4435 297.18 85.3255 295.875 84.5229 294.184C83.7202 292.493 83.3189 290.472 83.3189 288.121C83.3189 285.77 83.7202 283.764 84.5229 282.101C85.3255 280.41 86.4435 279.12 87.8769 278.231C89.3102 277.314 90.9729 276.855 92.8649 276.855C94.6996 276.855 96.3049 277.314 97.6809 278.231C99.0856 279.12 100.017 280.324 100.476 281.843H100.003L100.476 277.285H105.636C105.55 278.174 105.464 279.077 105.378 279.994C105.321 280.911 105.292 281.814 105.292 282.703V299H99.9599L99.9169 294.528H100.433C99.9742 296.019 99.0425 297.208 97.6379 298.097C96.2332 298.986 94.6422 299.43 92.8649 299.43ZM94.3699 295.302C96.0612 295.302 97.4229 294.714 98.4549 293.539C99.4869 292.335 100.003 290.529 100.003 288.121C100.003 285.713 99.4869 283.921 98.4549 282.746C97.4229 281.571 96.0612 280.983 94.3699 280.983C92.6785 280.983 91.3169 281.571 90.2849 282.746C89.2529 283.921 88.7369 285.713 88.7369 288.121C88.7369 290.529 89.2385 292.335 90.2419 293.539C91.2739 294.714 92.6499 295.302 94.3699 295.302ZM111.561 299V277.285H116.893V285.799H126.697V277.285H132.029V299H126.697V289.927H116.893V299H111.561ZM146.699 299.43C144.807 299.43 143.144 298.986 141.711 298.097C140.278 297.18 139.16 295.875 138.357 294.184C137.554 292.493 137.153 290.472 137.153 288.121C137.153 285.77 137.554 283.764 138.357 282.101C139.16 280.41 140.278 279.12 141.711 278.231C143.144 277.314 144.807 276.855 146.699 276.855C148.534 276.855 150.139 277.314 151.515 278.231C152.92 279.12 153.851 280.324 154.31 281.843H153.837L154.31 277.285H159.47C159.384 278.174 159.298 279.077 159.212 279.994C159.155 280.911 159.126 281.814 159.126 282.703V299H153.794L153.751 294.528H154.267C153.808 296.019 152.877 297.208 151.472 298.097C150.067 298.986 148.476 299.43 146.699 299.43ZM148.204 295.302C149.895 295.302 151.257 294.714 152.289 293.539C153.321 292.335 153.837 290.529 153.837 288.121C153.837 285.713 153.321 283.921 152.289 282.746C151.257 281.571 149.895 280.983 148.204 280.983C146.513 280.983 145.151 281.571 144.119 282.746C143.087 283.921 142.571 285.713 142.571 288.121C142.571 290.529 143.073 292.335 144.076 293.539C145.108 294.714 146.484 295.302 148.204 295.302ZM164.836 299.602L163.159 295.388C164.105 295.044 164.893 294.6 165.524 294.055C166.183 293.482 166.699 292.765 167.072 291.905C167.473 291.016 167.76 289.927 167.932 288.637C168.104 287.318 168.19 285.756 168.19 283.95V277.285H185.476V299H180.144V281.413H173.092V284.122C173.092 287.247 172.805 289.87 172.232 291.991C171.658 294.084 170.77 295.746 169.566 296.979C168.362 298.212 166.785 299.086 164.836 299.602ZM191.598 299V277.285H196.457V293.711H195.167L207.508 277.285H211.937V299H207.078V282.531H208.411L196.027 299H191.598ZM222.74 299V281.499H215.301V277.285H235.554V281.499H228.072V299H222.74ZM238.881 299V277.285H243.74V293.711H242.45L254.791 277.285H259.22V299H254.361V282.531H255.694L243.31 299H238.881ZM265.336 299V277.285H270.668V285.799H273.936L280.3 277.285H286.062L278.064 288.121L276.903 286.444C277.706 286.53 278.408 286.745 279.01 287.089C279.641 287.433 280.229 287.92 280.773 288.551C281.347 289.153 281.906 289.927 282.45 290.873L287.008 299H281.289L277.591 292.464C277.219 291.805 276.846 291.289 276.473 290.916C276.101 290.543 275.685 290.285 275.226 290.142C274.768 289.999 274.209 289.927 273.549 289.927H270.668V299H265.336ZM289.86 299V277.285H294.719V293.711H293.429L305.77 277.285H310.199V299H305.34V282.531H306.673L294.289 299H289.86Z" fill="#5329FF"/>
<rect x="43" y="529" width="525" height="63" rx="8" fill="#5329FF"/>
<path d="M227.518 567L232.666 560.142V560.898L227.734 554.31H229.93L233.746 559.566H233.17L236.95 554.31H239.164L234.232 560.898V560.142L239.38 567H237.166L233.116 561.456H233.782L229.714 567H227.518ZM244.605 567.162C243.705 567.162 242.925 566.976 242.265 566.604C241.605 566.22 241.095 565.68 240.735 564.984C240.375 564.276 240.195 563.436 240.195 562.464C240.195 561.492 240.375 560.658 240.735 559.962C241.095 559.254 241.605 558.714 242.265 558.342C242.925 557.958 243.705 557.766 244.605 557.766C245.505 557.766 246.285 557.958 246.945 558.342C247.617 558.714 248.133 559.254 248.493 559.962C248.865 560.658 249.051 561.492 249.051 562.464C249.051 563.436 248.865 564.276 248.493 564.984C248.133 565.68 247.617 566.22 246.945 566.604C246.285 566.976 245.505 567.162 244.605 567.162ZM244.605 565.74C245.397 565.74 246.027 565.464 246.495 564.912C246.963 564.36 247.197 563.544 247.197 562.464C247.197 561.384 246.963 560.574 246.495 560.034C246.027 559.482 245.397 559.206 244.605 559.206C243.825 559.206 243.201 559.482 242.733 560.034C242.265 560.574 242.031 561.384 242.031 562.464C242.031 563.544 242.259 564.36 242.715 564.912C243.183 565.464 243.813 565.74 244.605 565.74ZM257.094 567V563.49C256.758 563.67 256.398 563.814 256.014 563.922C255.63 564.018 255.222 564.066 254.79 564.066C253.482 564.066 252.51 563.76 251.874 563.148C251.25 562.524 250.938 561.594 250.938 560.358V557.928H252.738V560.214C252.738 561.042 252.924 561.642 253.296 562.014C253.668 562.386 254.256 562.572 255.06 562.572C255.468 562.572 255.828 562.53 256.14 562.446C256.452 562.35 256.758 562.206 257.058 562.014V557.928H258.876V567H257.094ZM261.4 571.086L260.968 569.61C261.532 569.49 262 569.346 262.372 569.178C262.756 569.01 263.074 568.788 263.326 568.512C263.578 568.248 263.794 567.906 263.974 567.486L264.424 566.424L264.388 567.162L260.446 557.928H262.39L265.45 565.488H264.964L268.024 557.928H269.896L265.738 567.648C265.474 568.248 265.192 568.752 264.892 569.16C264.592 569.568 264.268 569.898 263.92 570.15C263.572 570.402 263.188 570.6 262.768 570.744C262.348 570.888 261.892 571.002 261.4 571.086ZM276.259 567V557.928H280.831C281.923 557.928 282.727 558.138 283.243 558.558C283.771 558.966 284.035 559.548 284.035 560.304C284.035 560.892 283.837 561.378 283.441 561.762C283.057 562.146 282.547 562.38 281.911 562.464V562.23C282.667 562.266 283.261 562.488 283.693 562.896C284.125 563.304 284.341 563.832 284.341 564.48C284.341 565.26 284.047 565.878 283.459 566.334C282.883 566.778 282.061 567 280.993 567H276.259ZM277.969 565.83H280.849C281.437 565.83 281.887 565.71 282.199 565.47C282.511 565.218 282.667 564.858 282.667 564.39C282.667 563.922 282.511 563.568 282.199 563.328C281.887 563.088 281.437 562.968 280.849 562.968H277.969V565.83ZM277.969 561.798H280.651C281.191 561.798 281.611 561.678 281.911 561.438C282.211 561.198 282.361 560.868 282.361 560.448C282.361 560.016 282.211 559.686 281.911 559.458C281.611 559.218 281.191 559.098 280.651 559.098H277.969V561.798ZM290.539 567.162C289.627 567.162 288.829 566.976 288.145 566.604C287.473 566.22 286.951 565.674 286.579 564.966C286.219 564.246 286.039 563.394 286.039 562.41C286.039 561.438 286.225 560.604 286.597 559.908C286.969 559.212 287.491 558.684 288.163 558.324C288.835 557.952 289.627 557.766 290.539 557.766C291.127 557.766 291.697 557.868 292.249 558.072C292.801 558.264 293.257 558.54 293.617 558.9L293.023 560.178C292.687 559.854 292.309 559.614 291.889 559.458C291.469 559.29 291.061 559.206 290.665 559.206C289.801 559.206 289.123 559.482 288.631 560.034C288.139 560.586 287.893 561.384 287.893 562.428C287.893 563.484 288.139 564.294 288.631 564.858C289.123 565.422 289.801 565.704 290.665 565.704C291.049 565.704 291.451 565.632 291.871 565.488C292.291 565.332 292.675 565.086 293.023 564.75L293.617 566.028C293.245 566.388 292.777 566.67 292.213 566.874C291.661 567.066 291.103 567.162 290.539 567.162ZM299.948 567.162C298.484 567.162 297.332 566.748 296.492 565.92C295.652 565.092 295.232 563.946 295.232 562.482C295.232 561.534 295.412 560.706 295.772 559.998C296.144 559.29 296.654 558.744 297.302 558.36C297.962 557.964 298.724 557.766 299.588 557.766C300.44 557.766 301.154 557.946 301.73 558.306C302.306 558.666 302.744 559.176 303.044 559.836C303.344 560.484 303.494 561.252 303.494 562.14V562.716H296.654V561.672H302.252L301.946 561.906C301.946 561.006 301.742 560.31 301.334 559.818C300.938 559.314 300.362 559.062 299.606 559.062C298.766 559.062 298.118 559.356 297.662 559.944C297.206 560.52 296.978 561.318 296.978 562.338V562.518C296.978 563.586 297.236 564.39 297.752 564.93C298.28 565.47 299.024 565.74 299.984 565.74C300.512 565.74 301.004 565.668 301.46 565.524C301.928 565.368 302.372 565.116 302.792 564.768L303.386 566.01C302.966 566.382 302.456 566.67 301.856 566.874C301.256 567.066 300.62 567.162 299.948 567.162ZM310.518 567V557.928H312.174V565.254H311.67L317.142 557.928H318.654V567H317.016V559.656H317.538L312.03 567H310.518ZM324.532 567.162C323.74 567.162 322.996 567.066 322.3 566.874C321.604 566.67 321.034 566.382 320.59 566.01L321.148 564.786C321.592 565.134 322.102 565.398 322.678 565.578C323.254 565.746 323.872 565.83 324.532 565.83C325.36 565.83 325.96 565.71 326.332 565.47C326.716 565.218 326.908 564.864 326.908 564.408C326.908 563.964 326.752 563.628 326.44 563.4C326.128 563.172 325.672 563.058 325.072 563.058H322.84V561.762H324.892C325.432 561.762 325.852 561.648 326.152 561.42C326.452 561.192 326.602 560.874 326.602 560.466C326.602 560.034 326.428 559.698 326.08 559.458C325.732 559.218 325.192 559.098 324.46 559.098C323.836 559.098 323.266 559.176 322.75 559.332C322.234 559.488 321.742 559.722 321.274 560.034L320.734 558.864C321.226 558.492 321.808 558.216 322.48 558.036C323.152 557.856 323.878 557.766 324.658 557.766C325.834 557.766 326.728 557.988 327.34 558.432C327.952 558.864 328.258 559.488 328.258 560.304C328.258 560.868 328.066 561.348 327.682 561.744C327.31 562.14 326.806 562.38 326.17 562.464V562.23C326.902 562.266 327.484 562.488 327.916 562.896C328.36 563.292 328.582 563.82 328.582 564.48C328.582 565.296 328.234 565.95 327.538 566.442C326.854 566.922 325.852 567.162 324.532 567.162ZM330.5 571.086L330.068 569.61C330.632 569.49 331.1 569.346 331.472 569.178C331.856 569.01 332.174 568.788 332.426 568.512C332.678 568.248 332.894 567.906 333.074 567.486L333.524 566.424L333.488 567.162L329.546 557.928H331.49L334.55 565.488H334.064L337.124 557.928H338.996L334.838 567.648C334.574 568.248 334.292 568.752 333.992 569.16C333.692 569.568 333.368 569.898 333.02 570.15C332.672 570.402 332.288 570.6 331.868 570.744C331.448 570.888 330.992 571.002 330.5 571.086ZM346.355 567V563.49C346.019 563.67 345.659 563.814 345.275 563.922C344.891 564.018 344.483 564.066 344.051 564.066C342.743 564.066 341.771 563.76 341.135 563.148C340.511 562.524 340.199 561.594 340.199 560.358V557.928H341.999V560.214C341.999 561.042 342.185 561.642 342.557 562.014C342.929 562.386 343.517 562.572 344.321 562.572C344.729 562.572 345.089 562.53 345.401 562.446C345.713 562.35 346.019 562.206 346.319 562.014V557.928H348.137V567H346.355ZM350.86 567V557.928H352.516V565.254H352.012L357.484 557.928H358.996V567H357.358V559.656H357.88L352.372 567H350.86ZM363.667 567V559.386H360.463V557.928H368.689V559.386H365.467V567H363.667ZM370.143 567V557.928H371.943V561.096H374.517C375.705 561.096 376.599 561.348 377.199 561.852C377.799 562.344 378.099 563.064 378.099 564.012C378.099 564.624 377.961 565.158 377.685 565.614C377.409 566.058 377.001 566.4 376.461 566.64C375.933 566.88 375.285 567 374.517 567H370.143ZM371.943 565.758H374.319C374.991 565.758 375.507 565.62 375.867 565.344C376.227 565.056 376.407 564.618 376.407 564.03C376.407 563.442 376.227 563.016 375.867 562.752C375.519 562.476 375.003 562.338 374.319 562.338H371.943V565.758ZM380.361 563.49L379.785 554.31H382.035L381.477 563.49H380.361ZM379.839 567V564.858H381.981V567H379.839Z" fill="white"/>
<rect x="43" y="40" width="479" height="33" rx="8" fill="#5329FF" fillOpacity="0.05"/>
<circle opacity="0.2" cx="64.5" cy="56.5" r="12" fill="#9A81FF"/>
<rect opacity="0.4" x="57" y="49" width="15" height="15" rx="7.5" fill="#9A81FF"/>
<rect x="57.4" y="49.4" width="14.2" height="14.2" rx="7.1" stroke="#9A81FF" strokeWidth="0.8"/>
<circle cx="64.6" cy="56.2001" r="1.8" fill="white" stroke="#5030E5" strokeWidth="1.2"/>
<path d="M83.344 63V51.72H84.8L89.152 61.528H88.672L93.024 51.72H94.464V63H92.96V53.976H93.488L89.424 63H88.384L84.32 53.976H84.864V63H83.344ZM97.0441 63V54.936H98.6441V57.752H100.932C101.988 57.752 102.783 57.976 103.316 58.424C103.849 58.8613 104.116 59.5013 104.116 60.344C104.116 60.888 103.993 61.3627 103.748 61.768C103.503 62.1627 103.14 62.4667 102.66 62.68C102.191 62.8933 101.615 63 100.932 63H97.0441ZM98.6441 61.896H100.756C101.364 61.896 101.823 61.7733 102.132 61.528C102.452 61.272 102.612 60.8827 102.612 60.36C102.612 59.8373 102.452 59.4587 102.132 59.224C101.823 58.9787 101.364 58.856 100.756 58.856H98.6441V61.896ZM105.252 63V54.936H106.852V63H105.252ZM113.529 63V54.936H120.76V63H119.161V56.2H115.129V63H113.529ZM123.249 66.456V56.872C123.249 56.5627 123.233 56.248 123.201 55.928C123.179 55.5973 123.153 55.2667 123.121 54.936H124.689L124.849 56.76H124.673C124.843 56.152 125.185 55.672 125.697 55.32C126.219 54.968 126.838 54.792 127.553 54.792C128.267 54.792 128.891 54.9627 129.425 55.304C129.958 55.6347 130.369 56.1093 130.657 56.728C130.955 57.3467 131.105 58.0933 131.105 58.968C131.105 59.832 130.955 60.5787 130.657 61.208C130.369 61.8373 129.958 62.3173 129.425 62.648C128.891 62.9787 128.267 63.144 127.553 63.144C126.849 63.144 126.235 62.9733 125.713 62.632C125.201 62.28 124.859 61.8053 124.689 61.208H124.865V66.456H123.249ZM127.153 61.88C127.857 61.88 128.417 61.6347 128.833 61.144C129.259 60.6533 129.473 59.928 129.473 58.968C129.473 58.008 129.259 57.288 128.833 56.808C128.417 56.3173 127.857 56.072 127.153 56.072C126.449 56.072 125.883 56.3173 125.457 56.808C125.041 57.288 124.833 58.008 124.833 58.968C124.833 59.928 125.041 60.6533 125.457 61.144C125.883 61.6347 126.449 61.88 127.153 61.88ZM136.914 63.144C135.613 63.144 134.589 62.776 133.842 62.04C133.096 61.304 132.722 60.2853 132.722 58.984C132.722 58.1413 132.882 57.4053 133.202 56.776C133.533 56.1467 133.986 55.6613 134.562 55.32C135.149 54.968 135.826 54.792 136.594 54.792C137.352 54.792 137.986 54.952 138.498 55.272C139.01 55.592 139.4 56.0453 139.666 56.632C139.933 57.208 140.066 57.8907 140.066 58.68V59.192H133.986V58.264H138.962L138.69 58.472C138.69 57.672 138.509 57.0533 138.146 56.616C137.794 56.168 137.282 55.944 136.61 55.944C135.864 55.944 135.288 56.2053 134.882 56.728C134.477 57.24 134.274 57.9493 134.274 58.856V59.016C134.274 59.9653 134.504 60.68 134.962 61.16C135.432 61.64 136.093 61.88 136.946 61.88C137.416 61.88 137.853 61.816 138.258 61.688C138.674 61.5493 139.069 61.3253 139.442 61.016L139.97 62.12C139.597 62.4507 139.144 62.7067 138.61 62.888C138.077 63.0587 137.512 63.144 136.914 63.144ZM141.244 65.08V61.752H142.14C142.492 61.2187 142.748 60.5947 142.908 59.88C143.068 59.1653 143.148 58.3013 143.148 57.288V54.936H149.052V61.752H150.348V65.08H148.956V63H142.636V65.08H141.244ZM143.628 61.768H147.532V56.184H144.54V57.608C144.54 58.3867 144.46 59.1493 144.3 59.896C144.151 60.632 143.927 61.256 143.628 61.768ZM151.614 63.208L151.07 61.928C151.433 61.7787 151.737 61.592 151.982 61.368C152.238 61.1333 152.436 60.8347 152.574 60.472C152.724 60.1093 152.83 59.6613 152.894 59.128C152.958 58.5947 152.99 57.9493 152.99 57.192V54.936H159.07V63H157.47V56.2H154.478V57.24C154.478 58.456 154.382 59.464 154.19 60.264C153.998 61.064 153.689 61.6987 153.262 62.168C152.846 62.6267 152.297 62.9733 151.614 63.208ZM164.649 63.144C163.935 63.144 163.311 62.9787 162.777 62.648C162.244 62.3173 161.828 61.8373 161.529 61.208C161.241 60.5787 161.097 59.832 161.097 58.968C161.097 58.0933 161.241 57.3467 161.529 56.728C161.828 56.1093 162.244 55.6347 162.777 55.304C163.311 54.9627 163.935 54.792 164.649 54.792C165.353 54.792 165.967 54.968 166.489 55.32C167.012 55.672 167.359 56.152 167.529 56.76H167.353L167.513 54.936H169.081C169.049 55.2667 169.017 55.5973 168.985 55.928C168.964 56.248 168.953 56.5627 168.953 56.872V63H167.337V61.208H167.513C167.343 61.8053 166.991 62.28 166.457 62.632C165.935 62.9733 165.332 63.144 164.649 63.144ZM165.049 61.88C165.743 61.88 166.297 61.6347 166.713 61.144C167.14 60.6533 167.353 59.928 167.353 58.968C167.353 58.008 167.14 57.288 166.713 56.808C166.297 56.3173 165.743 56.072 165.049 56.072C164.345 56.072 163.78 56.3173 163.353 56.808C162.937 57.288 162.729 58.008 162.729 58.968C162.729 59.928 162.937 60.6533 163.353 61.144C163.769 61.6347 164.335 61.88 165.049 61.88ZM171.435 63V54.936H177.243V56.232H173.051V63H171.435ZM181.868 63.144C181.153 63.144 180.529 62.9787 179.996 62.648C179.463 62.3173 179.047 61.8373 178.748 61.208C178.46 60.5787 178.316 59.832 178.316 58.968C178.316 58.0933 178.46 57.3467 178.748 56.728C179.047 56.1093 179.463 55.6347 179.996 55.304C180.529 54.9627 181.153 54.792 181.868 54.792C182.572 54.792 183.185 54.968 183.708 55.32C184.231 55.672 184.577 56.152 184.748 56.76H184.572L184.732 54.936H186.3C186.268 55.2667 186.236 55.5973 186.204 55.928C186.183 56.248 186.172 56.5627 186.172 56.872V63H184.556V61.208H184.732C184.561 61.8053 184.209 62.28 183.676 62.632C183.153 62.9733 182.551 63.144 181.868 63.144ZM182.268 61.88C182.961 61.88 183.516 61.6347 183.932 61.144C184.359 60.6533 184.572 59.928 184.572 58.968C184.572 58.008 184.359 57.288 183.932 56.808C183.516 56.3173 182.961 56.072 182.268 56.072C181.564 56.072 180.999 56.3173 180.572 56.808C180.156 57.288 179.948 58.008 179.948 58.968C179.948 59.928 180.156 60.6533 180.572 61.144C180.988 61.6347 181.553 61.88 182.268 61.88ZM192.446 63.144C191.144 63.144 190.12 62.776 189.374 62.04C188.627 61.304 188.254 60.2853 188.254 58.984C188.254 58.1413 188.414 57.4053 188.734 56.776C189.064 56.1467 189.518 55.6613 190.094 55.32C190.68 54.968 191.358 54.792 192.126 54.792C192.883 54.792 193.518 54.952 194.03 55.272C194.542 55.592 194.931 56.0453 195.198 56.632C195.464 57.208 195.598 57.8907 195.598 58.68V59.192H189.518V58.264H194.494L194.222 58.472C194.222 57.672 194.04 57.0533 193.678 56.616C193.326 56.168 192.814 55.944 192.141 55.944C191.395 55.944 190.819 56.2053 190.414 56.728C190.008 57.24 189.806 57.9493 189.806 58.856V59.016C189.806 59.9653 190.035 60.68 190.494 61.16C190.963 61.64 191.624 61.88 192.478 61.88C192.947 61.88 193.384 61.816 193.79 61.688C194.206 61.5493 194.6 61.3253 194.974 61.016L195.502 62.12C195.128 62.4507 194.675 62.7067 194.142 62.888C193.608 63.0587 193.043 63.144 192.446 63.144ZM197.575 63V54.936H198.919L201.831 60.088L204.743 54.936H206.087V63H204.663V56.744H205.015L202.215 61.704H201.447L198.647 56.744H198.999V63H197.575ZM212.443 63.208L211.899 61.928C212.261 61.7787 212.565 61.592 212.811 61.368C213.067 61.1333 213.264 60.8347 213.403 60.472C213.552 60.1093 213.659 59.6613 213.723 59.128C213.787 58.5947 213.819 57.9493 213.819 57.192V54.936H219.899V63H218.299V56.2H215.307V57.24C215.307 58.456 215.211 59.464 215.019 60.264C214.827 61.064 214.517 61.6987 214.091 62.168C213.675 62.6267 213.125 62.9733 212.443 63.208ZM222.149 66.632L221.765 65.32C222.267 65.2133 222.683 65.0853 223.013 64.936C223.355 64.7867 223.637 64.5893 223.861 64.344C224.085 64.1093 224.277 63.8053 224.437 63.432L224.837 62.488L224.805 63.144L221.301 54.936H223.029L225.749 61.656H225.317L228.037 54.936H229.701L226.005 63.576C225.771 64.1093 225.52 64.5573 225.253 64.92C224.987 65.2827 224.699 65.576 224.389 65.8C224.08 66.024 223.739 66.2 223.365 66.328C222.992 66.456 222.587 66.5573 222.149 66.632ZM236.243 63V59.88C235.944 60.04 235.624 60.168 235.283 60.264C234.942 60.3493 234.579 60.392 234.195 60.392C233.032 60.392 232.168 60.12 231.603 59.576C231.048 59.0213 230.771 58.1947 230.771 57.096V54.936H232.371V56.968C232.371 57.704 232.536 58.2373 232.867 58.568C233.198 58.8987 233.72 59.064 234.435 59.064C234.798 59.064 235.118 59.0267 235.395 58.952C235.672 58.8667 235.944 58.7387 236.211 58.568V54.936H237.827V63H236.243ZM240.247 63V54.936H241.767V61.736H244.919V54.936H246.439V61.736H249.575V54.936H251.111V63H240.247ZM253.544 63V54.936H255.016V61.448H254.568L259.432 54.936H260.776V63H259.32V56.472H259.784L254.888 63H253.544ZM266.992 63.144C265.691 63.144 264.667 62.776 263.92 62.04C263.174 61.304 262.8 60.2853 262.8 58.984C262.8 58.1413 262.96 57.4053 263.28 56.776C263.611 56.1467 264.064 55.6613 264.64 55.32C265.227 54.968 265.904 54.792 266.672 54.792C267.43 54.792 268.064 54.952 268.576 55.272C269.088 55.592 269.478 56.0453 269.744 56.632C270.011 57.208 270.144 57.8907 270.144 58.68V59.192H264.064V58.264H269.04L268.768 58.472C268.768 57.672 268.587 57.0533 268.224 56.616C267.872 56.168 267.36 55.944 266.688 55.944C265.942 55.944 265.366 56.2053 264.96 56.728C264.555 57.24 264.352 57.9493 264.352 58.856V59.016C264.352 59.9653 264.582 60.68 265.04 61.16C265.51 61.64 266.171 61.88 267.024 61.88C267.494 61.88 267.931 61.816 268.336 61.688C268.752 61.5493 269.147 61.3253 269.52 61.016L270.048 62.12C269.675 62.4507 269.222 62.7067 268.688 62.888C268.155 63.0587 267.59 63.144 266.992 63.144ZM276.452 66.456V56.872C276.452 56.5627 276.436 56.248 276.404 55.928C276.383 55.5973 276.356 55.2667 276.324 54.936H277.892L278.052 56.76H277.876C278.047 56.152 278.388 55.672 278.9 55.32C279.423 54.968 280.041 54.792 280.756 54.792C281.471 54.792 282.095 54.9627 282.628 55.304C283.161 55.6347 283.572 56.1093 283.86 56.728C284.159 57.3467 284.308 58.0933 284.308 58.968C284.308 59.832 284.159 60.5787 283.86 61.208C283.572 61.8373 283.161 62.3173 282.628 62.648C282.095 62.9787 281.471 63.144 280.756 63.144C280.052 63.144 279.439 62.9733 278.916 62.632C278.404 62.28 278.063 61.8053 277.892 61.208H278.068V66.456H276.452ZM280.356 61.88C281.06 61.88 281.62 61.6347 282.036 61.144C282.463 60.6533 282.676 59.928 282.676 58.968C282.676 58.008 282.463 57.288 282.036 56.808C281.62 56.3173 281.06 56.072 280.356 56.072C279.652 56.072 279.087 56.3173 278.66 56.808C278.244 57.288 278.036 58.008 278.036 58.968C278.036 59.928 278.244 60.6533 278.66 61.144C279.087 61.6347 279.652 61.88 280.356 61.88ZM290.117 63.144C288.816 63.144 287.792 62.776 287.045 62.04C286.299 61.304 285.925 60.2853 285.925 58.984C285.925 58.1413 286.085 57.4053 286.405 56.776C286.736 56.1467 287.189 55.6613 287.765 55.32C288.352 54.968 289.029 54.792 289.797 54.792C290.555 54.792 291.189 54.952 291.701 55.272C292.213 55.592 292.603 56.0453 292.869 56.632C293.136 57.208 293.269 57.8907 293.269 58.68V59.192H287.189V58.264H292.165L291.893 58.472C291.893 57.672 291.712 57.0533 291.349 56.616C290.997 56.168 290.485 55.944 289.813 55.944C289.067 55.944 288.491 56.2053 288.085 56.728C287.68 57.24 287.477 57.9493 287.477 58.856V59.016C287.477 59.9653 287.707 60.68 288.165 61.16C288.635 61.64 289.296 61.88 290.149 61.88C290.619 61.88 291.056 61.816 291.461 61.688C291.877 61.5493 292.272 61.3253 292.645 61.016L293.173 62.12C292.8 62.4507 292.347 62.7067 291.813 62.888C291.28 63.0587 290.715 63.144 290.117 63.144ZM295.247 63V54.936H296.767V61.736H299.919V54.936H301.439V61.736H304.575V54.936H306.111V63H295.247ZM312.336 63.144C311.035 63.144 310.011 62.776 309.264 62.04C308.517 61.304 308.144 60.2853 308.144 58.984C308.144 58.1413 308.304 57.4053 308.624 56.776C308.955 56.1467 309.408 55.6613 309.984 55.32C310.571 54.968 311.248 54.792 312.016 54.792C312.773 54.792 313.408 54.952 313.92 55.272C314.432 55.592 314.821 56.0453 315.088 56.632C315.355 57.208 315.488 57.8907 315.488 58.68V59.192H309.408V58.264H314.384L314.112 58.472C314.112 57.672 313.931 57.0533 313.568 56.616C313.216 56.168 312.704 55.944 312.032 55.944C311.285 55.944 310.709 56.2053 310.304 56.728C309.899 57.24 309.696 57.9493 309.696 58.856V59.016C309.696 59.9653 309.925 60.68 310.384 61.16C310.853 61.64 311.515 61.88 312.368 61.88C312.837 61.88 313.275 61.816 313.68 61.688C314.096 61.5493 314.491 61.3253 314.864 61.016L315.392 62.12C315.019 62.4507 314.565 62.7067 314.032 62.888C313.499 63.0587 312.933 63.144 312.336 63.144ZM317.466 63V54.936H319.066V58.216H323.146V54.936H324.746V63H323.146V59.48H319.066V63H317.466ZM327.185 63V54.936H328.657V61.448H328.209L333.073 54.936H334.417V63H332.961V56.472H333.425L328.529 63H327.185ZM336.185 63L337.449 60.824C337.652 60.472 337.908 60.1893 338.217 59.976C338.537 59.752 338.862 59.64 339.193 59.64H339.481L339.465 59.8C338.548 59.8 337.833 59.592 337.321 59.176C336.809 58.76 336.553 58.1627 336.553 57.384C336.553 56.6053 336.809 56.0027 337.321 55.576C337.833 55.1493 338.585 54.936 339.577 54.936H343.353V63H341.865V60.008H340.793C340.388 60.008 340.041 60.1093 339.753 60.312C339.476 60.5147 339.246 60.7813 339.065 61.112L337.977 63H336.185ZM339.865 58.92H341.865V56.024H339.865C339.268 56.024 338.82 56.152 338.521 56.408C338.233 56.664 338.089 57.016 338.089 57.464C338.089 57.9333 338.233 58.296 338.521 58.552C338.82 58.7973 339.268 58.92 339.865 58.92ZM349.244 65.08V61.752H350.14C350.492 61.2187 350.748 60.5947 350.908 59.88C351.068 59.1653 351.148 58.3013 351.148 57.288V54.936H357.052V61.752H358.348V65.08H356.956V63H350.636V65.08H349.244ZM351.628 61.768H355.532V56.184H352.54V57.608C352.54 58.3867 352.46 59.1493 352.3 59.896C352.151 60.632 351.927 61.256 351.628 61.768ZM359.614 63.208L359.07 61.928C359.433 61.7787 359.737 61.592 359.982 61.368C360.238 61.1333 360.436 60.8347 360.574 60.472C360.724 60.1093 360.83 59.6613 360.894 59.128C360.958 58.5947 360.99 57.9493 360.99 57.192V54.936H367.07V63H365.47V56.2H362.478V57.24C362.478 58.456 362.382 59.464 362.19 60.264C361.998 61.064 361.689 61.6987 361.262 62.168C360.846 62.6267 360.297 62.9733 359.614 63.208ZM368.841 63L370.105 60.824C370.308 60.472 370.564 60.1893 370.873 59.976C371.193 59.752 371.519 59.64 371.849 59.64H372.137L372.121 59.8C371.204 59.8 370.489 59.592 369.977 59.176C369.465 58.76 369.209 58.1627 369.209 57.384C369.209 56.6053 369.465 56.0027 369.977 55.576C370.489 55.1493 371.241 54.936 372.233 54.936H376.009V63H374.521V60.008H373.449C373.044 60.008 372.697 60.1093 372.409 60.312C372.132 60.5147 371.903 60.7813 371.721 61.112L370.633 63H368.841ZM372.521 58.92H374.521V56.024H372.521C371.924 56.024 371.476 56.152 371.177 56.408C370.889 56.664 370.745 57.016 370.745 57.464C370.745 57.9333 370.889 58.296 371.177 58.552C371.476 58.7973 371.924 58.92 372.521 58.92ZM382.7 63V54.936H386.764C387.735 54.936 388.45 55.1227 388.908 55.496C389.378 55.8587 389.612 56.376 389.612 57.048C389.612 57.5707 389.436 58.0027 389.084 58.344C388.743 58.6853 388.29 58.8933 387.724 58.968V58.76C388.396 58.792 388.924 58.9893 389.308 59.352C389.692 59.7147 389.884 60.184 389.884 60.76C389.884 61.4533 389.623 62.0027 389.1 62.408C388.588 62.8027 387.858 63 386.908 63H382.7ZM384.22 61.96H386.78C387.303 61.96 387.703 61.8533 387.98 61.64C388.258 61.416 388.396 61.096 388.396 60.68C388.396 60.264 388.258 59.9493 387.98 59.736C387.703 59.5227 387.303 59.416 386.78 59.416H384.22V61.96ZM384.22 58.376H386.604C387.084 58.376 387.458 58.2693 387.724 58.056C387.991 57.8427 388.124 57.5493 388.124 57.176C388.124 56.792 387.991 56.4987 387.724 56.296C387.458 56.0827 387.084 55.976 386.604 55.976H384.22V58.376ZM394.946 63.144C394.231 63.144 393.607 62.9787 393.074 62.648C392.541 62.3173 392.125 61.8373 391.826 61.208C391.538 60.5787 391.394 59.832 391.394 58.968C391.394 58.0933 391.538 57.3467 391.826 56.728C392.125 56.1093 392.541 55.6347 393.074 55.304C393.607 54.9627 394.231 54.792 394.946 54.792C395.65 54.792 396.263 54.968 396.786 55.32C397.309 55.672 397.655 56.152 397.826 56.76H397.65L397.81 54.936H399.378C399.346 55.2667 399.314 55.5973 399.282 55.928C399.261 56.248 399.25 56.5627 399.25 56.872V63H397.634V61.208H397.81C397.639 61.8053 397.287 62.28 396.754 62.632C396.231 62.9733 395.629 63.144 394.946 63.144ZM395.346 61.88C396.039 61.88 396.594 61.6347 397.01 61.144C397.437 60.6533 397.65 59.928 397.65 58.968C397.65 58.008 397.437 57.288 397.01 56.808C396.594 56.3173 396.039 56.072 395.346 56.072C394.642 56.072 394.077 56.3173 393.65 56.808C393.234 57.288 393.026 58.008 393.026 58.968C393.026 59.928 393.234 60.6533 393.65 61.144C394.066 61.6347 394.631 61.88 395.346 61.88ZM401.732 63V54.936H403.252V61.736H406.404V54.936H407.924V61.736H411.06V54.936H412.596V63H401.732ZM418.821 63.144C417.519 63.144 416.495 62.776 415.749 62.04C415.002 61.304 414.629 60.2853 414.629 58.984C414.629 58.1413 414.789 57.4053 415.109 56.776C415.439 56.1467 415.893 55.6613 416.469 55.32C417.055 54.968 417.733 54.792 418.501 54.792C419.258 54.792 419.893 54.952 420.405 55.272C420.917 55.592 421.306 56.0453 421.573 56.632C421.839 57.208 421.973 57.8907 421.973 58.68V59.192H415.893V58.264H420.869L420.597 58.472C420.597 57.672 420.415 57.0533 420.053 56.616C419.701 56.168 419.189 55.944 418.516 55.944C417.77 55.944 417.194 56.2053 416.789 56.728C416.383 57.24 416.181 57.9493 416.181 58.856V59.016C416.181 59.9653 416.41 60.68 416.869 61.16C417.338 61.64 417.999 61.88 418.853 61.88C419.322 61.88 419.759 61.816 420.165 61.688C420.581 61.5493 420.975 61.3253 421.349 61.016L421.877 62.12C421.503 62.4507 421.05 62.7067 420.517 62.888C419.983 63.0587 419.418 63.144 418.821 63.144ZM423.95 63V54.936H429.758V56.232H425.566V63H423.95ZM434.752 63.144C433.952 63.144 433.258 62.9787 432.672 62.648C432.085 62.3067 431.632 61.8267 431.312 61.208C430.992 60.5787 430.832 59.832 430.832 58.968C430.832 58.104 430.992 57.3627 431.312 56.744C431.632 56.1147 432.085 55.6347 432.672 55.304C433.258 54.9627 433.952 54.792 434.752 54.792C435.552 54.792 436.245 54.9627 436.832 55.304C437.429 55.6347 437.888 56.1147 438.208 56.744C438.538 57.3627 438.704 58.104 438.704 58.968C438.704 59.832 438.538 60.5787 438.208 61.208C437.888 61.8267 437.429 62.3067 436.832 62.648C436.245 62.9787 435.552 63.144 434.752 63.144ZM434.752 61.88C435.456 61.88 436.016 61.6347 436.432 61.144C436.848 60.6533 437.056 59.928 437.056 58.968C437.056 58.008 436.848 57.288 436.432 56.808C436.016 56.3173 435.456 56.072 434.752 56.072C434.058 56.072 433.504 56.3173 433.088 56.808C432.672 57.288 432.464 58.008 432.464 58.968C432.464 59.928 432.666 60.6533 433.072 61.144C433.488 61.6347 434.048 61.88 434.752 61.88ZM448.55 63.144C447.334 63.144 446.363 62.7653 445.638 62.008C444.923 61.2507 444.566 60.136 444.566 58.664V57.272C444.566 55.768 444.886 54.5573 445.526 53.64C446.177 52.7227 447.179 52.104 448.534 51.784L451.478 51.08L451.942 52.376L448.646 53.144C448.07 53.272 447.595 53.512 447.222 53.864C446.849 54.216 446.566 54.632 446.374 55.112C446.193 55.592 446.102 56.104 446.102 56.648V57.384H445.862C445.99 56.8933 446.193 56.4773 446.47 56.136C446.758 55.784 447.11 55.512 447.526 55.32C447.953 55.1173 448.427 55.016 448.95 55.016C449.643 55.016 450.251 55.176 450.774 55.496C451.297 55.816 451.702 56.28 451.99 56.888C452.289 57.4853 452.438 58.1947 452.438 59.016C452.438 59.8693 452.278 60.6053 451.958 61.224C451.638 61.8427 451.185 62.3173 450.598 62.648C450.022 62.9787 449.339 63.144 448.55 63.144ZM448.502 61.896C449.227 61.896 449.793 61.6613 450.198 61.192C450.614 60.712 450.822 60.008 450.822 59.08C450.822 58.1627 450.614 57.464 450.198 56.984C449.782 56.504 449.217 56.264 448.502 56.264C447.787 56.264 447.222 56.504 446.806 56.984C446.39 57.4533 446.182 58.1253 446.182 59C446.182 59.96 446.385 60.6853 446.79 61.176C447.206 61.656 447.777 61.896 448.502 61.896ZM454.45 63V54.936H455.922V61.448H455.474L460.338 54.936H461.682V63H460.226V56.472H460.69L455.794 63H454.45ZM466.907 63.144C466.203 63.144 465.541 63.0587 464.923 62.888C464.304 62.7067 463.797 62.4507 463.403 62.12L463.899 61.032C464.293 61.3413 464.747 61.576 465.259 61.736C465.771 61.8853 466.32 61.96 466.907 61.96C467.643 61.96 468.176 61.8533 468.507 61.64C468.848 61.416 469.019 61.1013 469.019 60.696C469.019 60.3013 468.88 60.0027 468.603 59.8C468.325 59.5973 467.92 59.496 467.387 59.496H465.403V58.344H467.227C467.707 58.344 468.08 58.2427 468.347 58.04C468.613 57.8373 468.747 57.5547 468.747 57.192C468.747 56.808 468.592 56.5093 468.283 56.296C467.973 56.0827 467.493 55.976 466.843 55.976C466.288 55.976 465.781 56.0453 465.323 56.184C464.864 56.3227 464.427 56.5307 464.011 56.808L463.531 55.768C463.968 55.4373 464.485 55.192 465.083 55.032C465.68 54.872 466.325 54.792 467.019 54.792C468.064 54.792 468.859 54.9893 469.403 55.384C469.947 55.768 470.219 56.3227 470.219 57.048C470.219 57.5493 470.048 57.976 469.707 58.328C469.376 58.68 468.928 58.8933 468.363 58.968V58.76C469.013 58.792 469.531 58.9893 469.915 59.352C470.309 59.704 470.507 60.1733 470.507 60.76C470.507 61.4853 470.197 62.0667 469.579 62.504C468.971 62.9307 468.08 63.144 466.907 63.144ZM472.388 63V54.936H473.988V58.216H478.068V54.936H479.668V63H478.068V59.48H473.988V63H472.388ZM485.899 63.144C484.597 63.144 483.573 62.776 482.827 62.04C482.08 61.304 481.707 60.2853 481.707 58.984C481.707 58.1413 481.867 57.4053 482.187 56.776C482.517 56.1467 482.971 55.6613 483.547 55.32C484.133 54.968 484.811 54.792 485.579 54.792C486.336 54.792 486.971 54.952 487.483 55.272C487.995 55.592 488.384 56.0453 488.651 56.632C488.917 57.208 489.051 57.8907 489.051 58.68V59.192H482.971V58.264H487.947L487.675 58.472C487.675 57.672 487.493 57.0533 487.131 56.616C486.779 56.168 486.267 55.944 485.595 55.944C484.848 55.944 484.272 56.2053 483.867 56.728C483.461 57.24 483.259 57.9493 483.259 58.856V59.016C483.259 59.9653 483.488 60.68 483.947 61.16C484.416 61.64 485.077 61.88 485.931 61.88C486.4 61.88 486.837 61.816 487.243 61.688C487.659 61.5493 488.053 61.3253 488.427 61.016L488.955 62.12C488.581 62.4507 488.128 62.7067 487.595 62.888C487.061 63.0587 486.496 63.144 485.899 63.144ZM494.629 63.144C493.818 63.144 493.109 62.9787 492.501 62.648C491.903 62.3067 491.439 61.8213 491.109 61.192C490.789 60.552 490.629 59.7947 490.629 58.92C490.629 58.056 490.794 57.3147 491.125 56.696C491.455 56.0773 491.919 55.608 492.517 55.288C493.114 54.9573 493.818 54.792 494.629 54.792C495.151 54.792 495.658 54.8827 496.149 55.064C496.639 55.2347 497.045 55.48 497.365 55.8L496.837 56.936C496.538 56.648 496.202 56.4347 495.829 56.296C495.455 56.1467 495.093 56.072 494.741 56.072C493.973 56.072 493.37 56.3173 492.933 56.808C492.495 57.2987 492.277 58.008 492.277 58.936C492.277 59.8747 492.495 60.5947 492.933 61.096C493.37 61.5973 493.973 61.848 494.741 61.848C495.082 61.848 495.439 61.784 495.813 61.656C496.186 61.5173 496.527 61.2987 496.837 61L497.365 62.136C497.034 62.456 496.618 62.7067 496.117 62.888C495.626 63.0587 495.13 63.144 494.629 63.144ZM502.352 63.144C501.638 63.144 501.014 62.9787 500.48 62.648C499.947 62.3173 499.531 61.8373 499.232 61.208C498.944 60.5787 498.8 59.832 498.8 58.968C498.8 58.0933 498.944 57.3467 499.232 56.728C499.531 56.1093 499.947 55.6347 500.48 55.304C501.014 54.9627 501.638 54.792 502.352 54.792C503.056 54.792 503.67 54.968 504.192 55.32C504.715 55.672 505.062 56.152 505.232 56.76H505.056L505.216 54.936H506.784C506.752 55.2667 506.72 55.5973 506.688 55.928C506.667 56.248 506.656 56.5627 506.656 56.872V63H505.04V61.208H505.216C505.046 61.8053 504.694 62.28 504.16 62.632C503.638 62.9733 503.035 63.144 502.352 63.144ZM502.752 61.88C503.446 61.88 504 61.6347 504.416 61.144C504.843 60.6533 505.056 59.928 505.056 58.968C505.056 58.008 504.843 57.288 504.416 56.808C504 56.3173 503.446 56.072 502.752 56.072C502.048 56.072 501.483 56.3173 501.056 56.808C500.64 57.288 500.432 58.008 500.432 58.968C500.432 59.928 500.64 60.6533 501.056 61.144C501.472 61.6347 502.038 61.88 502.752 61.88Z" fill="#5329FF"/>
<g filter="url(#filter0_d_44_4036)">
<rect x="43" y="386" width="525" height="121" rx="8" fill="white"/>
</g>
<path d="M67.376 420V408.72H76.896V420H75.424V409.968H68.848V420H67.376ZM79.5616 423.456V413.856C79.5616 413.547 79.551 413.232 79.5296 412.912C79.5083 412.592 79.4763 412.272 79.4336 411.952H80.8416L81.0176 413.808H80.8416C81.0016 413.189 81.343 412.704 81.8656 412.352C82.3883 411.989 83.0123 411.808 83.7376 411.808C84.4523 411.808 85.0763 411.973 85.6096 412.304C86.143 412.635 86.5536 413.115 86.8416 413.744C87.1403 414.363 87.2896 415.104 87.2896 415.968C87.2896 416.832 87.1403 417.579 86.8416 418.208C86.5536 418.837 86.143 419.317 85.6096 419.648C85.0763 419.979 84.4523 420.144 83.7376 420.144C83.023 420.144 82.4043 419.968 81.8816 419.616C81.3696 419.253 81.023 418.768 80.8416 418.16H81.0176V423.456H79.5616ZM83.4016 418.992C84.1376 418.992 84.7243 418.736 85.1616 418.224C85.599 417.712 85.8176 416.96 85.8176 415.968C85.8176 414.976 85.599 414.229 85.1616 413.728C84.7243 413.227 84.1376 412.976 83.4016 412.976C82.6656 412.976 82.079 413.227 81.6416 413.728C81.215 414.229 81.0016 414.976 81.0016 415.968C81.0016 416.96 81.215 417.712 81.6416 418.224C82.079 418.736 82.6656 418.992 83.4016 418.992ZM92.813 420.144C92.0237 420.144 91.341 419.979 90.765 419.648C90.189 419.307 89.741 418.827 89.421 418.208C89.101 417.579 88.941 416.832 88.941 415.968C88.941 415.115 89.101 414.379 89.421 413.76C89.741 413.131 90.189 412.651 90.765 412.32C91.341 411.979 92.0237 411.808 92.813 411.808C93.6023 411.808 94.285 411.979 94.861 412.32C95.4477 412.651 95.8957 413.131 96.205 413.76C96.525 414.379 96.685 415.115 96.685 415.968C96.685 416.832 96.525 417.579 96.205 418.208C95.8957 418.827 95.4477 419.307 94.861 419.648C94.285 419.979 93.6023 420.144 92.813 420.144ZM92.813 418.992C93.5383 418.992 94.1197 418.736 94.557 418.224C94.9943 417.712 95.213 416.96 95.213 415.968C95.213 414.976 94.9943 414.229 94.557 413.728C94.1197 413.227 93.5383 412.976 92.813 412.976C92.077 412.976 91.4903 413.227 91.053 413.728C90.6263 414.229 90.413 414.976 90.413 415.968C90.413 416.96 90.6263 417.712 91.053 418.224C91.4903 418.736 92.077 418.992 92.813 418.992ZM97.9316 422.08V418.864H98.8116C99.1743 418.32 99.4356 417.68 99.5956 416.944C99.7663 416.208 99.8516 415.333 99.8516 414.32V411.952H105.628V418.864H106.908V422.08H105.66V420H99.1956V422.08H97.9316ZM100.188 418.88H104.268V413.072H101.132V414.576C101.132 415.387 101.052 416.176 100.892 416.944C100.732 417.701 100.497 418.347 100.188 418.88ZM111.712 420.144C111.008 420.144 110.389 419.979 109.856 419.648C109.322 419.317 108.906 418.837 108.608 418.208C108.309 417.579 108.16 416.832 108.16 415.968C108.16 415.104 108.309 414.363 108.608 413.744C108.906 413.115 109.322 412.635 109.856 412.304C110.389 411.973 111.008 411.808 111.712 411.808C112.426 411.808 113.045 411.989 113.568 412.352C114.101 412.704 114.453 413.189 114.624 413.808H114.432L114.608 411.952H116.016C115.984 412.272 115.952 412.592 115.92 412.912C115.898 413.232 115.888 413.547 115.888 413.856V420H114.432V418.16H114.608C114.437 418.768 114.085 419.253 113.552 419.616C113.029 419.968 112.416 420.144 111.712 420.144ZM112.048 418.992C112.773 418.992 113.354 418.736 113.792 418.224C114.229 417.712 114.448 416.96 114.448 415.968C114.448 414.976 114.229 414.229 113.792 413.728C113.354 413.227 112.773 412.976 112.048 412.976C111.322 412.976 110.736 413.227 110.288 413.728C109.85 414.229 109.632 414.976 109.632 415.968C109.632 416.96 109.85 417.712 110.288 418.224C110.725 418.736 111.312 418.992 112.048 418.992ZM117.203 420L118.867 417.136C119.112 416.741 119.336 416.427 119.539 416.192C119.742 415.957 119.955 415.781 120.179 415.664C120.414 415.536 120.686 415.456 120.995 415.424L120.643 415.872L117.587 411.952H119.187L121.795 415.28H123.027V411.952H124.467V415.28H125.683L128.275 411.952H129.891L126.835 415.872L126.467 415.424C126.776 415.456 127.043 415.536 127.267 415.664C127.502 415.781 127.726 415.957 127.939 416.192C128.152 416.427 128.376 416.741 128.611 417.136L130.275 420H128.723L127.267 417.52C127.096 417.232 126.931 417.008 126.771 416.848C126.611 416.688 126.43 416.576 126.227 416.512C126.035 416.448 125.79 416.416 125.491 416.416H124.467V420H123.027V416.416H121.987C121.688 416.416 121.438 416.448 121.235 416.512C121.043 416.576 120.867 416.688 120.707 416.848C120.558 417.008 120.392 417.232 120.211 417.52L118.771 420H117.203ZM131.529 420V411.952H132.857V418.624H132.425L137.417 411.952H138.633V420H137.305V413.312H137.753L132.745 420H131.529ZM148.078 420.144C147.374 420.144 146.718 420.053 146.11 419.872C145.502 419.691 145 419.435 144.606 419.104L145.086 418.096C145.48 418.416 145.928 418.656 146.43 418.816C146.931 418.976 147.475 419.056 148.062 419.056C148.83 419.056 149.384 418.944 149.726 418.72C150.078 418.485 150.254 418.149 150.254 417.712C150.254 417.296 150.11 416.981 149.822 416.768C149.534 416.555 149.112 416.448 148.558 416.448H146.606V415.392H148.382C148.883 415.392 149.272 415.285 149.55 415.072C149.838 414.848 149.982 414.544 149.982 414.16C149.982 413.765 149.822 413.456 149.502 413.232C149.182 412.997 148.691 412.88 148.03 412.88C147.475 412.88 146.968 412.955 146.51 413.104C146.051 413.243 145.614 413.456 145.198 413.744L144.734 412.8C145.171 412.459 145.683 412.208 146.27 412.048C146.856 411.888 147.496 411.808 148.19 411.808C149.203 411.808 149.976 412.005 150.51 412.4C151.054 412.784 151.326 413.333 151.326 414.048C151.326 414.549 151.155 414.981 150.814 415.344C150.472 415.696 150.019 415.909 149.454 415.984V415.776C150.094 415.808 150.611 416.005 151.006 416.368C151.4 416.72 151.598 417.189 151.598 417.776C151.598 418.491 151.299 419.067 150.702 419.504C150.104 419.931 149.23 420.144 148.078 420.144ZM156.665 420.144C155.961 420.144 155.342 419.979 154.809 419.648C154.276 419.317 153.86 418.837 153.561 418.208C153.262 417.579 153.113 416.832 153.113 415.968C153.113 415.104 153.262 414.363 153.561 413.744C153.86 413.115 154.276 412.635 154.809 412.304C155.342 411.973 155.961 411.808 156.665 411.808C157.38 411.808 157.998 411.989 158.521 412.352C159.054 412.704 159.406 413.189 159.577 413.808H159.385L159.561 411.952H160.969C160.937 412.272 160.905 412.592 160.873 412.912C160.852 413.232 160.841 413.547 160.841 413.856V420H159.385V418.16H159.561C159.39 418.768 159.038 419.253 158.505 419.616C157.982 419.968 157.369 420.144 156.665 420.144ZM157.001 418.992C157.726 418.992 158.308 418.736 158.745 418.224C159.182 417.712 159.401 416.96 159.401 415.968C159.401 414.976 159.182 414.229 158.745 413.728C158.308 413.227 157.726 412.976 157.001 412.976C156.276 412.976 155.689 413.227 155.241 413.728C154.804 414.229 154.585 414.976 154.585 415.968C154.585 416.96 154.804 417.712 155.241 418.224C155.678 418.736 156.265 418.992 157.001 418.992ZM167.623 420V411.952H169.063V415.28H173.319V411.952H174.759V420H173.319V416.432H169.063V420H167.623ZM180.96 420.144C179.68 420.144 178.667 419.776 177.92 419.04C177.184 418.304 176.816 417.291 176.816 416C176.816 415.147 176.976 414.411 177.296 413.792C177.627 413.163 178.08 412.677 178.656 412.336C179.232 411.984 179.904 411.808 180.672 411.808C181.408 411.808 182.032 411.968 182.544 412.288C183.056 412.597 183.445 413.04 183.712 413.616C183.979 414.192 184.112 414.875 184.112 415.664V416.144H177.952V415.28H183.12L182.848 415.488C182.848 414.656 182.661 414.011 182.288 413.552C181.925 413.093 181.387 412.864 180.672 412.864C179.893 412.864 179.291 413.136 178.864 413.68C178.437 414.213 178.224 414.944 178.224 415.872V416.016C178.224 416.997 178.464 417.739 178.944 418.24C179.435 418.741 180.112 418.992 180.976 418.992C181.456 418.992 181.904 418.923 182.32 418.784C182.736 418.645 183.136 418.416 183.52 418.096L184 419.104C183.637 419.435 183.184 419.691 182.64 419.872C182.107 420.053 181.547 420.144 180.96 420.144ZM185.307 422.08V418.864H186.187C186.549 418.32 186.811 417.68 186.971 416.944C187.141 416.208 187.227 415.333 187.227 414.32V411.952H193.003V418.864H194.283V422.08H193.035V420H186.571V422.08H185.307ZM187.563 418.88H191.643V413.072H188.507V414.576C188.507 415.387 188.427 416.176 188.267 416.944C188.107 417.701 187.872 418.347 187.563 418.88ZM199.679 420.144C198.399 420.144 197.385 419.776 196.639 419.04C195.903 418.304 195.535 417.291 195.535 416C195.535 415.147 195.695 414.411 196.015 413.792C196.345 413.163 196.799 412.677 197.375 412.336C197.951 411.984 198.623 411.808 199.391 411.808C200.127 411.808 200.751 411.968 201.263 412.288C201.775 412.597 202.164 413.04 202.431 413.616C202.697 414.192 202.831 414.875 202.831 415.664V416.144H196.671V415.28H201.839L201.567 415.488C201.567 414.656 201.38 414.011 201.007 413.552C200.644 413.093 200.105 412.864 199.391 412.864C198.612 412.864 198.009 413.136 197.583 413.68C197.156 414.213 196.943 414.944 196.943 415.872V416.016C196.943 416.997 197.183 417.739 197.663 418.24C198.153 418.741 198.831 418.992 199.695 418.992C200.175 418.992 200.623 418.923 201.039 418.784C201.455 418.645 201.855 418.416 202.239 418.096L202.719 419.104C202.356 419.435 201.903 419.691 201.359 419.872C200.825 420.053 200.265 420.144 199.679 420.144ZM204.473 420.192L203.961 419.056C204.335 418.885 204.644 418.683 204.889 418.448C205.145 418.203 205.343 417.893 205.481 417.52C205.631 417.147 205.737 416.683 205.801 416.128C205.865 415.573 205.897 414.901 205.897 414.112V411.952H211.833V420H210.393V413.088H207.241V414.144C207.241 415.381 207.145 416.405 206.953 417.216C206.772 418.016 206.479 418.651 206.073 419.12C205.679 419.589 205.145 419.947 204.473 420.192ZM221.142 420.144C220.043 420.144 219.153 419.819 218.47 419.168C217.798 418.507 217.414 417.595 217.318 416.432H215.75V420H214.326V411.952H215.75V415.28H217.334C217.473 414.192 217.878 413.344 218.55 412.736C219.222 412.117 220.086 411.808 221.142 411.808C221.931 411.808 222.614 411.973 223.19 412.304C223.777 412.635 224.23 413.115 224.55 413.744C224.87 414.363 225.03 415.104 225.03 415.968C225.03 416.832 224.87 417.579 224.55 418.208C224.23 418.827 223.777 419.307 223.19 419.648C222.614 419.979 221.931 420.144 221.142 420.144ZM221.142 418.992C221.878 418.992 222.465 418.741 222.902 418.24C223.339 417.728 223.558 416.971 223.558 415.968C223.558 414.976 223.339 414.229 222.902 413.728C222.465 413.216 221.878 412.96 221.142 412.96C220.406 412.96 219.819 413.216 219.382 413.728C218.945 414.229 218.726 414.976 218.726 415.968C218.726 416.971 218.945 417.728 219.382 418.24C219.819 418.741 220.406 418.992 221.142 418.992Z" fill="#8C8C8C"/>
<path d="M67.998 458V456.074H70.914V447.254H72.03L68.286 449.486V447.29L71.58 445.31H73.236V456.074H75.972V458H67.998ZM81.239 458.18C80.555 458.18 79.877 458.054 79.205 457.802C78.533 457.538 77.957 457.184 77.477 456.74L78.251 455.012C78.695 455.42 79.175 455.726 79.691 455.93C80.207 456.134 80.729 456.236 81.257 456.236C82.325 456.236 83.141 455.87 83.705 455.138C84.281 454.406 84.569 453.314 84.569 451.862V450.512H84.785C84.701 451.112 84.497 451.634 84.173 452.078C83.849 452.522 83.441 452.864 82.949 453.104C82.469 453.332 81.929 453.446 81.329 453.446C80.597 453.446 79.937 453.272 79.349 452.924C78.773 452.576 78.317 452.096 77.981 451.484C77.657 450.86 77.495 450.158 77.495 449.378C77.495 448.55 77.675 447.818 78.035 447.182C78.407 446.546 78.911 446.048 79.547 445.688C80.183 445.316 80.915 445.13 81.743 445.13C83.351 445.13 84.587 445.682 85.451 446.786C86.327 447.878 86.765 449.426 86.765 451.43C86.765 452.858 86.543 454.076 86.099 455.084C85.667 456.092 85.037 456.86 84.209 457.388C83.381 457.916 82.391 458.18 81.239 458.18ZM81.887 451.61C82.331 451.61 82.721 451.514 83.057 451.322C83.393 451.13 83.657 450.86 83.849 450.512C84.041 450.152 84.137 449.744 84.137 449.288C84.137 448.82 84.041 448.412 83.849 448.064C83.657 447.716 83.393 447.446 83.057 447.254C82.721 447.05 82.331 446.948 81.887 446.948C81.443 446.948 81.053 447.05 80.717 447.254C80.381 447.446 80.117 447.716 79.925 448.064C79.745 448.412 79.655 448.82 79.655 449.288C79.655 449.744 79.745 450.152 79.925 450.512C80.117 450.86 80.381 451.13 80.717 451.322C81.053 451.514 81.443 451.61 81.887 451.61ZM92.9859 458.18C91.4979 458.18 90.3339 457.862 89.4939 457.226C88.6659 456.59 88.2519 455.708 88.2519 454.58C88.2519 453.692 88.5219 452.954 89.0619 452.366C89.6019 451.778 90.3039 451.43 91.1679 451.322V451.7C90.3879 451.532 89.7579 451.166 89.2779 450.602C88.8099 450.038 88.5759 449.354 88.5759 448.55C88.5759 447.482 88.9659 446.648 89.7459 446.048C90.5379 445.436 91.6179 445.13 92.9859 445.13C94.3659 445.13 95.4459 445.436 96.2259 446.048C97.0179 446.648 97.4139 447.482 97.4139 448.55C97.4139 449.354 97.1859 450.044 96.7299 450.62C96.2859 451.196 95.6799 451.55 94.9119 451.682V451.322C95.7639 451.442 96.4479 451.796 96.9639 452.384C97.4799 452.96 97.7379 453.692 97.7379 454.58C97.7379 455.708 97.3179 456.59 96.4779 457.226C95.6499 457.862 94.4859 458.18 92.9859 458.18ZM92.9859 456.38C93.8619 456.38 94.5159 456.218 94.9479 455.894C95.3799 455.558 95.5959 455.066 95.5959 454.418C95.5959 453.77 95.3799 453.284 94.9479 452.96C94.5159 452.636 93.8619 452.474 92.9859 452.474C92.1219 452.474 91.4679 452.636 91.0239 452.96C90.5919 453.284 90.3759 453.77 90.3759 454.418C90.3759 455.066 90.5919 455.558 91.0239 455.894C91.4679 456.218 92.1219 456.38 92.9859 456.38ZM92.9859 450.674C93.7299 450.674 94.2939 450.506 94.6779 450.17C95.0739 449.834 95.2719 449.372 95.2719 448.784C95.2719 448.208 95.0739 447.758 94.6779 447.434C94.2939 447.098 93.7299 446.93 92.9859 446.93C92.2539 446.93 91.6899 447.098 91.2939 447.434C90.9099 447.758 90.7179 448.208 90.7179 448.784C90.7179 449.372 90.9099 449.834 91.2939 450.17C91.6899 450.506 92.2539 450.674 92.9859 450.674ZM108.52 458.18C107.644 458.18 106.804 458.054 106 457.802C105.196 457.538 104.536 457.178 104.02 456.722L104.776 454.976C105.34 455.408 105.922 455.726 106.522 455.93C107.134 456.134 107.776 456.236 108.448 456.236C109.264 456.236 109.882 456.074 110.302 455.75C110.722 455.426 110.932 454.952 110.932 454.328C110.932 453.728 110.722 453.278 110.302 452.978C109.894 452.666 109.294 452.51 108.502 452.51H106.45V450.656H108.304C108.988 450.656 109.534 450.488 109.942 450.152C110.35 449.816 110.554 449.354 110.554 448.766C110.554 448.214 110.362 447.794 109.978 447.506C109.606 447.218 109.066 447.074 108.358 447.074C107.086 447.074 105.964 447.506 104.992 448.37L104.236 446.642C104.752 446.162 105.388 445.79 106.144 445.526C106.912 445.262 107.716 445.13 108.556 445.13C109.876 445.13 110.908 445.43 111.652 446.03C112.408 446.618 112.786 447.44 112.786 448.496C112.786 449.252 112.57 449.906 112.138 450.458C111.718 450.998 111.136 451.358 110.392 451.538V451.322C111.268 451.466 111.946 451.826 112.426 452.402C112.918 452.966 113.164 453.674 113.164 454.526C113.164 455.654 112.75 456.548 111.922 457.208C111.094 457.856 109.96 458.18 108.52 458.18ZM115.659 458L121.815 446.444V447.254H115.083V445.31H123.957V447.038L118.197 458H115.659ZM130.304 458.18C128.816 458.18 127.652 457.862 126.812 457.226C125.984 456.59 125.57 455.708 125.57 454.58C125.57 453.692 125.84 452.954 126.38 452.366C126.92 451.778 127.622 451.43 128.486 451.322V451.7C127.706 451.532 127.076 451.166 126.596 450.602C126.128 450.038 125.894 449.354 125.894 448.55C125.894 447.482 126.284 446.648 127.064 446.048C127.856 445.436 128.936 445.13 130.304 445.13C131.684 445.13 132.764 445.436 133.544 446.048C134.336 446.648 134.732 447.482 134.732 448.55C134.732 449.354 134.504 450.044 134.048 450.62C133.604 451.196 132.998 451.55 132.23 451.682V451.322C133.082 451.442 133.766 451.796 134.282 452.384C134.798 452.96 135.056 453.692 135.056 454.58C135.056 455.708 134.636 456.59 133.796 457.226C132.968 457.862 131.804 458.18 130.304 458.18ZM130.304 456.38C131.18 456.38 131.834 456.218 132.266 455.894C132.698 455.558 132.914 455.066 132.914 454.418C132.914 453.77 132.698 453.284 132.266 452.96C131.834 452.636 131.18 452.474 130.304 452.474C129.44 452.474 128.786 452.636 128.342 452.96C127.91 453.284 127.694 453.77 127.694 454.418C127.694 455.066 127.91 455.558 128.342 455.894C128.786 456.218 129.44 456.38 130.304 456.38ZM130.304 450.674C131.048 450.674 131.612 450.506 131.996 450.17C132.392 449.834 132.59 449.372 132.59 448.784C132.59 448.208 132.392 447.758 131.996 447.434C131.612 447.098 131.048 446.93 130.304 446.93C129.572 446.93 129.008 447.098 128.612 447.434C128.228 447.758 128.036 448.208 128.036 448.784C128.036 449.372 128.228 449.834 128.612 450.17C129.008 450.506 129.572 450.674 130.304 450.674ZM137.767 460.394L136.849 459.674C137.233 459.278 137.497 458.906 137.641 458.558C137.797 458.222 137.875 457.862 137.875 457.478L138.361 458H136.669V455.498H139.189V457.154C139.189 457.766 139.081 458.324 138.865 458.828C138.661 459.344 138.295 459.866 137.767 460.394ZM141.71 458L147.866 446.444V447.254H141.134V445.31H150.008V447.038L144.248 458H141.71ZM156.355 458.18C154.867 458.18 153.703 457.862 152.863 457.226C152.035 456.59 151.621 455.708 151.621 454.58C151.621 453.692 151.891 452.954 152.431 452.366C152.971 451.778 153.673 451.43 154.537 451.322V451.7C153.757 451.532 153.127 451.166 152.647 450.602C152.179 450.038 151.945 449.354 151.945 448.55C151.945 447.482 152.335 446.648 153.115 446.048C153.907 445.436 154.987 445.13 156.355 445.13C157.735 445.13 158.815 445.436 159.595 446.048C160.387 446.648 160.783 447.482 160.783 448.55C160.783 449.354 160.555 450.044 160.099 450.62C159.655 451.196 159.049 451.55 158.281 451.682V451.322C159.133 451.442 159.817 451.796 160.333 452.384C160.849 452.96 161.107 453.692 161.107 454.58C161.107 455.708 160.687 456.59 159.847 457.226C159.019 457.862 157.855 458.18 156.355 458.18ZM156.355 456.38C157.231 456.38 157.885 456.218 158.317 455.894C158.749 455.558 158.965 455.066 158.965 454.418C158.965 453.77 158.749 453.284 158.317 452.96C157.885 452.636 157.231 452.474 156.355 452.474C155.491 452.474 154.837 452.636 154.393 452.96C153.961 453.284 153.745 453.77 153.745 454.418C153.745 455.066 153.961 455.558 154.393 455.894C154.837 456.218 155.491 456.38 156.355 456.38ZM156.355 450.674C157.099 450.674 157.663 450.506 158.047 450.17C158.443 449.834 158.641 449.372 158.641 448.784C158.641 448.208 158.443 447.758 158.047 447.434C157.663 447.098 157.099 446.93 156.355 446.93C155.623 446.93 155.059 447.098 154.663 447.434C154.279 447.758 154.087 448.208 154.087 448.784C154.087 449.372 154.279 449.834 154.663 450.17C155.059 450.506 155.623 450.674 156.355 450.674ZM168.56 458V455.372H167.03V454.04H168.56V452.564H167.03V451.232H168.56V445.31H172.862C173.786 445.31 174.566 445.466 175.202 445.778C175.85 446.09 176.336 446.522 176.66 447.074C176.996 447.626 177.164 448.274 177.164 449.018C177.164 449.762 176.996 450.398 176.66 450.926C176.324 451.454 175.844 451.862 175.22 452.15C174.596 452.426 173.84 452.564 172.952 452.564H170.882V454.04H173.78V455.372H170.882V458H168.56ZM170.846 451.232H172.628C173.408 451.232 174.002 451.058 174.41 450.71C174.83 450.362 175.04 449.834 175.04 449.126C175.04 448.406 174.83 447.878 174.41 447.542C174.002 447.194 173.408 447.02 172.628 447.02H170.846V451.232Z" fill="#1A1A1A"/>
<path d="M80 474L82.29 476.29L77.41 481.17L73.41 477.17L66 484.59L67.41 486L73.41 480L77.41 484L83.71 477.71L86 480V474H80Z" fill="#00B69B"/>
<path d="M95.68 485V483.782H97.976V476.362H98.704L95.904 478.07V476.67L98.382 475.13H99.432V483.782H101.588V485H95.68ZM107.603 485V482.956H103.039V481.92L107.841 475.13H109.017V481.822H110.487V482.956H109.017V485H107.603ZM107.603 481.822V476.852H107.925L104.173 482.172V481.822H107.603ZM115.087 485H113.855L119.707 475.13H120.939L115.087 485ZM113.925 481.038C113.15 481.038 112.539 480.772 112.091 480.24C111.652 479.699 111.433 478.957 111.433 478.014C111.433 477.062 111.657 476.325 112.105 475.802C112.553 475.27 113.16 475.004 113.925 475.004C114.7 475.004 115.306 475.275 115.745 475.816C116.184 476.348 116.403 477.081 116.403 478.014C116.403 478.957 116.184 479.699 115.745 480.24C115.306 480.772 114.7 481.038 113.925 481.038ZM113.925 480.086C114.326 480.086 114.639 479.918 114.863 479.582C115.096 479.237 115.213 478.714 115.213 478.014C115.213 477.305 115.096 476.787 114.863 476.46C114.639 476.124 114.326 475.956 113.925 475.956C113.524 475.956 113.206 476.124 112.973 476.46C112.749 476.787 112.637 477.305 112.637 478.014C112.637 478.723 112.749 479.246 112.973 479.582C113.206 479.918 113.524 480.086 113.925 480.086ZM120.869 485.126C120.094 485.126 119.488 484.86 119.049 484.328C118.61 483.787 118.391 483.045 118.391 482.102C118.391 481.15 118.61 480.413 119.049 479.89C119.497 479.358 120.104 479.092 120.869 479.092C121.644 479.092 122.25 479.363 122.689 479.904C123.128 480.436 123.347 481.169 123.347 482.102C123.347 483.045 123.128 483.787 122.689 484.328C122.25 484.86 121.644 485.126 120.869 485.126ZM120.869 484.174C121.27 484.174 121.583 484.006 121.807 483.67C122.04 483.334 122.157 482.811 122.157 482.102C122.157 481.393 122.04 480.875 121.807 480.548C121.583 480.212 121.27 480.044 120.869 480.044C120.468 480.044 120.15 480.212 119.917 480.548C119.693 480.875 119.581 481.393 119.581 482.102C119.581 482.811 119.693 483.334 119.917 483.67C120.15 484.006 120.468 484.174 120.869 484.174Z" fill="#00B69B"/>
<path d="M266 470.808C275.199 467.994 279.891 481 289.861 481C296.805 481 307.406 481 315.711 481C328.564 481 330.478 473.776 358.132 473.776C385.785 473.776 373.389 438.799 399.226 438.799C425.063 438.799 437.67 421.825 448.938 421.825C463.498 421.825 464.867 425.838 479.427 425.838C492.021 425.838 497.986 417.998 511.582 417.998C525.035 417.998 527.15 400 553 400" stroke="#00B69B" strokeWidth="1.5" strokeLinecap="round"/>
<path d="M289.861 481C279.891 481 275.199 467.994 266 470.808V493H553V400C527.15 400 525.035 417.998 511.582 417.998C497.986 417.998 492.021 425.838 479.427 425.838C464.867 425.838 463.498 421.825 448.938 421.825C437.67 421.825 425.063 438.799 399.226 438.799C373.389 438.799 385.785 473.776 358.132 473.776C330.478 473.776 328.564 481 315.711 481H289.861Z" fill="url(#paint0_linear_44_4036)"/>
<defs>
<filter id="filter0_d_44_4036" x="33" y="386" width="545" height="141" filterUnits="userSpaceOnUse" colorInterpolationFilters="sRGB">
<feFlood floodOpacity="0" result="BackgroundImageFix"/>
<feColorMatrix in="SourceAlpha" type="matrix" values="0 0 0 0 0 0 0 0 0 0 0 0 0 0 0 0 0 0 127 0" result="hardAlpha"/>
<feOffset dy="10"/>
<feGaussianBlur stdDeviation="5"/>
<feComposite in2="hardAlpha" operator="out"/>
<feColorMatrix type="matrix" values="0 0 0 0 0 0 0 0 0 0 0 0 0 0 0 0 0 0 0.05 0"/>
<feBlend mode="normal" in2="BackgroundImageFix" result="effect1_dropShadow_44_4036"/>
<feBlend mode="normal" in="SourceGraphic" in2="effect1_dropShadow_44_4036" result="shape"/>
</filter>
<linearGradient id="paint0_linear_44_4036" x1="410.058" y1="388.5" x2="409.611" y2="493" gradientUnits="userSpaceOnUse">
<stop stop-color="#00B69B"/>
<stop offset="1" stop-color="#00B69B" stop-opacity="0"/>
</linearGradient>
</defs>
</svg>
