<svg width="30" height="30" viewBox="0 0 30 30" fill="none" xmlns="http://www.w3.org/2000/svg">
<path fill-rule="evenodd" clip-rule="evenodd" d="M8.41506 2.50027C7.21933 3.19063 6.80964 4.7196 7.5 5.91533L18.75 25.4009C19.4404 26.5966 20.9693 27.0063 22.1651 26.316C23.3608 25.6256 23.7705 24.0966 23.0801 22.9009L11.8301 3.41533C11.1398 2.2196 9.6108 1.80992 8.41506 2.50027ZM10.9914 5.71261L10.2063 4.35283C10.0337 4.0539 9.6515 3.95148 9.35256 4.12407C9.05363 4.29666 8.95121 4.6789 9.1238 4.97783L9.94917 6.40742L10.9914 5.71261ZM11.9308 7.33978L10.8886 8.03459L20.3738 24.4634C20.5464 24.7623 20.9286 24.8648 21.2276 24.6922C21.5265 24.5196 21.6289 24.1373 21.4563 23.8384L11.9308 7.33978Z" fill="#5329FF"/>
<path fill-rule="evenodd" clip-rule="evenodd" d="M19.6676 3.13914C19.3524 2.28732 18.1476 2.28731 17.8324 3.13914L17.3961 4.31828C17.297 4.58609 17.0858 4.79725 16.818 4.89634L15.6389 5.33267C14.787 5.64787 14.787 6.85267 15.6389 7.16788L16.818 7.6042C17.0858 7.7033 17.297 7.91445 17.3961 8.18226L17.8324 9.3614C18.1476 10.2132 19.3524 10.2132 19.6676 9.36141L20.1039 8.18226C20.203 7.91445 20.4142 7.7033 20.682 7.6042L21.8611 7.16788C22.713 6.85267 22.713 5.64787 21.8611 5.33267L20.682 4.89634C20.4142 4.79725 20.203 4.58609 20.1039 4.31828L19.6676 3.13914ZM18.75 5.70563C18.5939 5.91093 18.4107 6.09418 18.2054 6.25027C18.4107 6.40636 18.5939 6.58961 18.75 6.79491C18.9061 6.58961 19.0893 6.40636 19.2946 6.25027C19.0893 6.09418 18.9061 5.91093 18.75 5.70563Z" fill="#5329FF"/>
<path fill-rule="evenodd" clip-rule="evenodd" d="M7.1676 9.38914C6.8524 8.53732 5.6476 8.53731 5.3324 9.38914L4.89607 10.5683C4.79697 10.8361 4.58582 11.0472 4.31801 11.1463L3.13887 11.5827C2.28704 11.8979 2.28704 13.1027 3.13887 13.4179L4.31801 13.8542C4.58582 13.9533 4.79697 14.1644 4.89607 14.4323L5.3324 15.6114C5.6476 16.4632 6.8524 16.4632 7.1676 15.6114L7.60393 14.4323C7.70303 14.1644 7.91418 13.9533 8.18199 13.8542L9.36113 13.4179C10.213 13.1027 10.213 11.8979 9.36113 11.5827L8.18199 11.1463C7.91418 11.0472 7.70303 10.8361 7.60393 10.5683L7.1676 9.38914ZM6.25 11.9556C6.09391 12.1609 5.91066 12.3442 5.70536 12.5003C5.91066 12.6564 6.09391 12.8396 6.25 13.0449C6.40609 12.8396 6.58934 12.6564 6.79464 12.5003C6.58934 12.3442 6.40609 12.1609 6.25 11.9556Z" fill="#5329FF"/>
<path fill-rule="evenodd" clip-rule="evenodd" d="M22.8324 11.8891C23.1476 11.0373 24.3524 11.0373 24.6676 11.8891L25.1039 13.0683C25.203 13.3361 25.4142 13.5472 25.682 13.6463L26.8611 14.0827C27.713 14.3979 27.713 15.6027 26.8611 15.9179L25.682 16.3542C25.4142 16.4533 25.203 16.6644 25.1039 16.9323L24.6676 18.1114C24.3524 18.9632 23.1476 18.9632 22.8324 18.1114L22.3961 16.9323C22.297 16.6644 22.0858 16.4533 21.818 16.3542L20.6389 15.9179C19.787 15.6027 19.787 14.3979 20.6389 14.0827L21.818 13.6463C22.0858 13.5472 22.297 13.3361 22.3961 13.0683L22.8324 11.8891ZM23.2054 15.0003C23.4107 14.8442 23.5939 14.6609 23.75 14.4556C23.9061 14.6609 24.0893 14.8442 24.2946 15.0003C24.0893 15.1564 23.9061 15.3396 23.75 15.5449C23.5939 15.3396 23.4107 15.1564 23.2054 15.0003Z" fill="#5329FF"/>
</svg>
