<svg width="239" height="370" viewBox="0 0 239 370" fill="none" xmlns="http://www.w3.org/2000/svg">
<g clipPath="url(#clip0_413_4600)">
<rect x="0.610352" width="238" height="370" rx="20" fill="#F7F7F7"/>
<rect x="-14.3896" y="364.18" width="117" height="75" rx="10" transform="rotate(-70.3402 -14.3896 364.18)" fill="#1A1A1A"/>
<path d="M43.0281 363.969L18.6126 340.108L20.5222 334.763L54.5894 331.608L52.2505 338.155L42.8709 338.775L45.5556 336.884L39.3531 354.246L38.4892 351.04L45.3522 357.464L43.0281 363.969ZM26.3553 339.884L37.1249 349.758L35.1507 350.315L39.8136 337.263L41.0477 338.778L26.4146 339.718L26.3553 339.884ZM55.4892 329.089L26.2775 318.653L31.1477 305.021C32.3221 301.734 34.0113 299.534 36.2155 298.421C38.4019 297.271 40.8763 297.189 43.6386 298.176C46.3733 299.153 48.2496 300.789 49.2675 303.084C50.2677 305.342 50.1806 308.114 49.0062 311.401L46.4453 318.569L57.7985 322.625L55.4892 329.089ZM41.4316 316.778L43.6965 310.439C44.2492 308.892 44.3134 307.622 43.8893 306.629C43.475 305.609 42.6464 304.877 41.4033 304.433C40.1603 303.989 39.0691 304.035 38.1298 304.572C37.1728 305.071 36.4179 306.094 35.8653 307.641L33.6004 313.98L41.4316 316.778ZM65.4784 301.129L36.2667 290.692L38.576 284.229L67.7877 294.665L65.4784 301.129Z" fill="white"/>
<rect x="148.808" y="215" width="117" height="75" rx="10" transform="rotate(19.6312 148.808 215)" fill="#4092F7"/>
<path d="M149.047 272.418L172.896 247.99L178.242 249.897L181.413 283.963L174.866 281.627L174.24 272.248L176.133 274.932L158.768 268.738L161.973 267.872L155.553 274.739L149.047 272.418ZM173.124 255.733L163.254 266.507L162.697 264.534L175.752 269.19L174.237 270.425L173.29 255.792L173.124 255.733ZM183.933 284.862L194.354 255.645L207.989 260.508C211.277 261.681 213.477 263.369 214.591 265.572C215.742 267.758 215.825 270.233 214.84 272.995C213.864 275.731 212.229 277.608 209.935 278.627C207.678 279.628 204.905 279.542 201.618 278.37L194.448 275.812L190.398 287.168L183.933 284.862ZM196.237 270.798L202.577 273.059C204.125 273.611 205.394 273.675 206.387 273.25C207.407 272.836 208.138 272.007 208.582 270.763C209.025 269.52 208.979 268.429 208.442 267.49C207.942 266.533 206.919 265.779 205.371 265.227L199.031 262.965L196.237 270.798ZM211.898 294.837L222.32 265.62L228.785 267.926L218.363 297.143L211.898 294.837Z" fill="white"/>
<rect x="128.61" y="329.092" width="117" height="75" rx="10" transform="rotate(-26.9865 128.61 329.092)" fill="#F0AD00"/>
<path d="M170.506 368.356L169.133 334.245L174.191 331.669L201.128 352.763L194.933 355.917L187.687 349.93L190.937 350.398L174.509 358.763L176.081 355.84L176.662 365.222L170.506 368.356ZM174.917 339.397L175.969 353.971L174.151 353.02L186.502 346.731L186.359 348.68L175.074 339.317L174.917 339.397ZM203.511 351.549L189.435 323.907L202.335 317.338C205.446 315.754 208.184 315.314 210.551 316.018C212.93 316.682 214.785 318.322 216.116 320.936C217.434 323.524 217.675 326.001 216.84 328.369C216.018 330.697 214.051 332.653 210.94 334.237L204.157 337.691L209.628 348.434L203.511 351.549ZM201.741 332.947L207.74 329.892C209.204 329.146 210.123 328.267 210.496 327.254C210.895 326.228 210.795 325.127 210.196 323.951C209.597 322.774 208.772 322.059 207.72 321.804C206.682 321.51 205.43 321.736 203.967 322.481L197.968 325.536L201.741 332.947ZM229.97 338.076L215.894 310.433L222.01 307.318L236.086 334.961L229.97 338.076Z" fill="white"/>
<rect x="54.6104" y="315.566" width="117" height="75" rx="10" transform="rotate(-11.1203 54.6104 315.566)" fill="#5329FF"/>
<path d="M84.1744 364.788L92.18 331.601L97.7494 330.506L117.893 358.16L111.072 359.501L105.739 351.76L108.737 353.099L90.6473 356.655L92.9592 354.272L90.9527 363.455L84.1744 364.788ZM96.3348 338.138L93.3622 352.444L91.874 351.032L105.474 348.359L104.803 350.195L96.5075 338.104L96.3348 338.138ZM120.518 357.644L114.535 327.207L128.739 324.415C132.164 323.741 134.919 324.067 137.003 325.391C139.11 326.681 140.446 328.765 141.012 331.643C141.572 334.493 141.127 336.942 139.676 338.991C138.248 341.005 135.822 342.349 132.397 343.022L124.928 344.491L127.253 356.32L120.518 357.644ZM123.901 339.267L130.506 337.968C132.118 337.651 133.242 337.057 133.878 336.184C134.542 335.306 134.747 334.22 134.492 332.925C134.238 331.629 133.64 330.716 132.698 330.183C131.779 329.616 130.514 329.491 128.902 329.808L122.297 331.107L123.901 339.267ZM149.652 351.918L143.669 321.48L150.404 320.156L156.387 350.594L149.652 351.918Z" fill="white"/>
<rect x="-24.3896" y="108.599" width="117" height="75" rx="10" transform="rotate(-31.1941 -24.3896 108.599)" fill="#4092F7"/>
<path d="M20.2737 144.683L16.4021 110.764L21.2574 107.825L49.6693 126.885L43.7224 130.485L36.0565 125.045L39.3324 125.274L23.5619 134.822L24.9155 131.791L26.183 141.105L20.2737 144.683ZM22.5484 115.479L24.6666 129.936L22.7844 129.121L34.6404 121.942L34.6408 123.897L22.699 115.387L22.5484 115.479ZM51.9573 125.499L35.8908 98.9644L48.2739 91.4667C51.2598 89.6587 53.9587 89.0191 56.3705 89.5476C58.7923 90.0359 60.7628 91.5347 62.282 94.0439C63.7861 96.5281 64.2085 98.9813 63.5492 101.404C62.8997 103.786 61.082 105.881 58.0961 107.689L51.5846 111.631L57.8289 121.944L51.9573 125.499ZM48.8271 107.077L54.5858 103.59C55.9909 102.74 56.8424 101.795 57.14 100.758C57.4628 99.7052 57.2823 98.6143 56.5986 97.4851C55.915 96.356 55.0395 95.703 53.9723 95.5262C52.915 95.3091 51.6838 95.6259 50.2786 96.4767L44.5199 99.9635L48.8271 107.077ZM77.3559 110.121L61.2894 83.586L67.161 80.0309L83.2274 106.566L77.3559 110.121Z" fill="white"/>
<rect x="22.1846" y="128" width="117" height="75" rx="10" transform="rotate(10.4261 22.1846 128)" fill="#1A1A1A"/>
<path d="M31.6064 184.64L51.2406 156.712L56.8229 157.739L65.403 190.859L58.5658 189.601L56.4482 180.443L58.7455 182.789L40.6139 179.453L43.6392 178.086L38.4003 185.89L31.6064 184.64ZM52.7042 164.319L44.6854 176.533L43.8196 174.674L57.4508 177.182L56.1529 178.643L52.8773 164.351L52.7042 164.319ZM68.0336 191.343L73.6471 160.835L87.8841 163.455C91.3172 164.087 93.7596 165.401 95.2115 167.398C96.6976 169.372 97.1752 171.801 96.6444 174.686C96.1189 177.542 94.8052 179.656 92.7033 181.029C90.6357 182.379 87.8853 182.737 84.4523 182.106L76.966 180.728L74.7842 192.585L68.0336 191.343ZM77.9294 175.492L84.5503 176.71C86.1658 177.008 87.4294 176.867 88.341 176.289C89.2815 175.717 89.8712 174.781 90.1101 173.483C90.349 172.185 90.1282 171.115 89.4478 170.274C88.8016 169.41 87.6707 168.829 86.0552 168.532L79.4344 167.313L77.9294 175.492ZM97.2347 196.716L102.848 166.208L109.599 167.451L103.985 197.958L97.2347 196.716Z" fill="white"/>
<rect x="27.6885" y="-82" width="117" height="75" rx="10" transform="rotate(27.886 27.6885 -82)" fill="#1A1A1A"/>
<path d="M19.6813 -25.1425L46.7904 -45.8928L51.8073 -43.238L50.055 -9.07003L43.9102 -12.3216L44.6381 -21.6934L46.1255 -18.7658L29.8303 -27.3885L33.1264 -27.7849L25.7871 -21.9116L19.6813 -25.1425ZM45.9043 -38.1976L34.5902 -28.9518L34.3221 -30.9853L46.5727 -24.5028L44.8962 -23.4983L46.0599 -38.1153L45.9043 -38.1976ZM52.4191 -7.81903L66.9276 -35.237L79.7226 -28.4664C82.8079 -26.8338 84.7435 -24.8471 85.5293 -22.5064C86.3548 -20.178 86.0816 -17.7174 84.7096 -15.1247C83.3514 -12.5579 81.4638 -10.9349 79.0468 -10.2558C76.6695 -9.58897 73.9382 -10.0718 70.8529 -11.7045L64.1248 -15.2647L58.486 -4.60864L52.4191 -7.81903ZM66.6149 -19.9705L72.5652 -16.8218C74.0171 -16.0535 75.2646 -15.8083 76.3076 -16.086C77.3766 -16.3501 78.2197 -17.0654 78.8371 -18.2321C79.4545 -19.3989 79.5648 -20.4854 79.1681 -21.4918C78.8111 -22.5104 77.9066 -23.4039 76.4547 -24.1722L70.5044 -27.3208L66.6149 -19.9705ZM78.6627 6.06803L93.1712 -21.3499L99.2382 -18.1396L84.7297 9.27842L78.6627 6.06803Z" fill="white"/>
<rect x="72.8564" y="215" width="117" height="75" rx="10" transform="rotate(26.3128 72.8564 215)" fill="#F0AD00"/>
<path d="M66.4138 272.056L92.943 250.569L98.0308 253.085L97.2172 287.288L90.9856 284.207L91.4558 274.819L93.0231 277.704L76.4973 269.532L79.7813 269.045L72.606 275.118L66.4138 272.056ZM92.2685 258.286L81.2124 267.839L80.8887 265.813L93.3126 271.957L91.6643 273.007L92.4263 258.364L92.2685 258.286ZM99.6148 288.474L113.365 260.668L126.341 267.085C129.47 268.632 131.46 270.565 132.309 272.883C133.198 275.188 132.993 277.655 131.693 280.285C130.405 282.888 128.563 284.562 126.166 285.307C123.808 286.039 121.064 285.631 117.935 284.084L111.112 280.71L105.768 291.517L99.6148 288.474ZM113.472 275.937L119.506 278.922C120.979 279.65 122.232 279.861 123.267 279.554C124.329 279.261 125.152 278.523 125.737 277.34C126.322 276.156 126.403 275.067 125.978 274.072C125.594 273.064 124.665 272.195 123.192 271.467L117.158 268.483L113.472 275.937ZM126.23 301.635L139.98 273.829L146.133 276.872L132.383 304.678L126.23 301.635Z" fill="white"/>
<rect x="123.61" y="61.957" width="117" height="75" rx="10" transform="rotate(-19.4489 123.61 61.957)" fill="#F0AD00"/>
<path d="M159.993 106.378L163.107 72.3808L168.459 70.4909L192.396 94.9354L185.841 97.2502L179.443 90.3636L182.604 91.254L165.22 97.3925L167.162 94.7002L166.507 104.077L159.993 106.378ZM168.165 78.2474L167.296 92.833L165.619 91.652L178.688 87.0371L178.29 88.9506L168.331 78.1888L168.165 78.2474ZM194.918 94.0448L184.59 64.7949L198.24 59.9749C201.531 58.8126 204.304 58.7357 206.557 59.7441C208.829 60.7152 210.453 62.5837 211.43 65.3496C212.397 68.0879 212.311 70.5758 211.172 72.8133C210.052 75.0133 207.845 76.6945 204.554 77.8568L197.376 80.3913L201.391 91.7594L194.918 94.0448ZM195.604 75.3711L201.951 73.1296C203.5 72.5826 204.526 71.8315 205.029 70.8763C205.559 69.9114 205.604 68.8065 205.165 67.5619C204.725 66.3172 204.001 65.4997 202.992 65.1093C202.001 64.6815 200.731 64.7411 199.182 65.2881L192.835 67.5296L195.604 75.3711ZM222.915 84.1586L212.587 54.9086L219.059 52.6232L229.388 81.8731L222.915 84.1586Z" fill="white"/>
<rect x="11.0713" y="181" width="117" height="75" rx="10" transform="rotate(48.8345 11.0713 181)" fill="#5329FF"/>
<path d="M-16.7343 231.237L16.0018 221.55L19.7379 225.823L5.88538 257.106L1.30932 251.873L5.33975 243.381L5.68214 246.647L-6.45311 232.768L-3.23312 233.576L-12.1872 236.437L-16.7343 231.237ZM12.4231 228.42L-1.44893 233.01L-0.972219 231.015L8.15094 241.449L6.2261 241.787L12.5389 228.553L12.4231 228.42ZM7.64598 259.12L30.9982 238.701L40.5268 249.599C42.8245 252.227 43.9218 254.774 43.8189 257.241C43.7573 259.711 42.6224 261.911 40.4141 263.842C38.228 265.753 35.8849 266.594 33.3849 266.364C30.9263 266.137 28.5482 264.71 26.2505 262.082L21.24 256.351L12.1641 264.287L7.64598 259.12ZM25.248 252.847L29.6792 257.915C30.7605 259.152 31.8378 259.827 32.9112 259.94C34.0039 260.076 35.0471 259.709 36.0408 258.84C37.0345 257.971 37.526 256.996 37.5154 255.914C37.5461 254.835 37.0209 253.678 35.9396 252.441L31.5083 247.373L25.248 252.847ZM27.1899 281.472L50.5421 261.053L55.0603 266.221L31.7081 286.639L27.1899 281.472Z" fill="white"/>
<rect x="123.61" y="181.384" width="117" height="75" rx="10" transform="rotate(-24.9665 123.61 181.384)" fill="#5329FF"/>
<path d="M164.095 222.101L163.926 187.962L169.071 185.566L195.248 207.596L188.945 210.531L181.915 204.291L185.147 204.873L168.433 212.655L170.108 209.788L170.357 219.185L164.095 222.101ZM169.524 193.315L170.062 207.917L168.279 206.903L180.844 201.052L180.632 202.995L169.684 193.241L169.524 193.315ZM197.673 206.467L184.579 178.346L197.703 172.236C200.867 170.762 203.62 170.419 205.96 171.206C208.314 171.954 210.111 173.658 211.349 176.317C212.574 178.95 212.728 181.435 211.81 183.771C210.906 186.069 208.872 187.954 205.707 189.428L198.807 192.641L203.895 203.57L197.673 206.467ZM196.559 187.814L202.662 184.973C204.151 184.279 205.1 183.433 205.509 182.434C205.944 181.422 205.883 180.318 205.326 179.122C204.768 177.925 203.969 177.181 202.927 176.889C201.9 176.559 200.641 176.74 199.152 177.434L193.049 180.275L196.559 187.814ZM224.59 193.935L211.496 165.813L217.719 162.916L230.812 191.038L224.59 193.935Z" fill="white"/>
</g>
<defs>
<clipPath id="clip0_413_4600">
<rect x="0.610352" width="238" height="370" rx="20" fill="white"/>
</clipPath>
</defs>
</svg>
