<svg width="338" height="77" viewBox="0 0 338 77" fill="none" xmlns="http://www.w3.org/2000/svg">
<g clip-path="url(#clip0_1354_1858)">
<rect y="0.149414" width="338" height="76" rx="16" fill="#F7F7F7"/>
<rect x="177" y="55" width="94" height="61" rx="8.10263" transform="rotate(-70.3402 177 55)" fill="#1A1A1A"/>
<path d="M223.852 54.9468L204.069 35.6129L205.616 31.282L233.219 28.726L231.324 34.0306L223.724 34.5334L225.899 33.0012L220.874 47.0684L220.174 44.4711L225.735 49.6757L223.852 54.9468ZM210.342 35.4313L219.068 43.4326L217.469 43.8833L221.247 33.3077L222.247 34.5356L210.39 35.297L210.342 35.4313ZM233.948 26.6851L210.279 18.229L214.225 7.18339C215.177 4.5199 216.546 2.73739 218.332 1.83586C220.103 0.903951 222.108 0.83781 224.346 1.63744C226.562 2.42907 228.082 3.75462 228.907 5.6141C229.718 7.4432 229.647 9.68949 228.695 12.353L226.62 18.1612L235.819 21.4476L233.948 26.6851ZM222.558 16.7098L224.393 11.5731C224.841 10.3197 224.893 9.2909 224.549 8.48667C224.214 7.66007 223.542 7.06684 222.535 6.70701C221.528 6.34718 220.644 6.38466 219.883 6.81945C219.107 7.22386 218.496 8.05277 218.048 9.30618L216.213 14.4429L222.558 16.7098ZM242.042 4.02963L218.373 -4.42643L220.244 -9.66387L243.913 -1.20781L242.042 4.02963Z" fill="white"/>
<rect x="276" y="-66" width="94" height="61" rx="8.10263" transform="rotate(19.6312 276 -66)" fill="#4092F7"/>
<path d="M276.077 -19.1481L295.401 -38.9408L299.733 -37.3956L302.302 -9.79354L296.997 -11.686L296.49 -19.2857L298.024 -17.1111L283.954 -22.1297L286.551 -22.831L281.349 -17.2676L276.077 -19.1481ZM295.586 -32.6672L287.589 -23.937L287.137 -25.5364L297.715 -21.7635L296.487 -20.7629L295.72 -32.6193L295.586 -32.6672ZM304.344 -9.06543L312.788 -32.7389L323.835 -28.7982C326.499 -27.848 328.283 -26.4801 329.185 -24.6946C330.118 -22.9235 330.185 -20.9187 329.386 -18.6801C328.596 -16.4638 327.271 -14.9428 325.412 -14.1171C323.583 -13.3058 321.337 -13.3753 318.673 -14.3255L312.864 -16.3976L309.582 -7.19691L304.344 -9.06543ZM314.313 -20.4607L319.451 -18.6282C320.704 -18.181 321.733 -18.1294 322.537 -18.4735C323.364 -18.8096 323.957 -19.4813 324.316 -20.4887C324.675 -21.4961 324.637 -22.3802 324.202 -23.141C323.797 -23.9163 322.968 -24.5275 321.715 -24.9747L316.577 -26.8072L314.313 -20.4607ZM327.003 -0.982846L335.447 -24.6563L340.686 -22.7878L332.241 0.885669L327.003 -0.982846Z" fill="white"/>
<rect x="289" y="34.1494" width="94" height="61" rx="8.10263" transform="rotate(-26.9865 289 34.1494)" fill="#F0AD00"/>
<path d="M323.104 66.2746L321.992 38.6354L326.09 36.5484L347.916 53.6396L342.896 56.1958L337.025 51.344L339.659 51.7233L326.347 58.5019L327.621 56.1327L328.092 63.7347L323.104 66.2746ZM326.678 42.8102L327.53 54.6187L326.058 53.8483L336.065 48.7522L335.949 50.3315L326.805 42.7455L326.678 42.8102ZM349.847 52.6562L338.442 30.2586L348.894 24.9361C351.414 23.6526 353.633 23.2961 355.551 23.8667C357.479 24.4052 358.982 25.7335 360.06 27.8515C361.128 29.9482 361.324 31.9558 360.647 33.8741C359.98 35.7604 358.387 37.3453 355.867 38.6288L350.37 41.4276L354.803 50.1324L349.847 52.6562ZM348.413 37.5834L353.274 35.1082C354.46 34.5042 355.204 33.7919 355.506 32.9712C355.829 32.1397 355.748 31.2474 355.263 30.2943C354.778 29.3412 354.109 28.7615 353.257 28.5552C352.416 28.3169 351.402 28.4998 350.216 29.1037L345.355 31.579L348.413 37.5834ZM371.285 41.7392L359.88 19.3416L364.836 16.8179L376.241 39.2154L371.285 41.7392Z" fill="white"/>
<rect x="233" y="16" width="94" height="61" rx="8.10263" transform="rotate(-11.1203 233 16)" fill="#5329FF"/>
<path d="M257.022 56.2249L263.509 29.3346L268.022 28.4476L284.343 50.8547L278.816 51.9411L274.495 45.6691L276.925 46.7539L262.267 49.6349L264.14 47.7044L262.515 55.1454L257.022 56.2249ZM266.875 34.6316L264.467 46.2232L263.261 45.0795L274.28 42.9136L273.737 44.401L267.015 34.6041L266.875 34.6316ZM286.47 50.4367L281.622 25.7742L293.131 23.512C295.907 22.9665 298.139 23.2303 299.827 24.3033C301.534 25.3484 302.617 27.037 303.076 29.3692C303.529 31.678 303.169 33.6625 301.993 35.3227C300.836 36.9549 298.87 38.0438 296.095 38.5893L290.043 39.7789L291.927 49.364L286.47 50.4367ZM289.211 35.5461L294.563 34.494C295.869 34.2373 296.78 33.7555 297.295 33.0487C297.833 32.3374 298 31.4569 297.793 30.4075C297.587 29.358 297.102 28.6176 296.339 28.1862C295.595 27.7269 294.57 27.6257 293.264 27.8824L287.912 28.9344L289.211 35.5461ZM310.076 45.7967L305.229 21.1342L310.686 20.0616L315.533 44.724L310.076 45.7967Z" fill="white"/>
<rect x="-4" y="66.1494" width="94" height="61" rx="8.10263" transform="rotate(-31.1941 -4 66.1494)" fill="#4092F7"/>
<path d="M32.3689 95.6856L29.2319 68.2025L33.166 65.8205L56.1871 81.2642L51.3686 84.1817L45.1571 79.7739L47.8114 79.9589L35.0332 87.6958L36.13 85.2396L37.157 92.7866L32.3689 95.6856ZM34.212 72.0222L35.9283 83.7363L34.4032 83.076L44.0098 77.2594L44.01 78.843L34.334 71.9484L34.212 72.0222ZM58.041 80.1417L45.0229 58.6413L55.0564 52.5662C57.4758 51.1013 59.6626 50.583 61.6169 51.0113C63.5791 51.4069 65.1757 52.6213 66.4067 54.6545C67.6254 56.6673 67.9677 58.6551 67.4334 60.6178C66.9072 62.548 65.4344 64.2455 63.015 65.7104L57.739 68.9049L62.7985 77.2611L58.041 80.1417ZM55.5047 65.2148L60.1707 62.3896C61.3093 61.7002 61.9992 60.9352 62.2403 60.0946C62.5019 59.2416 62.3556 58.3576 61.8017 57.4427C61.2477 56.5278 60.5384 55.9987 59.6737 55.8555C58.817 55.6796 57.8193 55.9363 56.6808 56.6257L52.0147 59.4509L55.5047 65.2148ZM78.6205 67.6812L65.6024 46.1808L70.3599 43.3002L83.378 64.8006L78.6205 67.6812Z" fill="white"/>
<rect x="34" y="-25.8506" width="94" height="61" rx="8.10263" transform="rotate(10.4261 34 -25.8506)" fill="#1A1A1A"/>
<path d="M41.5712 20.3854L57.4801 -2.24359L62.0032 -1.41131L68.9554 25.4242L63.4154 24.4049L61.6996 16.9841L63.561 18.8854L48.8696 16.1821L51.321 15.0744L47.0761 21.3983L41.5712 20.3854ZM58.666 3.91965L52.1687 13.8166L51.4671 12.31L62.5119 14.3423L61.4603 15.5263L58.8063 3.94545L58.666 3.91965ZM71.0868 25.8164L75.6353 1.09705L87.171 3.21968C89.9526 3.73152 91.9317 4.79651 93.1081 6.41465C94.3122 8.01371 94.6992 9.98201 94.2691 12.3195C93.8433 14.6337 92.7789 16.347 91.0758 17.4595C89.4005 18.5529 87.1719 18.8436 84.3903 18.3318L78.3244 17.2157L76.5566 26.8229L71.0868 25.8164ZM79.1051 12.973L84.4697 13.9602C85.7787 14.201 86.8025 14.0873 87.5412 13.6191C88.3032 13.1551 88.781 12.3972 88.9746 11.3453C89.1681 10.2934 88.9893 9.42677 88.438 8.74533C87.9144 8.04482 86.9981 7.57413 85.6891 7.33326L80.3244 6.34614L79.1051 12.973ZM94.7474 30.1701L99.2959 5.45072L104.766 6.4572L100.217 31.1766L94.7474 30.1701Z" fill="white"/>
<rect x="-60" y="-20.8506" width="94" height="61" rx="8.10263" transform="rotate(27.886 -60 -20.8506)" fill="#1A1A1A"/>
<rect x="87" y="11" width="94" height="61" rx="8.10263" transform="rotate(-19.4489 87 11)" fill="#F0AD00"/>
<path d="M116.596 47.3205L119.119 19.7742L123.455 18.2429L142.851 38.0494L137.539 39.925L132.355 34.345L134.916 35.0665L120.83 40.0403L122.404 37.8588L121.873 45.4568L116.596 47.3205ZM123.217 24.5277L122.513 36.3459L121.154 35.389L131.743 31.6497L131.421 33.2002L123.351 24.4802L123.217 24.5277ZM144.894 37.3278L136.525 13.6276L147.585 9.72215C150.252 8.7804 152.499 8.71809 154.325 9.53521C156.166 10.322 157.482 11.836 158.273 14.0771C159.056 16.2959 158.987 18.3117 158.064 20.1246C157.156 21.9073 155.369 23.2694 152.702 24.2112L146.886 26.2648L150.138 35.476L144.894 37.3278ZM145.449 22.1971L150.593 20.3809C151.848 19.9377 152.679 19.3292 153.086 18.5552C153.516 17.7733 153.553 16.8781 153.197 15.8696C152.841 14.8611 152.254 14.1987 151.436 13.8824C150.633 13.5358 149.604 13.5841 148.349 14.0273L143.206 15.8435L145.449 22.1971ZM167.579 29.3173L159.21 5.61718L164.455 3.76534L172.824 27.4655L167.579 29.3173Z" fill="white"/>
<rect x="116" y="73.1494" width="94" height="61" rx="8.10263" transform="rotate(-24.9665 116 73.1494)" fill="#5329FF"/>
<path d="M148.951 106.457L148.814 78.7955L152.983 76.8543L174.193 94.7042L169.086 97.0818L163.39 92.0262L166.008 92.498L152.466 98.8031L153.823 96.4804L154.025 104.094L148.951 106.457ZM153.35 83.1329L153.786 94.9641L152.341 94.1422L162.522 89.4021L162.35 90.9764L153.479 83.0727L153.35 83.1329ZM176.158 93.7895L165.549 71.0038L176.182 66.053C178.746 64.8591 180.976 64.5811 182.873 65.2189C184.78 65.825 186.236 67.2055 187.239 69.3601C188.232 71.4933 188.357 73.5065 187.613 75.3997C186.88 77.2614 185.232 78.7891 182.668 79.9829L177.076 82.5862L181.2 91.442L176.158 93.7895ZM175.256 78.6755L180.201 76.3732C181.407 75.8114 182.176 75.1257 182.507 74.3162C182.859 73.4966 182.81 72.602 182.359 71.6324C181.907 70.6628 181.259 70.0599 180.415 69.8237C179.583 69.5559 178.563 69.7029 177.357 70.2647L172.412 72.567L175.256 78.6755ZM197.967 83.6349L187.359 60.8493L192.4 58.5018L203.009 81.2874L197.967 83.6349Z" fill="white"/>
</g>
<defs>
<clipPath id="clip0_1354_1858">
<rect y="0.149414" width="338" height="76" rx="16" fill="white"/>
</clipPath>
</defs>
</svg>
