<svg width="106" height="91" viewBox="0 0 106 91" fill="none" xmlns="http://www.w3.org/2000/svg">
<rect x="14.0352" y="0.164551" width="93" height="75" rx="10" transform="rotate(10.4261 14.0352 0.164551)" fill="#1A1A1A"/>
<path d="M28.3026 57.6964L29.3218 52.1574L36.2456 53.4314L39.8048 34.0881L42.9638 34.6694L32.6135 38.4019L33.776 32.084L42.7873 28.8209L47.5906 29.7047L42.9963 54.6735L49.4873 55.8679L48.4681 61.4069L28.3026 57.6964ZM54.2498 62.4708L55.3885 56.2827L51.9266 55.6457L52.6034 51.9674L56.0653 52.6044L56.6386 49.4887L53.1767 48.8517L53.8615 45.1302L57.3234 45.7672L59.8634 31.963L70.4222 33.9058C72.6724 34.3199 74.5048 35.0597 75.9193 36.1253C77.3338 37.1908 78.3202 38.4759 78.8785 39.9804C79.4421 41.4561 79.5646 43.0594 79.2461 44.7904C78.9117 46.6079 78.2238 48.077 77.1825 49.1977C76.1411 50.3184 74.7923 51.0843 73.1359 51.4953C71.4848 51.8775 69.5485 51.8642 67.3272 51.4555L63.346 50.7229L62.7727 53.8386L69.3935 55.0569L68.7167 58.7351L62.0959 57.5169L60.9572 63.705L54.2498 62.4708ZM63.9442 46.9855L67.1032 47.5668C68.7476 47.8693 70.0689 47.7396 71.0671 47.1777C72.0941 46.621 72.7483 45.5782 73.0296 44.0492C73.3163 42.4913 73.0761 41.2839 72.3092 40.427C71.5764 39.5465 70.3879 38.955 68.7435 38.6524L65.5845 38.0711L63.9442 46.9855Z" fill="white"/>
</svg>
