<svg width="23" height="24" viewBox="0 0 23 24" fill="none" xmlns="http://www.w3.org/2000/svg">
<rect y="0.5" width="23" height="23" rx="11.5" fill="#F0AD00"/>
<path fill-rule="evenodd" clip-rule="evenodd" d="M15.5451 16.4574C15.8431 16.7451 16.3179 16.7368 16.6056 16.4388C16.8933 16.1409 16.885 15.6661 16.5871 15.3784L12.8106 11.7314L16.4575 7.95486C16.7452 7.6569 16.737 7.1821 16.439 6.89436C16.141 6.60662 15.6662 6.61491 15.3785 6.91287L11.7315 10.6894L7.95501 7.04245C7.65705 6.75471 7.18225 6.763 6.89451 7.06096C6.60677 7.35892 6.61506 7.83372 6.91302 8.12146L10.6896 11.7684L7.0426 15.5449C6.75486 15.8429 6.76315 16.3177 7.06111 16.6054C7.35907 16.8932 7.83387 16.8849 8.12161 16.5869L11.7686 12.8104L15.5451 16.4574Z" fill="white"/>
</svg>
