<svg width="187" height="84" viewBox="0 0 187 84" fill="none" xmlns="http://www.w3.org/2000/svg">
<rect width="187" height="84" rx="15" fill="white"/>
<path d="M150.203 46.0289V21.8977H158.231V27.5841C159.059 25.5134 160.19 23.9604 161.624 22.925C163.057 21.8897 164.793 21.372 166.832 21.372C167.167 21.372 167.501 21.388 167.836 21.4198C168.186 21.4358 168.537 21.4676 168.887 21.5154L168.075 29.2565C167.565 29.0813 167.063 28.9539 166.569 28.8742C166.076 28.7946 165.598 28.7548 165.136 28.7548C163.065 28.7548 161.464 29.3919 160.333 30.6662C159.219 31.9245 158.661 33.7164 158.661 36.0419V46.0289H150.203Z" fill="#1A1A1A"/>
<path d="M137.717 33.9395C137.717 32.0599 137.215 30.5706 136.212 29.4716C135.208 28.3725 133.839 27.823 132.102 27.823C130.366 27.823 128.996 28.3725 127.993 29.4716C127.005 30.5547 126.512 32.044 126.512 33.9395C126.512 35.819 127.013 37.3003 128.017 38.3834C129.02 39.4665 130.382 40.0081 132.102 40.0081C133.839 40.0081 135.208 39.4665 136.212 38.3834C137.215 37.3003 137.717 35.819 137.717 33.9395ZM145.195 21.8977V46.029H137.383V42.1106C136.268 43.7831 135.009 45.0096 133.608 45.7901C132.222 46.5705 130.589 46.9608 128.71 46.9608C125.492 46.9608 122.92 45.7901 120.993 43.4486C119.065 41.0912 118.102 37.9374 118.102 33.9872C118.102 30.053 119.105 26.931 121.112 24.6214C123.135 22.2959 125.851 21.1331 129.259 21.1331C131.075 21.1331 132.636 21.5234 133.942 22.3039C135.264 23.0684 136.395 24.2551 137.335 25.8638V21.8977H145.195Z" fill="#1A1A1A"/>
<path d="M106.931 33.9871C106.931 32.1076 106.429 30.6262 105.426 29.5431C104.438 28.46 103.084 27.9184 101.364 27.9184C99.6439 27.9184 98.2901 28.46 97.3025 29.5431C96.315 30.6262 95.8212 32.1076 95.8212 33.9871C95.8212 35.8826 96.307 37.3718 97.2786 38.455C98.2662 39.5222 99.628 40.0558 101.364 40.0558C103.084 40.0558 104.438 39.5142 105.426 38.4311C106.429 37.348 106.931 35.8666 106.931 33.9871ZM114.481 8.9957V46.0288H106.644V42.1105C105.561 43.7352 104.343 44.9537 102.989 45.766C101.635 46.5624 100.13 46.9607 98.4732 46.9607C95.0805 46.9607 92.3807 45.7899 90.3737 43.4485C88.3668 41.107 87.3633 37.9532 87.3633 33.9871C87.3633 30.1484 88.3588 27.0504 90.3498 24.693C92.3568 22.3197 94.969 21.133 98.1865 21.133C100.225 21.133 101.882 21.4994 103.156 22.2321C104.446 22.9648 105.593 24.1912 106.597 25.9115C106.501 25.3381 106.429 24.693 106.382 23.9762C106.334 23.2435 106.31 22.4551 106.31 21.6109V8.9957H114.481Z" fill="#1A1A1A"/>
<path d="M76.0492 33.9395C76.0492 32.0599 75.5475 30.5706 74.544 29.4716C73.5405 28.3725 72.1707 27.823 70.4345 27.823C68.6983 27.823 67.3285 28.3725 66.325 29.4716C65.3375 30.5547 64.8437 32.044 64.8437 33.9395C64.8437 35.819 65.3454 37.3003 66.3489 38.3834C67.3524 39.4665 68.7143 40.0081 70.4345 40.0081C72.1707 40.0081 73.5405 39.4665 74.544 38.3834C75.5475 37.3003 76.0492 35.819 76.0492 33.9395ZM83.5275 21.8977V46.029H75.7147V42.1106C74.5997 43.7831 73.3414 45.0096 71.9397 45.7901C70.554 46.5705 68.9213 46.9608 67.0418 46.9608C63.8243 46.9608 61.2519 45.7901 59.3246 43.4486C57.3973 41.0912 56.4336 37.9374 56.4336 33.9872C56.4336 30.053 57.4371 26.931 59.444 24.6214C61.4669 22.2959 64.1827 21.1331 67.5913 21.1331C69.4071 21.1331 70.9681 21.5234 72.2742 22.3039C73.5963 23.0684 74.7272 24.2551 75.6669 25.8638V21.8977H83.5275Z" fill="#1A1A1A"/>
<path d="M28.3223 46.0284V11.05H38.2854C42.1878 11.05 44.9036 11.2332 46.4327 11.5995C47.9777 11.95 49.3077 12.5473 50.4227 13.3915C51.681 14.3472 52.6447 15.5657 53.3137 17.047C53.9986 18.5283 54.341 20.161 54.341 21.9449C54.341 24.6527 53.6721 26.8588 52.3341 28.5631C51.012 30.2515 49.0768 31.3744 46.5282 31.9319L56.0613 46.0284H45.2858L37.258 32.3381V46.0284H28.3223ZM37.258 27.5835H39.026C41.0808 27.5835 42.578 27.2331 43.5178 26.5323C44.4735 25.8314 44.9513 24.7324 44.9513 23.2351C44.9513 21.483 44.5054 20.2406 43.6134 19.5079C42.7373 18.7593 41.256 18.385 39.1694 18.385H37.258V27.5835Z" fill="#1A1A1A"/>
<path d="M61.6003 57.6015C61.3249 53.6625 64.2948 50.2459 68.2339 49.9705L178.073 42.2898C182.012 42.0143 185.428 44.9843 185.704 48.9233L186.502 60.3353C186.777 64.2744 183.807 67.6909 179.868 67.9664L70.0293 75.6471C66.0903 75.9225 62.6738 72.9526 62.3983 69.0135L61.6003 57.6015Z" fill="#F0AD00"/>
<path d="M17.7971 51.1099C16.2854 51.591 14.6643 50.7566 14.2418 49.2275C10.6208 36.1215 10.652 22.2728 14.3321 9.1833C14.7615 7.65608 16.3864 6.82908 17.8959 7.31693C19.4055 7.80478 20.2276 9.42273 19.8031 10.9513C16.4856 22.8986 16.4571 35.5221 19.7207 47.4842C20.1383 49.0147 19.3089 50.6289 17.7971 51.1099Z" fill="#F0AD00"/>
<path d="M4.78352 45.812C3.23938 46.1758 1.68694 45.2198 1.38285 43.6628C-0.376625 34.6538 -0.457809 25.397 1.14339 16.3585C1.42012 14.7964 2.95556 13.8133 4.50584 14.15C6.05611 14.4867 7.03369 16.0156 6.76198 17.5785C5.33641 25.7789 5.41001 34.1703 6.97918 42.3444C7.27826 43.9024 6.32765 45.4482 4.78352 45.812Z" fill="#F0AD00"/>
<path d="M168.191 57.4436L171.813 57.1903L170.145 52.8788C170.093 52.748 170.02 52.5361 169.927 52.2432C169.833 51.9503 169.712 51.5737 169.563 51.1135C169.507 51.4474 169.45 51.7662 169.392 52.0697C169.34 52.3729 169.284 52.664 169.224 52.9433L168.191 57.4436ZM163.44 62.7906L167.113 49.112L171.675 48.793L177.225 61.8267L173.603 62.08L172.761 59.7369L167.588 60.0986L167.062 62.5374L163.44 62.7906Z" fill="white"/>
<path d="M162.06 49.9884L162.338 53.9661C161.801 53.4475 161.274 53.0779 160.757 52.8573C160.246 52.6303 159.708 52.5365 159.142 52.576C158.096 52.6492 157.273 53.0674 156.672 53.8306C156.077 54.5873 155.82 55.5404 155.9 56.6899C155.975 57.7604 156.366 58.6254 157.072 59.285C157.784 59.9442 158.651 60.2381 159.673 60.1666C160.239 60.127 160.759 59.9623 161.234 59.6724C161.714 59.376 162.184 58.9306 162.644 58.3362L162.923 62.323C162.364 62.6432 161.804 62.8932 161.242 63.0731C160.68 63.253 160.107 63.3633 159.523 63.4041C158.794 63.4552 158.112 63.4142 157.48 63.2812C156.853 63.1539 156.269 62.9319 155.728 62.6153C154.684 62.016 153.864 61.2268 153.27 60.2476C152.676 59.2685 152.335 58.1433 152.246 56.8721C152.174 55.8503 152.274 54.9113 152.544 54.0551C152.82 53.1923 153.268 52.397 153.89 51.669C154.477 50.974 155.154 50.4376 155.923 50.06C156.697 49.6819 157.57 49.4589 158.544 49.3908C159.127 49.35 159.71 49.3795 160.292 49.4794C160.873 49.5793 161.463 49.749 162.06 49.9884Z" fill="white"/>
<path d="M146.655 63.9647L145.721 50.6082L149.397 50.3511L150.331 63.7076L146.655 63.9647Z" fill="white"/>
<path d="M138.141 64.56L137.428 54.3602L134.436 54.5695L134.215 51.4128L143.84 50.7398L144.061 53.8964L141.068 54.1057L141.781 64.3055L138.141 64.56Z" fill="white"/>
<path d="M127.421 65.3095L126.995 59.2151L121.816 52.2796L125.995 51.9874L128.033 55.3012C128.046 55.3186 128.067 55.3508 128.094 55.3978C128.308 55.7434 128.463 56.0779 128.559 56.4013C128.599 56.099 128.706 55.7584 128.882 55.3794C128.913 55.3099 128.935 55.2626 128.945 55.2374L130.484 51.6736L134.671 51.3807L130.508 58.9695L130.934 65.0639L127.421 65.3095Z" fill="white"/>
<path d="M116.125 66.0992L115.191 52.7428L118.832 52.4882L119.547 62.7245L124.073 62.4081L124.291 65.5283L116.125 66.0992Z" fill="white"/>
<path d="M105.806 61.8064L109.428 61.5531L107.76 57.2416C107.709 57.1108 107.636 56.8989 107.542 56.606C107.448 56.3131 107.327 55.9365 107.179 55.4762C107.123 55.8102 107.065 56.129 107.007 56.4325C106.955 56.7357 106.899 57.0268 106.839 57.3061L105.806 61.8064ZM101.055 67.1534L104.728 53.4748L109.29 53.1558L114.84 66.1895L111.218 66.4427L110.376 64.0997L105.203 64.4614L104.677 66.9002L101.055 67.1534Z" fill="white"/>
<path d="M86.6957 68.1576L85.7617 54.8011L89.2742 54.5555L94.7997 61.0725C94.9068 61.2056 95.0847 61.4774 95.3335 61.8878C95.5879 62.2918 95.8693 62.7763 96.1777 63.3415C96.066 62.7931 95.9768 62.3043 95.9102 61.875C95.8495 61.4453 95.8075 61.0632 95.7842 60.7287L95.3229 54.1325L98.8171 53.8882L99.7511 67.2447L96.2569 67.489L90.7294 60.9446C90.6162 60.8119 90.4325 60.5436 90.1781 60.1397C89.9293 59.7293 89.6542 59.2473 89.3527 58.6939C89.4648 59.2484 89.5512 59.7404 89.6118 60.1701C89.6785 60.5994 89.7235 60.9813 89.7469 61.3158L90.2082 67.912L86.6957 68.1576Z" fill="white"/>
<path d="M76.3724 63.8641L79.9944 63.6109L78.3269 59.2994C78.2749 59.1685 78.202 58.9567 78.1082 58.6637C78.0144 58.3708 77.8933 57.9942 77.745 57.534C77.6889 57.868 77.6317 58.1867 77.5735 58.4903C77.5214 58.7934 77.4653 59.0846 77.4054 59.3638L76.3724 63.8641ZM71.6215 69.2112L75.2948 55.5325L79.8564 55.2136L85.4067 68.2472L81.7848 68.5005L80.9425 66.1574L75.7696 66.5191L75.2434 68.9579L71.6215 69.2112Z" fill="white"/>
</svg>
