<svg width="341" height="126" viewBox="0 0 341 126" fill="none" xmlns="http://www.w3.org/2000/svg">
<path d="M273.901 70.8483V26.8438H288.54V37.2132C290.05 33.4372 292.112 30.6053 294.727 28.7173C297.341 26.8293 300.507 25.8853 304.225 25.8853C304.835 25.8853 305.444 25.9144 306.054 25.9725C306.693 26.0015 307.332 26.0596 307.971 26.1467L306.49 40.263C305.561 39.9435 304.646 39.7112 303.745 39.5659C302.845 39.4207 301.973 39.3481 301.131 39.3481C297.355 39.3481 294.436 40.5099 292.374 42.8336C290.341 45.1282 289.324 48.3959 289.324 52.6366V70.8483H273.901Z" fill="#1A1A1A"/>
<path d="M251.132 48.8026C251.132 45.3752 250.217 42.6594 248.387 40.6552C246.557 38.6511 244.059 37.649 240.893 37.649C237.727 37.649 235.229 38.6511 233.399 40.6552C231.598 42.6304 230.698 45.3461 230.698 48.8026C230.698 52.23 231.613 54.9313 233.443 56.9064C235.273 58.8815 237.756 59.8691 240.893 59.8691C244.059 59.8691 246.557 58.8815 248.387 56.9064C250.217 54.9313 251.132 52.23 251.132 48.8026ZM264.769 26.8439V70.8484H250.522V63.7031C248.488 66.753 246.194 68.9895 243.638 70.4127C241.111 71.836 238.134 72.5476 234.706 72.5476C228.839 72.5476 224.148 70.4127 220.633 66.143C217.119 61.8442 215.362 56.0931 215.362 48.8897C215.362 41.7154 217.191 36.0224 220.851 31.8108C224.54 27.5701 229.492 25.4497 235.708 25.4497C239.019 25.4497 241.866 26.1613 244.248 27.5846C246.659 28.9788 248.721 31.1427 250.434 34.0763V26.8439H264.769Z" fill="#1A1A1A"/>
<path d="M194.993 48.8893C194.993 45.4619 194.078 42.7607 192.248 40.7855C190.447 38.8104 187.979 37.8229 184.842 37.8229C181.705 37.8229 179.236 38.8104 177.435 40.7855C175.634 42.7607 174.734 45.4619 174.734 48.8893C174.734 52.3458 175.62 55.0616 177.391 57.0367C179.192 58.9828 181.676 59.9558 184.842 59.9558C187.979 59.9558 190.447 58.9683 192.248 56.9932C194.078 55.018 194.993 52.3168 194.993 48.8893ZM208.761 3.31635V70.848H194.47V63.7028C192.495 66.6654 190.273 68.8874 187.804 70.3688C185.335 71.8211 182.591 72.5472 179.57 72.5472C173.383 72.5472 168.46 70.4124 164.8 66.1426C161.14 61.8729 159.31 56.1218 159.31 48.8893C159.31 41.8893 161.126 36.2399 164.756 31.9411C168.416 27.6132 173.18 25.4493 179.047 25.4493C182.765 25.4493 185.786 26.1174 188.109 27.4535C190.462 28.7896 192.553 31.0261 194.383 34.1631C194.209 33.1174 194.078 31.9411 193.991 30.634C193.904 29.2979 193.86 27.8601 193.86 26.3207V3.31635H208.761Z" fill="#1A1A1A"/>
<path d="M138.679 48.8026C138.679 45.3752 137.764 42.6594 135.934 40.6552C134.104 38.6511 131.606 37.649 128.44 37.649C125.274 37.649 122.776 38.6511 120.946 40.6552C119.146 42.6304 118.245 45.3461 118.245 48.8026C118.245 52.23 119.16 54.9313 120.99 56.9064C122.82 58.8815 125.303 59.8691 128.44 59.8691C131.606 59.8691 134.104 58.8815 135.934 56.9064C137.764 54.9313 138.679 52.23 138.679 48.8026ZM152.316 26.8439V70.8484H138.069V63.7031C136.036 66.753 133.741 68.9895 131.185 70.4127C128.658 71.836 125.681 72.5476 122.253 72.5476C116.386 72.5476 111.695 70.4127 108.181 66.143C104.666 61.8442 102.909 56.0931 102.909 48.8897C102.909 41.7154 104.739 36.0224 108.399 31.8108C112.087 27.5701 117.04 25.4497 123.256 25.4497C126.567 25.4497 129.413 26.1613 131.795 27.5846C134.206 28.9788 136.268 31.1427 137.982 34.0763V26.8439H152.316Z" fill="#1A1A1A"/>
<path d="M51.646 70.8474V7.06268H69.8142C76.9304 7.06268 81.8828 7.39671 84.6712 8.06477C87.4886 8.70378 89.9139 9.793 91.9472 11.3324C94.2418 13.0752 95.9991 15.2972 97.219 17.9985C98.468 20.6997 99.0924 23.6769 99.0924 26.9301C99.0924 31.8679 97.8725 35.8907 95.4327 38.9986C93.0219 42.0775 89.4928 44.1252 84.8454 45.1418L102.229 70.8474H82.5799L67.9407 45.8825V70.8474H51.646ZM67.9407 37.2123H71.1648C74.9118 37.2123 77.6421 36.5733 79.3558 35.2953C81.0985 34.0173 81.9699 32.0131 81.9699 29.2828C81.9699 26.0877 81.1566 23.8222 79.53 22.486C77.9325 21.1209 75.2313 20.4383 71.4262 20.4383H67.9407V37.2123Z" fill="#1A1A1A"/>
<path d="M112.327 91.9516C111.824 84.7686 117.24 78.5384 124.423 78.0361L324.72 64.03C331.903 63.5277 338.133 68.9435 338.635 76.1266L340.091 96.9369C340.593 104.12 335.177 110.35 327.994 110.852L127.697 124.859C120.514 125.361 114.284 119.945 113.782 112.762L112.327 91.9516Z" fill="#F0AD00"/>
<path d="M32.4498 80.1138C29.693 80.991 26.7368 79.4696 25.9664 76.6811C19.3633 52.7817 19.4202 27.528 26.1311 3.65863C26.9141 0.873674 29.8771 -0.634393 32.6299 0.255223C35.3826 1.14484 36.8817 4.09525 36.1077 6.88271C30.058 28.669 30.0061 51.6887 35.9575 73.5021C36.7189 76.293 35.2065 79.2366 32.4498 80.1138Z" fill="#F0AD00"/>
<path d="M8.72297 70.453C5.90717 71.1164 3.07621 69.373 2.5217 66.5337C-0.686793 50.1055 -0.834836 33.2252 2.08503 16.7432C2.58966 13.8947 5.3896 12.1019 8.2166 12.7158C11.0436 13.3298 12.8263 16.1178 12.3308 18.968C9.7312 33.9217 9.8654 49.2238 12.7269 64.1297C13.2723 66.9707 11.5388 69.7895 8.72297 70.453Z" fill="#F0AD00"/>
<path d="M306.702 91.6638L313.307 91.2019L310.266 83.3397C310.172 83.1012 310.039 82.7148 309.868 82.1806C309.697 81.6465 309.476 80.9598 309.205 80.1205C309.103 80.7295 308.999 81.3108 308.893 81.8643C308.798 82.4171 308.695 82.9481 308.586 83.4572L306.702 91.6638ZM298.039 101.414L304.737 76.4707L313.056 75.8891L323.177 99.6566L316.572 100.118L315.036 95.8457L305.603 96.5053L304.644 100.953L298.039 101.414Z" fill="white"/>
<path d="M295.522 78.0687L296.029 85.3223C295.049 84.3766 294.088 83.7026 293.146 83.3004C292.214 82.8863 291.232 82.7153 290.201 82.7874C288.293 82.9208 286.792 83.6834 285.696 85.0751C284.611 86.455 284.142 88.1931 284.289 90.2893C284.425 92.2413 285.138 93.8188 286.425 95.0216C287.724 96.2236 289.305 96.7595 291.169 96.6292C292.2 96.5571 293.149 96.2567 294.015 95.728C294.891 95.1875 295.748 94.3753 296.586 93.2913L297.094 100.562C296.076 101.145 295.055 101.601 294.03 101.929C293.006 102.257 291.961 102.459 290.896 102.533C289.565 102.626 288.323 102.551 287.169 102.309C286.027 102.077 284.962 101.672 283.975 101.094C282.07 100.002 280.576 98.5624 279.493 96.7769C278.41 94.9914 277.787 92.9396 277.625 90.6215C277.495 88.7582 277.676 87.0459 278.168 85.4845C278.671 83.9113 279.49 82.4609 280.623 81.1334C281.693 79.866 282.929 78.8879 284.33 78.1993C285.741 77.5099 287.335 77.1031 289.109 76.979C290.174 76.9046 291.236 76.9584 292.297 77.1406C293.357 77.3228 294.432 77.6322 295.522 78.0687Z" fill="white"/>
<path d="M267.429 103.555L265.726 79.199L272.43 78.7302L274.133 103.086L267.429 103.555Z" fill="white"/>
<path d="M251.906 104.641L250.605 86.0409L245.149 86.4224L244.746 80.6661L262.298 79.4388L262.7 85.1951L257.244 85.5767L258.544 104.177L251.906 104.641Z" fill="white"/>
<path d="M232.356 106.007L231.579 94.8941L222.135 82.2469L229.755 81.7141L233.471 87.7569C233.495 87.7887 233.533 87.8473 233.584 87.933C233.973 88.5633 234.255 89.1733 234.43 89.7629C234.503 89.2117 234.699 88.5905 235.019 87.8995C235.077 87.7728 235.115 87.6865 235.135 87.6406L237.94 81.1417L245.576 80.6077L237.984 94.4462L238.762 105.56L232.356 106.007Z" fill="white"/>
<path d="M211.76 107.448L210.057 83.0915L216.695 82.6273L218 101.294L226.252 100.717L226.65 106.406L211.76 107.448Z" fill="white"/>
<path d="M192.941 99.6195L199.545 99.1577L196.505 91.2955C196.41 91.0569 196.277 90.6705 196.106 90.1364C195.935 89.6022 195.714 88.9155 195.444 88.0762C195.341 88.6852 195.237 89.2665 195.131 89.82C195.036 90.3728 194.934 90.9038 194.824 91.413L192.941 99.6195ZM184.277 109.37L190.976 84.4265L199.294 83.8448L209.415 107.612L202.81 108.074L201.275 103.801L191.841 104.461L190.882 108.908L184.277 109.37Z" fill="white"/>
<path d="M158.09 111.201L156.387 86.8449L162.792 86.397L172.868 98.2811C173.063 98.5238 173.388 99.0194 173.841 99.7679C174.305 100.504 174.818 101.388 175.381 102.419C175.177 101.419 175.014 100.527 174.893 99.7445C174.782 98.9609 174.706 98.2641 174.663 97.6541L173.822 85.6257L180.194 85.1802L181.897 109.536L175.525 109.982L165.446 98.0478C165.239 97.8059 164.904 97.3167 164.44 96.5801C163.987 95.8316 163.485 94.9528 162.935 93.9436C163.139 94.9546 163.297 95.852 163.407 96.6356C163.529 97.4184 163.611 98.1148 163.654 98.7248L164.495 110.753L158.09 111.201Z" fill="white"/>
<path d="M139.27 103.372L145.875 102.91L142.834 95.0479C142.74 94.8093 142.607 94.4229 142.436 93.8888C142.264 93.3546 142.044 92.6679 141.773 91.8286C141.671 92.4376 141.567 93.0189 141.461 93.5724C141.365 94.1252 141.263 94.6562 141.154 95.1654L139.27 103.372ZM130.607 113.123L137.305 88.1789L145.623 87.5972L155.745 111.365L149.14 111.827L147.604 107.554L138.171 108.213L137.211 112.661L130.607 113.123Z" fill="white"/>
</svg>
