<svg width="135" height="60" viewBox="0 0 135 60" fill="none" xmlns="http://www.w3.org/2000/svg">
<rect x="1" y="1" width="133" height="58" rx="7" stroke="#DDD4FF" strokeWidth="2"/>
<path d="M30.496 36.16C29.3227 36.16 28.3147 35.9253 27.472 35.456C26.64 34.976 26 34.304 25.552 33.44C25.104 32.5653 24.88 31.536 24.88 30.352C24.88 29.168 25.104 28.144 25.552 27.28C26 26.416 26.64 25.7493 27.472 25.28C28.3147 24.8 29.3227 24.56 30.496 24.56C31.2853 24.56 31.9947 24.672 32.624 24.896C33.264 25.12 33.8133 25.4507 34.272 25.888L33.6 27.52C33.0987 27.1147 32.6133 26.8267 32.144 26.656C31.6853 26.4747 31.1573 26.384 30.56 26.384C29.4187 26.384 28.544 26.7307 27.936 27.424C27.3387 28.1067 27.04 29.0827 27.04 30.352C27.04 31.6213 27.3387 32.6027 27.936 33.296C28.544 33.9893 29.4187 34.336 30.56 34.336C31.1573 34.336 31.6853 34.2507 32.144 34.08C32.6133 33.8987 33.0987 33.6 33.6 33.184L34.272 34.816C33.8133 35.2427 33.264 35.5733 32.624 35.808C31.9947 36.0427 31.2853 36.16 30.496 36.16ZM39.6449 36.16C38.8129 36.16 38.0929 35.9893 37.4849 35.648C36.8769 35.3067 36.4022 34.8213 36.0609 34.192C35.7302 33.5627 35.5649 32.816 35.5649 31.952C35.5649 31.088 35.7302 30.3467 36.0609 29.728C36.4022 29.0987 36.8769 28.6133 37.4849 28.272C38.0929 27.9307 38.8129 27.76 39.6449 27.76C40.4769 27.76 41.1969 27.9307 41.8049 28.272C42.4235 28.6133 42.8982 29.0987 43.2289 29.728C43.5702 30.3467 43.7409 31.088 43.7409 31.952C43.7409 32.816 43.5702 33.5627 43.2289 34.192C42.8982 34.8213 42.4235 35.3067 41.8049 35.648C41.1969 35.9893 40.4769 36.16 39.6449 36.16ZM39.6449 34.624C40.2742 34.624 40.7755 34.4053 41.1489 33.968C41.5222 33.52 41.7089 32.848 41.7089 31.952C41.7089 31.056 41.5222 30.3893 41.1489 29.952C40.7755 29.5147 40.2742 29.296 39.6449 29.296C39.0155 29.296 38.5142 29.5147 38.1409 29.952C37.7675 30.3893 37.5809 31.056 37.5809 31.952C37.5809 32.848 37.7675 33.52 38.1409 33.968C38.5142 34.4053 39.0155 34.624 39.6449 34.624ZM44.2957 36L48.0558 31.376V32.288L44.5038 27.92H46.8718L49.1918 30.912H48.4718L50.7918 27.92H53.1438L49.6238 32.288V31.376L53.3678 36H50.9838L48.4718 32.784H49.1918L46.6638 36H44.2957ZM54.5594 39.456V29.936C54.5594 29.6053 54.5487 29.2693 54.5274 28.928C54.506 28.5867 54.474 28.2507 54.4314 27.92H56.3674L56.5434 29.616H56.3674C56.5274 29.0507 56.8634 28.6027 57.3754 28.272C57.898 27.9307 58.5007 27.76 59.1834 27.76C59.898 27.76 60.522 27.9307 61.0554 28.272C61.5887 28.6027 62.0047 29.0827 62.3034 29.712C62.602 30.3307 62.7514 31.0773 62.7514 31.952C62.7514 32.8267 62.602 33.5787 62.3034 34.208C62.0047 34.8373 61.5887 35.3227 61.0554 35.664C60.522 35.9947 59.898 36.16 59.1834 36.16C58.5114 36.16 57.9194 35.9947 57.4074 35.664C56.8954 35.3333 56.554 34.8907 56.3834 34.336H56.5594V39.456H54.5594ZM58.6234 34.624C59.2634 34.624 59.7754 34.4053 60.1594 33.968C60.5434 33.52 60.7354 32.848 60.7354 31.952C60.7354 31.056 60.5434 30.3893 60.1594 29.952C59.7754 29.5147 59.2634 29.296 58.6234 29.296C57.994 29.296 57.4874 29.5147 57.1034 29.952C56.7194 30.3893 56.5274 31.056 56.5274 31.952C56.5274 32.848 56.7194 33.52 57.1034 33.968C57.4874 34.4053 57.994 34.624 58.6234 34.624ZM67.82 36.16C67.116 36.16 66.4973 35.9947 65.964 35.664C65.4307 35.3227 65.0147 34.8373 64.716 34.208C64.4173 33.5787 64.268 32.8267 64.268 31.952C64.268 31.0773 64.4173 30.3307 64.716 29.712C65.0147 29.0827 65.4307 28.6027 65.964 28.272C66.4973 27.9307 67.116 27.76 67.82 27.76C68.5027 27.76 69.1 27.9307 69.612 28.272C70.1347 28.6027 70.4813 29.0507 70.652 29.616H70.476L70.652 27.92H72.572C72.54 28.2507 72.508 28.5867 72.476 28.928C72.4547 29.2693 72.444 29.6053 72.444 29.936V36H70.46L70.444 34.336H70.636C70.4653 34.8907 70.1187 35.3333 69.596 35.664C69.0733 35.9947 68.4813 36.16 67.82 36.16ZM68.38 34.624C69.0093 34.624 69.516 34.4053 69.9 33.968C70.284 33.52 70.476 32.848 70.476 31.952C70.476 31.056 70.284 30.3893 69.9 29.952C69.516 29.5147 69.0093 29.296 68.38 29.296C67.7507 29.296 67.244 29.5147 66.86 29.952C66.476 30.3893 66.284 31.056 66.284 31.952C66.284 32.848 66.4707 33.52 66.844 33.968C67.228 34.4053 67.74 34.624 68.38 34.624ZM74.7766 36V27.92H76.7606V31.088H80.4086V27.92H82.3926V36H80.4086V32.624H76.7606V36H74.7766ZM84.6673 36V27.92H86.4753V34.032H85.9953L90.5873 27.92H92.2353V36H90.4273V29.872H90.9233L86.3153 36H84.6673ZM96.255 36V29.488H93.487V27.92H101.023V29.488H98.239V36H96.255ZM102.261 36V27.92H104.245V30.624H106.373C107.45 30.624 108.261 30.8533 108.805 31.312C109.349 31.76 109.621 32.4107 109.621 33.264C109.621 33.8187 109.493 34.304 109.237 34.72C108.981 35.1253 108.608 35.44 108.117 35.664C107.637 35.888 107.056 36 106.373 36H102.261ZM104.245 34.688H106.101C106.645 34.688 107.061 34.576 107.349 34.352C107.637 34.1173 107.781 33.7653 107.781 33.296C107.781 32.8267 107.637 32.4853 107.349 32.272C107.072 32.048 106.656 31.936 106.101 31.936H104.245V34.688Z" fill="#5329FF"/>
</svg>
