<svg width="24" height="16" viewBox="0 0 24 16" fill="none" xmlns="http://www.w3.org/2000/svg">
<path fill-rule="evenodd" clip-rule="evenodd" d="M4.99264 0.46967C5.28553 0.176777 5.76041 0.176777 6.0533 0.46967L10.8263 5.24264C11.1192 5.53553 11.1192 6.01041 10.8263 6.3033C10.5334 6.59619 10.0585 6.59619 9.76561 6.3033L6.27297 2.81066V14.5H4.77297V2.81066L1.28033 6.3033C0.987437 6.59619 0.512563 6.59619 0.21967 6.3033C-0.0732234 6.01041 -0.0732234 5.53553 0.21967 5.24264L4.99264 0.46967Z" fill="#8C8C8C"/>
<path fill-rule="evenodd" clip-rule="evenodd" d="M16.773 13.1893V1.5H18.273V13.1893L21.7656 9.6967C22.0585 9.40381 22.5334 9.40381 22.8263 9.6967C23.1192 9.98959 23.1192 10.4645 22.8263 10.7574L18.0533 15.5303C17.7604 15.8232 17.2855 15.8232 16.9926 15.5303L12.2197 10.7574C11.9268 10.4645 11.9268 9.98959 12.2197 9.6967C12.5126 9.40381 12.9874 9.40381 13.2803 9.6967L16.773 13.1893Z" fill="#8C8C8C"/>
</svg>
