<svg width="581" height="63" viewBox="0 0 581 63" fill="none" xmlns="http://www.w3.org/2000/svg">
<rect width="581" height="63" rx="8" fill="#5329FF"/>
<path d="M253.562 31.646C253.562 30.314 253.796 29.162 254.264 28.19C254.732 27.218 255.41 26.468 256.298 25.94C257.198 25.412 258.266 25.148 259.502 25.148C260.726 25.148 261.782 25.412 262.67 25.94C263.558 26.468 264.242 27.218 264.722 28.19C265.214 29.162 265.46 30.308 265.46 31.628C265.46 32.96 265.214 34.118 264.722 35.102C264.242 36.074 263.552 36.83 262.652 37.37C261.764 37.898 260.714 38.162 259.502 38.162C258.266 38.162 257.204 37.898 256.316 37.37C255.428 36.83 254.744 36.074 254.264 35.102C253.796 34.118 253.562 32.966 253.562 31.646ZM255.524 31.646C255.524 33.182 255.86 34.382 256.532 35.246C257.204 36.11 258.194 36.542 259.502 36.542C260.774 36.542 261.758 36.116 262.454 35.264C263.15 34.4 263.498 33.194 263.498 31.646C263.498 30.098 263.15 28.898 262.454 28.046C261.77 27.194 260.786 26.768 259.502 26.768C258.194 26.768 257.204 27.194 256.532 28.046C255.86 28.898 255.524 30.098 255.524 31.646ZM269.839 38V30.386H266.635V28.928H274.861V30.386H271.639V38H269.839ZM276.315 38V28.928H278.115V32.636H279.681L282.507 28.928H284.487L281.103 33.392L280.653 32.816C281.001 32.852 281.301 32.942 281.553 33.086C281.805 33.218 282.051 33.416 282.291 33.68C282.531 33.944 282.777 34.292 283.029 34.724L284.919 38H282.975L281.355 35.228C281.175 34.916 281.001 34.676 280.833 34.508C280.665 34.328 280.473 34.208 280.257 34.148C280.041 34.076 279.777 34.04 279.465 34.04H278.115V38H276.315ZM286.319 41.888V31.106C286.319 30.758 286.301 30.404 286.265 30.044C286.241 29.672 286.211 29.3 286.175 28.928H287.939L288.119 30.98H287.921C288.113 30.296 288.497 29.756 289.073 29.36C289.661 28.964 290.357 28.766 291.161 28.766C291.965 28.766 292.667 28.958 293.267 29.342C293.867 29.714 294.329 30.248 294.653 30.944C294.989 31.64 295.157 32.48 295.157 33.464C295.157 34.436 294.989 35.276 294.653 35.984C294.329 36.692 293.867 37.232 293.267 37.604C292.667 37.976 291.965 38.162 291.161 38.162C290.369 38.162 289.679 37.97 289.091 37.586C288.515 37.19 288.131 36.656 287.939 35.984H288.137V41.888H286.319ZM290.711 36.74C291.503 36.74 292.133 36.464 292.601 35.912C293.081 35.36 293.321 34.544 293.321 33.464C293.321 32.384 293.081 31.574 292.601 31.034C292.133 30.482 291.503 30.206 290.711 30.206C289.919 30.206 289.283 30.482 288.803 31.034C288.335 31.574 288.101 32.384 288.101 33.464C288.101 34.544 288.335 35.36 288.803 35.912C289.283 36.464 289.919 36.74 290.711 36.74ZM297.427 38V28.928H299.227V32.096H301.801C302.989 32.096 303.883 32.348 304.483 32.852C305.083 33.344 305.383 34.064 305.383 35.012C305.383 35.624 305.245 36.158 304.969 36.614C304.693 37.058 304.285 37.4 303.745 37.64C303.217 37.88 302.569 38 301.801 38H297.427ZM299.227 36.758H301.603C302.287 36.758 302.803 36.62 303.151 36.344C303.511 36.056 303.691 35.618 303.691 35.03C303.691 34.442 303.511 34.016 303.151 33.752C302.803 33.476 302.287 33.338 301.603 33.338H299.227V36.758ZM306.661 38V28.928H308.461V38H306.661ZM313.117 38V30.386H309.913V28.928H318.139V30.386H314.917V38H313.117ZM319.593 38V28.928H321.393V32.096H323.967C325.155 32.096 326.049 32.348 326.649 32.852C327.249 33.344 327.549 34.064 327.549 35.012C327.549 35.624 327.411 36.158 327.135 36.614C326.859 37.058 326.451 37.4 325.911 37.64C325.383 37.88 324.735 38 323.967 38H319.593ZM321.393 36.758H323.769C324.441 36.758 324.957 36.62 325.317 36.344C325.677 36.056 325.857 35.618 325.857 35.03C325.857 34.442 325.677 34.016 325.317 33.752C324.969 33.476 324.453 33.338 323.769 33.338H321.393V36.758Z" fill="white"/>
</svg>
