<svg width="611" height="143" viewBox="0 0 611 143" fill="none" xmlns="http://www.w3.org/2000/svg">
<path fillRule="evenodd" clipRule="evenodd" d="M611 20C611 8.95431 602.046 0 591 0H130C118.954 0 110 8.95431 110 20V40C110 51.0457 101.046 60 90 60H20C8.95431 60 0 68.9543 0 80V123C0 134.046 8.95429 143 20 143H591C602.046 143 611 134.046 611 123V20Z" fill="black" fillOpacity="0.03"/>
<rect width="99.0385" height="50" rx="15" fill="#5329FF" fillOpacity="0.1"/>
<path d="M28.0573 31.2C27.084 31.2 26.1507 31.06 25.2573 30.78C24.364 30.4867 23.6307 30.0867 23.0573 29.58L23.8973 27.64C24.524 28.12 25.1707 28.4733 25.8373 28.7C26.5173 28.9267 27.2307 29.04 27.9773 29.04C28.884 29.04 29.5707 28.86 30.0373 28.5C30.504 28.14 30.7373 27.6133 30.7373 26.92C30.7373 26.2533 30.504 25.7533 30.0373 25.42C29.584 25.0733 28.9173 24.9 28.0373 24.9H25.7573V22.84H27.8173C28.5773 22.84 29.184 22.6533 29.6373 22.28C30.0907 21.9067 30.3173 21.3933 30.3173 20.74C30.3173 20.1267 30.104 19.66 29.6773 19.34C29.264 19.02 28.664 18.86 27.8773 18.86C26.464 18.86 25.2173 19.34 24.1373 20.3L23.2973 18.38C23.8707 17.8467 24.5773 17.4333 25.4173 17.14C26.2707 16.8467 27.164 16.7 28.0973 16.7C29.564 16.7 30.7107 17.0333 31.5373 17.7C32.3773 18.3533 32.7973 19.2667 32.7973 20.44C32.7973 21.28 32.5573 22.0067 32.0773 22.62C31.6107 23.22 30.964 23.62 30.1373 23.82V23.58C31.1107 23.74 31.864 24.14 32.3973 24.78C32.944 25.4067 33.2173 26.1933 33.2173 27.14C33.2173 28.3933 32.7573 29.3867 31.8373 30.12C30.9173 30.84 29.6573 31.2 28.0573 31.2ZM41.1778 31V20.9H43.5178V29.08H47.0778V20.9H49.3978V29.08H52.9578V20.9H55.2978V31H41.1778ZM62.1109 31.2C61.2309 31.2 60.4576 30.9933 59.7909 30.58C59.1243 30.1533 58.6043 29.5467 58.2309 28.76C57.8576 27.9733 57.6709 27.0333 57.6709 25.94C57.6709 24.8467 57.8576 23.9133 58.2309 23.14C58.6043 22.3533 59.1243 21.7533 59.7909 21.34C60.4576 20.9133 61.2309 20.7 62.1109 20.7C62.9643 20.7 63.7109 20.9133 64.3509 21.34C65.0043 21.7533 65.4376 22.3133 65.6509 23.02H65.4309L65.6509 20.9H68.0509C68.0109 21.3133 67.9709 21.7333 67.9309 22.16C67.9043 22.5867 67.8909 23.0067 67.8909 23.42V31H65.4109L65.3909 28.92H65.6309C65.4176 29.6133 64.9843 30.1667 64.3309 30.58C63.6776 30.9933 62.9376 31.2 62.1109 31.2ZM62.8109 29.28C63.5976 29.28 64.2309 29.0067 64.7109 28.46C65.1909 27.9 65.4309 27.06 65.4309 25.94C65.4309 24.82 65.1909 23.9867 64.7109 23.44C64.2309 22.8933 63.5976 22.62 62.8109 22.62C62.0243 22.62 61.3909 22.8933 60.9109 23.44C60.4309 23.9867 60.1909 24.82 60.1909 25.94C60.1909 27.06 60.4243 27.9 60.8909 28.46C61.3709 29.0067 62.0109 29.28 62.8109 29.28ZM70.8067 31V20.9H78.3867V22.86H73.3067V31H70.8067Z" fill="#5329FF"/>
<path d="M19.56 93V78.9H31.9V93H29.34V81H22.1V93H19.56ZM39.8292 93.2C38.1359 93.2 36.8092 92.7333 35.8492 91.8C34.8892 90.8667 34.4092 89.5867 34.4092 87.96C34.4092 86.9067 34.6159 85.9867 35.0292 85.2C35.4426 84.4133 36.0159 83.8 36.7492 83.36C37.4959 82.92 38.3626 82.7 39.3492 82.7C40.3226 82.7 41.1359 82.9067 41.7892 83.32C42.4426 83.7333 42.9359 84.3133 43.2692 85.06C43.6159 85.8067 43.7892 86.68 43.7892 87.68V88.34H36.4292V87.02H42.0092L41.6692 87.3C41.6692 86.3667 41.4692 85.6533 41.0692 85.16C40.6826 84.6667 40.1159 84.42 39.3692 84.42C38.5426 84.42 37.9026 84.7133 37.4492 85.3C37.0092 85.8867 36.7892 86.7067 36.7892 87.76V88.02C36.7892 89.1133 37.0559 89.9333 37.5892 90.48C38.1359 91.0133 38.9026 91.28 39.8892 91.28C40.4626 91.28 40.9959 91.2067 41.4892 91.06C41.9959 90.9 42.4759 90.6467 42.9292 90.3L43.6692 91.98C43.1892 92.3667 42.6159 92.6667 41.9492 92.88C41.2826 93.0933 40.5759 93.2 39.8292 93.2ZM46.1797 97.32V85.42C46.1797 85.0067 46.1664 84.5867 46.1397 84.16C46.113 83.7333 46.073 83.3133 46.0197 82.9H48.4397L48.6597 85.02H48.4397C48.6397 84.3133 49.0597 83.7533 49.6997 83.34C50.353 82.9133 51.1064 82.7 51.9597 82.7C52.853 82.7 53.633 82.9133 54.2997 83.34C54.9664 83.7533 55.4864 84.3533 55.8597 85.14C56.233 85.9133 56.4197 86.8467 56.4197 87.94C56.4197 89.0333 56.233 89.9733 55.8597 90.76C55.4864 91.5467 54.9664 92.1533 54.2997 92.58C53.633 92.9933 52.853 93.2 51.9597 93.2C51.1197 93.2 50.3797 92.9933 49.7397 92.58C49.0997 92.1667 48.673 91.6133 48.4597 90.92H48.6797V97.32H46.1797ZM51.2597 91.28C52.0597 91.28 52.6997 91.0067 53.1797 90.46C53.6597 89.9 53.8997 89.06 53.8997 87.94C53.8997 86.82 53.6597 85.9867 53.1797 85.44C52.6997 84.8933 52.0597 84.62 51.2597 84.62C50.473 84.62 49.8397 84.8933 49.3597 85.44C48.8797 85.9867 48.6397 86.82 48.6397 87.94C48.6397 89.06 48.8797 89.9 49.3597 90.46C49.8397 91.0067 50.473 91.28 51.2597 91.28ZM63.7355 93.2C62.0421 93.2 60.7155 92.7333 59.7555 91.8C58.7955 90.8667 58.3155 89.5867 58.3155 87.96C58.3155 86.9067 58.5221 85.9867 58.9355 85.2C59.3488 84.4133 59.9221 83.8 60.6555 83.36C61.4021 82.92 62.2688 82.7 63.2555 82.7C64.2288 82.7 65.0421 82.9067 65.6955 83.32C66.3488 83.7333 66.8421 84.3133 67.1755 85.06C67.5221 85.8067 67.6955 86.68 67.6955 87.68V88.34H60.3355V87.02H65.9155L65.5755 87.3C65.5755 86.3667 65.3755 85.6533 64.9755 85.16C64.5888 84.6667 64.0221 84.42 63.2755 84.42C62.4488 84.42 61.8088 84.7133 61.3555 85.3C60.9155 85.8867 60.6955 86.7067 60.6955 87.76V88.02C60.6955 89.1133 60.9621 89.9333 61.4955 90.48C62.0421 91.0133 62.8088 91.28 63.7955 91.28C64.3688 91.28 64.9021 91.2067 65.3955 91.06C65.9021 90.9 66.3821 90.6467 66.8355 90.3L67.5755 91.98C67.0955 92.3667 66.5221 92.6667 65.8555 92.88C65.1888 93.0933 64.4821 93.2 63.7355 93.2ZM68.3306 93L73.0306 87.22V88.36L68.5906 82.9H71.5506L74.4506 86.64H73.5506L76.4506 82.9H79.3906L74.9906 88.36V87.22L79.6706 93H76.6906L73.5506 88.98H74.4506L71.2906 93H68.3306ZM85.5248 93.2C84.4848 93.2 83.5848 92.9867 82.8248 92.56C82.0648 92.1333 81.4715 91.5267 81.0448 90.74C80.6315 89.9533 80.4248 89.02 80.4248 87.94C80.4248 86.86 80.6315 85.9333 81.0448 85.16C81.4715 84.3733 82.0648 83.7667 82.8248 83.34C83.5848 82.9133 84.4848 82.7 85.5248 82.7C86.5648 82.7 87.4648 82.9133 88.2248 83.34C88.9982 83.7667 89.5915 84.3733 90.0048 85.16C90.4315 85.9333 90.6448 86.86 90.6448 87.94C90.6448 89.02 90.4315 89.9533 90.0048 90.74C89.5915 91.5267 88.9982 92.1333 88.2248 92.56C87.4648 92.9867 86.5648 93.2 85.5248 93.2ZM85.5248 91.28C86.3115 91.28 86.9382 91.0067 87.4048 90.46C87.8715 89.9 88.1048 89.06 88.1048 87.94C88.1048 86.82 87.8715 85.9867 87.4048 85.44C86.9382 84.8933 86.3115 84.62 85.5248 84.62C84.7382 84.62 84.1115 84.8933 83.6448 85.44C83.1782 85.9867 82.9448 86.82 82.9448 87.94C82.9448 89.06 83.1782 89.9 83.6448 90.46C84.1115 91.0067 84.7382 91.28 85.5248 91.28ZM92.1138 95.6V91.1H93.2738C93.6738 90.4733 93.9604 89.74 94.1338 88.9C94.3204 88.0467 94.4138 87.0067 94.4138 85.78V82.9H102.194V91.1H103.834V95.6H101.714V93H94.2337V95.6H92.1138ZM95.5138 91.12H99.8538V84.78H96.5338V86.34C96.5338 87.2333 96.4471 88.1067 96.2738 88.96C96.1004 89.8133 95.8471 90.5333 95.5138 91.12ZM105.67 93V82.9H107.93V90.54H107.33L113.07 82.9H115.13V93H112.87V85.34H113.49L107.73 93H105.67ZM120.155 93V84.86H116.695V82.9H126.115V84.86H122.635V93H120.155ZM132.525 93.2C130.831 93.2 129.505 92.7333 128.545 91.8C127.585 90.8667 127.105 89.5867 127.105 87.96C127.105 86.9067 127.311 85.9867 127.725 85.2C128.138 84.4133 128.711 83.8 129.445 83.36C130.191 82.92 131.058 82.7 132.045 82.7C133.018 82.7 133.831 82.9067 134.485 83.32C135.138 83.7333 135.631 84.3133 135.965 85.06C136.311 85.8067 136.485 86.68 136.485 87.68V88.34H129.125V87.02H134.705L134.365 87.3C134.365 86.3667 134.165 85.6533 133.765 85.16C133.378 84.6667 132.811 84.42 132.065 84.42C131.238 84.42 130.598 84.7133 130.145 85.3C129.705 85.8867 129.485 86.7067 129.485 87.76V88.02C129.485 89.1133 129.751 89.9333 130.285 90.48C130.831 91.0133 131.598 91.28 132.585 91.28C133.158 91.28 133.691 91.2067 134.185 91.06C134.691 90.9 135.171 90.6467 135.625 90.3L136.365 91.98C135.885 92.3667 135.311 92.6667 134.645 92.88C133.978 93.0933 133.271 93.2 132.525 93.2ZM144.283 93V82.9H146.763V86.86H151.323V82.9H153.803V93H151.323V88.78H146.763V93H144.283ZM160.627 93.2C159.747 93.2 158.973 92.9933 158.307 92.58C157.64 92.1533 157.12 91.5467 156.747 90.76C156.373 89.9733 156.187 89.0333 156.187 87.94C156.187 86.8467 156.373 85.9133 156.747 85.14C157.12 84.3533 157.64 83.7533 158.307 83.34C158.973 82.9133 159.747 82.7 160.627 82.7C161.48 82.7 162.227 82.9133 162.867 83.34C163.52 83.7533 163.953 84.3133 164.167 85.02H163.947L164.167 82.9H166.567C166.527 83.3133 166.487 83.7333 166.447 84.16C166.42 84.5867 166.407 85.0067 166.407 85.42V93H163.927L163.907 90.92H164.147C163.933 91.6133 163.5 92.1667 162.847 92.58C162.193 92.9933 161.453 93.2 160.627 93.2ZM161.327 91.28C162.113 91.28 162.747 91.0067 163.227 90.46C163.707 89.9 163.947 89.06 163.947 87.94C163.947 86.82 163.707 85.9867 163.227 85.44C162.747 84.8933 162.113 84.62 161.327 84.62C160.54 84.62 159.907 84.8933 159.427 85.44C158.947 85.9867 158.707 86.82 158.707 87.94C158.707 89.06 158.94 89.9 159.407 90.46C159.887 91.0067 160.527 91.28 161.327 91.28ZM174.551 93.28L173.771 91.32C174.211 91.16 174.577 90.9533 174.871 90.7C175.177 90.4333 175.417 90.1 175.591 89.7C175.777 89.2867 175.911 88.78 175.991 88.18C176.071 87.5667 176.111 86.84 176.111 86V82.9H184.151V93H181.671V84.82H178.391V86.08C178.391 87.5333 178.257 88.7533 177.991 89.74C177.724 90.7133 177.311 91.4867 176.751 92.06C176.191 92.6333 175.457 93.04 174.551 93.28ZM196.198 93.2C194.798 93.2 193.651 92.8133 192.758 92.04C191.878 91.2533 191.351 90.1667 191.178 88.78H189.438V93H186.998V82.9H189.438V86.86H191.198C191.411 85.5533 191.958 84.5333 192.838 83.8C193.718 83.0667 194.838 82.7 196.198 82.7C197.238 82.7 198.138 82.9133 198.898 83.34C199.671 83.7533 200.265 84.3533 200.678 85.14C201.105 85.9133 201.318 86.8467 201.318 87.94C201.318 89.02 201.105 89.9533 200.678 90.74C200.265 91.5267 199.671 92.1333 198.898 92.56C198.138 92.9867 197.238 93.2 196.198 93.2ZM196.198 91.3C196.985 91.3 197.618 91.0267 198.098 90.48C198.578 89.92 198.818 89.0733 198.818 87.94C198.818 86.82 198.578 85.9867 198.098 85.44C197.618 84.88 196.985 84.6 196.198 84.6C195.398 84.6 194.758 84.88 194.278 85.44C193.811 85.9867 193.578 86.82 193.578 87.94C193.578 89.0733 193.811 89.92 194.278 90.48C194.758 91.0267 195.398 91.3 196.198 91.3ZM208.418 93.2C206.831 93.2 205.564 92.72 204.618 91.76C203.684 90.8 203.218 89.3933 203.218 87.54V85.82C203.218 83.9133 203.651 82.38 204.518 81.22C205.384 80.06 206.691 79.2933 208.438 78.92L212.138 78.08L212.818 80.04L208.658 80.96C207.964 81.1067 207.391 81.3867 206.938 81.8C206.484 82.2 206.144 82.68 205.918 83.24C205.691 83.8 205.578 84.4 205.578 85.04V86.1H205.238C205.384 85.5 205.631 84.98 205.978 84.54C206.324 84.0867 206.764 83.7333 207.298 83.48C207.831 83.2267 208.438 83.1 209.118 83.1C209.971 83.1 210.718 83.3 211.358 83.7C212.011 84.0867 212.524 84.6533 212.898 85.4C213.271 86.1333 213.458 87.0133 213.458 88.04C213.458 89.0933 213.244 90.0067 212.818 90.78C212.404 91.5533 211.818 92.1533 211.058 92.58C210.311 92.9933 209.431 93.2 208.418 93.2ZM208.338 91.3C209.164 91.3 209.804 91.04 210.258 90.52C210.724 89.9867 210.958 89.1933 210.958 88.14C210.958 87.1133 210.724 86.3333 210.258 85.8C209.791 85.2533 209.151 84.98 208.338 84.98C207.524 84.98 206.884 85.2467 206.418 85.78C205.951 86.3133 205.718 87.0733 205.718 88.06C205.718 89.14 205.951 89.9533 206.418 90.5C206.884 91.0333 207.524 91.3 208.338 91.3ZM215.55 97.54L214.97 95.56C215.597 95.4267 216.123 95.2733 216.55 95.1C216.977 94.9267 217.33 94.7 217.61 94.42C217.89 94.14 218.123 93.78 218.31 93.34L218.81 92.16L218.75 93.14L214.35 82.9H217.01L220.17 90.78H219.59L222.77 82.9H225.29L220.69 93.56C220.383 94.28 220.05 94.8733 219.69 95.34C219.33 95.82 218.943 96.2 218.53 96.48C218.117 96.7733 217.663 97 217.17 97.16C216.677 97.32 216.137 97.4467 215.55 97.54ZM236.003 93.2C234.603 93.2 233.456 92.8133 232.563 92.04C231.683 91.2533 231.156 90.1667 230.983 88.78H229.243V93H226.803V82.9H229.243V86.86H231.003C231.216 85.5533 231.763 84.5333 232.643 83.8C233.523 83.0667 234.643 82.7 236.003 82.7C237.043 82.7 237.943 82.9133 238.703 83.34C239.476 83.7533 240.069 84.3533 240.483 85.14C240.909 85.9133 241.123 86.8467 241.123 87.94C241.123 89.02 240.909 89.9533 240.483 90.74C240.069 91.5267 239.476 92.1333 238.703 92.56C237.943 92.9867 237.043 93.2 236.003 93.2ZM236.003 91.3C236.789 91.3 237.423 91.0267 237.903 90.48C238.383 89.92 238.623 89.0733 238.623 87.94C238.623 86.82 238.383 85.9867 237.903 85.44C237.423 84.88 236.789 84.6 236.003 84.6C235.203 84.6 234.563 84.88 234.083 85.44C233.616 85.9867 233.383 86.82 233.383 87.94C233.383 89.0733 233.616 89.92 234.083 90.48C234.563 91.0267 235.203 91.3 236.003 91.3ZM253.691 93.2C252.651 93.2 251.737 92.9867 250.951 92.56C250.177 92.1333 249.577 91.5267 249.151 90.74C248.724 89.94 248.511 88.9933 248.511 87.9C248.511 86.8067 248.724 85.8733 249.151 85.1C249.591 84.3267 250.197 83.7333 250.971 83.32C251.744 82.9067 252.651 82.7 253.691 82.7C254.357 82.7 255.004 82.8067 255.631 83.02C256.271 83.22 256.791 83.5133 257.191 83.9L256.431 85.64C256.071 85.3067 255.664 85.06 255.211 84.9C254.771 84.7267 254.337 84.64 253.911 84.64C253.017 84.64 252.317 84.92 251.811 85.48C251.317 86.04 251.071 86.8533 251.071 87.92C251.071 88.9867 251.317 89.8067 251.811 90.38C252.317 90.9533 253.017 91.24 253.911 91.24C254.324 91.24 254.751 91.16 255.191 91C255.644 90.84 256.057 90.5933 256.431 90.26L257.191 91.98C256.777 92.3667 256.251 92.6667 255.611 92.88C254.984 93.0933 254.344 93.2 253.691 93.2ZM261.502 93V84.86H258.042V82.9H267.462V84.86H263.982V93H261.502ZM269.09 97.32V85.42C269.09 85.0067 269.077 84.5867 269.05 84.16C269.023 83.7333 268.983 83.3133 268.93 82.9H271.35L271.57 85.02H271.35C271.55 84.3133 271.97 83.7533 272.61 83.34C273.263 82.9133 274.017 82.7 274.87 82.7C275.763 82.7 276.543 82.9133 277.21 83.34C277.877 83.7533 278.397 84.3533 278.77 85.14C279.143 85.9133 279.33 86.8467 279.33 87.94C279.33 89.0333 279.143 89.9733 278.77 90.76C278.397 91.5467 277.877 92.1533 277.21 92.58C276.543 92.9933 275.763 93.2 274.87 93.2C274.03 93.2 273.29 92.9933 272.65 92.58C272.01 92.1667 271.583 91.6133 271.37 90.92H271.59V97.32H269.09ZM274.17 91.28C274.97 91.28 275.61 91.0067 276.09 90.46C276.57 89.9 276.81 89.06 276.81 87.94C276.81 86.82 276.57 85.9867 276.09 85.44C275.61 84.8933 274.97 84.62 274.17 84.62C273.383 84.62 272.75 84.8933 272.27 85.44C271.79 85.9867 271.55 86.82 271.55 87.94C271.55 89.06 271.79 89.9 272.27 90.46C272.75 91.0067 273.383 91.28 274.17 91.28ZM285.666 93.2C284.786 93.2 284.012 92.9933 283.346 92.58C282.679 92.1533 282.159 91.5467 281.786 90.76C281.412 89.9733 281.226 89.0333 281.226 87.94C281.226 86.8467 281.412 85.9133 281.786 85.14C282.159 84.3533 282.679 83.7533 283.346 83.34C284.012 82.9133 284.786 82.7 285.666 82.7C286.519 82.7 287.266 82.9133 287.906 83.34C288.559 83.7533 288.992 84.3133 289.206 85.02H288.986L289.206 82.9H291.606C291.566 83.3133 291.526 83.7333 291.486 84.16C291.459 84.5867 291.446 85.0067 291.446 85.42V93H288.966L288.946 90.92H289.186C288.972 91.6133 288.539 92.1667 287.886 92.58C287.232 92.9933 286.492 93.2 285.666 93.2ZM286.366 91.28C287.152 91.28 287.786 91.0067 288.266 90.46C288.746 89.9 288.986 89.06 288.986 87.94C288.986 86.82 288.746 85.9867 288.266 85.44C287.786 84.8933 287.152 84.62 286.366 84.62C285.579 84.62 284.946 84.8933 284.466 85.44C283.986 85.9867 283.746 86.82 283.746 87.94C283.746 89.06 283.979 89.9 284.446 90.46C284.926 91.0067 285.566 91.28 286.366 91.28ZM294.361 93V82.9H296.841V86.86H301.401V82.9H303.881V93H301.401V88.78H296.841V93H294.361ZM306.725 93V82.9H308.985V90.54H308.385L314.125 82.9H316.185V93H313.925V85.34H314.545L308.785 93H306.725ZM327.789 95.6V93H319.029V82.9H321.509V91.08H325.789V82.9H328.249V91.08H329.889V95.6H327.789ZM331.605 97.54L331.025 95.56C331.651 95.4267 332.178 95.2733 332.605 95.1C333.031 94.9267 333.385 94.7 333.665 94.42C333.945 94.14 334.178 93.78 334.365 93.34L334.865 92.16L334.805 93.14L330.405 82.9H333.065L336.225 90.78H335.645L338.825 82.9H341.345L336.745 93.56C336.438 94.28 336.105 94.8733 335.745 95.34C335.385 95.82 334.998 96.2 334.585 96.48C334.171 96.7733 333.718 97 333.225 97.16C332.731 97.32 332.191 97.4467 331.605 97.54ZM350.526 93V84.86H347.066V82.9H356.486V84.86H353.006V93H350.526ZM362.576 93.2C361.536 93.2 360.636 92.9867 359.876 92.56C359.116 92.1333 358.522 91.5267 358.096 90.74C357.682 89.9533 357.476 89.02 357.476 87.94C357.476 86.86 357.682 85.9333 358.096 85.16C358.522 84.3733 359.116 83.7667 359.876 83.34C360.636 82.9133 361.536 82.7 362.576 82.7C363.616 82.7 364.516 82.9133 365.276 83.34C366.049 83.7667 366.642 84.3733 367.056 85.16C367.482 85.9333 367.696 86.86 367.696 87.94C367.696 89.02 367.482 89.9533 367.056 90.74C366.642 91.5267 366.049 92.1333 365.276 92.56C364.516 92.9867 363.616 93.2 362.576 93.2ZM362.576 91.28C363.362 91.28 363.989 91.0067 364.456 90.46C364.922 89.9 365.156 89.06 365.156 87.94C365.156 86.82 364.922 85.9867 364.456 85.44C363.989 84.8933 363.362 84.62 362.576 84.62C361.789 84.62 361.162 84.8933 360.696 85.44C360.229 85.9867 359.996 86.82 359.996 87.94C359.996 89.06 360.229 89.9 360.696 90.46C361.162 91.0067 361.789 91.28 362.576 91.28ZM370.065 93V82.9H375.445C376.711 82.9 377.638 83.1333 378.225 83.6C378.811 84.0533 379.105 84.7 379.105 85.54C379.105 86.18 378.891 86.7133 378.465 87.14C378.038 87.5667 377.471 87.8333 376.765 87.94V87.66C377.631 87.7133 378.298 87.9667 378.765 88.42C379.231 88.8733 379.465 89.46 379.465 90.18C379.465 91.0467 379.131 91.7333 378.465 92.24C377.798 92.7467 376.851 93 375.625 93H370.065ZM372.385 91.46H375.365C375.951 91.46 376.398 91.34 376.705 91.1C377.025 90.86 377.185 90.5067 377.185 90.04C377.185 89.5733 377.025 89.22 376.705 88.98C376.398 88.74 375.951 88.62 375.365 88.62H372.385V91.46ZM372.385 87.08H375.145C375.678 87.08 376.091 86.9667 376.385 86.74C376.678 86.5 376.825 86.1667 376.825 85.74C376.825 85.3133 376.678 84.9867 376.385 84.76C376.091 84.5333 375.678 84.42 375.145 84.42H372.385V87.08ZM385.627 93.2C384.747 93.2 383.973 92.9933 383.307 92.58C382.64 92.1533 382.12 91.5467 381.747 90.76C381.373 89.9733 381.187 89.0333 381.187 87.94C381.187 86.8467 381.373 85.9133 381.747 85.14C382.12 84.3533 382.64 83.7533 383.307 83.34C383.973 82.9133 384.747 82.7 385.627 82.7C386.48 82.7 387.227 82.9133 387.867 83.34C388.52 83.7533 388.953 84.3133 389.167 85.02H388.947L389.167 82.9H391.567C391.527 83.3133 391.487 83.7333 391.447 84.16C391.42 84.5867 391.407 85.0067 391.407 85.42V93H388.927L388.907 90.92H389.147C388.933 91.6133 388.5 92.1667 387.847 92.58C387.193 92.9933 386.453 93.2 385.627 93.2ZM386.327 91.28C387.113 91.28 387.747 91.0067 388.227 90.46C388.707 89.9 388.947 89.06 388.947 87.94C388.947 86.82 388.707 85.9867 388.227 85.44C387.747 84.8933 387.113 84.62 386.327 84.62C385.54 84.62 384.907 84.8933 384.427 85.44C383.947 85.9867 383.707 86.82 383.707 87.94C383.707 89.06 383.94 89.9 384.407 90.46C384.887 91.0067 385.527 91.28 386.327 91.28ZM394.402 97.32V85.42C394.402 85.0067 394.389 84.5867 394.362 84.16C394.336 83.7333 394.296 83.3133 394.242 82.9H396.662L396.882 85.02H396.662C396.862 84.3133 397.282 83.7533 397.922 83.34C398.576 82.9133 399.329 82.7 400.182 82.7C401.076 82.7 401.856 82.9133 402.522 83.34C403.189 83.7533 403.709 84.3533 404.082 85.14C404.456 85.9133 404.642 86.8467 404.642 87.94C404.642 89.0333 404.456 89.9733 404.082 90.76C403.709 91.5467 403.189 92.1533 402.522 92.58C401.856 92.9933 401.076 93.2 400.182 93.2C399.342 93.2 398.602 92.9933 397.962 92.58C397.322 92.1667 396.896 91.6133 396.682 90.92H396.902V97.32H394.402ZM399.482 91.28C400.282 91.28 400.922 91.0067 401.402 90.46C401.882 89.9 402.122 89.06 402.122 87.94C402.122 86.82 401.882 85.9867 401.402 85.44C400.922 84.8933 400.282 84.62 399.482 84.62C398.696 84.62 398.062 84.8933 397.582 85.44C397.102 85.9867 396.862 86.82 396.862 87.94C396.862 89.06 397.102 89.9 397.582 90.46C398.062 91.0067 398.696 91.28 399.482 91.28ZM410.978 93.2C410.098 93.2 409.325 92.9933 408.658 92.58C407.991 92.1533 407.471 91.5467 407.098 90.76C406.725 89.9733 406.538 89.0333 406.538 87.94C406.538 86.8467 406.725 85.9133 407.098 85.14C407.471 84.3533 407.991 83.7533 408.658 83.34C409.325 82.9133 410.098 82.7 410.978 82.7C411.831 82.7 412.578 82.9133 413.218 83.34C413.871 83.7533 414.305 84.3133 414.518 85.02H414.298L414.518 82.9H416.918C416.878 83.3133 416.838 83.7333 416.798 84.16C416.771 84.5867 416.758 85.0067 416.758 85.42V93H414.278L414.258 90.92H414.498C414.285 91.6133 413.851 92.1667 413.198 92.58C412.545 92.9933 411.805 93.2 410.978 93.2ZM411.678 91.28C412.465 91.28 413.098 91.0067 413.578 90.46C414.058 89.9 414.298 89.06 414.298 87.94C414.298 86.82 414.058 85.9867 413.578 85.44C413.098 84.8933 412.465 84.62 411.678 84.62C410.891 84.62 410.258 84.8933 409.778 85.44C409.298 85.9867 409.058 86.82 409.058 87.94C409.058 89.06 409.291 89.9 409.758 90.46C410.238 91.0067 410.878 91.28 411.678 91.28ZM425.162 93V82.9H427.642V86.86H432.202V82.9H434.682V93H432.202V88.78H427.642V93H425.162ZM441.505 93.2C440.625 93.2 439.852 92.9933 439.185 92.58C438.519 92.1533 437.999 91.5467 437.625 90.76C437.252 89.9733 437.065 89.0333 437.065 87.94C437.065 86.8467 437.252 85.9133 437.625 85.14C437.999 84.3533 438.519 83.7533 439.185 83.34C439.852 82.9133 440.625 82.7 441.505 82.7C442.359 82.7 443.105 82.9133 443.745 83.34C444.399 83.7533 444.832 84.3133 445.045 85.02H444.825L445.045 82.9H447.445C447.405 83.3133 447.365 83.7333 447.325 84.16C447.299 84.5867 447.285 85.0067 447.285 85.42V93H444.805L444.785 90.92H445.025C444.812 91.6133 444.379 92.1667 443.725 92.58C443.072 92.9933 442.332 93.2 441.505 93.2ZM442.205 91.28C442.992 91.28 443.625 91.0067 444.105 90.46C444.585 89.9 444.825 89.06 444.825 87.94C444.825 86.82 444.585 85.9867 444.105 85.44C443.625 84.8933 442.992 84.62 442.205 84.62C441.419 84.62 440.785 84.8933 440.305 85.44C439.825 85.9867 439.585 86.82 439.585 87.94C439.585 89.06 439.819 89.9 440.285 90.46C440.765 91.0067 441.405 91.28 442.205 91.28ZM459.75 93L454.77 78.9H457.45L461.29 90.46H460.49L464.63 78.9H466.55L470.39 90.46H469.65L473.67 78.9H476.19L471.17 93H469.03L465.31 82.16H465.75L461.89 93H459.75ZM478.051 93V82.9H480.551V93H478.051ZM477.911 81V78.56H480.691V81H477.911ZM483.266 93V78.28H485.766V93H483.266ZM492.401 93.2C491.521 93.2 490.741 92.9933 490.061 92.58C489.394 92.1533 488.874 91.5467 488.501 90.76C488.128 89.9733 487.941 89.0333 487.941 87.94C487.941 86.8467 488.128 85.9133 488.501 85.14C488.874 84.3533 489.394 83.7533 490.061 83.34C490.741 82.9133 491.521 82.7 492.401 82.7C493.241 82.7 493.981 82.9067 494.621 83.32C495.274 83.72 495.708 84.2667 495.921 84.96H495.661V78.28H498.161V93H495.701V90.86H495.941C495.728 91.58 495.294 92.1533 494.641 92.58C494.001 92.9933 493.254 93.2 492.401 93.2ZM493.101 91.28C493.888 91.28 494.521 91.0067 495.001 90.46C495.481 89.9 495.721 89.06 495.721 87.94C495.721 86.82 495.481 85.9867 495.001 85.44C494.521 84.8933 493.888 84.62 493.101 84.62C492.314 84.62 491.674 84.8933 491.181 85.44C490.701 85.9867 490.461 86.82 490.461 87.94C490.461 89.06 490.701 89.9 491.181 90.46C491.674 91.0067 492.314 91.28 493.101 91.28ZM506.663 93.2C505.81 93.2 505.063 92.9933 504.423 92.58C503.783 92.1533 503.357 91.58 503.143 90.86H503.363V93H500.883V78.28H503.383V84.96H503.143C503.37 84.2667 503.803 83.72 504.443 83.32C505.083 82.9067 505.823 82.7 506.663 82.7C507.557 82.7 508.337 82.9133 509.003 83.34C509.67 83.7667 510.19 84.3733 510.563 85.16C510.937 85.9333 511.123 86.8667 511.123 87.96C511.123 89.0533 510.937 89.9933 510.563 90.78C510.19 91.5533 509.663 92.1533 508.983 92.58C508.317 92.9933 507.543 93.2 506.663 93.2ZM505.963 91.28C506.75 91.28 507.383 91.0067 507.863 90.46C508.357 89.9133 508.603 89.08 508.603 87.96C508.603 86.84 508.357 86.0067 507.863 85.46C507.383 84.9 506.75 84.62 505.963 84.62C505.177 84.62 504.543 84.8933 504.063 85.44C503.583 85.9867 503.343 86.82 503.343 87.94C503.343 89.06 503.583 89.9 504.063 90.46C504.543 91.0067 505.177 91.28 505.963 91.28ZM518.166 93.2C516.472 93.2 515.146 92.7333 514.186 91.8C513.226 90.8667 512.746 89.5867 512.746 87.96C512.746 86.9067 512.952 85.9867 513.366 85.2C513.779 84.4133 514.352 83.8 515.086 83.36C515.832 82.92 516.699 82.7 517.686 82.7C518.659 82.7 519.472 82.9067 520.126 83.32C520.779 83.7333 521.272 84.3133 521.606 85.06C521.952 85.8067 522.126 86.68 522.126 87.68V88.34H514.766V87.02H520.346L520.006 87.3C520.006 86.3667 519.806 85.6533 519.406 85.16C519.019 84.6667 518.452 84.42 517.706 84.42C516.879 84.42 516.239 84.7133 515.786 85.3C515.346 85.8867 515.126 86.7067 515.126 87.76V88.02C515.126 89.1133 515.392 89.9333 515.926 90.48C516.472 91.0133 517.239 91.28 518.226 91.28C518.799 91.28 519.332 91.2067 519.826 91.06C520.332 90.9 520.812 90.6467 521.266 90.3L522.006 91.98C521.526 92.3667 520.952 92.6667 520.286 92.88C519.619 93.0933 518.912 93.2 518.166 93.2ZM524.223 93V85.48C524.223 85.0533 524.209 84.62 524.183 84.18C524.169 83.74 524.136 83.3133 524.083 82.9H526.503L526.783 85.66H526.383C526.516 84.9933 526.736 84.44 527.043 84C527.363 83.56 527.749 83.2333 528.203 83.02C528.656 82.8067 529.149 82.7 529.683 82.7C529.923 82.7 530.116 82.7133 530.263 82.74C530.409 82.7533 530.556 82.7867 530.703 82.84L530.683 85.04C530.429 84.9333 530.209 84.8667 530.023 84.84C529.849 84.8133 529.629 84.8 529.363 84.8C528.789 84.8 528.303 84.92 527.903 85.16C527.516 85.4 527.223 85.7333 527.023 86.16C526.836 86.5867 526.743 87.0733 526.743 87.62V93H524.223ZM532.074 93V85.48C532.074 85.0533 532.061 84.62 532.034 84.18C532.021 83.74 531.988 83.3133 531.934 82.9H534.354L534.634 85.66H534.234C534.368 84.9933 534.588 84.44 534.894 84C535.214 83.56 535.601 83.2333 536.054 83.02C536.508 82.8067 537.001 82.7 537.534 82.7C537.774 82.7 537.968 82.7133 538.114 82.74C538.261 82.7533 538.408 82.7867 538.554 82.84L538.534 85.04C538.281 84.9333 538.061 84.8667 537.874 84.84C537.701 84.8133 537.481 84.8 537.214 84.8C536.641 84.8 536.154 84.92 535.754 85.16C535.368 85.4 535.074 85.7333 534.874 86.16C534.688 86.5867 534.594 87.0733 534.594 87.62V93H532.074ZM539.946 93V82.9H542.446V93H539.946ZM539.806 81V78.56H542.586V81H539.806ZM550.041 93.2C548.347 93.2 547.021 92.7333 546.061 91.8C545.101 90.8667 544.621 89.5867 544.621 87.96C544.621 86.9067 544.827 85.9867 545.241 85.2C545.654 84.4133 546.227 83.8 546.961 83.36C547.707 82.92 548.574 82.7 549.561 82.7C550.534 82.7 551.347 82.9067 552.001 83.32C552.654 83.7333 553.147 84.3133 553.481 85.06C553.827 85.8067 554.001 86.68 554.001 87.68V88.34H546.641V87.02H552.221L551.881 87.3C551.881 86.3667 551.681 85.6533 551.281 85.16C550.894 84.6667 550.327 84.42 549.581 84.42C548.754 84.42 548.114 84.7133 547.661 85.3C547.221 85.8867 547.001 86.7067 547.001 87.76V88.02C547.001 89.1133 547.267 89.9333 547.801 90.48C548.347 91.0133 549.114 91.28 550.101 91.28C550.674 91.28 551.207 91.2067 551.701 91.06C552.207 90.9 552.687 90.6467 553.141 90.3L553.881 91.98C553.401 92.3667 552.827 92.6667 552.161 92.88C551.494 93.0933 550.787 93.2 550.041 93.2ZM559.718 93.2C558.851 93.2 558.051 93.1 557.318 92.9C556.598 92.6867 555.991 92.3933 555.498 92.02L556.198 90.34C556.704 90.6867 557.264 90.9533 557.878 91.14C558.491 91.3267 559.111 91.42 559.738 91.42C560.404 91.42 560.898 91.3067 561.218 91.08C561.551 90.8533 561.718 90.5467 561.718 90.16C561.718 89.8533 561.611 89.6133 561.398 89.44C561.198 89.2533 560.871 89.1133 560.418 89.02L558.418 88.64C557.564 88.4533 556.911 88.1333 556.458 87.68C556.018 87.2267 555.798 86.6333 555.798 85.9C555.798 85.2733 555.964 84.72 556.298 84.24C556.644 83.76 557.131 83.3867 557.758 83.12C558.398 82.84 559.144 82.7 559.998 82.7C560.744 82.7 561.444 82.8 562.098 83C562.764 83.2 563.324 83.5 563.778 83.9L563.058 85.52C562.644 85.1867 562.171 84.9267 561.638 84.74C561.104 84.5533 560.584 84.46 560.078 84.46C559.384 84.46 558.878 84.5867 558.558 84.84C558.238 85.08 558.078 85.3933 558.078 85.78C558.078 86.0733 558.171 86.32 558.358 86.52C558.558 86.7067 558.864 86.8467 559.278 86.94L561.278 87.32C562.171 87.4933 562.844 87.8 563.298 88.24C563.764 88.6667 563.998 89.2533 563.998 90C563.998 90.6667 563.818 91.24 563.458 91.72C563.098 92.2 562.598 92.5667 561.958 92.82C561.318 93.0733 560.571 93.2 559.718 93.2ZM19.42 120V109.9H21.68V117.54H21.08L26.82 109.9H28.88V120H26.62V112.34H27.24L21.48 120H19.42ZM37.213 120V109.9H39.473V117.54H38.873L44.613 109.9H46.673V120H44.413V112.34H45.033L39.273 120H37.213ZM53.2377 120.2C52.331 120.2 51.4777 120.093 50.6777 119.88C49.891 119.667 49.231 119.36 48.6977 118.96L49.3977 117.32C49.891 117.68 50.4643 117.953 51.1177 118.14C51.7843 118.327 52.4843 118.42 53.2177 118.42C54.071 118.42 54.691 118.307 55.0777 118.08C55.4777 117.84 55.6777 117.493 55.6777 117.04C55.6777 116.613 55.5243 116.293 55.2177 116.08C54.911 115.853 54.4577 115.74 53.8577 115.74H51.2377V114.02H53.6177C54.1643 114.02 54.5843 113.913 54.8777 113.7C55.171 113.487 55.3177 113.187 55.3177 112.8C55.3177 112.387 55.1377 112.06 54.7777 111.82C54.431 111.58 53.8577 111.46 53.0577 111.46C52.3643 111.46 51.731 111.547 51.1577 111.72C50.5843 111.88 50.0443 112.12 49.5377 112.44L48.8577 110.88C49.4043 110.493 50.0643 110.2 50.8377 110C51.6243 109.8 52.4777 109.7 53.3977 109.7C54.7443 109.7 55.7777 109.947 56.4977 110.44C57.2177 110.933 57.5777 111.633 57.5777 112.54C57.5777 113.153 57.3643 113.68 56.9377 114.12C56.5243 114.56 55.9643 114.833 55.2577 114.94V114.66C56.0843 114.713 56.7377 114.96 57.2177 115.4C57.6977 115.84 57.9377 116.433 57.9377 117.18C57.9377 118.1 57.531 118.833 56.7177 119.38C55.9043 119.927 54.7443 120.2 53.2377 120.2ZM60.0031 124.54L59.4231 122.56C60.0498 122.427 60.5765 122.273 61.0031 122.1C61.4298 121.927 61.7831 121.7 62.0631 121.42C62.3431 121.14 62.5765 120.78 62.7631 120.34L63.2631 119.16L63.2031 120.14L58.8031 109.9H61.4631L64.6231 117.78H64.0431L67.2231 109.9H69.7431L65.1431 120.56C64.8365 121.28 64.5031 121.873 64.1431 122.34C63.7831 122.82 63.3965 123.2 62.9831 123.48C62.5698 123.773 62.1165 124 61.6231 124.16C61.1298 124.32 60.5898 124.447 60.0031 124.54ZM77.6759 120V116.32C77.3026 116.493 76.9159 116.627 76.5159 116.72C76.1159 116.813 75.6959 116.86 75.2559 116.86C73.7759 116.86 72.6693 116.507 71.9359 115.8C71.2159 115.093 70.8559 114.04 70.8559 112.64V109.9H73.3359V112.42C73.3359 113.273 73.5226 113.893 73.8959 114.28C74.2693 114.653 74.8693 114.84 75.6959 114.84C76.0826 114.84 76.4293 114.8 76.7359 114.72C77.0426 114.64 77.3359 114.513 77.6159 114.34V109.9H80.0959V120H77.6759ZM86.9156 120.2C86.0356 120.2 85.2623 119.993 84.5956 119.58C83.929 119.153 83.409 118.547 83.0356 117.76C82.6623 116.973 82.4756 116.033 82.4756 114.94C82.4756 113.847 82.6623 112.913 83.0356 112.14C83.409 111.353 83.929 110.753 84.5956 110.34C85.2623 109.913 86.0356 109.7 86.9156 109.7C87.769 109.7 88.5156 109.913 89.1556 110.34C89.809 110.753 90.2423 111.313 90.4556 112.02H90.2356L90.4556 109.9H92.8556C92.8156 110.313 92.7756 110.733 92.7356 111.16C92.709 111.587 92.6956 112.007 92.6956 112.42V120H90.2156L90.1956 117.92H90.4356C90.2223 118.613 89.789 119.167 89.1356 119.58C88.4823 119.993 87.7423 120.2 86.9156 120.2ZM87.6156 118.28C88.4023 118.28 89.0356 118.007 89.5156 117.46C89.9956 116.9 90.2356 116.06 90.2356 114.94C90.2356 113.82 89.9956 112.987 89.5156 112.44C89.0356 111.893 88.4023 111.62 87.6156 111.62C86.829 111.62 86.1956 111.893 85.7156 112.44C85.2356 112.987 84.9956 113.82 84.9956 114.94C84.9956 116.06 85.229 116.9 85.6956 117.46C86.1756 118.007 86.8156 118.28 87.6156 118.28ZM95.6114 120V109.9H97.8714V117.54H97.2714L103.011 109.9H105.071V120H102.811V112.34H103.431L97.6714 120H95.6114ZM100.331 108.98C99.6647 108.98 99.0781 108.873 98.5714 108.66C98.0647 108.433 97.6447 108.12 97.3114 107.72C96.9781 107.307 96.7381 106.82 96.5914 106.26L97.8714 105.82C98.0981 106.433 98.4114 106.887 98.8114 107.18C99.2114 107.46 99.7247 107.6 100.351 107.6C100.978 107.6 101.491 107.46 101.891 107.18C102.291 106.9 102.618 106.453 102.871 105.84L104.091 106.26C103.811 107.153 103.345 107.833 102.691 108.3C102.051 108.753 101.265 108.98 100.331 108.98ZM110.096 120V111.86H106.636V109.9H116.056V111.86H112.576V120H110.096ZM122.466 120.2C120.773 120.2 119.446 119.733 118.486 118.8C117.526 117.867 117.046 116.587 117.046 114.96C117.046 113.907 117.253 112.987 117.666 112.2C118.079 111.413 118.653 110.8 119.386 110.36C120.133 109.92 120.999 109.7 121.986 109.7C122.959 109.7 123.773 109.907 124.426 110.32C125.079 110.733 125.573 111.313 125.906 112.06C126.253 112.807 126.426 113.68 126.426 114.68V115.34H119.066V114.02H124.646L124.306 114.3C124.306 113.367 124.106 112.653 123.706 112.16C123.319 111.667 122.753 111.42 122.006 111.42C121.179 111.42 120.539 111.713 120.086 112.3C119.646 112.887 119.426 113.707 119.426 114.76V115.02C119.426 116.113 119.693 116.933 120.226 117.48C120.773 118.013 121.539 118.28 122.526 118.28C123.099 118.28 123.633 118.207 124.126 118.06C124.633 117.9 125.113 117.647 125.566 117.3L126.306 118.98C125.826 119.367 125.253 119.667 124.586 119.88C123.919 120.093 123.213 120.2 122.466 120.2ZM133.325 122.6V118.1H134.485C134.885 117.473 135.171 116.74 135.345 115.9C135.531 115.047 135.625 114.007 135.625 112.78V109.9H143.405V118.1H145.045V122.6H142.925V120H135.445V122.6H133.325ZM136.725 118.12H141.065V111.78H137.745V113.34C137.745 114.233 137.658 115.107 137.485 115.96C137.311 116.813 137.058 117.533 136.725 118.12ZM150.861 120.2C149.981 120.2 149.208 119.993 148.541 119.58C147.874 119.153 147.354 118.547 146.981 117.76C146.608 116.973 146.421 116.033 146.421 114.94C146.421 113.847 146.608 112.913 146.981 112.14C147.354 111.353 147.874 110.753 148.541 110.34C149.208 109.913 149.981 109.7 150.861 109.7C151.714 109.7 152.461 109.913 153.101 110.34C153.754 110.753 154.188 111.313 154.401 112.02H154.181L154.401 109.9H156.801C156.761 110.313 156.721 110.733 156.681 111.16C156.654 111.587 156.641 112.007 156.641 112.42V120H154.161L154.141 117.92H154.381C154.168 118.613 153.734 119.167 153.081 119.58C152.428 119.993 151.688 120.2 150.861 120.2ZM151.561 118.28C152.348 118.28 152.981 118.007 153.461 117.46C153.941 116.9 154.181 116.06 154.181 114.94C154.181 113.82 153.941 112.987 153.461 112.44C152.981 111.893 152.348 111.62 151.561 111.62C150.774 111.62 150.141 111.893 149.661 112.44C149.181 112.987 148.941 113.82 148.941 114.94C148.941 116.06 149.174 116.9 149.641 117.46C150.121 118.007 150.761 118.28 151.561 118.28ZM159.557 120V109.9H162.037V113.86H166.597V109.9H169.077V120H166.597V115.78H162.037V120H159.557ZM171.92 120V109.9H174.4V113.86H178.96V109.9H181.44V120H178.96V115.78H174.4V120H171.92ZM184.283 120V109.9H186.763V113.28H189.423C190.77 113.28 191.783 113.567 192.463 114.14C193.143 114.7 193.483 115.513 193.483 116.58C193.483 117.273 193.323 117.88 193.003 118.4C192.683 118.907 192.217 119.3 191.603 119.58C191.003 119.86 190.277 120 189.423 120H184.283ZM186.763 118.36H189.083C189.763 118.36 190.283 118.22 190.643 117.94C191.003 117.647 191.183 117.207 191.183 116.62C191.183 116.033 191.003 115.607 190.643 115.34C190.297 115.06 189.777 114.92 189.083 114.92H186.763V118.36ZM194.743 120V109.9H197.223V120H194.743ZM205.025 120.2C203.331 120.2 202.005 119.733 201.045 118.8C200.085 117.867 199.605 116.587 199.605 114.96C199.605 113.907 199.811 112.987 200.225 112.2C200.638 111.413 201.211 110.8 201.945 110.36C202.691 109.92 203.558 109.7 204.545 109.7C205.518 109.7 206.331 109.907 206.985 110.32C207.638 110.733 208.131 111.313 208.465 112.06C208.811 112.807 208.985 113.68 208.985 114.68V115.34H201.625V114.02H207.205L206.865 114.3C206.865 113.367 206.665 112.653 206.265 112.16C205.878 111.667 205.311 111.42 204.565 111.42C203.738 111.42 203.098 111.713 202.645 112.3C202.205 112.887 201.985 113.707 201.985 114.76V115.02C201.985 116.113 202.251 116.933 202.785 117.48C203.331 118.013 204.098 118.28 205.085 118.28C205.658 118.28 206.191 118.207 206.685 118.06C207.191 117.9 207.671 117.647 208.125 117.3L208.865 118.98C208.385 119.367 207.811 119.667 207.145 119.88C206.478 120.093 205.771 120.2 205.025 120.2Z" fill="black"/>
</svg>
