<svg width="35" height="35" viewBox="0 0 35 35" fill="none" xmlns="http://www.w3.org/2000/svg">
<rect width="35" height="35" rx="5" fill="black" fillOpacity="0.05"/>
<path fillRule="evenodd" clipRule="evenodd" d="M7.3749 16.9956C12.7436 14.5965 16.3236 13.0149 18.1148 12.2508C23.2292 10.0689 24.2919 9.68989 24.9846 9.67738C25.1369 9.67463 25.4776 9.71335 25.6982 9.89699C25.8845 10.052 25.9358 10.2615 25.9603 10.4085C25.9848 10.5555 26.0154 10.8904 25.9911 11.1521C25.714 14.1389 24.5147 21.387 23.9046 24.7323C23.6465 26.1478 23.1382 26.6224 22.6461 26.6688C21.5766 26.7698 20.7645 25.9439 19.7287 25.2475C18.1078 24.1577 17.1921 23.4793 15.6188 22.4159C13.8005 21.187 14.9792 20.5115 16.0154 19.4076C16.2866 19.1187 20.9987 14.7227 21.0899 14.3239C21.1013 14.2741 21.1119 14.0881 21.0042 13.99C20.8965 13.8918 20.7376 13.9254 20.6229 13.9521C20.4604 13.9899 17.871 15.7453 12.8549 19.2183C12.1199 19.7359 11.4542 19.9881 10.8577 19.9749C10.2001 19.9603 8.93528 19.5936 7.99498 19.2801C6.84166 18.8955 5.92503 18.6923 6.00485 18.0392C6.04642 17.6991 6.5031 17.3512 7.3749 16.9956Z" fill="#000100"/>
</svg>
