<svg width="24" height="24" viewBox="0 0 24 24" fill="none" xmlns="http://www.w3.org/2000/svg">
<path fill-rule="evenodd" clip-rule="evenodd" d="M6.90191 5.45645C6.83584 5.46517 6.77292 5.48224 6.71408 5.50646C5.92761 5.5679 5.23752 5.629 4.7406 5.67508C4.48641 5.69865 4.28262 5.71831 4.14214 5.7321L3.9805 5.74815L3.92453 5.75381L3.92345 5.75392C3.51141 5.79623 3.21167 6.16456 3.25398 6.5766C3.29629 6.98865 3.66462 7.28838 4.07666 7.24608L4.07593 7.2389C4.07667 7.24608 4.07666 7.24608 4.07666 7.24608L4.13053 7.24062L4.28869 7.22493C4.42676 7.21137 4.62786 7.19197 4.87912 7.16867C5.38175 7.12206 6.08447 7.05989 6.8843 6.99775C8.48943 6.87302 10.4654 6.75 12.0001 6.75C13.5347 6.75 15.5107 6.87302 17.1158 6.99775C17.9156 7.05989 18.6184 7.12206 19.121 7.16867C19.3723 7.19197 19.5734 7.21137 19.7114 7.22493L19.8696 7.24062L19.9228 7.24601C20.3348 7.28831 20.7038 6.98865 20.7461 6.5766C20.7884 6.16456 20.4887 5.79623 20.0767 5.75392L20.0196 5.74815L19.858 5.7321C19.7175 5.71831 19.5137 5.69865 19.2595 5.67508C18.7626 5.62899 18.0725 5.5679 17.286 5.50646C17.2344 5.48524 17.1796 5.46948 17.1222 5.46001C16.6274 5.37837 16.2109 5.0449 16.0231 4.57999L15.9327 4.35615C15.4184 3.08329 14.183 2.25 12.8101 2.25H11.4629C10.1083 2.25 8.88923 3.07225 8.38176 4.32825C8.13571 4.93723 7.58111 5.3668 6.92994 5.45275L6.90191 5.45645ZM11.4629 3.75C10.7197 3.75 10.0509 4.20111 9.77253 4.89018C9.71209 5.03976 9.64144 5.18341 9.56152 5.32039C10.4108 5.27787 11.2524 5.25 12.0001 5.25C12.8298 5.25 13.7753 5.28433 14.7185 5.3349C14.6876 5.27191 14.6589 5.20755 14.6323 5.14191L14.5419 4.91808C14.2567 4.21214 13.5715 3.75 12.8101 3.75H11.4629Z" fill="#5329FF"/>
<path d="M18.7472 9.06497C18.7831 8.65232 18.4777 8.2887 18.065 8.25282C17.6524 8.21694 17.2888 8.52237 17.2529 8.93503L16.4477 18.1949C16.3466 19.3576 15.3732 20.25 14.2061 20.25H9.3942C8.18957 20.25 7.19865 19.3012 7.14632 18.0977L6.74935 8.96742C6.73136 8.5536 6.3813 8.23272 5.96748 8.25071C5.55366 8.2687 5.23277 8.61876 5.25077 9.03258L5.64774 18.1629C5.73495 20.1687 7.38648 21.75 9.3942 21.75H14.2061C16.1513 21.75 17.7735 20.2627 17.942 18.3249L18.7472 9.06497Z" fill="#5329FF"/>
<path d="M9.00006 17.25C8.58584 17.25 8.25006 17.5858 8.25006 18C8.25006 18.4142 8.58584 18.75 9.00006 18.75H15.0001C15.4143 18.75 15.7501 18.4142 15.7501 18C15.7501 17.5858 15.4143 17.25 15.0001 17.25H9.00006Z" fill="#5329FF"/>
</svg>
