<svg width="32" height="33" viewBox="0 0 32 33" fill="none" xmlns="http://www.w3.org/2000/svg">
<path d="M16.7074 3.79289C16.3168 3.40237 15.6837 3.40237 15.2931 3.79289L12.6265 6.45956C12.2359 6.85008 12.2359 7.48325 12.6265 7.87377C13.017 8.2643 13.6502 8.2643 14.0407 7.87377L15.0002 6.91421V17.8333C15.0002 18.3856 15.448 18.8333 16.0002 18.8333C16.5525 18.8333 17.0002 18.3856 17.0002 17.8333V6.91421L17.9598 7.87377C18.3503 8.2643 18.9835 8.2643 19.374 7.87377C19.7645 7.48325 19.7645 6.85008 19.374 6.45956L16.7074 3.79289Z" fill="#5329FF"/>
<path d="M5.00024 20.5C5.00024 18.8431 6.34339 17.5 8.00024 17.5C8.55253 17.5 9.00024 17.0523 9.00024 16.5C9.00024 15.9477 8.55253 15.5 8.00024 15.5C5.23882 15.5 3.00024 17.7386 3.00024 20.5V23.1667C3.00024 26.6645 5.83577 29.5 9.33358 29.5H22.6669C26.1647 29.5 29.0002 26.6645 29.0002 23.1667V20.5C29.0002 17.7386 26.7617 15.5 24.0002 15.5C23.448 15.5 23.0002 15.9477 23.0002 16.5C23.0002 17.0523 23.448 17.5 24.0002 17.5C25.6571 17.5 27.0002 18.8431 27.0002 20.5V23.1667C27.0002 25.5599 25.0601 27.5 22.6669 27.5H9.33358C6.94034 27.5 5.00024 25.5599 5.00024 23.1667V20.5Z" fill="#5329FF"/>
</svg>
