<svg width="80" height="44" viewBox="0 0 80 44" fill="none" xmlns="http://www.w3.org/2000/svg">
<path d="M7.53884 13.7579H0L11.2281 42.3293H16.2005L22.9373 25.3802L29.5138 42.3293H34.6466L45.7142 13.7579H38.015L31.599 29.9L25.5037 13.7579H20.3709L13.9549 29.9L7.53884 13.7579Z" fill="url(#paint0_linear_2063_1999)"/>
<path fill-rule="evenodd" clip-rule="evenodd" d="M55.2616 0H48.5146V27.7804C48.514 27.8375 48.5137 27.8946 48.5137 27.9518C48.5137 28.009 48.514 28.0661 48.5146 28.1232V28.5944H48.5266C48.8637 36.991 55.7773 43.6948 64.2567 43.6948C72.9513 43.6948 79.9997 36.6464 79.9997 27.9518C79.9997 19.2572 72.9513 12.2088 64.2567 12.2088C60.9123 12.2088 57.8114 13.2517 55.2616 15.03V0ZM72.9316 27.9519C72.9316 32.7428 69.0479 36.6266 64.257 36.6266C59.466 36.6266 55.5823 32.7428 55.5823 27.9519C55.5823 23.161 59.466 19.2772 64.257 19.2772C69.0479 19.2772 72.9316 23.161 72.9316 27.9519Z" fill="url(#paint1_linear_2063_1999)"/>
<defs>
<linearGradient id="paint0_linear_2063_1999" x1="31.5966" y1="13.7579" x2="20.5619" y2="46.8012" gradientUnits="userSpaceOnUse">
<stop stop-color="#D923D0"/>
<stop offset="1" stop-color="#9223EB"/>
</linearGradient>
<linearGradient id="paint1_linear_2063_1999" x1="70.276" y1="1.00407e-06" x2="43.4023" y2="36.2425" gradientUnits="userSpaceOnUse">
<stop stop-color="#D923D0"/>
<stop offset="1" stop-color="#9223EB"/>
</linearGradient>
</defs>
</svg>
