<svg width="1420" height="63" viewBox="0 0 1420 63" fill="none" xmlns="http://www.w3.org/2000/svg">
<path d="M2.652 44V20.03H23.63V44H19.278V23.6H6.97V44H2.652ZM36.5657 44.34C34.7977 44.34 33.2677 43.9773 31.9757 43.252C30.6837 42.5267 29.675 41.4953 28.9497 40.158C28.247 38.8207 27.8957 37.234 27.8957 35.398C27.8957 33.562 28.247 31.9867 28.9497 30.672C29.675 29.3347 30.6837 28.3033 31.9757 27.578C33.2677 26.8527 34.7977 26.49 36.5657 26.49C38.3337 26.49 39.8637 26.8527 41.1557 27.578C42.4703 28.3033 43.479 29.3347 44.1817 30.672C44.907 31.9867 45.2697 33.562 45.2697 35.398C45.2697 37.234 44.907 38.8207 44.1817 40.158C43.479 41.4953 42.4703 42.5267 41.1557 43.252C39.8637 43.9773 38.3337 44.34 36.5657 44.34ZM36.5657 41.076C37.903 41.076 38.9683 40.6113 39.7617 39.682C40.555 38.73 40.9517 37.302 40.9517 35.398C40.9517 33.494 40.555 32.0773 39.7617 31.148C38.9683 30.2187 37.903 29.754 36.5657 29.754C35.2283 29.754 34.163 30.2187 33.3697 31.148C32.5763 32.0773 32.1797 33.494 32.1797 35.398C32.1797 37.302 32.5763 38.73 33.3697 39.682C34.163 40.6113 35.2283 41.076 36.5657 41.076ZM47.7668 48.42V40.77H49.7388C50.4188 39.7047 50.9061 38.458 51.2008 37.03C51.5181 35.5793 51.6768 33.8113 51.6768 31.726V26.83H64.9028V40.77H67.6908V48.42H64.0868V44H51.3708V48.42H47.7668ZM53.5468 40.804H60.9248V30.026H55.2808V32.678C55.2808 34.1967 55.1335 35.6813 54.8388 37.132C54.5441 38.5827 54.1135 39.8067 53.5468 40.804ZM79.2444 44.34C76.3658 44.34 74.1104 43.5467 72.4784 41.96C70.8464 40.3733 70.0304 38.1973 70.0304 35.432C70.0304 33.6413 70.3818 32.0773 71.0844 30.74C71.7871 29.4027 72.7618 28.36 74.0084 27.612C75.2778 26.864 76.7511 26.49 78.4284 26.49C80.0831 26.49 81.4658 26.8413 82.5764 27.544C83.6871 28.2467 84.5258 29.2327 85.0924 30.502C85.6818 31.7713 85.9764 33.256 85.9764 34.956V36.078H73.4644V33.834H82.9504L82.3724 34.31C82.3724 32.7233 82.0324 31.5107 81.3524 30.672C80.6951 29.8333 79.7318 29.414 78.4624 29.414C77.0571 29.414 75.9691 29.9127 75.1984 30.91C74.4504 31.9073 74.0764 33.3013 74.0764 35.092V35.534C74.0764 37.3927 74.5298 38.7867 75.4364 39.716C76.3658 40.6227 77.6691 41.076 79.3464 41.076C80.3211 41.076 81.2278 40.9513 82.0664 40.702C82.9278 40.43 83.7438 39.9993 84.5144 39.41L85.7724 42.266C84.9564 42.9233 83.9818 43.4333 82.8484 43.796C81.7151 44.1587 80.5138 44.34 79.2444 44.34ZM89.4622 44.476L88.1362 41.144C88.8842 40.872 89.5076 40.5207 90.0062 40.09C90.5276 39.6367 90.9356 39.07 91.2302 38.39C91.5476 37.6873 91.7742 36.826 91.9102 35.806C92.0462 34.7633 92.1142 33.528 92.1142 32.1V26.83H105.782V44H101.566V30.094H95.9902V32.236C95.9902 34.7067 95.7636 36.7807 95.3102 38.458C94.8569 40.1127 94.1542 41.4273 93.2022 42.402C92.2502 43.3767 91.0036 44.068 89.4622 44.476ZM110.623 44V26.83H114.465V39.818H113.445L123.203 26.83H126.705V44H122.863V30.978H123.917L114.125 44H110.623ZM135.247 44V30.162H129.365V26.83H145.379V30.162H139.463V44H135.247ZM156.276 44.34C153.397 44.34 151.142 43.5467 149.51 41.96C147.878 40.3733 147.062 38.1973 147.062 35.432C147.062 33.6413 147.413 32.0773 148.116 30.74C148.818 29.4027 149.793 28.36 151.04 27.612C152.309 26.864 153.782 26.49 155.46 26.49C157.114 26.49 158.497 26.8413 159.608 27.544C160.718 28.2467 161.557 29.2327 162.124 30.502C162.713 31.7713 163.008 33.256 163.008 34.956V36.078H150.496V33.834H159.982L159.404 34.31C159.404 32.7233 159.064 31.5107 158.384 30.672C157.726 29.8333 156.763 29.414 155.494 29.414C154.088 29.414 153 29.9127 152.23 30.91C151.482 31.9073 151.108 33.3013 151.108 35.092V35.534C151.108 37.3927 151.561 38.7867 152.468 39.716C153.397 40.6227 154.7 41.076 156.378 41.076C157.352 41.076 158.259 40.9513 159.098 40.702C159.959 40.43 160.775 39.9993 161.546 39.41L162.804 42.266C161.988 42.9233 161.013 43.4333 159.88 43.796C158.746 44.1587 157.545 44.34 156.276 44.34ZM174.959 44.34C173.191 44.34 171.639 43.9773 170.301 43.252C168.987 42.5267 167.967 41.4953 167.241 40.158C166.516 38.798 166.153 37.1887 166.153 35.33C166.153 33.4713 166.516 31.8847 167.241 30.57C167.989 29.2553 169.021 28.2467 170.335 27.544C171.65 26.8413 173.191 26.49 174.959 26.49C176.093 26.49 177.192 26.6713 178.257 27.034C179.345 27.374 180.229 27.8727 180.909 28.53L179.617 31.488C179.005 30.9213 178.314 30.502 177.543 30.23C176.795 29.9353 176.059 29.788 175.333 29.788C173.815 29.788 172.625 30.264 171.763 31.216C170.925 32.168 170.505 33.5507 170.505 35.364C170.505 37.1773 170.925 38.5713 171.763 39.546C172.625 40.5207 173.815 41.008 175.333 41.008C176.036 41.008 176.761 40.872 177.509 40.6C178.28 40.328 178.983 39.9087 179.617 39.342L180.909 42.266C180.207 42.9233 179.311 43.4333 178.223 43.796C177.158 44.1587 176.07 44.34 174.959 44.34ZM184.533 44V26.83H188.749V32.576H193.271C195.56 32.576 197.283 33.0633 198.439 34.038C199.595 34.99 200.173 36.3727 200.173 38.186C200.173 39.3647 199.901 40.396 199.357 41.28C198.813 42.1413 198.02 42.81 196.977 43.286C195.957 43.762 194.722 44 193.271 44H184.533ZM188.749 41.212H192.693C193.849 41.212 194.733 40.974 195.345 40.498C195.957 39.9993 196.263 39.2513 196.263 38.254C196.263 37.2567 195.957 36.5313 195.345 36.078C194.756 35.602 193.872 35.364 192.693 35.364H188.749V41.212ZM221.079 44.34C219.311 44.34 217.758 43.9773 216.421 43.252C215.106 42.5267 214.086 41.4953 213.361 40.158C212.635 38.798 212.273 37.1887 212.273 35.33C212.273 33.4713 212.635 31.8847 213.361 30.57C214.109 29.2553 215.14 28.2467 216.455 27.544C217.769 26.8413 219.311 26.49 221.079 26.49C222.212 26.49 223.311 26.6713 224.377 27.034C225.465 27.374 226.349 27.8727 227.029 28.53L225.737 31.488C225.125 30.9213 224.433 30.502 223.663 30.23C222.915 29.9353 222.178 29.788 221.453 29.788C219.934 29.788 218.744 30.264 217.883 31.216C217.044 32.168 216.625 33.5507 216.625 35.364C216.625 37.1773 217.044 38.5713 217.883 39.546C218.744 40.5207 219.934 41.008 221.453 41.008C222.155 41.008 222.881 40.872 223.629 40.6C224.399 40.328 225.102 39.9087 225.737 39.342L227.029 42.266C226.326 42.9233 225.431 43.4333 224.343 43.796C223.277 44.1587 222.189 44.34 221.079 44.34ZM238.676 44.34C236.908 44.34 235.356 43.9773 234.018 43.252C232.704 42.5267 231.684 41.4953 230.958 40.158C230.233 38.798 229.87 37.1887 229.87 35.33C229.87 33.4713 230.233 31.8847 230.958 30.57C231.706 29.2553 232.738 28.2467 234.052 27.544C235.367 26.8413 236.908 26.49 238.676 26.49C239.81 26.49 240.909 26.6713 241.974 27.034C243.062 27.374 243.946 27.8727 244.626 28.53L243.334 31.488C242.722 30.9213 242.031 30.502 241.26 30.23C240.512 29.9353 239.776 29.788 239.05 29.788C237.532 29.788 236.342 30.264 235.48 31.216C234.642 32.168 234.222 33.5507 234.222 35.364C234.222 37.1773 234.642 38.5713 235.48 39.546C236.342 40.5207 237.532 41.008 239.05 41.008C239.753 41.008 240.478 40.872 241.226 40.6C241.997 40.328 242.7 39.9087 243.334 39.342L244.626 42.266C243.924 42.9233 243.028 43.4333 241.94 43.796C240.875 44.1587 239.787 44.34 238.676 44.34ZM248.25 44V26.83H252.466V32.576H256.988C259.277 32.576 261 33.0633 262.156 34.038C263.312 34.99 263.89 36.3727 263.89 38.186C263.89 39.3647 263.618 40.396 263.074 41.28C262.53 42.1413 261.737 42.81 260.694 43.286C259.674 43.762 258.439 44 256.988 44H248.25ZM252.466 41.212H256.41C257.566 41.212 258.45 40.974 259.062 40.498C259.674 39.9993 259.98 39.2513 259.98 38.254C259.98 37.2567 259.674 36.5313 259.062 36.078C258.473 35.602 257.589 35.364 256.41 35.364H252.466V41.212ZM266.032 44V26.83H270.248V44H266.032ZM274.636 44.476L273.31 41.144C274.058 40.872 274.681 40.5207 275.18 40.09C275.701 39.6367 276.109 39.07 276.404 38.39C276.721 37.6873 276.948 36.826 277.084 35.806C277.22 34.7633 277.288 33.528 277.288 32.1V26.83H290.956V44H286.74V30.094H281.164V32.236C281.164 34.7067 280.937 36.7807 280.484 38.458C280.031 40.1127 279.328 41.4273 278.376 42.402C277.424 43.3767 276.177 44.068 274.636 44.476ZM295.797 44V26.83H300.013V33.562H302.597L307.629 26.83H312.185L305.861 35.398L304.943 34.072C305.577 34.14 306.133 34.31 306.609 34.582C307.107 34.854 307.572 35.2393 308.003 35.738C308.456 36.214 308.898 36.826 309.329 37.574L312.933 44H308.411L305.487 38.832C305.192 38.3107 304.897 37.9027 304.603 37.608C304.308 37.3133 303.979 37.1093 303.617 36.996C303.254 36.8827 302.812 36.826 302.291 36.826H300.013V44H295.797ZM323.075 44.34C321.307 44.34 319.777 43.9773 318.485 43.252C317.193 42.5267 316.185 41.4953 315.459 40.158C314.757 38.8207 314.405 37.234 314.405 35.398C314.405 33.562 314.757 31.9867 315.459 30.672C316.185 29.3347 317.193 28.3033 318.485 27.578C319.777 26.8527 321.307 26.49 323.075 26.49C324.843 26.49 326.373 26.8527 327.665 27.578C328.98 28.3033 329.989 29.3347 330.691 30.672C331.417 31.9867 331.779 33.562 331.779 35.398C331.779 37.234 331.417 38.8207 330.691 40.158C329.989 41.4953 328.98 42.5267 327.665 43.252C326.373 43.9773 324.843 44.34 323.075 44.34ZM323.075 41.076C324.413 41.076 325.478 40.6113 326.271 39.682C327.065 38.73 327.461 37.302 327.461 35.398C327.461 33.494 327.065 32.0773 326.271 31.148C325.478 30.2187 324.413 29.754 323.075 29.754C321.738 29.754 320.673 30.2187 319.879 31.148C319.086 32.0773 318.689 33.494 318.689 35.398C318.689 37.302 319.086 38.73 319.879 39.682C320.673 40.6113 321.738 41.076 323.075 41.076ZM335.807 44V26.83H339.649V39.818H338.629L348.387 26.83H351.889V44H348.047V30.978H349.101L339.309 44H335.807ZM343.831 25.266C342.697 25.266 341.7 25.0847 340.839 24.722C339.977 24.3367 339.263 23.804 338.697 23.124C338.13 22.4213 337.722 21.594 337.473 20.642L339.649 19.894C340.034 20.9367 340.567 21.7073 341.247 22.206C341.927 22.682 342.799 22.92 343.865 22.92C344.93 22.92 345.803 22.682 346.483 22.206C347.163 21.73 347.718 20.9707 348.149 19.928L350.223 20.642C349.747 22.1607 348.953 23.3167 347.843 24.11C346.755 24.8807 345.417 25.266 343.831 25.266ZM366.055 44V26.83H370.271V33.562H378.023V26.83H382.239V44H378.023V36.826H370.271V44H366.055ZM393.838 44.34C392.342 44.34 391.028 43.9887 389.894 43.286C388.761 42.5607 387.877 41.5293 387.242 40.192C386.608 38.8547 386.29 37.2567 386.29 35.398C386.29 33.5393 386.608 31.9527 387.242 30.638C387.877 29.3007 388.761 28.2807 389.894 27.578C391.028 26.8527 392.342 26.49 393.838 26.49C395.289 26.49 396.558 26.8527 397.646 27.578C398.757 28.2807 399.494 29.2327 399.856 30.434H399.482L399.856 26.83H403.936C403.868 27.5327 403.8 28.2467 403.732 28.972C403.687 29.6973 403.664 30.4113 403.664 31.114V44H399.448L399.414 40.464H399.822C399.46 41.6427 398.723 42.5833 397.612 43.286C396.502 43.9887 395.244 44.34 393.838 44.34ZM395.028 41.076C396.366 41.076 397.442 40.6113 398.258 39.682C399.074 38.73 399.482 37.302 399.482 35.398C399.482 33.494 399.074 32.0773 398.258 31.148C397.442 30.2187 396.366 29.754 395.028 29.754C393.691 29.754 392.614 30.2187 391.798 31.148C390.982 32.0773 390.574 33.494 390.574 35.398C390.574 37.302 390.971 38.73 391.764 39.682C392.58 40.6113 393.668 41.076 395.028 41.076Z" fill="white"/>
<rect x="427" width="437" height="63" rx="10" fill="#F0AD00"/>
<path d="M457.438 44.34C455.67 44.34 454.117 43.9773 452.78 43.252C451.465 42.5267 450.445 41.4953 449.72 40.158C448.995 38.798 448.632 37.1887 448.632 35.33C448.632 33.4713 448.995 31.8847 449.72 30.57C450.468 29.2553 451.499 28.2467 452.814 27.544C454.129 26.8413 455.67 26.49 457.438 26.49C458.571 26.49 459.671 26.6713 460.736 27.034C461.824 27.374 462.708 27.8727 463.388 28.53L462.096 31.488C461.484 30.9213 460.793 30.502 460.022 30.23C459.274 29.9353 458.537 29.788 457.812 29.788C456.293 29.788 455.103 30.264 454.242 31.216C453.403 32.168 452.984 33.5507 452.984 35.364C452.984 37.1773 453.403 38.5713 454.242 39.546C455.103 40.5207 456.293 41.008 457.812 41.008C458.515 41.008 459.24 40.872 459.988 40.6C460.759 40.328 461.461 39.9087 462.096 39.342L463.388 42.266C462.685 42.9233 461.79 43.4333 460.702 43.796C459.637 44.1587 458.549 44.34 457.438 44.34ZM475.444 44.34C472.565 44.34 470.31 43.5467 468.678 41.96C467.046 40.3733 466.23 38.1973 466.23 35.432C466.23 33.6413 466.581 32.0773 467.284 30.74C467.986 29.4027 468.961 28.36 470.208 27.612C471.477 26.864 472.95 26.49 474.628 26.49C476.282 26.49 477.665 26.8413 478.776 27.544C479.886 28.2467 480.725 29.2327 481.292 30.502C481.881 31.7713 482.176 33.256 482.176 34.956V36.078H469.664V33.834H479.15L478.572 34.31C478.572 32.7233 478.232 31.5107 477.552 30.672C476.894 29.8333 475.931 29.414 474.662 29.414C473.256 29.414 472.168 29.9127 471.398 30.91C470.65 31.9073 470.276 33.3013 470.276 35.092V35.534C470.276 37.3927 470.729 38.7867 471.636 39.716C472.565 40.6227 473.868 41.076 475.546 41.076C476.52 41.076 477.427 40.9513 478.266 40.702C479.127 40.43 479.943 39.9993 480.714 39.41L481.972 42.266C481.156 42.9233 480.181 43.4333 479.048 43.796C477.914 44.1587 476.713 44.34 475.444 44.34ZM486.239 51.344V31.114C486.239 30.4113 486.217 29.6973 486.171 28.972C486.126 28.2467 486.058 27.5327 485.967 26.83H490.081L490.455 30.434H490.081C490.421 29.2327 491.135 28.2807 492.223 27.578C493.334 26.8527 494.615 26.49 496.065 26.49C497.584 26.49 498.91 26.8527 500.043 27.578C501.177 28.2807 502.061 29.3007 502.695 30.638C503.33 31.9527 503.647 33.5393 503.647 35.398C503.647 37.2567 503.33 38.8547 502.695 40.192C502.061 41.5293 501.177 42.5607 500.043 43.286C498.91 43.9887 497.584 44.34 496.065 44.34C494.637 44.34 493.379 43.9887 492.291 43.286C491.203 42.5833 490.478 41.6427 490.115 40.464H490.489V51.344H486.239ZM494.875 41.076C496.235 41.076 497.323 40.6113 498.139 39.682C498.955 38.73 499.363 37.302 499.363 35.398C499.363 33.494 498.955 32.0773 498.139 31.148C497.323 30.2187 496.235 29.754 494.875 29.754C493.538 29.754 492.461 30.2187 491.645 31.148C490.829 32.0773 490.421 33.494 490.421 35.398C490.421 37.302 490.829 38.73 491.645 39.682C492.461 40.6113 493.538 41.076 494.875 41.076ZM507.652 44V26.83H516.798C518.952 26.83 520.527 27.2267 521.524 28.02C522.522 28.7907 523.02 29.89 523.02 31.318C523.02 32.406 522.658 33.3127 521.932 34.038C521.207 34.7633 520.244 35.2167 519.042 35.398V34.922C520.516 35.0127 521.649 35.4433 522.442 36.214C523.236 36.9847 523.632 37.982 523.632 39.206C523.632 40.6793 523.066 41.8467 521.932 42.708C520.799 43.5693 519.19 44 517.104 44H507.652ZM511.596 41.382H516.662C517.66 41.382 518.419 41.178 518.94 40.77C519.484 40.362 519.756 39.7613 519.756 38.968C519.756 38.1747 519.484 37.574 518.94 37.166C518.419 36.758 517.66 36.554 516.662 36.554H511.596V41.382ZM511.596 33.936H516.288C517.195 33.936 517.898 33.7433 518.396 33.358C518.895 32.95 519.144 32.3833 519.144 31.658C519.144 30.9327 518.895 30.3773 518.396 29.992C517.898 29.6067 517.195 29.414 516.288 29.414H511.596V33.936ZM527.342 44V26.83H531.184V39.818H530.164L539.922 26.83H543.424V44H539.582V30.978H540.636L530.844 44H527.342ZM556.284 44.34C554.516 44.34 552.963 43.9773 551.626 43.252C550.311 42.5267 549.291 41.4953 548.566 40.158C547.84 38.798 547.478 37.1887 547.478 35.33C547.478 33.4713 547.84 31.8847 548.566 30.57C549.314 29.2553 550.345 28.2467 551.66 27.544C552.974 26.8413 554.516 26.49 556.284 26.49C557.417 26.49 558.516 26.6713 559.582 27.034C560.67 27.374 561.554 27.8727 562.234 28.53L560.942 31.488C560.33 30.9213 559.638 30.502 558.868 30.23C558.12 29.9353 557.383 29.788 556.658 29.788C555.139 29.788 553.949 30.264 553.088 31.216C552.249 32.168 551.83 33.5507 551.83 35.364C551.83 37.1773 552.249 38.5713 553.088 39.546C553.949 40.5207 555.139 41.008 556.658 41.008C557.36 41.008 558.086 40.872 558.834 40.6C559.604 40.328 560.307 39.9087 560.942 39.342L562.234 42.266C561.531 42.9233 560.636 43.4333 559.548 43.796C558.482 44.1587 557.394 44.34 556.284 44.34ZM575.425 44V20.03H585.897C588.527 20.03 590.555 20.6533 591.983 21.9C593.434 23.1467 594.159 24.8807 594.159 27.102C594.159 28.5753 593.831 29.8333 593.173 30.876C592.539 31.9187 591.621 32.7233 590.419 33.29C589.218 33.834 587.801 34.106 586.169 34.106L586.645 33.46H587.801C588.753 33.46 589.603 33.7093 590.351 34.208C591.099 34.7067 591.711 35.466 592.187 36.486L595.689 44H590.861L587.325 36.214C587.008 35.4207 586.521 34.8993 585.863 34.65C585.229 34.4007 584.458 34.276 583.551 34.276H579.811V44H575.425ZM579.811 31.046H585.183C586.725 31.046 587.892 30.7287 588.685 30.094C589.501 29.4367 589.909 28.4847 589.909 27.238C589.909 25.9913 589.501 25.0507 588.685 24.416C587.892 23.7813 586.725 23.464 585.183 23.464H579.811V31.046ZM605.422 44.34C603.926 44.34 602.612 43.9887 601.478 43.286C600.345 42.5607 599.461 41.5293 598.826 40.192C598.192 38.8547 597.874 37.2567 597.874 35.398C597.874 33.5393 598.192 31.9527 598.826 30.638C599.461 29.3007 600.345 28.2807 601.478 27.578C602.612 26.8527 603.926 26.49 605.422 26.49C606.873 26.49 608.142 26.8527 609.23 27.578C610.341 28.2807 611.078 29.2327 611.44 30.434H611.066L611.44 26.83H615.52C615.452 27.5327 615.384 28.2467 615.316 28.972C615.271 29.6973 615.248 30.4113 615.248 31.114V44H611.032L610.998 40.464H611.406C611.044 41.6427 610.307 42.5833 609.196 43.286C608.086 43.9887 606.828 44.34 605.422 44.34ZM606.612 41.076C607.95 41.076 609.026 40.6113 609.842 39.682C610.658 38.73 611.066 37.302 611.066 35.398C611.066 33.494 610.658 32.0773 609.842 31.148C609.026 30.2187 607.95 29.754 606.612 29.754C605.275 29.754 604.198 30.2187 603.382 31.148C602.566 32.0773 602.158 33.494 602.158 35.398C602.158 37.302 602.555 38.73 603.348 39.682C604.164 40.6113 605.252 41.076 606.612 41.076ZM626.54 44.34C625.044 44.34 623.718 43.9887 622.562 43.286C621.429 42.5607 620.545 41.5293 619.91 40.192C619.276 38.8547 618.958 37.2567 618.958 35.398C618.958 33.5393 619.276 31.9527 619.91 30.638C620.545 29.3007 621.429 28.2807 622.562 27.578C623.718 26.8527 625.044 26.49 626.54 26.49C627.968 26.49 629.226 26.8413 630.314 27.544C631.425 28.224 632.162 29.1533 632.524 30.332H632.082V18.976H636.332V44H632.15V40.362H632.558C632.196 41.586 631.459 42.5607 630.348 43.286C629.26 43.9887 627.991 44.34 626.54 44.34ZM627.73 41.076C629.068 41.076 630.144 40.6113 630.96 39.682C631.776 38.73 632.184 37.302 632.184 35.398C632.184 33.494 631.776 32.0773 630.96 31.148C630.144 30.2187 629.068 29.754 627.73 29.754C626.393 29.754 625.305 30.2187 624.466 31.148C623.65 32.0773 623.242 33.494 623.242 35.398C623.242 37.302 623.65 38.73 624.466 39.682C625.305 40.6113 626.393 41.076 627.73 41.076ZM647.59 44.34C646.094 44.34 644.78 43.9887 643.646 43.286C642.513 42.5607 641.629 41.5293 640.994 40.192C640.36 38.8547 640.042 37.2567 640.042 35.398C640.042 33.5393 640.36 31.9527 640.994 30.638C641.629 29.3007 642.513 28.2807 643.646 27.578C644.78 26.8527 646.094 26.49 647.59 26.49C649.041 26.49 650.31 26.8527 651.398 27.578C652.509 28.2807 653.246 29.2327 653.608 30.434H653.234L653.608 26.83H657.688C657.62 27.5327 657.552 28.2467 657.484 28.972C657.439 29.6973 657.416 30.4113 657.416 31.114V44H653.2L653.166 40.464H653.574C653.212 41.6427 652.475 42.5833 651.364 43.286C650.254 43.9887 648.996 44.34 647.59 44.34ZM648.78 41.076C650.118 41.076 651.194 40.6113 652.01 39.682C652.826 38.73 653.234 37.302 653.234 35.398C653.234 33.494 652.826 32.0773 652.01 31.148C651.194 30.2187 650.118 29.754 648.78 29.754C647.443 29.754 646.366 30.2187 645.55 31.148C644.734 32.0773 644.326 33.494 644.326 35.398C644.326 37.302 644.723 38.73 645.516 39.682C646.332 40.6113 647.42 41.076 648.78 41.076ZM662.01 44V31.216C662.01 30.4907 661.988 29.754 661.942 29.006C661.92 28.258 661.863 27.5327 661.772 26.83H665.886L666.362 31.522H665.682C665.909 30.3887 666.283 29.448 666.804 28.7C667.348 27.952 668.006 27.3967 668.776 27.034C669.547 26.6713 670.386 26.49 671.292 26.49C671.7 26.49 672.029 26.5127 672.278 26.558C672.528 26.5807 672.777 26.6373 673.026 26.728L672.992 30.468C672.562 30.2867 672.188 30.1733 671.87 30.128C671.576 30.0827 671.202 30.06 670.748 30.06C669.774 30.06 668.946 30.264 668.266 30.672C667.609 31.08 667.11 31.6467 666.77 32.372C666.453 33.0973 666.294 33.9247 666.294 34.854V44H662.01ZM672.383 35.908V33.358H689.553V35.908H672.383ZM688.951 44L699.797 20.03H703.469L714.451 44H709.997L707.073 37.268L708.841 38.458H694.459L696.295 37.268L693.371 44H688.951ZM701.599 24.722L696.805 36.078L695.921 35.024H707.345L706.631 36.078L701.735 24.722H701.599ZM716.763 44V31.114C716.763 30.4113 716.741 29.6973 716.695 28.972C716.65 28.2467 716.582 27.5327 716.491 26.83H720.605L720.945 30.23H720.537C721.081 29.0287 721.886 28.1107 722.951 27.476C724.017 26.8187 725.252 26.49 726.657 26.49C728.675 26.49 730.193 27.0567 731.213 28.19C732.233 29.3233 732.743 31.0913 732.743 33.494V44H728.493V33.698C728.493 32.3153 728.221 31.3293 727.677 30.74C727.156 30.128 726.363 29.822 725.297 29.822C723.983 29.822 722.94 30.23 722.169 31.046C721.399 31.862 721.013 32.95 721.013 34.31V44H716.763ZM743.88 44.34C742.384 44.34 741.069 43.9887 739.935 43.286C738.802 42.5607 737.918 41.5293 737.284 40.192C736.649 38.8547 736.332 37.2567 736.332 35.398C736.332 33.5393 736.649 31.9527 737.284 30.638C737.918 29.3007 738.802 28.2807 739.935 27.578C741.069 26.8527 742.384 26.49 743.88 26.49C745.33 26.49 746.6 26.8527 747.688 27.578C748.798 28.2807 749.535 29.2327 749.898 30.434H749.524L749.898 26.83H753.978C753.91 27.5327 753.842 28.2467 753.774 28.972C753.728 29.6973 753.706 30.4113 753.706 31.114V44H749.49L749.456 40.464H749.864C749.501 41.6427 748.764 42.5833 747.654 43.286C746.543 43.9887 745.285 44.34 743.88 44.34ZM745.07 41.076C746.407 41.076 747.484 40.6113 748.3 39.682C749.116 38.73 749.524 37.302 749.524 35.398C749.524 33.494 749.116 32.0773 748.3 31.148C747.484 30.2187 746.407 29.754 745.07 29.754C743.732 29.754 742.656 30.2187 741.84 31.148C741.024 32.0773 740.616 33.494 740.616 35.398C740.616 37.302 741.012 38.73 741.806 39.682C742.622 40.6113 743.71 41.076 745.07 41.076ZM758.333 44V18.976H762.583V44H758.333ZM766.859 51.718L765.873 48.352C766.938 48.1253 767.833 47.8647 768.559 47.57C769.284 47.2753 769.885 46.89 770.361 46.414C770.837 45.938 771.233 45.326 771.551 44.578L772.401 42.572L772.299 44.238L764.819 26.83H769.341L774.713 40.226H773.727L779.133 26.83H783.417L775.597 44.952C775.075 46.176 774.509 47.1847 773.897 47.978C773.285 48.794 772.627 49.44 771.925 49.916C771.222 50.4147 770.451 50.8 769.613 51.072C768.774 51.344 767.856 51.5593 766.859 51.718ZM793.435 44.34C791.395 44.34 789.854 43.8073 788.811 42.742C787.769 41.6767 787.247 40.0787 787.247 37.948V30.026H783.949V26.83H787.247V22.444L791.497 21.356V26.83H796.087V30.026H791.497V37.676C791.497 38.8547 791.724 39.682 792.177 40.158C792.631 40.634 793.254 40.872 794.047 40.872C794.478 40.872 794.841 40.838 795.135 40.77C795.453 40.702 795.759 40.6113 796.053 40.498V43.864C795.668 44.0227 795.237 44.136 794.761 44.204C794.308 44.2947 793.866 44.34 793.435 44.34ZM798.974 44V26.83H803.224V44H798.974ZM798.736 23.6V19.452H803.462V23.6H798.736ZM815.727 44.34C813.959 44.34 812.407 43.9773 811.069 43.252C809.755 42.5267 808.735 41.4953 808.009 40.158C807.284 38.798 806.921 37.1887 806.921 35.33C806.921 33.4713 807.284 31.8847 808.009 30.57C808.757 29.2553 809.789 28.2467 811.103 27.544C812.418 26.8413 813.959 26.49 815.727 26.49C816.861 26.49 817.96 26.6713 819.025 27.034C820.113 27.374 820.997 27.8727 821.677 28.53L820.385 31.488C819.773 30.9213 819.082 30.502 818.311 30.23C817.563 29.9353 816.827 29.788 816.101 29.788C814.583 29.788 813.393 30.264 812.531 31.216C811.693 32.168 811.273 33.5507 811.273 35.364C811.273 37.1773 811.693 38.5713 812.531 39.546C813.393 40.5207 814.583 41.008 816.101 41.008C816.804 41.008 817.529 40.872 818.277 40.6C819.048 40.328 819.751 39.9087 820.385 39.342L821.677 42.266C820.975 42.9233 820.079 43.4333 818.991 43.796C817.926 44.1587 816.838 44.34 815.727 44.34ZM831.503 44.34C830.007 44.34 828.692 43.9887 827.559 43.286C826.425 42.5607 825.541 41.5293 824.907 40.192C824.272 38.8547 823.955 37.2567 823.955 35.398C823.955 33.5393 824.272 31.9527 824.907 30.638C825.541 29.3007 826.425 28.2807 827.559 27.578C828.692 26.8527 830.007 26.49 831.503 26.49C832.953 26.49 834.223 26.8527 835.311 27.578C836.421 28.2807 837.158 29.2327 837.521 30.434H837.147L837.521 26.83H841.601C841.533 27.5327 841.465 28.2467 841.397 28.972C841.351 29.6973 841.329 30.4113 841.329 31.114V44H837.113L837.079 40.464H837.487C837.124 41.6427 836.387 42.5833 835.277 43.286C834.166 43.9887 832.908 44.34 831.503 44.34ZM832.693 41.076C834.03 41.076 835.107 40.6113 835.923 39.682C836.739 38.73 837.147 37.302 837.147 35.398C837.147 33.494 836.739 32.0773 835.923 31.148C835.107 30.2187 834.03 29.754 832.693 29.754C831.355 29.754 830.279 30.2187 829.463 31.148C828.647 32.0773 828.239 33.494 828.239 35.398C828.239 37.302 828.635 38.73 829.429 39.682C830.245 40.6113 831.333 41.076 832.693 41.076Z" fill="white"/>
</svg>
