<svg width="35" height="35" viewBox="0 0 35 35" fill="none" xmlns="http://www.w3.org/2000/svg">
<rect width="35" height="35" rx="5" fill="black" fillOpacity="0.05"/>
<path d="M27.5818 12.8631C27.4687 12.4403 27.2459 12.0545 26.9356 11.7442C26.6253 11.4339 26.2384 11.21 25.8136 11.095C24.25 10.6772 18 10.6772 18 10.6772C18 10.6772 11.75 10.6772 10.1864 11.095C9.76161 11.21 9.37472 11.4339 9.06441 11.7442C8.7541 12.0545 8.53125 12.4403 8.41818 12.8631C8 14.4234 8 17.6772 8 17.6772C8 17.6772 8 20.9311 8.41818 22.4914C8.53125 22.9142 8.7541 23.3 9.06441 23.6103C9.37472 23.9206 9.76161 24.1445 10.1864 24.2595C11.75 24.6772 18 24.6772 18 24.6772C18 24.6772 24.25 24.6772 25.8136 24.2595C26.2384 24.1445 26.6253 23.9206 26.9356 23.6103C27.2459 23.3 27.4687 22.9142 27.5818 22.4914C28 20.9311 28 17.6772 28 17.6772C28 17.6772 28 14.4234 27.5818 12.8631Z" fill="#000100"/>
<path d="M16 20.6772V14.6772L21 17.6772L16 20.6772Z" fill="#FEFEFE"/>
</svg>
