<svg width="29" height="25" viewBox="0 0 29 25" fill="none" xmlns="http://www.w3.org/2000/svg">
<rect x="1.91346" y="0.788224" width="26.1367" height="21.5" rx="5.25" transform="rotate(3 1.91346 0.788224)" stroke="#F0AD00" stroke-opacity="0.2" stroke-width="1.5"/>
<path d="M4.86696 16.4236L9.13248 8.17551L10.4267 8.24334L13.8546 16.8946L12.2848 16.8123L11.3785 14.3856L11.9797 14.8377L6.91067 14.572L7.57976 14.1865L6.42483 16.5052L4.86696 16.4236ZM9.68094 9.86252L7.7815 13.7765L7.48939 13.3887L11.5159 13.5997L11.2447 13.958L9.72887 9.86504L9.68094 9.86252ZM14.7893 16.9436L15.2321 8.49518L16.778 8.57619L16.3352 17.0246L14.7893 16.9436Z" fill="#1A1A1A"/>
<path fill-rule="evenodd" clip-rule="evenodd" d="M22.0001 6.35866L21.9627 6.45977C21.7051 7.15601 21.1561 7.70495 20.4599 7.96259L20.3588 8L20.4599 8.03741C21.1561 8.29505 21.7051 8.84399 21.9627 9.54023L22.0001 9.64134L22.0375 9.54023C22.2952 8.84399 22.8441 8.29505 23.5404 8.03741L23.6415 8L23.5404 7.96259C22.8441 7.70496 22.2952 7.15601 22.0375 6.45977L22.0001 6.35866ZM22.9789 4.68146C22.6427 3.77285 21.3576 3.77285 21.0213 4.68146L20.5559 5.93921C20.4502 6.22488 20.225 6.45011 19.9393 6.55581L18.6816 7.02122C17.773 7.35744 17.773 8.64256 18.6816 8.97878L19.9393 9.44419C20.225 9.54989 20.4502 9.77512 20.5559 10.0608L21.0213 11.3185C21.3576 12.2272 22.6427 12.2272 22.9789 11.3185L23.4443 10.0608C23.55 9.77512 23.7752 9.54989 24.0609 9.44419L25.3187 8.97878C26.2273 8.64256 26.2273 7.35744 25.3187 7.02122L24.0609 6.55581C23.7752 6.45011 23.55 6.22488 23.4443 5.93921L22.9789 4.68146Z" fill="#F0AD00"/>
</svg>
