<svg width="24" height="24" viewBox="0 0 24 24" fill="none" xmlns="http://www.w3.org/2000/svg">
<g clipPath="url(#clip0_592_1517)">
<path d="M22 19.8372H2V17.7442H3V10.451C3 5.23105 7.03 1 12 1C16.97 1 21 5.23105 21 10.451V17.7442H22V19.8372ZM5 17.7442H19V10.451C19 6.38744 15.866 3.09302 12 3.09302C8.134 3.09302 5 6.38744 5 10.451V17.7442ZM9.5 20.8837H14.5C14.5 21.5776 14.2366 22.2431 13.7678 22.7337C13.2989 23.2244 12.663 23.5 12 23.5C11.337 23.5 10.7011 23.2244 10.2322 22.7337C9.76339 22.2431 9.5 21.5776 9.5 20.8837Z" fill="#09121F"/>
</g>
<defs>
<clipPath id="clip0_592_1517">
<rect width="24" height="24" fill="white"/>
</clipPath>
</defs>
</svg>
