<svg width="20" height="20" viewBox="0 0 20 20" fill="none" xmlns="http://www.w3.org/2000/svg">
<path fill-rule="evenodd" clip-rule="evenodd" d="M5 1.75C3.20507 1.75 1.75 3.20507 1.75 5V15C1.75 16.7949 3.20507 18.25 5 18.25H5.25V1.75H5ZM6.75 1.75V5.25H18.25V5C18.25 3.20507 16.7949 1.75 15 1.75H6.75ZM18.25 6.75H6.75V18.25H15C16.7949 18.25 18.25 16.7949 18.25 15V6.75ZM0.25 5C0.25 2.37665 2.37665 0.25 5 0.25H15C17.6234 0.25 19.75 2.37665 19.75 5V15C19.75 17.6234 17.6234 19.75 15 19.75H5C2.37665 19.75 0.25 17.6234 0.25 15V5Z" fill="#363538"/>
</svg>
