<svg width="20" height="18" viewBox="0 0 20 18" fill="none" xmlns="http://www.w3.org/2000/svg">
<path fill-rule="evenodd" clip-rule="evenodd" d="M0.517252 5.2963C0.346342 2.56173 2.5181 0.25 5.258 0.25H9.5002C10.7428 0.25 11.7502 1.25736 11.7502 2.5C11.7502 2.91421 12.086 3.25 12.5002 3.25H14.8466C17.514 3.25 19.619 5.51232 19.4316 8.16895V9.5C19.4316 9.59108 19.4154 9.67836 19.3857 9.75912C19.7976 10.4852 19.9099 11.3866 19.5831 12.2622C19.583 12.2624 19.583 12.2627 19.5829 12.2629L18.4636 15.2622C18.449 15.3014 18.4311 15.3392 18.4102 15.3753C17.5866 16.8002 16.0458 17.75 14.2961 17.75H5.758C4.00654 17.75 2.46685 16.7989 1.64386 15.3754C1.28686 14.7579 1.06445 14.0514 1.01725 13.2963L0.517252 5.2963ZM5.758 16.25H14.2961C15.4708 16.25 16.5095 15.6245 17.0813 14.6759L18.1776 11.7384C18.1776 11.7382 18.1777 11.738 18.1778 11.7378C18.537 10.7753 17.8253 9.75 16.7979 9.75H13.0207C11.7612 9.75 10.8032 8.61906 11.0102 7.3767C11.0649 7.04864 10.8119 6.75 10.4793 6.75H7.29848C5.74534 6.75 4.41169 7.85449 4.12229 9.38043L3.88346 10.6397L3.88022 10.6558L3.32898 13.2508C3.00085 14.7954 4.17887 16.25 5.758 16.25ZM12.4898 7.6233C12.4351 7.95136 12.6881 8.25 13.0207 8.25H16.7979C17.2041 8.25 17.5858 8.32939 17.9316 8.47168V8.14138C17.9316 8.12219 17.9324 8.103 17.9338 8.08386C18.0722 6.2855 16.6503 4.75 14.8466 4.75H12.5002C11.2576 4.75 10.2502 3.74264 10.2502 2.5C10.2502 2.08579 9.91441 1.75 9.5002 1.75H5.258C3.38333 1.75 1.89739 3.33171 2.01433 5.20273L2.35324 10.6253L2.41126 10.3522L2.64856 9.10094C3.07224 6.86697 5.02469 5.25 7.29848 5.25H10.4793C11.7388 5.25 12.6969 6.38094 12.4898 7.6233Z" fill="#363538"/>
</svg>
