<svg width="150" height="45" viewBox="0 0 150 45" fill="none" xmlns="http://www.w3.org/2000/svg">
<rect width="150" height="45" rx="8" fill="#5329FF"/>
<path d="M17.9 20.7H22.4L17 26.1L11.6 20.7H16.1V14.4H17.9V20.7ZM9.8 28.8H24.2V22.5H26V29.7C26 29.9387 25.9052 30.1676 25.7364 30.3364C25.5676 30.5052 25.3387 30.6 25.1 30.6H8.9C8.66131 30.6 8.43239 30.5052 8.2636 30.3364C8.09482 30.1676 8 29.9387 8 29.7V22.5H9.8V28.8Z" fill="white"/>
<path d="M40.4 28.644C39.248 28.644 38.2667 28.4093 37.456 27.94C36.6453 27.4707 36.0213 26.804 35.584 25.94C35.1573 25.0653 34.944 24.036 34.944 22.852C34.944 21.668 35.1573 20.644 35.584 19.78C36.0213 18.916 36.6453 18.2493 37.456 17.78C38.2667 17.3107 39.248 17.076 40.4 17.076C41.2 17.076 41.9147 17.1933 42.544 17.428C43.1733 17.6627 43.7227 18.004 44.192 18.452L43.616 19.78C43.104 19.3427 42.6027 19.028 42.112 18.836C41.632 18.644 41.072 18.548 40.432 18.548C39.216 18.548 38.288 18.9213 37.648 19.668C37.008 20.4147 36.688 21.476 36.688 22.852C36.688 24.228 37.008 25.2947 37.648 26.052C38.288 26.7987 39.216 27.172 40.432 27.172C41.072 27.172 41.632 27.076 42.112 26.884C42.6027 26.692 43.104 26.372 43.616 25.924L44.192 27.252C43.7227 27.7 43.1733 28.0467 42.544 28.292C41.9147 28.5267 41.2 28.644 40.4 28.644ZM46.1691 28.5V20.436H47.7691V23.732H49.1611L51.6731 20.436H53.4331L50.4251 24.404L50.0251 23.892C50.3345 23.924 50.6011 24.004 50.8251 24.132C51.0491 24.2493 51.2678 24.4253 51.4811 24.66C51.6945 24.8947 51.9131 25.204 52.1371 25.588L53.8171 28.5H52.0891L50.6491 26.036C50.4891 25.7587 50.3345 25.5453 50.1851 25.396C50.0358 25.236 49.8651 25.1293 49.6731 25.076C49.4811 25.012 49.2465 24.98 48.9691 24.98H47.7691V28.5H46.1691ZM58.1493 28.644C57.4346 28.644 56.8106 28.4787 56.2773 28.148C55.7439 27.8173 55.3279 27.3373 55.0293 26.708C54.7413 26.0787 54.5973 25.332 54.5973 24.468C54.5973 23.5933 54.7413 22.8467 55.0293 22.228C55.3279 21.6093 55.7439 21.1347 56.2773 20.804C56.8106 20.4627 57.4346 20.292 58.1493 20.292C58.8533 20.292 59.4666 20.468 59.9893 20.82C60.5119 21.172 60.8586 21.652 61.0293 22.26H60.8533L61.0133 20.436H62.5813C62.5493 20.7667 62.5173 21.0973 62.4853 21.428C62.4639 21.748 62.4533 22.0627 62.4533 22.372V28.5H60.8373V26.708H61.0133C60.8426 27.3053 60.4906 27.78 59.9573 28.132C59.4346 28.4733 58.8319 28.644 58.1493 28.644ZM58.5493 27.38C59.2426 27.38 59.7973 27.1347 60.2133 26.644C60.6399 26.1533 60.8533 25.428 60.8533 24.468C60.8533 23.508 60.6399 22.788 60.2133 22.308C59.7973 21.8173 59.2426 21.572 58.5493 21.572C57.8453 21.572 57.2799 21.8173 56.8533 22.308C56.4373 22.788 56.2293 23.508 56.2293 24.468C56.2293 25.428 56.4373 26.1533 56.8533 26.644C57.2693 27.1347 57.8346 27.38 58.5493 27.38ZM70.0868 28.5V25.38C69.7881 25.54 69.4681 25.668 69.1268 25.764C68.7854 25.8493 68.4228 25.892 68.0388 25.892C66.8761 25.892 66.0121 25.62 65.4468 25.076C64.8921 24.5213 64.6148 23.6947 64.6148 22.596V20.436H66.2148V22.468C66.2148 23.204 66.3801 23.7373 66.7108 24.068C67.0414 24.3987 67.5641 24.564 68.2788 24.564C68.6414 24.564 68.9614 24.5267 69.2388 24.452C69.5161 24.3667 69.7881 24.2387 70.0548 24.068V20.436H71.6708V28.5H70.0868ZM77.243 28.644C76.5283 28.644 75.9043 28.4787 75.371 28.148C74.8377 27.8173 74.4217 27.3373 74.123 26.708C73.835 26.0787 73.691 25.332 73.691 24.468C73.691 23.5933 73.835 22.8467 74.123 22.228C74.4217 21.6093 74.8377 21.1347 75.371 20.804C75.9043 20.4627 76.5283 20.292 77.243 20.292C77.947 20.292 78.5603 20.468 79.083 20.82C79.6057 21.172 79.9523 21.652 80.123 22.26H79.947L80.107 20.436H81.675C81.643 20.7667 81.611 21.0973 81.579 21.428C81.5577 21.748 81.547 22.0627 81.547 22.372V28.5H79.931V26.708H80.107C79.9363 27.3053 79.5843 27.78 79.051 28.132C78.5283 28.4733 77.9257 28.644 77.243 28.644ZM77.643 27.38C78.3363 27.38 78.891 27.1347 79.307 26.644C79.7337 26.1533 79.947 25.428 79.947 24.468C79.947 23.508 79.7337 22.788 79.307 22.308C78.891 21.8173 78.3363 21.572 77.643 21.572C76.939 21.572 76.3737 21.8173 75.947 22.308C75.531 22.788 75.323 23.508 75.323 24.468C75.323 25.428 75.531 26.1533 75.947 26.644C76.363 27.1347 76.9283 27.38 77.643 27.38ZM85.7565 28.5V21.732H82.9085V20.436H90.2205V21.732H87.3565V28.5H85.7565ZM91.5129 28.5V20.436H93.1129V23.252H95.4009C96.4569 23.252 97.2515 23.476 97.7849 23.924C98.3182 24.3613 98.5849 25.0013 98.5849 25.844C98.5849 26.388 98.4622 26.8627 98.2169 27.268C97.9715 27.6627 97.6089 27.9667 97.1289 28.18C96.6595 28.3933 96.0835 28.5 95.4009 28.5H91.5129ZM93.1129 27.396H95.2249C95.8222 27.396 96.2809 27.2733 96.6009 27.028C96.9209 26.772 97.0809 26.3827 97.0809 25.86C97.0809 25.3373 96.9209 24.9587 96.6009 24.724C96.2915 24.4787 95.8329 24.356 95.2249 24.356H93.1129V27.396ZM104.781 28.5V17.22H112.173V18.548H106.397V22.1H111.805V23.444H106.397V27.156H112.173V28.5H104.781ZM112.938 28.5L116.602 23.956V24.724L113.13 20.436H115.066L117.514 23.588H116.938L119.386 20.436H121.306L117.866 24.708V23.972L121.514 28.5H119.578L116.938 25.124H117.514L114.858 28.5H112.938ZM126.095 28.644C125.284 28.644 124.575 28.4787 123.967 28.148C123.37 27.8067 122.906 27.3213 122.575 26.692C122.255 26.052 122.095 25.2947 122.095 24.42C122.095 23.556 122.26 22.8147 122.591 22.196C122.922 21.5773 123.386 21.108 123.983 20.788C124.58 20.4573 125.284 20.292 126.095 20.292C126.618 20.292 127.124 20.3827 127.615 20.564C128.106 20.7347 128.511 20.98 128.831 21.3L128.303 22.436C128.004 22.148 127.668 21.9347 127.295 21.796C126.922 21.6467 126.559 21.572 126.207 21.572C125.439 21.572 124.836 21.8173 124.399 22.308C123.962 22.7987 123.743 23.508 123.743 24.436C123.743 25.3747 123.962 26.0947 124.399 26.596C124.836 27.0973 125.439 27.348 126.207 27.348C126.548 27.348 126.906 27.284 127.279 27.156C127.652 27.0173 127.994 26.7987 128.303 26.5L128.831 27.636C128.5 27.956 128.084 28.2067 127.583 28.388C127.092 28.5587 126.596 28.644 126.095 28.644ZM134.115 28.644C132.814 28.644 131.79 28.276 131.043 27.54C130.296 26.804 129.923 25.7853 129.923 24.484C129.923 23.6413 130.083 22.9053 130.403 22.276C130.734 21.6467 131.187 21.1613 131.763 20.82C132.35 20.468 133.027 20.292 133.795 20.292C134.552 20.292 135.187 20.452 135.699 20.772C136.211 21.092 136.6 21.5453 136.867 22.132C137.134 22.708 137.267 23.3907 137.267 24.18V24.692H131.187V23.764H136.163L135.891 23.972C135.891 23.172 135.71 22.5533 135.347 22.116C134.995 21.668 134.483 21.444 133.811 21.444C133.064 21.444 132.488 21.7053 132.083 22.228C131.678 22.74 131.475 23.4493 131.475 24.356V24.516C131.475 25.4653 131.704 26.18 132.163 26.66C132.632 27.14 133.294 27.38 134.147 27.38C134.616 27.38 135.054 27.316 135.459 27.188C135.875 27.0493 136.27 26.8253 136.643 26.516L137.171 27.62C136.798 27.9507 136.344 28.2067 135.811 28.388C135.278 28.5587 134.712 28.644 134.115 28.644ZM139.122 28.5V16.724H140.738V28.5H139.122Z" fill="white"/>
</svg>
