<svg width="168" height="42" viewBox="0 0 168 42" fill="none" xmlns="http://www.w3.org/2000/svg">
<rect width="168" height="42" rx="8" fill="#5329FF" fillOpacity="0.05"/>
<g clipPath="url(#clip0_944_7891)">
<path d="M14.94 23.036C14.707 23.66 14.51 24.236 14.334 24.819C15.294 24.122 16.435 23.68 17.752 23.515C20.265 23.201 22.498 21.542 23.628 19.457L22.172 18.002L23.585 16.587L24.585 15.586C25.015 15.156 25.5 14.362 26.013 13.218C20.42 14.085 16.995 17.51 14.939 23.036H14.94ZM25 18.001L26 19C25 22 22 25 18 25.5C15.331 25.834 13.664 27.667 12.998 31H11C12 25 14 11 29 11C28 13.997 27.002 15.996 26.003 16.997L25 18.001Z" fill="#5329FF"/>
</g>
<path d="M41.328 27V15.72H46.112C47.3173 15.72 48.24 16.0133 48.88 16.6C49.5307 17.176 49.856 17.976 49.856 19C49.856 20.024 49.5307 20.8293 48.88 21.416C48.24 22.0027 47.3173 22.296 46.112 22.296H42.992V27H41.328ZM42.992 20.968H45.936C46.6933 20.968 47.264 20.7973 47.648 20.456C48.032 20.1147 48.224 19.6293 48.224 19C48.224 18.3813 48.032 17.9013 47.648 17.56C47.264 17.2187 46.6933 17.048 45.936 17.048H42.992V20.968ZM55.2736 27.144C53.9723 27.144 52.9483 26.776 52.2016 26.04C51.455 25.304 51.0816 24.2853 51.0816 22.984C51.0816 22.1413 51.2416 21.4053 51.5616 20.776C51.8923 20.1467 52.3456 19.6613 52.9216 19.32C53.5083 18.968 54.1856 18.792 54.9536 18.792C55.711 18.792 56.3456 18.952 56.8576 19.272C57.3696 19.592 57.759 20.0453 58.0256 20.632C58.2923 21.208 58.4256 21.8907 58.4256 22.68V23.192H52.3456V22.264H57.3216L57.0496 22.472C57.0496 21.672 56.8683 21.0533 56.5056 20.616C56.1536 20.168 55.6416 19.944 54.9696 19.944C54.223 19.944 53.647 20.2053 53.2416 20.728C52.8363 21.24 52.6336 21.9493 52.6336 22.856V23.016C52.6336 23.9653 52.863 24.68 53.3216 25.16C53.791 25.64 54.4523 25.88 55.3056 25.88C55.775 25.88 56.2123 25.816 56.6176 25.688C57.0336 25.5493 57.4283 25.3253 57.8016 25.016L58.3296 26.12C57.9563 26.4507 57.503 26.7067 56.9696 26.888C56.4363 27.0587 55.871 27.144 55.2736 27.144ZM59.6035 29.08V25.752H60.4995C60.8515 25.2187 61.1075 24.5947 61.2675 23.88C61.4275 23.1653 61.5075 22.3013 61.5075 21.288V18.936H67.4115V25.752H68.7075V29.08H67.3155V27H60.9955V29.08H59.6035ZM61.9875 25.768H65.8915V20.184H62.8995V21.608C62.8995 22.3867 62.8195 23.1493 62.6595 23.896C62.5102 24.632 62.2862 25.256 61.9875 25.768ZM73.4618 27.144C72.7471 27.144 72.1231 26.9787 71.5898 26.648C71.0564 26.3173 70.6404 25.8373 70.3418 25.208C70.0538 24.5787 69.9098 23.832 69.9098 22.968C69.9098 22.0933 70.0538 21.3467 70.3418 20.728C70.6404 20.1093 71.0564 19.6347 71.5898 19.304C72.1231 18.9627 72.7471 18.792 73.4618 18.792C74.1658 18.792 74.7791 18.968 75.3018 19.32C75.8244 19.672 76.1711 20.152 76.3418 20.76H76.1658L76.3258 18.936H77.8938C77.8618 19.2667 77.8298 19.5973 77.7978 19.928C77.7764 20.248 77.7658 20.5627 77.7658 20.872V27H76.1498V25.208H76.3258C76.1551 25.8053 75.8031 26.28 75.2698 26.632C74.7471 26.9733 74.1444 27.144 73.4618 27.144ZM73.8618 25.88C74.5551 25.88 75.1098 25.6347 75.5258 25.144C75.9524 24.6533 76.1658 23.928 76.1658 22.968C76.1658 22.008 75.9524 21.288 75.5258 20.808C75.1098 20.3173 74.5551 20.072 73.8618 20.072C73.1578 20.072 72.5924 20.3173 72.1658 20.808C71.7498 21.288 71.5418 22.008 71.5418 22.968C71.5418 23.928 71.7498 24.6533 72.1658 25.144C72.5818 25.6347 73.1471 25.88 73.8618 25.88ZM80.2473 27V18.936H81.8473V22.232H83.2393L85.7513 18.936H87.5113L84.5033 22.904L84.1033 22.392C84.4126 22.424 84.6793 22.504 84.9033 22.632C85.1273 22.7493 85.3459 22.9253 85.5593 23.16C85.7726 23.3947 85.9913 23.704 86.2153 24.088L87.8953 27H86.1673L84.7273 24.536C84.5673 24.2587 84.4126 24.0453 84.2633 23.896C84.1139 23.736 83.9433 23.6293 83.7513 23.576C83.5593 23.512 83.3246 23.48 83.0473 23.48H81.8473V27H80.2473ZM90.8034 27V20.232H87.9554V18.936H95.2674V20.232H92.4034V27H90.8034ZM96.5598 27V18.936H98.0318V25.448H97.5838L102.448 18.936H103.792V27H102.336V20.472H102.8L97.9038 27H96.5598ZM106.28 30.456V20.872C106.28 20.5627 106.264 20.248 106.232 19.928C106.211 19.5973 106.184 19.2667 106.152 18.936H107.72L107.88 20.76H107.704C107.875 20.152 108.216 19.672 108.728 19.32C109.251 18.968 109.869 18.792 110.584 18.792C111.299 18.792 111.923 18.9627 112.456 19.304C112.989 19.6347 113.4 20.1093 113.688 20.728C113.987 21.3467 114.136 22.0933 114.136 22.968C114.136 23.832 113.987 24.5787 113.688 25.208C113.4 25.8373 112.989 26.3173 112.456 26.648C111.923 26.9787 111.299 27.144 110.584 27.144C109.88 27.144 109.267 26.9733 108.744 26.632C108.232 26.28 107.891 25.8053 107.72 25.208H107.896V30.456H106.28ZM110.184 25.88C110.888 25.88 111.448 25.6347 111.864 25.144C112.291 24.6533 112.504 23.928 112.504 22.968C112.504 22.008 112.291 21.288 111.864 20.808C111.448 20.3173 110.888 20.072 110.184 20.072C109.48 20.072 108.915 20.3173 108.488 20.808C108.072 21.288 107.864 22.008 107.864 22.968C107.864 23.928 108.072 24.6533 108.488 25.144C108.915 25.6347 109.48 25.88 110.184 25.88ZM119.674 27.144C118.874 27.144 118.18 26.9787 117.594 26.648C117.007 26.3067 116.554 25.8267 116.234 25.208C115.914 24.5787 115.754 23.832 115.754 22.968C115.754 22.104 115.914 21.3627 116.234 20.744C116.554 20.1147 117.007 19.6347 117.594 19.304C118.18 18.9627 118.874 18.792 119.674 18.792C120.474 18.792 121.167 18.9627 121.754 19.304C122.351 19.6347 122.81 20.1147 123.13 20.744C123.46 21.3627 123.626 22.104 123.626 22.968C123.626 23.832 123.46 24.5787 123.13 25.208C122.81 25.8267 122.351 26.3067 121.754 26.648C121.167 26.9787 120.474 27.144 119.674 27.144ZM119.674 25.88C120.378 25.88 120.938 25.6347 121.354 25.144C121.77 24.6533 121.978 23.928 121.978 22.968C121.978 22.008 121.77 21.288 121.354 20.808C120.938 20.3173 120.378 20.072 119.674 20.072C118.98 20.072 118.426 20.3173 118.01 20.808C117.594 21.288 117.386 22.008 117.386 22.968C117.386 23.928 117.588 24.6533 117.994 25.144C118.41 25.6347 118.97 25.88 119.674 25.88ZM125.622 27V18.936H129.686C130.657 18.936 131.372 19.1227 131.83 19.496C132.3 19.8587 132.534 20.376 132.534 21.048C132.534 21.5707 132.358 22.0027 132.006 22.344C131.665 22.6853 131.212 22.8933 130.646 22.968V22.76C131.318 22.792 131.846 22.9893 132.23 23.352C132.614 23.7147 132.806 24.184 132.806 24.76C132.806 25.4533 132.545 26.0027 132.022 26.408C131.51 26.8027 130.78 27 129.83 27H125.622ZM127.142 25.96H129.702C130.225 25.96 130.625 25.8533 130.902 25.64C131.18 25.416 131.318 25.096 131.318 24.68C131.318 24.264 131.18 23.9493 130.902 23.736C130.625 23.5227 130.225 23.416 129.702 23.416H127.142V25.96ZM127.142 22.376H129.526C130.006 22.376 130.38 22.2693 130.646 22.056C130.913 21.8427 131.046 21.5493 131.046 21.176C131.046 20.792 130.913 20.4987 130.646 20.296C130.38 20.0827 130.006 19.976 129.526 19.976H127.142V22.376ZM137.868 27.144C137.153 27.144 136.529 26.9787 135.996 26.648C135.463 26.3173 135.047 25.8373 134.748 25.208C134.46 24.5787 134.316 23.832 134.316 22.968C134.316 22.0933 134.46 21.3467 134.748 20.728C135.047 20.1093 135.463 19.6347 135.996 19.304C136.529 18.9627 137.153 18.792 137.868 18.792C138.572 18.792 139.185 18.968 139.708 19.32C140.231 19.672 140.577 20.152 140.748 20.76H140.572L140.732 18.936H142.3C142.268 19.2667 142.236 19.5973 142.204 19.928C142.183 20.248 142.172 20.5627 142.172 20.872V27H140.556V25.208H140.732C140.561 25.8053 140.209 26.28 139.676 26.632C139.153 26.9733 138.551 27.144 137.868 27.144ZM138.268 25.88C138.961 25.88 139.516 25.6347 139.932 25.144C140.359 24.6533 140.572 23.928 140.572 22.968C140.572 22.008 140.359 21.288 139.932 20.808C139.516 20.3173 138.961 20.072 138.268 20.072C137.564 20.072 136.999 20.3173 136.572 20.808C136.156 21.288 135.948 22.008 135.948 22.968C135.948 23.928 136.156 24.6533 136.572 25.144C136.988 25.6347 137.553 25.88 138.268 25.88ZM146.382 27V20.232H143.534V18.936H150.846V20.232H147.982V27H146.382ZM152.138 27V18.936H153.738V21.752H156.026C157.082 21.752 157.877 21.976 158.41 22.424C158.943 22.8613 159.21 23.5013 159.21 24.344C159.21 24.888 159.087 25.3627 158.842 25.768C158.597 26.1627 158.234 26.4667 157.754 26.68C157.285 26.8933 156.709 27 156.026 27H152.138ZM153.738 25.896H155.85C156.447 25.896 156.906 25.7733 157.226 25.528C157.546 25.272 157.706 24.8827 157.706 24.36C157.706 23.8373 157.546 23.4587 157.226 23.224C156.917 22.9787 156.458 22.856 155.85 22.856H153.738V25.896Z" fill="#5329FF"/>
<defs>
<clipPath id="clip0_944_7891">
<rect width="24" height="24" fill="white" transform="translate(8 9)"/>
</clipPath>
</defs>
</svg>
