<svg width="24" height="24" viewBox="0 0 24 24" fill="none" xmlns="http://www.w3.org/2000/svg">
<path fill-rule="evenodd" clip-rule="evenodd" d="M6.71211 3.35361C6.74863 2.81138 7.34524 2.46693 7.83308 2.70641L10.3323 3.93327C10.5001 4.01567 10.6958 4.0322 10.8807 3.97958L13.6335 3.19613C14.1708 3.0432 14.6689 3.48007 14.5693 4.01697L14.059 6.76745C14.0247 6.95218 14.0621 7.14017 14.1638 7.29422L15.678 9.58779C15.9736 10.0355 15.6848 10.65 15.1354 10.7423L13.2803 11.0541L19.8388 20.4144C20.0764 20.7537 19.9941 21.2213 19.6549 21.459C19.3157 21.6967 18.848 21.6144 18.6103 21.2752L11.794 11.5469L10.0202 13.6955C9.66556 14.1252 8.98902 14.068 8.74909 13.5882L7.5199 11.1301C7.43734 10.965 7.29324 10.8386 7.11613 10.7759L4.47898 9.8426C3.96421 9.66042 3.83489 9.01066 4.23601 8.62177L6.29088 6.62953C6.42889 6.49572 6.51245 6.31794 6.52501 6.13138L6.71211 3.35361ZM8.02162 6.23219L8.13652 4.52637L9.67125 5.27977C10.1823 5.53063 10.7607 5.57332 11.2913 5.42229L12.8661 4.9741L12.5841 6.49383C12.4805 7.05269 12.5922 7.63621 12.912 8.12065L13.7881 9.44769L12.0722 9.73608C11.5273 9.82767 11.0322 10.1135 10.6804 10.5396L9.57271 11.8815L8.86151 10.4592C8.60188 9.94 8.1524 9.55149 7.61657 9.36185L6.15947 8.84617L7.335 7.70647C7.73114 7.32241 7.98337 6.80016 8.02162 6.23219Z" fill="#5329FF"/>
</svg>
