<svg width="20" height="20" viewBox="0 0 20 20" fill="none" xmlns="http://www.w3.org/2000/svg">
<path fill-rule="evenodd" clip-rule="evenodd" d="M13.7 12.5C13.7 13.9497 12.4912 15.125 11 15.125C9.50882 15.125 8.29999 13.9497 8.29999 12.5C8.29999 11.0503 9.50882 9.875 11 9.875C12.4912 9.875 13.7 11.0503 13.7 12.5ZM12.2 12.5C12.2 13.0818 11.7028 13.625 11 13.625C10.2971 13.625 9.79999 13.0818 9.79999 12.5C9.79999 11.9182 10.2971 11.375 11 11.375C11.7028 11.375 12.2 11.9182 12.2 12.5Z" fill="#363538"/>
<path fill-rule="evenodd" clip-rule="evenodd" d="M18 3.5V5.67071C19.1652 6.08254 20 7.19378 20 8.5V16.5C20 18.1569 18.6569 19.5 17 19.5H5C3.34315 19.5 2 18.1569 2 16.5V14.3293C0.834808 13.9175 0 12.8062 0 11.5V3.5C0 1.84315 1.34315 0.5 3 0.5H15C16.6569 0.5 18 1.84315 18 3.5ZM4.34999 2H13.65C13.65 3.51878 14.8812 4.75 16.4 4.75H16.5V5.5H10.7488C10.2777 5.11022 9.66707 4.875 8.99996 4.875C8.33286 4.875 7.72226 5.11022 7.25112 5.5H5C3.34315 5.5 2 6.84315 2 8.5V10.2789C1.86942 10.2599 1.73586 10.25 1.59999 10.25H1.5V4.75H1.59999C3.11878 4.75 4.34999 3.51878 4.34999 2ZM2 11.8154V12.6181C1.75196 12.3961 1.57824 12.0927 1.52074 11.75H1.59999C1.73989 11.75 1.87441 11.773 2 11.8154ZM15.15 2.00741C15.825 2.07443 16.3683 2.58889 16.4793 3.25H16.4C15.7121 3.25 15.154 2.69435 15.15 2.00741ZM1.59999 3.25H1.52074C1.63165 2.5889 2.175 2.07444 2.84997 2.00741C2.84599 2.69436 2.28788 3.25 1.59999 3.25ZM15.65 7H6.35001C6.35001 8.51878 5.11879 9.75 3.60001 9.75H3.5V15.25H3.60001C5.11879 15.25 6.35001 16.4812 6.35001 18H15.65C15.65 16.4812 16.8812 15.25 18.4 15.25H18.5V9.75H18.4C16.8812 9.75 15.65 8.51878 15.65 7ZM3.52074 8.25C3.63165 7.5889 4.175 7.07443 4.84998 7.00741C4.846 7.69436 4.28789 8.25 3.60001 8.25H3.52074ZM4.84998 17.9926C4.84599 17.3056 4.28789 16.75 3.60001 16.75H3.52074C3.63165 17.4111 4.175 17.9256 4.84998 17.9926ZM18.4793 16.75C18.3683 17.4111 17.825 17.9256 17.15 17.9926C17.154 17.3056 17.7121 16.75 18.4 16.75H18.4793ZM17.15 7.00741C17.154 7.69435 17.7121 8.25 18.4 8.25H18.4793C18.3683 7.5889 17.825 7.07443 17.15 7.00741Z" fill="#363538"/>
</svg>
