<svg width="18" height="20" viewBox="0 0 18 20" fill="none" xmlns="http://www.w3.org/2000/svg">
<path fill-rule="evenodd" clip-rule="evenodd" d="M1 1C1 0.447715 1.44772 0 2 0H16C16.5523 0 17 0.447715 17 1V19C17 19.3905 16.7727 19.7453 16.4179 19.9085C16.0631 20.0717 15.6457 20.0134 15.3492 19.7593L14.3175 18.8749C13.943 18.5539 13.3904 18.5539 13.0159 18.8749L11.9841 19.7593C11.6096 20.0802 11.057 20.0802 10.6825 19.7593L9.65079 18.8749C9.2763 18.5539 8.7237 18.5539 8.34921 18.8749L7.31746 19.7593C6.94297 20.0802 6.39036 20.0802 6.01588 19.7593L4.98412 18.8749C4.60963 18.5539 4.05703 18.5539 3.68254 18.8749L2.65079 19.7593C2.35428 20.0134 1.93694 20.0717 1.58214 19.9085C1.22734 19.7453 1 19.3905 1 19V1ZM3 2V16.9463C4.05673 16.4217 5.3547 16.5584 6.28571 17.3564L6.66667 17.6829L7.04763 17.3564C8.17109 16.3934 9.82891 16.3934 10.9524 17.3564L11.3333 17.6829L11.7143 17.3564C12.6453 16.5584 13.9433 16.4217 15 16.9463V2H3Z" fill="#5329FF"/>
<path fill-rule="evenodd" clip-rule="evenodd" d="M5 5C5 4.44772 5.44772 4 6 4L12 4C12.5523 4 13 4.44772 13 5C13 5.55228 12.5523 6 12 6L6 6C5.44772 6 5 5.55228 5 5Z" fill="#5329FF"/>
<path fill-rule="evenodd" clip-rule="evenodd" d="M5 9C5 8.44772 5.44772 8 6 8L12 8C12.5523 8 13 8.44772 13 9C13 9.55228 12.5523 10 12 10L6 10C5.44772 10 5 9.55228 5 9Z" fill="#5329FF"/>
<path fill-rule="evenodd" clip-rule="evenodd" d="M7 13C7 12.4477 7.44772 12 8 12L12 12C12.5523 12 13 12.4477 13 13C13 13.5523 12.5523 14 12 14L8 14C7.44772 14 7 13.5523 7 13Z" fill="#5329FF"/>
</svg>
