<svg width="20" height="20" viewBox="0 0 20 20" fill="none" xmlns="http://www.w3.org/2000/svg">
<path fill-rule="evenodd" clip-rule="evenodd" d="M12.25 5.46871C12.25 5.21418 12.1995 4.96696 12.1058 4.73921L8.71476 6.74555L8.71264 6.74682C8.40917 6.92861 8.08432 7.05946 7.75 7.13921V7.96625L7.64316 8.02561C7.07926 8.33889 6.60666 8.77199 6.25 9.28306V7.15863C5.9153 7.08789 5.58863 6.96629 5.28176 6.79367L1.8484 4.86235C1.78413 5.05502 1.75 5.25939 1.75 5.46871V8.33056C1.75 9.02663 2.12738 9.66799 2.73585 10.006L5.50187 11.5427C5.50063 11.5844 5.5 11.6261 5.5 11.6679V13.2522C5.44637 13.226 5.39325 13.1983 5.34072 13.1691L2.00739 11.3173C0.922714 10.7147 0.25 9.57138 0.25 8.33056V5.46871C0.25 4.22789 0.922715 3.0846 2.00739 2.48201L5.34072 0.630158C6.37263 0.0568739 7.62737 0.056875 8.65928 0.630158L11.9926 2.48201C13.0773 3.08461 13.75 4.22789 13.75 5.46871V5.71741C13.2542 5.62675 12.7458 5.62675 12.25 5.71741V5.46871ZM6.06918 1.94139C6.64806 1.6198 7.35194 1.6198 7.93082 1.94139L11.0036 3.64847L9.68685 4.42752L5.88109 2.04589L6.06918 1.94139ZM6.01717 5.48632L2.87245 3.71736L4.38323 2.87803L8.23342 5.28747L7.94696 5.45696L7.943 5.45932C7.35251 5.81362 6.61735 5.82393 6.01717 5.48632Z" fill="#363538"/>
<path fill-rule="evenodd" clip-rule="evenodd" d="M14.6593 6.82938C13.6274 6.25609 12.3726 6.25609 11.3407 6.82938L8.00739 8.68123C6.92272 9.28382 6.25 10.4271 6.25 11.6679V14.5298C6.25 15.7706 6.92271 16.9139 8.00739 17.5165L11.3407 19.3683C12.3726 19.9416 13.6274 19.9416 14.6593 19.3683L17.9926 17.5165C19.0773 16.9139 19.75 15.7706 19.75 14.5298V11.6679C19.75 10.4271 19.0773 9.28382 17.9926 8.68123L14.6593 6.82938ZM12.0692 8.14061C12.6481 7.81901 13.3519 7.81901 13.9308 8.14061L17.0037 9.84778L15.6869 10.6269L11.8809 8.2452L12.0692 8.14061ZM10.3831 9.07734L8.87227 9.91667L12.0172 11.6857C12.6173 12.0233 13.3525 12.013 13.943 11.6587L13.947 11.6564L14.2334 11.4869L10.3831 9.07734ZM7.84835 11.0617C7.78411 11.2544 7.75 11.4587 7.75 11.6679V14.5298C7.75 15.2259 8.12738 15.8672 8.73585 16.2052L12.0692 18.0571C12.1282 18.0899 12.1886 18.1194 12.25 18.1455V13.358C11.9153 13.2873 11.5886 13.1657 11.2818 12.9931L7.84835 11.0617ZM13.75 13.3386V18.1455C13.8114 18.1194 13.8718 18.0899 13.9308 18.0571L17.2641 16.2052C17.8726 15.8672 18.25 15.2259 18.25 14.5298V11.6679C18.25 11.4135 18.1996 11.1663 18.1058 10.9386L14.7148 12.945L14.7126 12.9462C14.4092 13.128 14.0843 13.2589 13.75 13.3386Z" fill="#363538"/>
</svg>
