<svg width="60" height="60" viewBox="0 0 60 60" fill="none" xmlns="http://www.w3.org/2000/svg">
<rect width="60" height="60" rx="10" fill="#5329FF" fillOpacity="0.15"/>
<path d="M38.5455 42H19.4545C19.0929 42 18.746 41.8606 18.4903 41.6124C18.2346 41.3643 18.0909 41.0277 18.0909 40.6767V28.7673H14L28.0823 16.3445C28.3333 16.1228 28.6606 16 29 16C29.3394 16 29.6667 16.1228 29.9177 16.3445L44 28.7673H39.9091V40.6767C39.9091 41.0277 39.7654 41.3643 39.5097 41.6124C39.254 41.8606 38.9071 42 38.5455 42ZM20.8182 39.3535H37.1818V26.3286L29 19.1115L20.8182 26.3286V39.3535ZM23.5455 34.0604H34.4545V36.7069H23.5455V34.0604Z" fill="#5329FF"/>
</svg>
