<svg width="21" height="20" viewBox="0 0 21 20" fill="none" xmlns="http://www.w3.org/2000/svg">
<path fill-rule="evenodd" clip-rule="evenodd" d="M5 1.5H11C11.2761 1.5 11.5 1.72386 11.5 2V10C11.5 10.2761 11.2761 10.5 11 10.5H3C2.72386 10.5 2.5 10.2761 2.5 10V9H1V10C1 11.1046 1.89543 12 3 12H3.25V14C3.25 15.1182 3.73942 16.1221 4.51573 16.8091C4.67047 18.3208 5.94752 19.5 7.5 19.5C8.71075 19.5 9.75398 18.7828 10.228 17.75H12.272C12.746 18.7828 13.7893 19.5 15 19.5C16.2408 19.5 17.3057 18.7467 17.7622 17.6725C19.4678 17.3203 20.75 15.8099 20.75 14V9.86883C20.75 9.32144 20.5866 8.7865 20.2808 8.3325L16.9223 3.34635C16.0395 2.03578 14.5628 1.25 12.9826 1.25H12.8546C12.863 1.27061 12.871 1.29139 12.8786 1.31233C12.5982 0.546528 11.8629 0 11 0H5C3.51944 0 2.22675 0.804397 1.53513 2H3.49976C3.91763 1.68604 4.43709 1.5 5 1.5ZM4.75 14V12H11C12.1046 12 13 11.1046 13 10V2.75005C14.0746 2.75577 15.0774 3.29244 15.6782 4.18434L15.7977 4.36178C14.899 4.65679 14.25 5.50261 14.25 6.5V8.25C14.25 10.4591 16.0409 12.25 18.25 12.25H19.25V14C19.25 14.8977 18.7243 15.6726 17.964 16.0336C17.7399 14.5983 16.4982 13.5 15 13.5C13.4273 13.5 12.1373 14.7101 12.0103 16.25H10.4897C10.3627 14.7101 9.07267 13.5 7.5 13.5C6.42166 13.5 5.4762 14.0689 4.94743 14.923C4.82058 14.6414 4.75 14.3289 4.75 14ZM19.25 10.75V9.86883C19.25 9.62001 19.1757 9.37686 19.0367 9.1705L16.7328 5.75H16.5C16.0858 5.75 15.75 6.08579 15.75 6.5V8.25C15.75 9.63071 16.8693 10.75 18.25 10.75H19.25ZM7.5 18C8.32843 18 9 17.3284 9 16.5C9 15.6716 8.32843 15 7.5 15C6.67157 15 6 15.6716 6 16.5C6 17.3284 6.67157 18 7.5 18ZM16.5 16.5C16.5 17.3284 15.8284 18 15 18C14.1716 18 13.5 17.3284 13.5 16.5C13.5 15.6716 14.1716 15 15 15C15.8284 15 16.5 15.6716 16.5 16.5Z" fill="#363538"/>
<path d="M0.25 4C0.25 3.58579 0.585786 3.25 1 3.25H5C5.41421 3.25 5.75 3.58579 5.75 4C5.75 4.41421 5.41421 4.75 5 4.75H1C0.585786 4.75 0.25 4.41421 0.25 4Z" fill="#363538"/>
<path d="M1 6.25C0.585786 6.25 0.25 6.58579 0.25 7C0.25 7.41421 0.585786 7.75 1 7.75H8C8.41421 7.75 8.75 7.41421 8.75 7C8.75 6.58579 8.41421 6.25 8 6.25H1Z" fill="#363538"/>
</svg>
