<svg width="20" height="16" viewBox="0 0 20 16" fill="currentColor" xmlns="http://www.w3.org/2000/svg">
<path fill-rule="evenodd" clip-rule="evenodd" d="M15.7993 0.110754C17.7851 -0.44088 19.75 1.05258 19.75 3.11365V10.8865C19.75 12.9475 17.7851 14.441 15.7993 13.8894L7.75 11.6535V13.3634C7.75 14.6815 6.68148 15.7501 5.36339 15.7501C4.21159 15.7501 3.22412 14.9274 3.01604 13.7946L2.34225 10.1261C1.08859 9.60992 0.25 8.38215 0.25 7.00006C0.25 5.48116 1.26282 4.14866 2.7263 3.74213L15.7993 0.110754ZM1.75 7.00006C1.75 7.84515 2.31351 8.58653 3.12777 8.81271L15.25 12.18V1.82012L3.12777 5.18741C2.31351 5.41359 1.75 6.15497 1.75 7.00006ZM16.75 1.50016V12.5C17.5647 12.4418 18.25 11.7631 18.25 10.8865V3.11365C18.25 2.23698 17.5647 1.55829 16.75 1.50016ZM3.9542 10.5991L4.49136 13.5236C4.56866 13.9445 4.9355 14.2501 5.36339 14.2501C5.85305 14.2501 6.25 13.8531 6.25 13.3634V11.2368L3.9542 10.5991Z" fill="currentColor
"/>
</svg>
