<svg width="20" height="20" viewBox="0 0 20 20" fill="none" xmlns="http://www.w3.org/2000/svg">
<path d="M12.6926 7.43856C12.2589 7.02768 11.9799 6.47997 11.9026 5.88756L11.4996 2.80456L8.76963 4.29056C8.24472 4.57658 7.63729 4.67299 7.04963 4.56356L3.99363 3.99356L4.56363 7.04956C4.67306 7.63723 4.57664 8.24466 4.29063 8.76956L2.80463 11.4996L5.88763 11.9026C6.47968 11.9801 7.027 12.2591 7.43763 12.6926L9.57563 14.9496L10.9116 12.1426C11.1681 11.6031 11.6024 11.1684 12.1416 10.9116L14.9496 9.57556L12.6926 7.43856ZM12.7176 13.0016L10.5046 17.6516C10.4628 17.7395 10.4001 17.8159 10.3221 17.8742C10.2441 17.9325 10.1531 17.9709 10.0569 17.9862C9.96074 18.0015 9.86229 17.9931 9.77008 17.9618C9.67786 17.9305 9.59465 17.8772 9.52763 17.8066L5.98563 14.0676C5.891 13.9678 5.76497 13.9035 5.62863 13.8856L0.521626 13.2176C0.425138 13.2048 0.33319 13.1689 0.253713 13.1127C0.174235 13.0565 0.109614 12.9819 0.0654226 12.8951C0.0212308 12.8084 -0.00120502 12.7123 4.98912e-05 12.615C0.00130481 12.5176 0.0262129 12.4221 0.0726259 12.3366L2.53463 7.81256C2.60008 7.69157 2.62196 7.55176 2.59663 7.41656L1.65363 2.35356C1.63572 2.25773 1.64143 2.15897 1.67028 2.06585C1.69912 1.97272 1.75022 1.88802 1.81915 1.81909C1.88809 1.75015 1.97279 1.69905 2.06591 1.67021C2.15904 1.64137 2.25779 1.63565 2.35363 1.65356L7.41663 2.59656C7.55183 2.6219 7.69164 2.60001 7.81263 2.53456L12.3366 0.0725597C12.4222 0.0261341 12.5179 0.00124625 12.6152 4.56055e-05C12.7126 -0.00115504 12.8088 0.0213677 12.8956 0.0656684C12.9823 0.109969 13.0569 0.174716 13.1131 0.254318C13.1692 0.33392 13.2051 0.425984 13.2176 0.52256L13.8856 5.62856C13.9036 5.7649 13.9678 5.89093 14.0676 5.98556L17.8066 9.52756C17.8773 9.59458 17.9305 9.6778 17.9618 9.77001C17.9931 9.86223 18.0015 9.96068 17.9863 10.0569C17.971 10.153 17.9326 10.2441 17.8743 10.3221C17.816 10.4001 17.7395 10.4627 17.6516 10.5046L13.0016 12.7176C12.8771 12.7768 12.7769 12.8771 12.7176 13.0016ZM13.5146 14.9286L14.9286 13.5146L19.1716 17.7566L17.7566 19.1716L13.5146 14.9286Z" fill="#5329FF"/>
</svg>
