<svg width="20" height="20" viewBox="0 0 20 20" fill="none" xmlns="http://www.w3.org/2000/svg">
<path d="M13.8285 10.9926C13.4142 10.9926 13.0785 10.6569 13.0785 10.2426V9.21065L10.5303 11.7588C10.2374 12.0517 9.76256 12.0517 9.46967 11.7588L8.5 10.7891L5.53033 13.7588C5.23744 14.0517 4.76256 14.0517 4.46967 13.7588C4.17678 13.4659 4.17678 12.991 4.46967 12.6981L7.96967 9.19812C8.26256 8.90523 8.73744 8.90523 9.03033 9.19812L10 10.1678L12.0036 8.16422H11C10.5858 8.16422 10.25 7.82843 10.25 7.41422C10.25 7 10.5858 6.66422 11 6.66422L13.8285 6.66422C14.2427 6.66422 14.5785 7 14.5785 7.41422L14.5785 10.2426C14.5785 10.6569 14.2427 10.9926 13.8285 10.9926Z" fill="#363538"/>
<path fill-rule="evenodd" clip-rule="evenodd" d="M0 10C0 13.7385 0 15.6077 0.803847 17C1.33046 17.9121 2.08788 18.6695 3 19.1962C4.3923 20 6.26154 20 10 20C13.7385 20 15.6077 20 17 19.1962C17.9121 18.6695 18.6695 17.9121 19.1962 17C20 15.6077 20 13.7385 20 10C20 6.26154 20 4.3923 19.1962 3C18.6695 2.08788 17.9121 1.33046 17 0.803847C15.6077 0 13.7385 0 10 0C6.26154 0 4.3923 0 3 0.803847C2.08788 1.33046 1.33046 2.08788 0.803847 3C0 4.3923 0 6.26154 0 10ZM17.8971 3.75C18.1453 4.1798 18.3146 4.75097 18.4056 5.75559C18.4986 6.78082 18.5 8.10316 18.5 10C18.5 11.8968 18.4986 13.2192 18.4056 14.2444C18.3146 15.249 18.1453 15.8202 17.8971 16.25C17.5022 16.9341 16.9341 17.5022 16.25 17.8971C15.8202 18.1453 15.249 18.3146 14.2444 18.4056C13.2192 18.4986 11.8968 18.5 10 18.5C8.10316 18.5 6.78082 18.4986 5.75559 18.4056C4.75097 18.3146 4.1798 18.1453 3.75 17.8971C3.06591 17.5022 2.49784 16.9341 2.10289 16.25C1.85474 15.8202 1.68541 15.249 1.59436 14.2444C1.50144 13.2192 1.5 11.8968 1.5 10C1.5 8.10316 1.50144 6.78082 1.59436 5.75559C1.68541 4.75097 1.85474 4.1798 2.10289 3.75C2.49784 3.06591 3.06591 2.49784 3.75 2.10289C4.1798 1.85474 4.75097 1.68541 5.75559 1.59436C6.78082 1.50144 8.10316 1.5 10 1.5C11.8968 1.5 13.2192 1.50144 14.2444 1.59436C15.249 1.68541 15.8202 1.85474 16.25 2.10289C16.9341 2.49784 17.5022 3.06591 17.8971 3.75Z" fill="#363538"/>
</svg>
