<svg width="54" height="54" viewBox="0 0 54 54" fill="none" xmlns="http://www.w3.org/2000/svg">
<rect width="54" height="54" fill="white"/>
<path d="M27 42.6314V9.94717H36.6977C40.4961 9.94717 43.1395 10.1183 44.6279 10.4607C46.1318 10.7881 47.4264 11.3462 48.5116 12.1351C49.7364 13.0281 50.6744 14.1667 51.3256 15.5508C51.9922 16.935 52.3256 18.4605 52.3256 20.1275C52.3256 22.6577 51.6744 24.7191 50.3721 26.3116C49.0853 27.8893 47.2015 28.9385 44.7209 29.4595L54 42.6314H43.5116L35.6977 29.839V42.6314H27ZM35.6977 25.3963H37.4186C39.4186 25.3963 40.876 25.0688 41.7907 24.414C42.7209 23.7591 43.186 22.7321 43.186 21.3331C43.186 19.6959 42.7519 18.535 41.8837 17.8503C41.031 17.1508 39.5891 16.801 37.5581 16.801H35.6977V25.3963Z" fill="#1A1A1A"/>
<path d="M17.7355 48.1844C16.1948 48.6497 14.5425 47.8426 14.1119 46.3634C10.4213 33.6848 10.4531 20.2879 14.2039 7.62526C14.6416 6.14785 16.2977 5.34783 17.8362 5.81977C19.3748 6.2917 20.2127 7.85688 19.78 9.33562C16.3988 20.8932 16.3698 33.105 19.6961 44.6769C20.1216 46.1575 19.2763 47.719 17.7355 48.1844Z" fill="#F0AD00"/>
<path d="M4.83195 42.559C3.27218 42.9003 1.70402 42.0033 1.39685 40.5424C-0.380438 32.0895 -0.462444 23.404 1.15497 14.9235C1.4345 13.4578 2.98548 12.5354 4.55146 12.8513C6.11743 13.1671 7.10491 14.6017 6.83044 16.0682C5.39044 23.7624 5.46478 31.6358 7.04984 39.3054C7.35195 40.7672 6.39171 42.2176 4.83195 42.559Z" fill="#F0AD00"/>
</svg>
