<svg width="60" height="60" viewBox="0 0 60 60" fill="none" xmlns="http://www.w3.org/2000/svg">
<rect opacity="0.21" width="60" height="60" rx="10" fill="#FF9066"/>
<path opacity="0.901274" fillRule="evenodd" clipRule="evenodd" d="M22.7214 15.1789C22.4573 14.8642 21.9474 14.9846 21.852 15.3843L20.2186 22.2324C20.1409 22.5581 20.3989 22.8666 20.7332 22.8477L27.778 22.4484C28.1889 22.4252 28.3972 21.9431 28.1327 21.6278L26.3314 19.4811C27.4963 19.083 28.7316 18.8751 30 18.8751C36.2592 18.8751 41.3333 23.9492 41.3333 30.2084C41.3333 36.4676 36.2592 41.5417 30 41.5417C23.7408 41.5417 18.6667 36.4676 18.6667 30.2084C18.6667 29.1576 18.809 28.1285 19.0864 27.1394L16.5188 26.4192C16.1808 27.6243 16 28.8953 16 30.2084C16 37.9404 22.268 44.2084 30 44.2084C37.732 44.2084 44 37.9404 44 30.2084C44 22.4764 37.732 16.2084 30 16.2084C28.055 16.2084 26.2027 16.605 24.5195 17.3218L22.7214 15.1789Z" fill="#FF9066"/>
</svg>
