<svg width="115" height="40" viewBox="0 0 115 40" fill="none" xmlns="http://www.w3.org/2000/svg">
<rect width="115" height="40" rx="8" fill="#F93C65" fillOpacity="0.05"/>
<g clipPath="url(#clip0_944_7894)">
<path d="M12 16H28V29C28 29.2652 27.8946 29.5196 27.7071 29.7071C27.5196 29.8946 27.2652 30 27 30H13C12.7348 30 12.4804 29.8946 12.2929 29.7071C12.1054 29.5196 12 29.2652 12 29V16ZM14 18V28H26V18H14ZM17 20H19V26H17V20ZM21 20H23V26H21V20ZM15 13V11C15 10.7348 15.1054 10.4804 15.2929 10.2929C15.4804 10.1054 15.7348 10 16 10H24C24.2652 10 24.5196 10.1054 24.7071 10.2929C24.8946 10.4804 25 10.7348 25 11V13H30V15H10V13H15ZM17 12V13H23V12H17Z" fill="#F93C65"/>
</g>
<path d="M43.136 26L45.104 22.288L45.12 22.864L39.888 14.72H41.68L45.936 21.408H45.6L49.12 14.72H50.848L44.864 26H43.136ZM51.1348 28.08V24.752H52.0308C52.3828 24.2187 52.6388 23.5947 52.7988 22.88C52.9588 22.1653 53.0388 21.3013 53.0388 20.288V17.936H58.9427V24.752H60.2388V28.08H58.8468V26H52.5268V28.08H51.1348ZM53.5188 24.768H57.4228V19.184H54.4308V20.608C54.4308 21.3867 54.3508 22.1493 54.1908 22.896C54.0414 23.632 53.8174 24.256 53.5188 24.768ZM64.993 26.144C64.2783 26.144 63.6543 25.9787 63.121 25.648C62.5877 25.3173 62.1717 24.8373 61.873 24.208C61.585 23.5787 61.441 22.832 61.441 21.968C61.441 21.0933 61.585 20.3467 61.873 19.728C62.1717 19.1093 62.5877 18.6347 63.121 18.304C63.6543 17.9627 64.2783 17.792 64.993 17.792C65.697 17.792 66.3103 17.968 66.833 18.32C67.3557 18.672 67.7023 19.152 67.873 19.76H67.697L67.857 17.936H69.425C69.393 18.2667 69.361 18.5973 69.329 18.928C69.3077 19.248 69.297 19.5627 69.297 19.872V26H67.681V24.208H67.857C67.6863 24.8053 67.3343 25.28 66.801 25.632C66.2783 25.9733 65.6757 26.144 64.993 26.144ZM65.393 24.88C66.0863 24.88 66.641 24.6347 67.057 24.144C67.4837 23.6533 67.697 22.928 67.697 21.968C67.697 21.008 67.4837 20.288 67.057 19.808C66.641 19.3173 66.0863 19.072 65.393 19.072C64.689 19.072 64.1237 19.3173 63.697 19.808C63.281 20.288 63.073 21.008 63.073 21.968C63.073 22.928 63.281 23.6533 63.697 24.144C64.113 24.6347 64.6783 24.88 65.393 24.88ZM71.4425 26.208L70.8985 24.928C71.2612 24.7787 71.5652 24.592 71.8105 24.368C72.0665 24.1333 72.2638 23.8347 72.4025 23.472C72.5518 23.1093 72.6585 22.6613 72.7225 22.128C72.7865 21.5947 72.8185 20.9493 72.8185 20.192V17.936H78.8985V26H77.2985V19.2H74.3065V20.24C74.3065 21.456 74.2105 22.464 74.0185 23.264C73.8265 24.064 73.5172 24.6987 73.0905 25.168C72.6745 25.6267 72.1252 25.9733 71.4425 26.208ZM81.3254 26V17.936H82.7974V24.448H82.3494L87.2134 17.936H88.5574V26H87.1014V19.472H87.5654L82.6694 26H81.3254ZM92.7096 26V19.232H89.8616V17.936H97.1736V19.232H94.3096V26H92.7096ZM98.466 26V17.936H100.066V20.752H102.354C103.41 20.752 104.205 20.976 104.738 21.424C105.271 21.8613 105.538 22.5013 105.538 23.344C105.538 23.888 105.415 24.3627 105.17 24.768C104.925 25.1627 104.562 25.4667 104.082 25.68C103.613 25.8933 103.037 26 102.354 26H98.466ZM100.066 24.896H102.178C102.775 24.896 103.234 24.7733 103.554 24.528C103.874 24.272 104.034 23.8827 104.034 23.36C104.034 22.8373 103.874 22.4587 103.554 22.224C103.245 21.9787 102.786 21.856 102.178 21.856H100.066V24.896Z" fill="#F93C65"/>
<defs>
<clipPath id="clip0_944_7894">
<rect width="24" height="24" fill="white" transform="translate(8 8)"/>
</clipPath>
</defs>
</svg>
