<svg width="95" height="45" viewBox="0 0 95 45" fill="none" xmlns="http://www.w3.org/2000/svg">
<rect width="94.5441" height="45" rx="8" fill="#5329FF" fill-opacity="0.1"/>
<path fill-rule="evenodd" clip-rule="evenodd" d="M9.5 21.6035C9.5 17.254 13.026 13.728 17.3756 13.728C21.7251 13.728 25.2511 17.254 25.2511 21.6035C25.2511 25.9531 21.7251 29.4791 17.3756 29.4791C13.026 29.4791 9.5 25.9531 9.5 21.6035ZM17.3756 12.228C12.1976 12.228 8 16.4255 8 21.6035C8 26.7815 12.1976 30.9791 17.3756 30.9791C19.6946 30.9791 21.8169 30.1371 23.4537 28.7423L27.4834 32.772L28.5441 31.7114L24.5143 27.6816C25.9092 26.0449 26.7511 23.9225 26.7511 21.6035C26.7511 16.4255 22.5535 12.228 17.3756 12.228Z" fill="#5329FF"/>
<path d="M37.8729 28.5V17.22H39.5369V22.084H45.8729V17.22H47.5369V28.5H45.8729V23.476H39.5369V28.5H37.8729ZM53.2254 28.644C52.5108 28.644 51.8868 28.4787 51.3534 28.148C50.8201 27.8173 50.4041 27.3373 50.1054 26.708C49.8174 26.0787 49.6734 25.332 49.6734 24.468C49.6734 23.5933 49.8174 22.8467 50.1054 22.228C50.4041 21.6093 50.8201 21.1347 51.3534 20.804C51.8868 20.4627 52.5108 20.292 53.2254 20.292C53.9294 20.292 54.5428 20.468 55.0654 20.82C55.5881 21.172 55.9348 21.652 56.1054 22.26H55.9294L56.0894 20.436H57.6574C57.6254 20.7667 57.5934 21.0973 57.5614 21.428C57.5401 21.748 57.5294 22.0627 57.5294 22.372V28.5H55.9134V26.708H56.0894C55.9188 27.3053 55.5668 27.78 55.0334 28.132C54.5108 28.4733 53.9081 28.644 53.2254 28.644ZM53.6254 27.38C54.3188 27.38 54.8734 27.1347 55.2894 26.644C55.7161 26.1533 55.9294 25.428 55.9294 24.468C55.9294 23.508 55.7161 22.788 55.2894 22.308C54.8734 21.8173 54.3188 21.572 53.6254 21.572C52.9214 21.572 52.3561 21.8173 51.9294 22.308C51.5134 22.788 51.3054 23.508 51.3054 24.468C51.3054 25.428 51.5134 26.1533 51.9294 26.644C52.3454 27.1347 52.9108 27.38 53.6254 27.38ZM60.0109 28.5V20.436H61.4829V26.948H61.0349L65.8989 20.436H67.2429V28.5H65.7869V21.972H66.2509L61.3549 28.5H60.0109ZM63.6269 19.7C63.1363 19.7 62.6989 19.62 62.3149 19.46C61.9309 19.3 61.6003 19.0653 61.3229 18.756C61.0563 18.436 60.8536 18.052 60.7149 17.604L61.6109 17.284C61.7923 17.7853 62.0483 18.1587 62.3789 18.404C62.7096 18.6387 63.1256 18.756 63.6269 18.756C64.1389 18.756 64.5549 18.644 64.8749 18.42C65.2056 18.196 65.4883 17.8227 65.7229 17.3L66.5549 17.604C66.2989 18.3293 65.9149 18.8627 65.4029 19.204C64.9016 19.5347 64.3096 19.7 63.6269 19.7ZM71.3952 28.5V21.732H68.5472V20.436H75.8592V21.732H72.9952V28.5H71.3952ZM77.1515 28.5V20.436H78.6235V26.948H78.1755L83.0395 20.436H84.3835V28.5H82.9275V21.972H83.3915L78.4955 28.5H77.1515Z" fill="#5329FF"/>
</svg>
