<svg width="149" height="36" viewBox="0 0 149 36" fill="none" xmlns="http://www.w3.org/2000/svg">
<rect width="149" height="36" rx="8" fill="#00B69B" fillOpacity="0.1"/>
<circle cx="20" cy="18" r="4" fill="#00B69B"/>
<path d="M35.2 24L37.152 20.32L37.184 20.864L31.936 12.72H33.552L37.92 19.536H37.6L41.2 12.72H42.752L36.768 24H35.2ZM46.4083 24.144C45.6083 24.144 44.9149 23.9787 44.3283 23.648C43.7416 23.3067 43.2829 22.8213 42.9523 22.192C42.6323 21.552 42.4723 20.7947 42.4723 19.92C42.4723 19.056 42.6376 18.32 42.9683 17.712C43.2989 17.0933 43.7576 16.624 44.3443 16.304C44.9309 15.9733 45.6189 15.808 46.4083 15.808C46.9309 15.808 47.4376 15.8987 47.9283 16.08C48.4189 16.2507 48.8189 16.5013 49.1283 16.832L48.6323 17.856C48.3229 17.5573 47.9816 17.3387 47.6083 17.2C47.2349 17.0507 46.8669 16.976 46.5043 16.976C45.7149 16.976 45.0963 17.232 44.6483 17.744C44.2003 18.2453 43.9763 18.976 43.9763 19.936C43.9763 20.9067 44.2003 21.6533 44.6483 22.176C45.0963 22.6987 45.7149 22.96 46.5043 22.96C46.8563 22.96 47.2189 22.8907 47.5923 22.752C47.9656 22.6133 48.3123 22.3947 48.6323 22.096L49.1283 23.104C48.8083 23.4453 48.3976 23.7067 47.8963 23.888C47.4056 24.0587 46.9096 24.144 46.4083 24.144ZM52.7573 24V17.12H49.8613V15.952H57.0933V17.12H54.1973V24H52.7573ZM61.5399 24.144C60.8359 24.144 60.2172 23.9787 59.6839 23.648C59.1505 23.3173 58.7345 22.8373 58.4359 22.208C58.1372 21.5787 57.9879 20.832 57.9879 19.968C57.9879 19.104 58.1372 18.3627 58.4359 17.744C58.7345 17.1147 59.1505 16.6347 59.6839 16.304C60.2172 15.9733 60.8359 15.808 61.5399 15.808C62.2545 15.808 62.8732 15.9893 63.3959 16.352C63.9292 16.704 64.2812 17.1893 64.4519 17.808H64.2599L64.4359 15.952H65.8439C65.8119 16.272 65.7799 16.592 65.7479 16.912C65.7265 17.232 65.7159 17.5467 65.7159 17.856V24H64.2599V22.16H64.4359C64.2652 22.768 63.9132 23.2533 63.3799 23.616C62.8572 23.968 62.2439 24.144 61.5399 24.144ZM61.8759 22.992C62.6012 22.992 63.1825 22.736 63.6199 22.224C64.0572 21.712 64.2759 20.96 64.2759 19.968C64.2759 18.976 64.0572 18.2293 63.6199 17.728C63.1825 17.2267 62.6012 16.976 61.8759 16.976C61.1505 16.976 60.5639 17.2267 60.1159 17.728C59.6785 18.2293 59.4599 18.976 59.4599 19.968C59.4599 20.96 59.6785 21.712 60.1159 22.224C60.5532 22.736 61.1399 22.992 61.8759 22.992ZM68.2793 24V15.952H69.7193V19.28H73.9753V15.952H75.4153V24H73.9753V20.432H69.7193V24H68.2793ZM81.3443 24.144C80.5549 24.144 79.8723 23.9787 79.2963 23.648C78.7203 23.3067 78.2723 22.8267 77.9523 22.208C77.6323 21.5787 77.4723 20.832 77.4723 19.968C77.4723 19.1147 77.6323 18.3787 77.9523 17.76C78.2723 17.1307 78.7203 16.6507 79.2963 16.32C79.8723 15.9787 80.5549 15.808 81.3443 15.808C82.1336 15.808 82.8163 15.9787 83.3923 16.32C83.9789 16.6507 84.4269 17.1307 84.7362 17.76C85.0563 18.3787 85.2163 19.1147 85.2163 19.968C85.2163 20.832 85.0563 21.5787 84.7362 22.208C84.4269 22.8267 83.9789 23.3067 83.3923 23.648C82.8163 23.9787 82.1336 24.144 81.3443 24.144ZM81.3443 22.992C82.0696 22.992 82.6509 22.736 83.0883 22.224C83.5256 21.712 83.7443 20.96 83.7443 19.968C83.7443 18.976 83.5256 18.2293 83.0883 17.728C82.6509 17.2267 82.0696 16.976 81.3443 16.976C80.6083 16.976 80.0216 17.2267 79.5843 17.728C79.1576 18.2293 78.9443 18.976 78.9443 19.968C78.9443 20.96 79.1576 21.712 79.5843 22.224C80.0216 22.736 80.6083 22.992 81.3443 22.992ZM87.2949 24V15.952H91.2629C92.2122 15.952 92.9162 16.1333 93.3749 16.496C93.8442 16.8587 94.0789 17.3813 94.0789 18.064C94.0789 18.576 93.9029 19.008 93.5509 19.36C93.1989 19.7013 92.7402 19.9093 92.1749 19.984V19.776C92.8469 19.7973 93.3749 19.9947 93.7589 20.368C94.1535 20.7307 94.3509 21.2 94.3509 21.776C94.3509 22.4587 94.0895 23.0027 93.5669 23.408C93.0549 23.8027 92.3349 24 91.4069 24H87.2949ZM88.6709 23.04H91.3109C91.8549 23.04 92.2709 22.928 92.5589 22.704C92.8469 22.4693 92.9909 22.1387 92.9909 21.712C92.9909 21.2747 92.8469 20.944 92.5589 20.72C92.2709 20.496 91.8549 20.384 91.3109 20.384H88.6709V23.04ZM88.6709 19.424H91.1349C91.6362 19.424 92.0255 19.312 92.3029 19.088C92.5802 18.864 92.7189 18.5547 92.7189 18.16C92.7189 17.7547 92.5802 17.4453 92.3029 17.232C92.0255 17.0187 91.6362 16.912 91.1349 16.912H88.6709V19.424ZM95.9265 24.192L95.4145 23.056C95.7878 22.8853 96.0972 22.6827 96.3425 22.448C96.5985 22.2027 96.7958 21.8933 96.9345 21.52C97.0838 21.1467 97.1905 20.6827 97.2545 20.128C97.3185 19.5733 97.3505 18.9013 97.3505 18.112V15.952H103.286V24H101.847V17.088H98.6945V18.144C98.6945 19.3813 98.5985 20.4053 98.4065 21.216C98.2252 22.016 97.9318 22.6507 97.5265 23.12C97.1318 23.5893 96.5985 23.9467 95.9265 24.192ZM109.491 24.144C108.211 24.144 107.198 23.776 106.451 23.04C105.715 22.304 105.347 21.2907 105.347 20C105.347 19.1467 105.507 18.4107 105.827 17.792C106.158 17.1627 106.611 16.6773 107.187 16.336C107.763 15.984 108.435 15.808 109.203 15.808C109.939 15.808 110.563 15.968 111.075 16.288C111.587 16.5973 111.977 17.04 112.243 17.616C112.51 18.192 112.643 18.8747 112.643 19.664V20.144H106.483V19.28H111.651L111.379 19.488C111.379 18.656 111.193 18.0107 110.819 17.552C110.457 17.0933 109.918 16.864 109.203 16.864C108.425 16.864 107.822 17.136 107.395 17.68C106.969 18.2133 106.755 18.944 106.755 19.872V20.016C106.755 20.9973 106.995 21.7387 107.475 22.24C107.966 22.7413 108.643 22.992 109.507 22.992C109.987 22.992 110.435 22.9227 110.851 22.784C111.267 22.6453 111.667 22.416 112.051 22.096L112.531 23.104C112.169 23.4347 111.715 23.6907 111.171 23.872C110.638 24.0533 110.078 24.144 109.491 24.144ZM114.67 24V15.952H116.11V19.28H120.366V15.952H121.806V24H120.366V20.432H116.11V24H114.67ZM127.415 24.144C126.711 24.144 126.092 23.9787 125.559 23.648C125.026 23.3173 124.61 22.8373 124.311 22.208C124.012 21.5787 123.863 20.832 123.863 19.968C123.863 19.104 124.012 18.3627 124.311 17.744C124.61 17.1147 125.026 16.6347 125.559 16.304C126.092 15.9733 126.711 15.808 127.415 15.808C128.13 15.808 128.748 15.9893 129.271 16.352C129.804 16.704 130.156 17.1893 130.327 17.808H130.135L130.311 15.952H131.719C131.687 16.272 131.655 16.592 131.623 16.912C131.602 17.232 131.591 17.5467 131.591 17.856V24H130.135V22.16H130.311C130.14 22.768 129.788 23.2533 129.255 23.616C128.732 23.968 128.119 24.144 127.415 24.144ZM127.751 22.992C128.476 22.992 129.058 22.736 129.495 22.224C129.932 21.712 130.151 20.96 130.151 19.968C130.151 18.976 129.932 18.2293 129.495 17.728C129.058 17.2267 128.476 16.976 127.751 16.976C127.026 16.976 126.439 17.2267 125.991 17.728C125.554 18.2293 125.335 18.976 125.335 19.968C125.335 20.96 125.554 21.712 125.991 22.224C126.428 22.736 127.015 22.992 127.751 22.992Z" fill="#1A1A1A"/>
</svg>
