<svg width="60" height="60" viewBox="0 0 60 60" fill="none" xmlns="http://www.w3.org/2000/svg">
<rect width="60" height="60" rx="8.10135" fill="#0069FF"/>
<path d="M30.0416 39.24C28.6816 39.24 27.4256 39.072 26.2736 38.736C25.1376 38.384 24.1616 37.904 23.3456 37.296L24.3056 34.872C24.8496 35.256 25.4176 35.584 26.0096 35.856C26.6016 36.112 27.2336 36.312 27.9056 36.456C28.5776 36.584 29.2896 36.648 30.0416 36.648C31.3056 36.648 32.2176 36.44 32.7776 36.024C33.3376 35.608 33.6176 35.064 33.6176 34.392C33.6176 33.8 33.4256 33.352 33.0416 33.048C32.6576 32.728 31.9696 32.464 30.9776 32.256L28.2656 31.704C26.7136 31.384 25.5536 30.848 24.7856 30.096C24.0176 29.344 23.6336 28.336 23.6336 27.072C23.6336 26.016 23.9136 25.096 24.4736 24.312C25.0336 23.528 25.8176 22.92 26.8256 22.488C27.8336 22.056 29.0096 21.84 30.3536 21.84C31.5536 21.84 32.6656 22.016 33.6896 22.368C34.7136 22.704 35.5696 23.192 36.2576 23.832L35.2976 26.136C34.6096 25.56 33.8576 25.136 33.0416 24.864C32.2256 24.576 31.3136 24.432 30.3056 24.432C29.1696 24.432 28.2816 24.656 27.6416 25.104C27.0176 25.536 26.7056 26.136 26.7056 26.904C26.7056 27.496 26.8976 27.968 27.2816 28.32C27.6816 28.672 28.3536 28.944 29.2976 29.136L31.9856 29.664C33.5856 29.984 34.7696 30.512 35.5376 31.248C36.3056 31.968 36.6896 32.944 36.6896 34.176C36.6896 35.184 36.4176 36.072 35.8736 36.84C35.3296 37.592 34.5616 38.184 33.5696 38.616C32.5776 39.032 31.4016 39.24 30.0416 39.24Z" fill="white"/>
</svg>
