<svg width="252" height="45" viewBox="0 0 252 45" fill="none" xmlns="http://www.w3.org/2000/svg">
<rect width="252" height="45" rx="8" fill="#5329FF" fill-opacity="0.05"/>
<path d="M17 31.5C12.0293 31.5 8 27.4707 8 22.5C8 17.5293 12.0293 13.5 17 13.5C21.9707 13.5 26 17.5293 26 22.5C26 27.4707 21.9707 31.5 17 31.5ZM17 29.7C18.9096 29.7 20.7409 28.9414 22.0912 27.5912C23.4414 26.2409 24.2 24.4096 24.2 22.5C24.2 20.5904 23.4414 18.7591 22.0912 17.4088C20.7409 16.0586 18.9096 15.3 17 15.3C15.0904 15.3 13.2591 16.0586 11.9088 17.4088C10.5586 18.7591 9.8 20.5904 9.8 22.5C9.8 24.4096 10.5586 26.2409 11.9088 27.5912C13.2591 28.9414 15.0904 29.7 17 29.7ZM17 18.045L21.455 22.5L17 26.955L12.545 22.5L17 18.045ZM17 20.5911L15.0911 22.5L17 24.4089L18.9089 22.5L17 20.5911Z" fill="#5329FF"/>
<path d="M37.136 28.5L39.104 24.788L39.12 25.364L33.888 17.22H35.68L39.936 23.908H39.6L43.12 17.22H44.848L38.864 28.5H37.136ZM48.5191 28.644C47.7085 28.644 46.9991 28.4787 46.3911 28.148C45.7938 27.8067 45.3298 27.3213 44.9991 26.692C44.6791 26.052 44.5191 25.2947 44.5191 24.42C44.5191 23.556 44.6845 22.8147 45.0151 22.196C45.3458 21.5773 45.8098 21.108 46.4071 20.788C47.0045 20.4573 47.7085 20.292 48.5191 20.292C49.0418 20.292 49.5485 20.3827 50.0391 20.564C50.5298 20.7347 50.9351 20.98 51.2551 21.3L50.7271 22.436C50.4285 22.148 50.0925 21.9347 49.7191 21.796C49.3458 21.6467 48.9831 21.572 48.6311 21.572C47.8631 21.572 47.2605 21.8173 46.8231 22.308C46.3858 22.7987 46.1671 23.508 46.1671 24.436C46.1671 25.3747 46.3858 26.0947 46.8231 26.596C47.2605 27.0973 47.8631 27.348 48.6311 27.348C48.9725 27.348 49.3298 27.284 49.7031 27.156C50.0765 27.0173 50.4178 26.7987 50.7271 26.5L51.2551 27.636C50.9245 27.956 50.5085 28.2067 50.0071 28.388C49.5165 28.5587 49.0205 28.644 48.5191 28.644ZM54.819 28.5V21.732H51.971V20.436H59.283V21.732H56.419V28.5H54.819ZM63.7274 28.644C63.0127 28.644 62.3887 28.4787 61.8554 28.148C61.322 27.8173 60.906 27.3373 60.6074 26.708C60.3194 26.0787 60.1754 25.332 60.1754 24.468C60.1754 23.5933 60.3194 22.8467 60.6074 22.228C60.906 21.6093 61.322 21.1347 61.8554 20.804C62.3887 20.4627 63.0127 20.292 63.7274 20.292C64.4314 20.292 65.0447 20.468 65.5674 20.82C66.09 21.172 66.4367 21.652 66.6074 22.26H66.4314L66.5914 20.436H68.1594C68.1274 20.7667 68.0954 21.0973 68.0634 21.428C68.042 21.748 68.0314 22.0627 68.0314 22.372V28.5H66.4154V26.708H66.5914C66.4207 27.3053 66.0687 27.78 65.5354 28.132C65.0127 28.4733 64.41 28.644 63.7274 28.644ZM64.1274 27.38C64.8207 27.38 65.3754 27.1347 65.7914 26.644C66.218 26.1533 66.4314 25.428 66.4314 24.468C66.4314 23.508 66.218 22.788 65.7914 22.308C65.3754 21.8173 64.8207 21.572 64.1274 21.572C63.4234 21.572 62.858 21.8173 62.4314 22.308C62.0154 22.788 61.8074 23.508 61.8074 24.468C61.8074 25.428 62.0154 26.1533 62.4314 26.644C62.8474 27.1347 63.4127 27.38 64.1274 27.38ZM70.5129 28.5V20.436H72.1129V23.716H76.1929V20.436H77.7929V28.5H76.1929V24.98H72.1129V28.5H70.5129ZM83.7516 28.644C82.9516 28.644 82.2583 28.4787 81.6716 28.148C81.085 27.8067 80.6316 27.3267 80.3116 26.708C79.9916 26.0787 79.8316 25.332 79.8316 24.468C79.8316 23.604 79.9916 22.8627 80.3116 22.244C80.6316 21.6147 81.085 21.1347 81.6716 20.804C82.2583 20.4627 82.9516 20.292 83.7516 20.292C84.5516 20.292 85.245 20.4627 85.8316 20.804C86.429 21.1347 86.8876 21.6147 87.2076 22.244C87.5383 22.8627 87.7036 23.604 87.7036 24.468C87.7036 25.332 87.5383 26.0787 87.2076 26.708C86.8876 27.3267 86.429 27.8067 85.8316 28.148C85.245 28.4787 84.5516 28.644 83.7516 28.644ZM83.7516 27.38C84.4556 27.38 85.0156 27.1347 85.4316 26.644C85.8476 26.1533 86.0556 25.428 86.0556 24.468C86.0556 23.508 85.8476 22.788 85.4316 22.308C85.0156 21.8173 84.4556 21.572 83.7516 21.572C83.0583 21.572 82.5036 21.8173 82.0876 22.308C81.6716 22.788 81.4636 23.508 81.4636 24.468C81.4636 25.428 81.6663 26.1533 82.0716 26.644C82.4876 27.1347 83.0476 27.38 83.7516 27.38ZM89.7004 28.5V20.436H93.7644C94.735 20.436 95.4497 20.6227 95.9084 20.996C96.3777 21.3587 96.6124 21.876 96.6124 22.548C96.6124 23.0707 96.4364 23.5027 96.0844 23.844C95.743 24.1853 95.2897 24.3933 94.7244 24.468V24.26C95.3964 24.292 95.9244 24.4893 96.3084 24.852C96.6924 25.2147 96.8844 25.684 96.8844 26.26C96.8844 26.9533 96.623 27.5027 96.1004 27.908C95.5884 28.3027 94.8577 28.5 93.9084 28.5H89.7004ZM91.2204 27.46H93.7804C94.303 27.46 94.703 27.3533 94.9804 27.14C95.2577 26.916 95.3964 26.596 95.3964 26.18C95.3964 25.764 95.2577 25.4493 94.9804 25.236C94.703 25.0227 94.303 24.916 93.7804 24.916H91.2204V27.46ZM91.2204 23.876H93.6044C94.0844 23.876 94.4577 23.7693 94.7244 23.556C94.991 23.3427 95.1244 23.0493 95.1244 22.676C95.1244 22.292 94.991 21.9987 94.7244 21.796C94.4577 21.5827 94.0844 21.476 93.6044 21.476H91.2204V23.876ZM98.7941 28.5V20.436H100.266V26.948H99.8181L104.682 20.436H106.026V28.5H104.57V21.972H105.034L100.138 28.5H98.7941ZM110.178 28.5V21.732H107.33V20.436H114.642V21.732H111.778V28.5H110.178ZM115.935 28.5V20.436H117.535V23.252H119.823C120.879 23.252 121.673 23.476 122.207 23.924C122.74 24.3613 123.007 25.0013 123.007 25.844C123.007 26.388 122.884 26.8627 122.639 27.268C122.393 27.6627 122.031 27.9667 121.551 28.18C121.081 28.3933 120.505 28.5 119.823 28.5H115.935ZM117.535 27.396H119.647C120.244 27.396 120.703 27.2733 121.023 27.028C121.343 26.772 121.503 26.3827 121.503 25.86C121.503 25.3373 121.343 24.9587 121.023 24.724C120.713 24.4787 120.255 24.356 119.647 24.356H117.535V27.396ZM132.691 28.644C131.88 28.644 131.171 28.4787 130.563 28.148C129.966 27.8067 129.502 27.3213 129.171 26.692C128.851 26.052 128.691 25.2947 128.691 24.42C128.691 23.556 128.856 22.8147 129.187 22.196C129.518 21.5773 129.982 21.108 130.579 20.788C131.176 20.4573 131.88 20.292 132.691 20.292C133.214 20.292 133.72 20.3827 134.211 20.564C134.702 20.7347 135.107 20.98 135.427 21.3L134.899 22.436C134.6 22.148 134.264 21.9347 133.891 21.796C133.518 21.6467 133.155 21.572 132.803 21.572C132.035 21.572 131.432 21.8173 130.995 22.308C130.558 22.7987 130.339 23.508 130.339 24.436C130.339 25.3747 130.558 26.0947 130.995 26.596C131.432 27.0973 132.035 27.348 132.803 27.348C133.144 27.348 133.502 27.284 133.875 27.156C134.248 27.0173 134.59 26.7987 134.899 26.5L135.427 27.636C135.096 27.956 134.68 28.2067 134.179 28.388C133.688 28.5587 133.192 28.644 132.691 28.644ZM141.055 28.644C139.754 28.644 138.73 28.276 137.983 27.54C137.236 26.804 136.863 25.7853 136.863 24.484C136.863 23.6413 137.023 22.9053 137.343 22.276C137.674 21.6467 138.127 21.1613 138.703 20.82C139.29 20.468 139.967 20.292 140.735 20.292C141.492 20.292 142.127 20.452 142.639 20.772C143.151 21.092 143.54 21.5453 143.807 22.132C144.074 22.708 144.207 23.3907 144.207 24.18V24.692H138.127V23.764H143.103L142.831 23.972C142.831 23.172 142.65 22.5533 142.287 22.116C141.935 21.668 141.423 21.444 140.751 21.444C140.004 21.444 139.428 21.7053 139.023 22.228C138.618 22.74 138.415 23.4493 138.415 24.356V24.516C138.415 25.4653 138.644 26.18 139.103 26.66C139.572 27.14 140.234 27.38 141.087 27.38C141.556 27.38 141.994 27.316 142.399 27.188C142.815 27.0493 143.21 26.8253 143.583 26.516L144.111 27.62C143.738 27.9507 143.284 28.2067 142.751 28.388C142.218 28.5587 141.652 28.644 141.055 28.644ZM149.769 28.644C148.553 28.644 147.582 28.2653 146.857 27.508C146.142 26.7507 145.785 25.636 145.785 24.164V22.772C145.785 21.268 146.105 20.0573 146.745 19.14C147.395 18.2227 148.398 17.604 149.753 17.284L152.697 16.58L153.161 17.876L149.865 18.644C149.289 18.772 148.814 19.012 148.441 19.364C148.067 19.716 147.785 20.132 147.593 20.612C147.411 21.092 147.321 21.604 147.321 22.148V22.884H147.081C147.209 22.3933 147.411 21.9773 147.689 21.636C147.977 21.284 148.329 21.012 148.745 20.82C149.171 20.6173 149.646 20.516 150.169 20.516C150.862 20.516 151.47 20.676 151.993 20.996C152.515 21.316 152.921 21.78 153.209 22.388C153.507 22.9853 153.657 23.6947 153.657 24.516C153.657 25.3693 153.497 26.1053 153.177 26.724C152.857 27.3427 152.403 27.8173 151.817 28.148C151.241 28.4787 150.558 28.644 149.769 28.644ZM149.721 27.396C150.446 27.396 151.011 27.1613 151.417 26.692C151.833 26.212 152.041 25.508 152.041 24.58C152.041 23.6627 151.833 22.964 151.417 22.484C151.001 22.004 150.435 21.764 149.721 21.764C149.006 21.764 148.441 22.004 148.025 22.484C147.609 22.9533 147.401 23.6253 147.401 24.5C147.401 25.46 147.603 26.1853 148.009 26.676C148.425 27.156 148.995 27.396 149.721 27.396ZM159.461 28.644C158.16 28.644 157.136 28.276 156.389 27.54C155.642 26.804 155.269 25.7853 155.269 24.484C155.269 23.6413 155.429 22.9053 155.749 22.276C156.08 21.6467 156.533 21.1613 157.109 20.82C157.696 20.468 158.373 20.292 159.141 20.292C159.898 20.292 160.533 20.452 161.045 20.772C161.557 21.092 161.946 21.5453 162.213 22.132C162.48 22.708 162.613 23.3907 162.613 24.18V24.692H156.533V23.764H161.509L161.237 23.972C161.237 23.172 161.056 22.5533 160.693 22.116C160.341 21.668 159.829 21.444 159.157 21.444C158.41 21.444 157.834 21.7053 157.429 22.228C157.024 22.74 156.821 23.4493 156.821 24.356V24.516C156.821 25.4653 157.05 26.18 157.509 26.66C157.978 27.14 158.64 27.38 159.493 27.38C159.962 27.38 160.4 27.316 160.805 27.188C161.221 27.0493 161.616 26.8253 161.989 26.516L162.517 27.62C162.144 27.9507 161.69 28.2067 161.157 28.388C160.624 28.5587 160.058 28.644 159.461 28.644ZM168.191 28.644C167.38 28.644 166.671 28.4787 166.063 28.148C165.466 27.8067 165.002 27.3213 164.671 26.692C164.351 26.052 164.191 25.2947 164.191 24.42C164.191 23.556 164.356 22.8147 164.687 22.196C165.018 21.5773 165.482 21.108 166.079 20.788C166.676 20.4573 167.38 20.292 168.191 20.292C168.714 20.292 169.22 20.3827 169.711 20.564C170.202 20.7347 170.607 20.98 170.927 21.3L170.399 22.436C170.1 22.148 169.764 21.9347 169.391 21.796C169.018 21.6467 168.655 21.572 168.303 21.572C167.535 21.572 166.932 21.8173 166.495 22.308C166.058 22.7987 165.839 23.508 165.839 24.436C165.839 25.3747 166.058 26.0947 166.495 26.596C166.932 27.0973 167.535 27.348 168.303 27.348C168.644 27.348 169.002 27.284 169.375 27.156C169.748 27.0173 170.09 26.7987 170.399 26.5L170.927 27.636C170.596 27.956 170.18 28.2067 169.679 28.388C169.188 28.5587 168.692 28.644 168.191 28.644ZM174.491 28.5V21.732H171.643V20.436H178.955V21.732H176.091V28.5H174.491ZM183.72 28.644C182.92 28.644 182.227 28.4787 181.64 28.148C181.054 27.8067 180.6 27.3267 180.28 26.708C179.96 26.0787 179.8 25.332 179.8 24.468C179.8 23.604 179.96 22.8627 180.28 22.244C180.6 21.6147 181.054 21.1347 181.64 20.804C182.227 20.4627 182.92 20.292 183.72 20.292C184.52 20.292 185.214 20.4627 185.8 20.804C186.398 21.1347 186.856 21.6147 187.176 22.244C187.507 22.8627 187.672 23.604 187.672 24.468C187.672 25.332 187.507 26.0787 187.176 26.708C186.856 27.3267 186.398 27.8067 185.8 28.148C185.214 28.4787 184.52 28.644 183.72 28.644ZM183.72 27.38C184.424 27.38 184.984 27.1347 185.4 26.644C185.816 26.1533 186.024 25.428 186.024 24.468C186.024 23.508 185.816 22.788 185.4 22.308C184.984 21.8173 184.424 21.572 183.72 21.572C183.027 21.572 182.472 21.8173 182.056 22.308C181.64 22.788 181.432 23.508 181.432 24.468C181.432 25.428 181.635 26.1533 182.04 26.644C182.456 27.1347 183.016 27.38 183.72 27.38ZM189.669 28.5V20.436H191.141V26.948H190.693L195.557 20.436H196.901V28.5H195.445V21.972H195.909L191.013 28.5H189.669ZM199.325 28.5V20.436H200.669L203.581 25.588L206.493 20.436H207.837V28.5H206.413V22.244H206.765L203.965 27.204H203.197L200.397 22.244H200.749V28.5H199.325ZM213.783 28.644C212.983 28.644 212.29 28.4787 211.703 28.148C211.116 27.8067 210.663 27.3267 210.343 26.708C210.023 26.0787 209.863 25.332 209.863 24.468C209.863 23.604 210.023 22.8627 210.343 22.244C210.663 21.6147 211.116 21.1347 211.703 20.804C212.29 20.4627 212.983 20.292 213.783 20.292C214.583 20.292 215.276 20.4627 215.863 20.804C216.46 21.1347 216.919 21.6147 217.239 22.244C217.57 22.8627 217.735 23.604 217.735 24.468C217.735 25.332 217.57 26.0787 217.239 26.708C216.919 27.3267 216.46 27.8067 215.863 28.148C215.276 28.4787 214.583 28.644 213.783 28.644ZM213.783 27.38C214.487 27.38 215.047 27.1347 215.463 26.644C215.879 26.1533 216.087 25.428 216.087 24.468C216.087 23.508 215.879 22.788 215.463 22.308C215.047 21.8173 214.487 21.572 213.783 21.572C213.09 21.572 212.535 21.8173 212.119 22.308C211.703 22.788 211.495 23.508 211.495 24.468C211.495 25.428 211.698 26.1533 212.103 26.644C212.519 27.1347 213.079 27.38 213.783 27.38ZM223.332 28.644C222.521 28.644 221.812 28.4787 221.204 28.148C220.606 27.8067 220.142 27.3213 219.812 26.692C219.492 26.052 219.332 25.2947 219.332 24.42C219.332 23.556 219.497 22.8147 219.828 22.196C220.158 21.5773 220.622 21.108 221.22 20.788C221.817 20.4573 222.521 20.292 223.332 20.292C223.854 20.292 224.361 20.3827 224.852 20.564C225.342 20.7347 225.748 20.98 226.068 21.3L225.54 22.436C225.241 22.148 224.905 21.9347 224.532 21.796C224.158 21.6467 223.796 21.572 223.444 21.572C222.676 21.572 222.073 21.8173 221.636 22.308C221.198 22.7987 220.98 23.508 220.98 24.436C220.98 25.3747 221.198 26.0947 221.636 26.596C222.073 27.0973 222.676 27.348 223.444 27.348C223.785 27.348 224.142 27.284 224.516 27.156C224.889 27.0173 225.23 26.7987 225.54 26.5L226.068 27.636C225.737 27.956 225.321 28.2067 224.82 28.388C224.329 28.5587 223.833 28.644 223.332 28.644ZM229.632 28.5V21.732H226.784V20.436H234.096V21.732H231.232V28.5H229.632ZM235.388 28.5V20.436H236.988V23.252H239.276C240.332 23.252 241.127 23.476 241.66 23.924C242.193 24.3613 242.46 25.0013 242.46 25.844C242.46 26.388 242.337 26.8627 242.092 27.268C241.847 27.6627 241.484 27.9667 241.004 28.18C240.535 28.3933 239.959 28.5 239.276 28.5H235.388ZM236.988 27.396H239.1C239.697 27.396 240.156 27.2733 240.476 27.028C240.796 26.772 240.956 26.3827 240.956 25.86C240.956 25.3373 240.796 24.9587 240.476 24.724C240.167 24.4787 239.708 24.356 239.1 24.356H236.988V27.396Z" fill="#5329FF"/>
</svg>
