<svg width="20" height="21" viewBox="0 0 20 21" fill="none" xmlns="http://www.w3.org/2000/svg">
<path fill-rule="evenodd" clip-rule="evenodd" d="M7.6932 1.42356C9.1278 0.626554 10.8722 0.626555 12.3068 1.42356L17.3068 4.20134C18.8148 5.03909 19.75 6.62854 19.75 8.35358V12.6464C19.75 14.3714 18.8148 15.9608 17.3068 16.7986L12.3068 19.5764C10.8722 20.3734 9.1278 20.3734 7.69319 19.5764L2.6932 16.7986C1.18524 15.9608 0.25 14.3714 0.25 12.6464V8.35358C0.25 6.62854 1.18524 5.03909 2.6932 4.20133L7.6932 1.42356ZM11.5783 2.7348C10.5968 2.18948 9.40323 2.18948 8.42166 2.73479L7.58408 3.20011L14.0247 7.23063L16.7526 5.61661C16.6958 5.58028 16.6377 5.54557 16.5783 5.51257L11.5783 2.7348ZM17.8157 6.7305L12.3791 9.94716L12.377 9.94841C11.8682 10.2533 11.3162 10.4552 10.75 10.5538V18.5865C11.0359 18.5187 11.3148 18.4116 11.5783 18.2651L16.5783 15.4874C17.6101 14.9142 18.25 13.8266 18.25 12.6464V8.35358C18.25 7.77346 18.0954 7.21574 17.8157 6.7305ZM9.25 10.5745C8.6811 10.4916 8.12352 10.305 7.60637 10.0141L2.08819 6.90999C1.86939 7.35123 1.75 7.84375 1.75 8.35358V12.6464C1.75 13.8266 2.3899 14.9142 3.42166 15.4874L8.42166 18.2651C8.68523 18.4116 8.96408 18.5187 9.25 18.5865V10.5745ZM3.06799 5.74011L8.34178 8.70671C9.35948 9.27918 10.6061 9.26171 11.6073 8.66093L11.6113 8.65856L12.5713 8.09058L6.08622 4.03226L3.42166 5.51257C3.298 5.58127 3.17997 5.65736 3.06799 5.74011Z" fill="#363538"/>
</svg>
