<svg width="21" height="21" viewBox="0 0 21 21" fill="none" xmlns="http://www.w3.org/2000/svg">
<path fill-rule="evenodd" clip-rule="evenodd" d="M1.95593 9.60359C1.95593 5.25404 5.48194 1.72803 9.8315 1.72803C14.1811 1.72803 17.7071 5.25404 17.7071 9.60359C17.7071 13.9531 14.1811 17.4792 9.8315 17.4792C5.48194 17.4792 1.95593 13.9531 1.95593 9.60359ZM9.8315 0.228027C4.65352 0.228027 0.455933 4.42561 0.455933 9.60359C0.455933 14.7816 4.65352 18.9792 9.8315 18.9792C12.1505 18.9792 14.2729 18.1372 15.9096 16.7423L19.9394 20.7721L21 19.7114L16.9702 15.6817C18.3651 14.0449 19.2071 11.9226 19.2071 9.60359C19.2071 4.42561 15.0095 0.228027 9.8315 0.228027Z" fill="#5329FF"/>
</svg>
